<svg width="72" height="72" viewBox="0 0 72 72" fill="none" xmlns="http://www.w3.org/2000/svg">
<g clip-path="url(#clip0_4024_8013)">
<path d="M61.278 26.6272H58.6507L60.4969 24.7811C64.1537 21.1242 64.1537 15.1598 60.4969 11.5029C56.8401 7.84614 50.8756 7.84614 47.2188 11.5029L45.3726 13.3491V10.7219C45.3726 5.53845 41.1833 1.3491 35.9999 1.3491C30.8164 1.3136 26.6271 5.53845 26.6271 10.7219V13.3491L24.7809 11.5029C21.0886 7.81064 15.1596 7.81064 11.4673 11.4674C7.81052 15.1597 7.81052 21.0887 11.4673 24.7455L13.3135 26.5917H10.6863C5.53833 26.6272 1.31348 30.8166 1.31348 36C1.31348 41.1834 5.50282 45.3728 10.6863 45.3728H13.3135L11.4673 47.2189C7.81052 50.8757 7.81052 56.8402 11.4673 60.497C15.1241 64.1538 21.0886 64.1538 24.7454 60.497L26.5916 58.6509V61.2781C26.5916 66.4615 30.7809 70.6509 35.9644 70.6509C41.1478 70.6509 45.3371 66.4615 45.3371 61.2781V58.6509L47.1833 60.497C50.8401 64.1538 56.8046 64.1538 60.4614 60.497C64.1182 56.8402 64.1182 50.8757 60.4614 47.2189L58.6152 45.3728H61.2425C66.4259 45.3728 70.6152 41.1834 70.6152 36C70.6862 30.8166 66.4614 26.6272 61.278 26.6272ZM35.9999 42.9231C34.9348 42.9231 33.8697 43.1006 32.9111 43.4556C32.4496 42.5325 31.846 41.6805 31.1005 40.8994C30.3194 40.1183 29.4673 39.5148 28.5442 39.0887C28.8638 38.1302 29.0768 37.0651 29.0768 36C29.0768 34.9349 28.8993 33.8698 28.5442 32.9112C29.4673 32.4497 30.3194 31.8461 31.1005 31.1006C31.8815 30.3195 32.4851 29.4674 32.9111 28.5444C33.8697 28.8639 34.9348 29.0769 35.9999 29.0769C37.065 29.0769 38.13 28.8994 39.0886 28.5444C39.5502 29.4674 40.1537 30.3195 40.8993 31.1006C41.6803 31.8816 42.5324 32.4852 43.4555 32.9112C43.136 33.8698 42.9229 34.9349 42.9229 36C42.9229 37.0651 43.1005 38.1302 43.4555 39.0887C42.5324 39.5503 41.6803 40.1538 40.8993 40.8994C40.1182 41.6805 39.5147 42.5325 39.0886 43.4556C38.13 43.1361 37.1005 42.9231 35.9999 42.9231Z" fill="#FFC41B"/>
<path d="M36 72C30.284 72 25.5976 67.4911 25.2781 61.8462C23.2899 63.6213 20.7692 64.6154 18.1065 64.6154C15.2308 64.6154 12.568 63.5148 10.5444 61.4911C8.52071 59.4675 7.42012 56.7692 7.42012 53.929C7.42012 51.2663 8.3787 48.7101 10.1893 46.7574C4.50888 46.4024 0 41.716 0 36C0 30.284 4.50888 25.5976 10.1538 25.2781C8.3787 23.2899 7.38461 20.7692 7.38461 18.1065C7.38461 15.2308 8.48521 12.568 10.5089 10.5444C12.568 8.52071 15.2663 7.42012 18.1065 7.42012C20.7692 7.42012 23.3254 8.3787 25.2781 10.1893C25.5976 4.50888 30.284 0 36 0C41.716 0 46.4024 4.50888 46.7219 10.1538C50.9112 6.35503 57.4438 6.49704 61.4911 10.5444C65.5385 14.5917 65.6805 21.0888 61.8817 25.3136C67.5266 25.5976 72.0355 30.284 72.0355 36C72.0355 41.716 67.5266 46.4024 61.8817 46.7219C63.6568 48.7101 64.6509 51.2308 64.6509 53.8935C64.6509 56.7692 63.5503 59.432 61.5266 61.4556C59.503 63.4793 56.8047 64.5799 53.9645 64.5799C51.3018 64.5799 48.7456 63.6213 46.7929 61.8107C46.4024 67.4911 41.716 72 36 72ZM26.6272 57.3373C26.8047 57.3373 26.9822 57.3728 27.1243 57.4438C27.6213 57.6568 27.9408 58.1183 27.9408 58.6864V61.3136C27.9408 65.7515 31.5621 69.3728 36 69.3728C40.4379 69.3728 44.0592 65.7515 44.0592 61.3136V58.6864C44.0592 58.1538 44.3787 57.6568 44.8757 57.4438C45.3728 57.2308 45.9408 57.3373 46.3314 57.7278L48.1775 59.574C49.7041 61.1006 51.7278 61.9172 53.8935 61.9172C56.0592 61.9172 58.0828 61.0651 59.6095 59.574C61.1361 58.0473 61.9527 56.0237 61.9527 53.858C61.9527 51.6923 61.1006 49.6686 59.6095 48.142L57.7633 46.2959C57.3728 45.9053 57.2663 45.3373 57.4793 44.8402C57.6923 44.3432 58.1538 44.0237 58.7219 44.0237H61.3491C65.787 44.0237 69.4083 40.4024 69.4083 35.9645C69.4083 31.5266 65.787 27.9053 61.3491 27.9053H58.7219C58.1893 27.9053 57.6923 27.5858 57.4793 27.0888C57.2663 26.5917 57.3728 26.0237 57.7633 25.6331L59.6095 23.787C61.1361 22.2604 61.9882 20.2367 61.9882 18.071C61.9882 15.9053 61.1361 13.8817 59.645 12.355C56.4852 9.19527 51.3728 9.19527 48.2485 12.355L46.4024 14.2012C46.0118 14.5917 45.4438 14.6982 44.9467 14.4852C44.4497 14.2722 44.1302 13.8107 44.1302 13.2426V10.6154C44.1302 6.17751 40.5089 2.55621 36.071 2.55621C31.6331 2.55621 27.9408 6.28402 27.9408 10.7219V13.3491C27.9408 13.8817 27.6213 14.3787 27.1243 14.5917C26.6272 14.8047 26.0592 14.6982 25.6686 14.3077L23.8225 12.426C22.2959 10.8994 20.2722 10.0828 18.1065 10.0828C15.9408 10.0828 13.9527 10.8994 12.426 12.426C9.26627 15.5858 9.26627 20.6982 12.426 23.8225L14.2722 25.6686C14.6627 26.0592 14.7692 26.6272 14.5562 27.1243C14.3432 27.6213 13.8817 27.9408 13.3136 27.9408H10.6864C6.24852 27.9408 2.62722 31.5621 2.62722 36C2.62722 40.4379 6.24852 44.0592 10.6864 44.0592H13.3136C13.8462 44.0592 14.3432 44.3787 14.5562 44.8757C14.7692 45.3728 14.6627 45.9408 14.2722 46.3314L12.426 48.1775C10.8994 49.7041 10.0473 51.7278 10.0473 53.8935C10.0473 56.0592 10.8994 58.0828 12.426 59.6095C15.5858 62.7692 20.6982 62.7692 23.8225 59.6095L25.6686 57.7633C25.9172 57.4793 26.2722 57.3373 26.6272 57.3373ZM39.0888 44.7692C38.9467 44.7692 38.8047 44.7337 38.6627 44.6982C37.8106 44.4142 36.9231 44.2367 36 44.2367C35.1124 44.2367 34.1894 44.3787 33.3373 44.6982C32.6982 44.9112 31.9882 44.6272 31.7041 44.0237C31.3136 43.2071 30.7811 42.4615 30.142 41.8225C29.503 41.1834 28.7574 40.6509 27.9408 40.2604C27.3373 39.9763 27.0533 39.2663 27.2663 38.6272C27.5503 37.7752 27.7278 36.8876 27.7278 35.9645C27.7278 35.0769 27.5858 34.1538 27.2663 33.3018C27.0533 32.6627 27.3373 31.9527 27.9408 31.6686C28.7574 31.2781 29.503 30.7456 30.142 30.1065C30.7811 29.4675 31.3136 28.7219 31.7041 27.9053C31.9882 27.3018 32.6982 27.0177 33.3373 27.2308C35.0414 27.8343 36.9231 27.8343 38.6272 27.2308C39.2663 27.0177 39.9763 27.3018 40.2604 27.9053C40.6509 28.7219 41.1834 29.4675 41.8225 30.1065C42.4615 30.7456 43.2071 31.2781 44.0237 31.6686C44.6272 31.9527 44.9112 32.6627 44.6982 33.3018C44.4142 34.1538 44.2367 35.0414 44.2367 35.9645C44.2367 36.8521 44.3787 37.7752 44.6982 38.6272C44.9112 39.2663 44.6272 39.9763 44.0237 40.2604C43.2071 40.6509 42.4615 41.1834 41.8225 41.8225C41.1834 42.4615 40.6509 43.2071 40.2604 44.0237C40.0473 44.5207 39.5858 44.7692 39.0888 44.7692ZM30.1065 38.4497C30.8166 38.8757 31.4556 39.4083 32.0237 39.9763C32.5917 40.5444 33.1243 41.2189 33.5503 41.8935C35.1479 41.503 36.8166 41.503 38.4142 41.8935C38.8402 41.1834 39.3728 40.5444 39.9408 39.9763C40.5089 39.4083 41.1834 38.8757 41.858 38.4497C41.6805 37.6686 41.574 36.8521 41.574 36C41.574 35.1834 41.6805 34.3669 41.858 33.5503C41.1479 33.1243 40.5089 32.5917 39.9408 32.0237C39.3728 31.4556 38.8402 30.7811 38.4142 30.1065C36.8166 30.497 35.1479 30.497 33.5503 30.1065C33.1243 30.8166 32.5917 31.4556 32.0237 32.0237C31.4556 32.5917 30.7811 33.1243 30.1065 33.5503C30.284 34.3314 30.3905 35.1479 30.3905 36C30.3905 36.8166 30.284 37.6331 30.1065 38.4497Z" fill="#E80213"/>
<path d="M44.7026 53.0096C54.313 48.2044 58.2083 36.5183 53.4032 26.908C48.598 17.2976 36.9119 13.4022 27.3015 18.2074C17.6911 23.0126 13.7958 34.6987 18.6009 44.3091C23.4061 53.9194 35.0922 57.8148 44.7026 53.0096Z" fill="white"/>
<path d="M35.9997 56.3787C24.5322 56.3787 15.2305 47.0414 15.2305 35.6094C15.2305 24.142 24.5677 14.8402 35.9997 14.8402C47.4672 14.8402 56.7689 24.1775 56.7689 35.6094C56.7689 47.0769 47.4672 56.3787 35.9997 56.3787ZM35.9997 17.4674C25.9879 17.4674 17.8577 25.5976 17.8577 35.6094C17.8577 45.6213 25.9879 53.7514 35.9997 53.7514C46.0115 53.7514 54.1417 45.6213 54.1417 35.6094C54.1417 25.5976 46.0115 17.4674 35.9997 17.4674Z" fill="#E80213"/>
<path d="M35.9998 45.0532C30.3548 45.0532 25.4554 41.4319 23.7868 36.071C23.5383 35.2189 23.9998 34.3313 24.8519 34.0828C25.7039 33.8343 26.5915 34.2958 26.84 35.1479C28.0826 39.1597 31.775 41.858 35.9998 41.858C40.2247 41.858 43.917 39.1597 45.1596 35.1479C45.4081 34.2958 46.3312 33.8343 47.1477 34.0828C47.9998 34.3313 48.4613 35.2544 48.2128 36.071C46.5442 41.4319 41.6448 45.0532 35.9998 45.0532Z" fill="#E80213"/>
<path d="M31.2422 30.639C30.3546 30.639 29.6445 31.8461 29.6445 33.3373C29.6445 34.8284 30.3546 36.0355 31.2422 36.0355C32.1297 36.0355 32.8398 34.8284 32.8398 33.3373C32.8398 31.8461 32.1297 30.639 31.2422 30.639Z" fill="#E80213"/>
<path d="M40.7578 36C41.6401 36 42.3554 34.7919 42.3554 33.3017C42.3554 31.8116 41.6401 30.6035 40.7578 30.6035C39.8754 30.6035 39.1602 31.8116 39.1602 33.3017C39.1602 34.7919 39.8754 36 40.7578 36Z" fill="#E80213"/>
</g>
<defs>
<clipPath id="clip0_4024_8013">
<rect width="72" height="72" fill="white"/>
</clipPath>
</defs>
</svg>
