<svg width="71" height="71" viewBox="0 0 71 71" fill="none" xmlns="http://www.w3.org/2000/svg">
<g clip-path="url(#clip0_4024_8024)">
<path d="M52.9809 26.7837C52.9809 26.7837 41.7068 23.8782 39.3581 16.1971C38.3179 12.8241 40.3311 1.46948 30.7683 1.46948C28.6544 1.46948 25.3661 2.10401 23.2522 5.24324C21.7758 7.41398 21.1383 9.95208 21.1047 11.8223L21.0041 20.3049C20.4337 23.7112 16.9441 23.7113 15.4006 23.8114C12.6492 23.9784 8.48849 24.4794 6.07261 25.8486C1.60995 28.3867 1.14019 33.5965 1.6435 36.2014C1.94549 37.771 2.38169 40.1755 4.56269 42.3128C2.41524 42.3128 -0.0677457 48.5245 5.03244 52.2983C5.03244 52.2983 2.31458 58.4431 8.42138 61.6492C8.42138 61.6492 6.91146 69.4304 16.9776 69.5306C19.5948 69.564 25.7352 67.6604 27.5806 66.4248C28.8892 65.5565 29.6945 64.4544 29.8959 63.3524L29.963 63.4859C29.963 63.4859 44.2234 65.8905 53.0816 61.4488L52.9809 26.7837ZM27.1444 59.7456C27.4464 59.4116 27.6813 59.0777 27.8826 58.7103L28.6208 60.4469C28.2182 60.1463 27.7484 59.9126 27.1444 59.7456Z" fill="white"/>
<path d="M68.1142 23.9116H53.8873C53.0485 23.9116 52.3103 24.2789 51.7734 24.8133C48.7536 23.7446 42.3784 20.9059 40.8013 15.7295C40.6336 15.1284 40.5329 13.9929 40.4658 12.7907C40.1303 8.34901 39.5598 0 30.7687 0C28.6213 0 24.6284 0.567733 22.0447 4.40828C20.6019 6.54563 19.6959 9.2841 19.6624 11.8222L19.5617 20.1712C19.2262 21.8076 17.9176 22.2084 15.6024 22.342H15.3339C12.2134 22.5423 7.95209 23.0767 5.36844 24.5795C0.0669264 27.5851 -0.33572 33.6632 0.201142 36.4685C0.469573 37.8377 0.838666 39.8749 2.28148 41.912C1.44264 42.7803 0.805112 44.1496 0.603788 45.7192C0.301804 48.0235 1.00643 50.6618 3.2881 52.7658C2.91901 54.1016 2.54991 56.4727 3.62364 58.8104C4.26116 60.2799 5.36844 61.4821 6.84481 62.4506C6.81125 63.7197 7.01258 65.9238 8.55606 67.794C10.2673 69.8979 13.0858 70.9666 16.911 71C16.9445 71 16.9445 71 16.9781 71C19.9644 71 26.2725 69.0296 28.3528 67.6604C29.4266 66.9591 30.2654 66.0574 30.7687 65.0889C32.3122 65.2893 35.2314 65.5898 38.6874 65.5898C42.6468 65.5898 47.2772 65.1891 51.3372 63.7197C51.8406 64.588 52.7801 65.1891 53.8538 65.1891H68.1142C69.7248 65.1891 70.9998 63.8866 70.9998 62.317V26.7836C70.9998 25.214 69.7248 23.9116 68.1142 23.9116ZM3.48942 46.9882C3.42231 45.6524 3.89207 44.5837 4.26116 44.0828C7.28101 46.5541 12.6496 48.5912 22.3467 48.5912C24.0915 48.5912 25.4001 48.3241 26.4738 47.8231C26.5409 49.5931 26.0712 50.9958 25.0646 51.9976C22.6822 54.3354 17.1458 54.7027 10.2338 53.0329C8.32118 52.5654 6.91192 51.8975 5.93885 51.1627C5.9053 51.1293 5.87175 51.1293 5.83819 51.096C4.02628 49.6933 3.55653 48.0569 3.48942 46.9882ZM6.3415 57.6416C5.87175 56.5729 5.83819 55.4708 5.97241 54.5691C7.01258 55.0701 8.18696 55.5042 9.56267 55.8382C12.6832 56.6063 15.5017 56.9737 18.0182 56.9737C21.7763 56.9737 24.729 56.1388 26.7423 54.469C27.3462 56.072 27.1785 57.4078 26.2389 58.5767C23.756 61.6491 16.2734 62.8514 10.8042 61.048C8.48895 60.3133 7.01258 59.1444 6.3415 57.6416ZM26.7423 65.1891C25.0981 66.2578 19.3269 68.0611 17.0116 68.0611H16.9781C14.0924 68.0277 12.0457 67.3264 10.9048 65.9572C10.368 65.2893 10.0995 64.5546 9.96532 63.8866C11.945 64.5212 14.2267 64.8885 16.5419 64.8885C17.7498 64.8885 18.9913 64.7883 20.1993 64.588C23.2862 64.087 25.8363 63.0183 27.5811 61.4821C28.0173 61.7159 28.42 62.0832 28.4871 62.5842C28.5206 63.4191 27.8831 64.4544 26.7423 65.1891ZM50.9682 60.7474C44.1232 63.4525 34.6274 62.6176 31.3391 62.1834V62.15C31.1378 60.9144 30.4332 59.8457 29.3259 59.111C30.1312 57.508 30.5003 55.0367 28.6884 51.8307C29.3259 50.3946 29.695 48.4911 29.2588 45.9196C30.5003 44.8509 31.2385 43.7488 31.8424 41.4445C32.2115 39.9751 32.1444 38.3387 31.574 36.4017C30.8023 33.7634 29.0239 32.0602 26.4403 31.4925C21.4072 30.3904 16.8103 30.1566 16.609 30.1566C15.8037 30.1232 15.0991 30.7578 15.0655 31.5593C15.032 32.3608 15.6695 33.0621 16.4748 33.0955C16.5083 33.0955 21.0381 33.3293 25.8027 34.3645C27.3127 34.6985 28.2522 35.6336 28.7219 37.2032C29.1246 38.6058 29.2252 39.7413 28.9904 40.6764C28.4871 42.58 28.0844 43.1143 26.7423 44.1496C25.5343 45.0847 24.5277 45.5522 22.3803 45.5522C4.93224 45.5522 3.69074 39.0066 3.12033 35.8674C2.81834 34.1976 2.8519 29.3551 6.84481 27.0842C8.48895 26.1491 11.5759 25.5146 15.5353 25.2474H15.7701C17.4143 25.1472 21.7763 24.9135 22.5145 20.5052C22.5145 20.4384 22.548 20.3382 22.548 20.2714L22.6487 11.8222C22.6822 10.3194 23.1855 7.98166 24.5277 6.01129C26.3732 3.30621 29.2588 2.90546 30.8023 2.90546C36.4058 2.90546 37.144 7.28034 37.5131 12.9911C37.6137 14.4271 37.6808 15.6627 37.9828 16.5644C39.996 23.1769 47.6128 26.4831 51.0017 27.6519V60.7474H50.9682Z" fill="#E80213"/>
</g>
<defs>
<clipPath id="clip0_4024_8024">
<rect width="71" height="71" fill="white"/>
</clipPath>
</defs>
</svg>
