<svg width="77" height="68" viewBox="0 0 77 68" fill="none" xmlns="http://www.w3.org/2000/svg">
<g clip-path="url(#clip0_4024_8028)">
<path d="M38.5001 16.9557C38.5001 16.9557 33.3803 0.0253852 18.9333 4.04551e-05C4.73978 -0.0253043 -2.10354 11.8614 0.583098 26.2826C4.96789 49.9039 38.5001 68.0254 38.5001 68.0254C38.5001 68.0254 72.0324 49.9039 76.4172 26.2826C79.1038 11.8614 72.2352 -0.0253043 58.067 4.04551e-05C43.62 0.0253852 38.5001 16.9557 38.5001 16.9557Z" fill="#E80213"/>
<path d="M38.4998 19.921C38.4998 19.921 34.2671 5.95606 22.3293 5.93071C10.645 5.90537 4.96758 15.7391 7.19799 27.6258C10.8224 47.116 38.4998 62.0694 38.4998 62.0694C38.4998 62.0694 66.1773 47.116 69.8017 27.6258C72.0068 15.7138 66.3547 5.90537 54.645 5.93071C42.7326 5.95606 38.4998 19.921 38.4998 19.921Z" fill="#FFC41B"/>
<path d="M38.4997 23.1145C38.4997 23.1145 35.2302 12.3176 26.0043 12.2923C16.956 12.267 12.5712 19.8704 14.2947 29.0705C17.108 44.1507 38.4997 55.7079 38.4997 55.7079C38.4997 55.7079 59.9168 44.1253 62.7048 29.0705C64.4283 19.8704 60.0435 12.267 50.9951 12.2923C41.7693 12.3176 38.4997 23.1145 38.4997 23.1145Z" fill="#E80213"/>
<path d="M38.5003 25.649C38.5003 25.649 35.9911 17.3359 28.8943 17.3359C21.9243 17.3106 18.5786 23.1652 19.8966 30.2364C22.051 41.8189 38.5003 50.715 38.5003 50.715C38.5003 50.715 54.9496 41.8189 57.104 30.2364C58.422 23.1652 55.051 17.3106 48.1063 17.3359C41.0095 17.3359 38.5003 25.649 38.5003 25.649Z" fill="#FFC41B"/>
<path d="M38.5 28.158C38.5 28.158 36.7258 22.3287 31.7835 22.3287C26.9171 22.3287 24.5599 26.4092 25.4724 31.3515C26.9931 39.4618 38.5 45.6966 38.5 45.6966C38.5 45.6966 50.0323 39.4618 51.5277 31.3515C52.4401 26.4092 50.083 22.3034 45.2166 22.3287C40.2489 22.3287 38.5 28.158 38.5 28.158Z" fill="#E80213"/>
<path d="M38.4999 30.6672C38.4999 30.6672 37.4861 27.3724 34.6727 27.347C31.9101 27.347 30.5667 29.6534 31.099 32.4667C31.9607 37.0794 38.4999 40.6277 38.4999 40.6277C38.4999 40.6277 45.0391 37.0794 45.9008 32.4667C46.4331 29.6534 45.0898 27.3217 42.3271 27.347C39.4884 27.3724 38.4999 30.6672 38.4999 30.6672Z" fill="#FFC41B"/>
</g>
<defs>
<clipPath id="clip0_4024_8028">
<rect width="77" height="68" fill="white"/>
</clipPath>
</defs>
</svg>
