<svg width="160" height="64" viewBox="0 0 160 64" fill="none" xmlns="http://www.w3.org/2000/svg">
<g clip-path="url(#clip0_4383_10696)">
<path d="M41.157 44.5576L40.9961 44.4147V43.4852L41.157 43.3422C42.0266 43.3304 42.5869 43.2857 42.8371 43.2082C43.0874 43.1309 43.3108 42.9759 43.5073 42.7435C43.704 42.5111 44.1 41.7514 44.696 40.4645L46.5727 36.3894L51.4345 25.379C52.3519 23.2224 53.2635 21.0657 54.1691 18.9087H55.3309L62.9631 36.854L63.9819 39.2491C64.2795 39.9283 64.6223 40.6673 65.0096 41.4654C65.3966 42.2641 65.6647 42.7345 65.8139 42.8776C65.9629 43.0205 66.1472 43.1309 66.3681 43.2082C66.5884 43.2857 67.0799 43.3304 67.8426 43.3422L67.9856 43.4852V44.4147L67.8426 44.5576C66.5795 44.4504 65.4413 44.3967 64.4287 44.3967C62.4506 44.4565 60.4723 44.5102 58.4946 44.5576L58.3516 44.4147V43.4852L58.4946 43.3422C59.8289 43.3186 60.6632 43.2618 60.9969 43.1724C61.3303 43.083 61.4974 42.8776 61.4974 42.5558C61.4974 42.2938 61.4139 41.9481 61.2471 41.5191L59.0487 36.0676H48.6998L46.7514 40.6433C46.4056 41.4654 46.2332 42.0675 46.2332 42.4485C46.2332 42.7466 46.394 42.9669 46.7158 43.1098C47.0374 43.2529 47.8477 43.3304 49.1465 43.3422L49.3074 43.4852V44.4147L49.1645 44.5576C47.6273 44.4623 46.2805 44.4147 45.125 44.4147C43.814 44.4147 42.4913 44.4623 41.157 44.5576ZM49.3074 34.5305H58.3516L53.8653 23.7525L49.3074 34.5305Z" fill="white"/>
<path d="M82.426 41.7868L81.8541 43.0737C80.6146 43.8723 79.5095 44.3906 78.5385 44.6287C77.567 44.8672 76.7002 44.9862 75.9378 44.9862C74.5079 44.9862 73.1521 44.7063 71.8715 44.1462C70.5905 43.5863 69.5479 42.639 68.7436 41.3042C67.9392 39.9697 67.5371 38.3611 67.5371 36.4782C67.5371 35.2271 67.6918 34.0981 68.0018 33.0912C68.3116 32.0845 68.6363 31.3367 68.9759 30.848C69.3156 30.3597 69.8902 29.8174 70.7008 29.2214C71.511 28.6259 72.369 28.149 73.2746 27.7916C74.18 27.4341 75.1572 27.2554 76.2059 27.2554C77.6359 27.2554 78.896 27.5921 79.9863 28.2652C81.0765 28.9387 81.8421 29.7995 82.283 30.848C82.7237 31.8968 82.9444 33.0107 82.9444 34.1904C82.9444 34.56 82.9265 34.9175 82.8908 35.2629L82.6941 35.4594C81.8835 35.6382 80.7933 35.7575 79.4232 35.8169C78.0528 35.8766 77.147 35.9063 76.7064 35.9063H70.9689C70.9926 38.3729 71.6124 40.1903 72.8278 41.3578C74.0432 42.5257 75.5326 43.1095 77.2962 43.1095C78.13 43.1095 78.9317 42.9664 79.7003 42.6805C80.4689 42.3945 81.2821 41.9956 82.1401 41.4829L82.426 41.7868ZM70.9689 34.4764C71.1833 34.5121 72.0083 34.554 73.4445 34.6015C74.8802 34.6494 75.9437 34.673 76.6349 34.673C78.2909 34.673 79.2981 34.6433 79.6555 34.5836C79.6672 34.2976 79.6735 34.0775 79.6735 33.9223C79.6735 32.0755 79.2981 30.7021 78.5475 29.8024C77.7967 28.903 76.7717 28.4529 75.4731 28.4529C74.0548 28.4529 72.9498 28.9594 72.1575 29.9722C71.3648 30.9853 70.9689 32.4866 70.9689 34.4764Z" fill="white"/>
<path d="M89.1933 27.3807L89.5329 27.6131C89.4614 28.3044 89.4078 29.5317 89.372 31.2951L90.7126 29.5971C91.1531 29.0373 91.5437 28.6051 91.8834 28.3013C92.223 27.9973 92.6189 27.7622 93.072 27.5952C93.5247 27.4286 93.9894 27.345 94.4661 27.345C94.9903 27.345 95.4849 27.4523 95.9497 27.6667L96.0748 27.917C95.8841 29.502 95.7768 30.8962 95.753 32.0994H94.9487C94.472 31.0035 93.7034 30.455 92.6429 30.455C91.9039 30.455 91.2604 30.6906 90.7126 31.1611C90.1644 31.6319 89.798 32.2217 89.6134 32.9306C89.4283 33.6398 89.3363 34.5364 89.3363 35.6205V37.6045C89.3363 37.962 89.3601 38.8378 89.4078 40.232C89.4551 41.6262 89.5061 42.4305 89.5597 42.6451C89.6134 42.8595 89.6965 43.0174 89.8099 43.1186C89.9231 43.2202 90.0718 43.2884 90.2568 43.3242C90.4415 43.36 91.2905 43.4197 92.8038 43.5029L92.9647 43.646V44.3966L92.8038 44.5575C91.219 44.462 89.5624 44.4145 87.8349 44.4145C86.4645 44.4145 85.0346 44.462 83.5452 44.5575L83.3843 44.3966V43.646L83.5452 43.5029C84.7007 43.4315 85.3531 43.3778 85.5024 43.342C85.6513 43.3064 85.7821 43.232 85.8956 43.1186C86.0087 43.0057 86.0859 42.8327 86.1279 42.6003C86.1696 42.3679 86.2173 41.5994 86.271 40.2946C86.3246 38.9898 86.3514 38.0039 86.3514 37.3365V33.8153C86.3514 33.3388 86.3273 32.6893 86.2798 31.8671C86.2321 31.0449 86.1932 30.5387 86.1637 30.3478C86.1338 30.1573 86.0413 30.0171 85.8867 29.9277C85.7317 29.8384 85.422 29.7937 84.9572 29.7937L83.4558 29.7758L83.2949 29.6329V28.8643L83.438 28.7212C85.7139 28.4475 87.632 28.0006 89.1933 27.3807Z" fill="white"/>
<path d="M96.1758 36.2283C96.1758 34.8104 96.4677 33.4432 97.0516 32.1262C97.6352 30.8095 98.6513 29.6717 100.099 28.7122C101.547 27.7531 103.265 27.2734 105.256 27.2734C107.758 27.2734 109.796 28.0631 111.368 29.6417C112.941 31.2206 113.728 33.2494 113.728 35.7278C113.728 38.4567 112.825 40.7027 111.02 42.4662C109.215 44.23 107.037 45.1116 104.487 45.1116C102.819 45.1116 101.329 44.6618 100.019 43.762C98.7076 42.8627 97.7397 41.7633 97.1141 40.4643C96.4886 39.1656 96.1758 37.7536 96.1758 36.2283ZM99.554 34.9949C99.554 36.6633 99.7684 38.1557 100.197 39.4724C100.626 40.7892 101.306 41.8467 102.235 42.6449C103.164 43.4435 104.225 43.8425 105.417 43.8425C106.822 43.8425 107.984 43.2855 108.902 42.1713C109.82 41.0574 110.278 39.3801 110.278 37.1398C110.278 34.6017 109.78 32.5226 108.786 30.9018C107.791 29.2814 106.358 28.471 104.487 28.471C102.938 28.471 101.728 29.0312 100.859 30.1512C99.9888 31.2714 99.554 32.8858 99.554 34.9949Z" fill="white"/>
<path d="M126.045 20.1781V19.4274L126.187 19.2665C128.463 19.0045 130.381 18.5637 131.943 17.9438L132.282 18.1583C132.151 19.5289 132.086 22.2754 132.086 26.3982V38.1055C132.086 39.3092 132.107 40.3608 132.149 41.2603C132.19 42.16 132.265 42.6934 132.372 42.86C132.479 43.027 132.655 43.1639 132.899 43.2711C133.143 43.3783 133.837 43.4798 134.981 43.575L135.142 43.7179V44.3972L134.981 44.558C133.695 44.4747 132.693 44.4328 131.979 44.4328C131.335 44.4328 130.417 44.4747 129.227 44.558L129.03 44.3614C129.066 43.1938 129.083 42.3774 129.083 41.9126C129.083 41.8534 129.089 41.6268 129.101 41.2335C128.446 41.7103 127.791 42.2405 127.135 42.8242C126.17 43.6822 125.538 44.2184 125.24 44.4328C124.692 44.707 123.911 44.8439 122.899 44.8439C121.255 44.8439 119.857 44.439 118.708 43.6286C117.557 42.8185 116.738 41.7847 116.25 40.5274C115.761 39.2706 115.518 37.9804 115.518 36.6577C115.518 35.3115 115.77 34.0157 116.277 32.7702C116.783 31.5251 117.504 30.6164 118.44 30.0444C119.375 29.4725 120.393 28.8798 121.495 28.266C122.598 27.6526 123.692 27.3455 124.775 27.3455C126.289 27.3455 127.73 27.7209 129.101 28.4715L129.03 24.4857C129.006 23.1037 128.97 22.1413 128.922 21.5991C128.874 21.0571 128.815 20.7354 128.744 20.6339C128.672 20.5327 128.55 20.4583 128.377 20.4104C128.204 20.3629 127.481 20.3389 126.206 20.3389L126.045 20.1781ZM129.101 31.528C128.363 30.694 127.543 30.0566 126.643 29.6155C125.743 29.1748 124.841 28.9542 123.935 28.9542C122.935 28.9542 122.002 29.2255 121.138 29.7674C120.274 30.3096 119.652 31.114 119.271 32.1803C118.889 33.2471 118.699 34.4057 118.699 35.6568C118.699 37.7423 119.226 39.4164 120.28 40.6794C121.335 41.9427 122.66 42.574 124.257 42.574C125.126 42.574 125.899 42.3746 126.572 41.9752C127.245 41.5763 127.799 41.0368 128.235 40.3577C128.669 39.6784 128.922 38.9993 128.994 38.32C129.066 37.6408 129.101 36.3957 129.101 34.5844V31.528Z" fill="white"/>
<path d="M150.03 41.3581L149.458 42.645C148.219 43.4436 147.114 43.9619 146.143 44.2C145.171 44.4385 144.304 44.5575 143.542 44.5575C142.112 44.5575 140.757 44.2776 139.476 43.7175C138.194 43.1576 137.152 42.2103 136.348 40.8755C135.543 39.541 135.141 37.9324 135.141 36.0495C135.141 34.7984 135.296 33.6694 135.605 32.6625C135.915 31.6558 136.24 30.908 136.58 30.4193C136.919 29.931 137.494 29.3886 138.305 28.7927C139.115 28.1972 139.972 27.7203 140.879 27.3629C141.783 27.0054 142.761 26.8267 143.81 26.8267C145.239 26.8267 146.499 27.1634 147.59 27.8365C148.68 28.51 149.446 29.3708 149.887 30.4193C150.327 31.4681 150.548 32.582 150.548 33.7617C150.548 34.1313 150.53 34.4888 150.494 34.8342L150.298 35.0307C149.487 35.2095 148.397 35.3288 147.028 35.3882C145.657 35.4479 144.751 35.4776 144.31 35.4776H138.573C138.597 37.9442 139.217 39.7616 140.432 40.9291C141.647 42.097 143.136 42.6808 144.9 42.6808C145.734 42.6808 146.535 42.5377 147.304 42.2517C148.073 41.9658 148.886 41.5669 149.744 41.0542L150.03 41.3581ZM138.573 34.0477C138.787 34.0834 139.613 34.1253 141.049 34.1728C142.484 34.2207 143.548 34.2442 144.239 34.2442C145.895 34.2442 146.902 34.2146 147.259 34.1549C147.271 33.8689 147.277 33.6488 147.277 33.4936C147.277 31.6468 146.902 30.2734 146.152 29.3737C145.4 28.4742 144.375 28.0242 143.077 28.0242C141.659 28.0242 140.554 28.5307 139.761 29.5435C138.968 30.5566 138.573 32.0579 138.573 34.0477Z" fill="white"/>
<path d="M156.908 27.3805L157.248 27.6129C157.117 29.1739 157.051 31.1579 157.051 33.5649V37.6044C157.051 37.8667 157.075 38.7096 157.122 40.1334C157.17 41.5577 157.221 42.3888 157.274 42.6269C157.328 42.8653 157.409 43.038 157.516 43.1452C157.623 43.2524 157.754 43.3211 157.91 43.3507C158.064 43.3808 158.707 43.4312 159.84 43.5026L160.001 43.6457V44.3964L159.857 44.5573C158.368 44.4618 156.932 44.4142 155.55 44.4142C154.179 44.4142 152.75 44.4618 151.26 44.5573L151.099 44.3964V43.6457L151.26 43.5026C152.416 43.4312 153.068 43.3775 153.217 43.3418C153.367 43.3061 153.497 43.2318 153.61 43.1184C153.724 43.0055 153.801 42.8325 153.843 42.6001C153.885 42.3677 153.932 41.5991 153.986 40.2943C154.039 38.9896 154.067 38.0037 154.067 37.3362V33.8151C154.067 33.3386 154.042 32.6891 153.994 31.8668C153.947 31.0446 153.908 30.5384 153.878 30.3475C153.849 30.157 153.756 30.0168 153.602 29.9275C153.446 29.8381 153.137 29.7934 152.672 29.7934L151.171 29.7756L151.01 29.6326V28.864L151.153 28.7211C153.429 28.4472 155.347 28.0003 156.908 27.3805ZM155.389 19.3909C155.949 19.3909 156.426 19.5875 156.819 19.9807C157.212 20.3739 157.409 20.8508 157.409 21.4106C157.409 21.959 157.212 22.4294 156.819 22.8226C156.426 23.2159 155.949 23.4125 155.389 23.4125C154.841 23.4125 154.367 23.2191 153.968 22.8316C153.569 22.4444 153.369 21.9708 153.369 21.4106C153.369 20.8508 153.569 20.3739 153.968 19.9807C154.367 19.5875 154.841 19.3909 155.389 19.3909Z" fill="white"/>
<path d="M36.308 31.9429C36.3065 31.9319 36.3049 31.9208 36.3017 31.9113C36.2986 31.8892 36.2907 31.8687 36.2828 31.8482L36.2812 31.845L36.2796 31.8419L36.2764 31.8324L36.2702 31.8198L36.2686 31.8166L36.267 31.8151L36.2654 31.8119L31.0727 19.2966C30.9891 19.0961 30.7569 18.9998 30.5564 19.0834L25.6084 21.1312L18.4358 13.9586C18.2812 13.8055 18.0317 13.8055 17.8769 13.9586L10.6981 21.1375L5.73584 19.0834C5.53376 18.9998 5.30325 19.0961 5.21957 19.2966L0.0442132 31.8166C0.0457841 31.8151 0.0473645 31.8134 0.0473645 31.8134C0.0457841 31.8151 0.0442132 31.8198 0.0442132 31.8198C0.039472 31.8277 0.0363112 31.8355 0.0331599 31.8434L0.0315795 31.845C0.0299991 31.8466 0.0299991 31.8482 0.0299991 31.8482C0.0284187 31.8514 0.0284188 31.8544 0.0268383 31.8576C0.023687 31.8656 0.0205262 31.8718 0.0189458 31.8797C0.0173654 31.8814 0.0173654 31.8829 0.0173654 31.8861C0.0126336 31.8971 0.0110533 31.9081 0.0078925 31.9208C0.00631211 31.9271 0.00474119 31.935 0.00474119 31.9429C0.00158039 31.9618 0 31.9808 0 31.9998C0 32.0187 0.00158039 32.0376 0.00474119 32.0566C0.00474119 32.0644 0.00631211 32.0724 0.0078925 32.0786C0.0110533 32.0913 0.0126336 32.1024 0.0173654 32.1134C0.0173654 32.1134 0.0173654 32.1181 0.0189458 32.1198C0.0205262 32.1276 0.023687 32.134 0.0268383 32.1419C0.0284188 32.145 0.0284187 32.1482 0.0299991 32.1513C0.0299991 32.1513 0.0299991 32.1529 0.0315795 32.1544C0.0315795 32.1576 0.0331599 32.1608 0.0331599 32.1608C0.0347308 32.1624 0.0363112 32.1639 0.0363112 32.1671C0.0378916 32.1687 0.039472 32.1735 0.039472 32.1735C0.0410524 32.1765 0.0426329 32.1797 0.0442132 32.1829L5.21957 44.7029C5.28273 44.8545 5.42956 44.946 5.58586 44.946C5.6348 44.946 5.6869 44.9366 5.73584 44.916L10.6981 42.8621L17.8769 50.0409C17.9543 50.1182 18.0553 50.1562 18.1564 50.1562C18.2574 50.1562 18.3585 50.1182 18.4358 50.0409L25.6084 42.8683L30.5564 44.916C30.6069 44.9366 30.6575 44.946 30.708 44.946C30.8627 44.946 31.0095 44.8545 31.0727 44.7029L36.267 32.1845L36.2686 32.1829L36.2702 32.1797C36.2717 32.175 36.2734 32.1703 36.2764 32.1671C36.2781 32.1624 36.2796 32.1576 36.2812 32.1529C36.2891 32.134 36.2955 32.115 36.3002 32.096C36.3002 32.096 36.3017 32.0913 36.3017 32.0882C36.3033 32.0866 36.3033 32.0835 36.3033 32.0803C36.3049 32.0786 36.3049 32.0771 36.3049 32.0739C36.3065 32.0692 36.308 32.0629 36.308 32.0566C36.3112 32.0376 36.3129 32.0187 36.3129 31.9998C36.3129 31.9808 36.3112 31.9618 36.308 31.9429ZM34.235 30.8756L19.1827 24.6472L25.4237 22.0642L34.235 30.8756ZM2.38086 31.6051L18.1517 25.075L33.932 31.6051H2.38086ZM33.932 32.3945L18.1517 38.9245L2.38086 32.3945H33.932ZM18.1564 14.797L24.819 21.4596L18.1517 24.2209H18.1501L11.489 21.4643L18.1564 14.797ZM10.8844 22.069L17.1175 24.6472L2.07772 30.8756L10.8844 22.069ZM5.79899 19.9644L10.095 21.7406L1.51725 30.3183L5.79899 19.9644ZM5.79899 44.0366L1.51725 33.6812L10.095 42.2589L5.79899 44.0366ZM2.07772 33.1238L17.1175 39.3523L10.8844 41.9305L2.07772 33.1238ZM18.1564 49.2025L11.489 42.5352L18.1501 39.7786L24.819 42.54L18.1564 49.2025ZM25.4237 41.9353L19.1827 39.3523L34.235 33.1238L25.4237 41.9353ZM30.4948 44.0351L26.2131 42.2636L34.7908 33.6859L30.4948 44.0351ZM26.2131 21.7359L30.4948 19.9644L34.7908 30.3136L26.2131 21.7359Z" fill="white"/>
</g>
<defs>
<clipPath id="clip0_4383_10696">
<rect width="160" height="64" fill="white"/>
</clipPath>
</defs>
</svg>
