<svg width="160" height="64" viewBox="0 0 160 64" fill="none" xmlns="http://www.w3.org/2000/svg">
<g clip-path="url(#clip0_4383_10582)">
<path d="M38.0132 10.2439L14.4424 52.8035L0 53.7559L23.354 10.2439H38.0132Z" fill="white"/>
<path d="M42.132 20.0189L25.2291 52.0898L17.9414 52.5716L40.1866 11.1184L42.132 20.0189Z" fill="white"/>
<path d="M40.1883 11.1204L47.184 39.9731L40.1883 53.5556L32.9609 24.5857L40.1883 11.1204Z" fill="#CDCDCD"/>
<path d="M70.7991 30.2349H67.9382L66.801 27.2768H61.5942L60.5199 30.2349H57.7305L62.8029 17.2107H65.5837L70.7991 30.2349ZM65.9571 25.0811L64.1619 20.2478L62.4025 25.0811H65.9571Z" fill="white"/>
<path d="M72.2285 30.234V17.2085H74.8578V22.9918L80.1705 17.2085H83.7065L78.8042 22.2822L83.9751 30.234H80.5722L76.9918 24.1216L74.859 26.2988V30.234H72.2285Z" fill="white"/>
<path d="M84.668 25.9965L87.227 25.7476C87.3811 26.6064 87.6939 27.2372 88.1646 27.64C88.6353 28.0429 89.271 28.2437 90.0706 28.2437C90.9171 28.2437 91.5553 28.0651 91.9853 27.7066C92.4153 27.3481 92.6297 26.9291 92.6297 26.4499C92.6297 26.1419 92.5397 25.8794 92.3586 25.6638C92.1775 25.4482 91.862 25.2597 91.4123 25.0996C91.1044 24.9923 90.4021 24.8038 89.3068 24.5315C87.8972 24.1816 86.9079 23.7529 86.3399 23.2428C85.5403 22.5257 85.1411 21.6522 85.1411 20.6222C85.1411 19.9593 85.3296 19.3383 85.7054 18.7605C86.0811 18.1827 86.6233 17.7428 87.3317 17.441C88.039 17.1391 88.894 16.9875 89.8944 16.9875C91.5294 16.9875 92.7602 17.3461 93.5858 18.0631C94.4125 18.7802 94.8462 19.7363 94.8868 20.9326L92.2576 21.0485C92.1454 20.3794 91.904 19.8977 91.5331 19.6045C91.1634 19.3112 90.6078 19.1646 89.8673 19.1646C89.1035 19.1646 88.5046 19.3211 88.0722 19.6353C87.7938 19.8361 87.6545 20.1059 87.6545 20.4435C87.6545 20.7515 87.7852 21.0152 88.045 21.2345C88.3765 21.513 89.1823 21.8038 90.4612 22.1056C91.7401 22.4075 92.6864 22.7203 93.2999 23.0432C93.9135 23.3659 94.3928 23.8071 94.7389 24.3677C95.0852 24.9282 95.2589 25.6194 95.2589 26.4425C95.2589 27.1891 95.0519 27.8877 94.6367 28.5395C94.2215 29.1912 93.635 29.6755 92.8773 29.9921C92.1196 30.3087 91.1745 30.4676 90.0436 30.4676C88.3975 30.4676 87.1322 30.0869 86.25 29.3256C85.3666 28.5629 84.8392 27.454 84.668 25.9965Z" fill="white"/>
<path d="M97.4785 30.234V17.2085H100.108V22.3351H105.26V17.2085H107.889V30.2328H105.26V24.5382H100.108V30.2328H97.4785V30.234Z" fill="white"/>
<path d="M122.354 30.2349H119.493L118.356 27.2768H113.149L112.074 30.2349H109.285L114.358 17.2107H117.139L122.354 30.2349ZM117.512 25.0811L115.716 20.2478L113.957 25.0811H117.512Z" fill="white"/>
<path d="M125.5 30.2349V24.7535L120.73 17.2107H123.813L126.878 22.3633L129.881 17.2107H132.911L128.121 24.772V30.2362H125.5V30.2349Z" fill="white"/>
<path d="M144.291 30.2349H141.431L140.294 27.2768H135.087L134.012 30.2349H131.223L136.295 17.2107H139.077L144.291 30.2349ZM139.45 25.0811L137.655 20.2478L135.895 25.0811H139.45Z" fill="white"/>
<path d="M145.65 30.234V17.2085H149.585L151.949 26.0929L154.284 17.2085H158.23V30.2328H155.787V19.9807L153.202 30.2328H150.669L148.094 19.9807V30.2328H145.65V30.234Z" fill="white"/>
<path d="M57.0117 39.2075C57.0117 36.1778 59.6496 33.6348 62.7409 33.6348C64.3734 33.6348 65.8802 34.326 66.9324 35.4398L65.2531 36.9466C64.6248 36.2246 63.7303 35.7379 62.7409 35.7379C60.936 35.7379 59.397 37.3396 59.397 39.2075C59.397 41.0913 60.936 42.693 62.7409 42.693C63.7303 42.693 64.6248 42.2063 65.2531 41.4843L66.9324 42.9911C65.8802 44.0901 64.3734 44.7961 62.7409 44.7961C59.6484 44.7961 57.0117 42.2372 57.0117 39.2075Z" fill="white"/>
<path d="M67.7031 39.2075C67.7031 36.1778 70.341 33.6348 73.4322 33.6348C76.5568 33.6348 79.1615 36.1778 79.1615 39.2075C79.1615 42.2372 76.5555 44.7961 73.4322 44.7961C70.341 44.7961 67.7031 42.2372 67.7031 39.2075ZM76.7921 39.2075C76.7921 37.3396 75.2533 35.7379 73.4322 35.7379C71.6273 35.7379 70.0885 37.3396 70.0885 39.2075C70.0885 41.0913 71.6273 42.693 73.4322 42.693C75.2545 42.693 76.7921 41.0913 76.7921 39.2075Z" fill="white"/>
<path d="M80.9668 33.824H83.2745L88.4701 40.7938V33.824H90.7938V44.6083H88.4701L83.2745 37.6385V44.6083H80.9668V33.824Z" fill="white"/>
<path d="M92.3164 43.0059L93.6507 41.4203C94.6708 42.2988 95.8327 42.8335 97.1979 42.8335C98.3597 42.8335 98.956 42.3 98.956 41.6248C98.956 40.856 98.3277 40.6206 96.6803 40.2437C94.4048 39.7249 92.787 39.0818 92.787 36.9947C92.787 35.0012 94.4196 33.6348 96.774 33.6348C98.5322 33.6348 99.8973 34.1843 100.996 35.1256L99.7876 36.7901C98.8304 36.0213 97.7474 35.5975 96.7112 35.5975C95.7219 35.5975 95.1255 36.1149 95.1255 36.7594C95.1255 37.5442 95.7686 37.7955 97.4332 38.1725C99.7568 38.69 101.295 39.3812 101.295 41.3747C101.295 43.4311 99.7409 44.7974 97.1029 44.7974C95.2364 44.7961 93.5718 44.1678 92.3164 43.0059Z" fill="white"/>
<path d="M102.941 39.9461V33.824H105.249V39.8525C105.249 41.517 106.316 42.6937 107.824 42.6937C109.315 42.6937 110.383 41.5158 110.383 39.8525V33.824H112.706V39.9461C112.706 42.7873 110.681 44.7968 107.824 44.7968C104.951 44.7968 102.941 42.7873 102.941 39.9461Z" fill="white"/>
<path d="M122.422 42.52V44.6083H114.73V33.824H117.054V42.5211H122.422V42.52Z" fill="white"/>
<path d="M126.393 35.9114H123.033V33.823H132.075V35.9114H128.716V44.6085H126.391V35.9114H126.393Z" fill="white"/>
<path d="M133.662 33.824H135.987V44.6083H133.662V33.824Z" fill="white"/>
<path d="M138.23 33.824H140.538L145.733 40.7938V33.824H148.057V44.6083H145.733L140.538 37.6385V44.6083H138.23V33.824Z" fill="white"/>
<path d="M155.229 38.5484H160.001V42.9911C158.917 44.1209 157.253 44.7961 155.637 44.7961C152.513 44.7961 149.859 42.2372 149.859 39.2075C149.859 36.1778 152.513 33.6348 155.637 33.6348C157.253 33.6348 158.917 34.31 160.001 35.4398L158.321 36.9466C157.678 36.2086 156.625 35.7379 155.637 35.7379C153.799 35.7379 152.246 37.3396 152.246 39.2075C152.246 41.0913 153.799 42.693 155.637 42.693C156.374 42.693 157.127 42.4417 157.739 42.0018V40.3533H155.228V38.5484H155.229Z" fill="white"/>
</g>
<defs>
<clipPath id="clip0_4383_10582">
<rect width="160" height="64" fill="white"/>
</clipPath>
</defs>
</svg>
