<svg width="160" height="64" viewBox="0 0 160 64" fill="none" xmlns="http://www.w3.org/2000/svg">
<g clip-path="url(#clip0_4413_8220)">
<mask id="mask0_4413_8220" style="mask-type:luminance" maskUnits="userSpaceOnUse" x="-1" y="11" width="37" height="42">
<path d="M19.3156 24.7851C19.7072 24.5064 20 24.1104 20.1519 23.6543C20.3037 23.1983 20.3067 22.7058 20.1604 22.248C20.0141 21.7901 19.726 21.3906 19.3379 21.1072C18.9497 20.8237 18.4815 20.6709 18.0008 20.6709C17.5202 20.6709 17.0519 20.8237 16.6638 21.1072C16.2756 21.3906 15.9876 21.7901 15.8412 22.248C15.6949 22.7058 15.6979 23.1983 15.8498 23.6543C16.0016 24.1104 16.2945 24.5064 16.686 24.7851C16.8444 24.8918 16.9736 25.0363 17.0619 25.2055C17.1502 25.3748 17.1948 25.5634 17.1917 25.7543V29.1761C17.1947 29.3682 17.1501 29.558 17.0618 29.7286C16.9736 29.8992 16.8445 30.0453 16.686 30.1538C16.2945 30.4326 16.0016 30.8285 15.8498 31.2846C15.6979 31.7406 15.6949 32.2331 15.8412 32.6909C15.9876 33.1488 16.2756 33.5483 16.6638 33.8317C17.0519 34.1152 17.5202 34.268 18.0008 34.268C18.4815 34.268 18.9497 34.1152 19.3379 33.8317C19.726 33.5483 20.0141 33.1488 20.1604 32.6909C20.3067 32.2331 20.3037 31.7406 20.1519 31.2846C20 30.8285 19.7072 30.4326 19.3156 30.1538C19.1571 30.0453 19.028 29.8992 18.9398 29.7286C18.8515 29.558 18.8069 29.3682 18.8099 29.1761V25.7543C18.8068 25.5634 18.8515 25.3748 18.9398 25.2055C19.0281 25.0363 19.1573 24.8918 19.3156 24.7851ZM18.8099 43.8832V47.305C18.8077 47.4969 18.8526 47.6865 18.9408 47.8569C19.029 48.0274 19.1577 48.1736 19.3156 48.2827C19.7072 48.5614 20 48.9574 20.1519 49.4135C20.3037 49.8695 20.3067 50.362 20.1604 50.8198C20.0141 51.2777 19.726 51.6772 19.3379 51.9606C18.9497 52.2441 18.4815 52.3968 18.0008 52.3968C17.5202 52.3968 17.0519 52.2441 16.6638 51.9606C16.2756 51.6772 15.9876 51.2777 15.8412 50.8198C15.6949 50.362 15.6979 49.8695 15.8498 49.4135C16.0016 48.9574 16.2945 48.5614 16.686 48.2827C16.844 48.1736 16.9727 48.0274 17.0608 47.8569C17.149 47.6865 17.194 47.4969 17.1917 47.305V43.8832C17.1948 43.6923 17.1502 43.5037 17.0619 43.3344C16.9736 43.1652 16.8444 43.0206 16.686 42.914C16.299 42.629 16.0126 42.2283 15.8681 41.7699C15.7236 41.3115 15.7286 40.8191 15.8822 40.3637C16.0359 39.9082 16.3303 39.5134 16.7229 39.2363C17.1156 38.9591 17.5862 38.8139 18.0667 38.8216C18.5473 38.8293 19.013 38.9895 19.3966 39.2791C19.7801 39.5687 20.0618 39.9728 20.2007 40.4329C20.3397 40.893 20.3289 41.3853 20.1698 41.8389C20.0107 42.2924 19.7116 42.6837 19.3156 42.9561C19.1553 43.054 19.0216 43.1897 18.926 43.3513C18.8305 43.513 18.7762 43.6956 18.7678 43.8832H18.8099ZM3.06619 25.7543V29.1761C3.0632 29.3682 3.10782 29.558 3.19606 29.7286C3.2843 29.8992 3.41342 30.0453 3.57188 30.1538C3.96444 30.4319 4.25837 30.8277 4.41113 31.2839C4.5639 31.7401 4.56758 32.233 4.42166 32.6915C4.27573 33.1499 3.98775 33.55 3.59939 33.834C3.21102 34.1179 2.7424 34.271 2.2613 34.271C1.78021 34.271 1.31159 34.1179 0.92322 33.834C0.534853 33.55 0.24688 33.1499 0.100952 32.6915C-0.0449753 32.233 -0.0412898 31.7401 0.111475 31.2839C0.26424 30.8277 0.558163 30.4319 0.950731 30.1538C1.10658 30.0433 1.23325 29.8966 1.31987 29.7263C1.40648 29.556 1.45045 29.3672 1.44799 29.1761V25.7543C1.45052 25.5645 1.40653 25.3769 1.31985 25.2079C1.23317 25.0389 1.10644 24.8938 0.950731 24.7851C0.558163 24.507 0.26424 24.1112 0.111475 23.655C-0.0412898 23.1988 -0.0449753 22.7059 0.100952 22.2474C0.24688 21.789 0.534853 21.3889 0.92322 21.1049C1.31159 20.821 1.78021 20.6679 2.2613 20.6679C2.7424 20.6679 3.21102 20.821 3.59939 21.1049C3.98775 21.3889 4.27573 21.789 4.42166 22.2474C4.56758 22.7059 4.5639 23.1988 4.41113 23.655C4.25837 24.1112 3.96444 24.507 3.57188 24.7851C3.41354 24.8918 3.28435 25.0363 3.19604 25.2055C3.10773 25.3748 3.06309 25.5634 3.06619 25.7543ZM34.4694 25.7543V29.1761C34.4669 29.3672 34.5109 29.556 34.5975 29.7263C34.6841 29.8966 34.8108 30.0433 34.9666 30.1538C35.264 30.3609 35.5068 30.637 35.6741 30.9585C35.8415 31.2799 35.9284 31.6372 35.9274 31.9996C35.9276 32.3885 35.8278 32.7709 35.6375 33.11C35.4473 33.4492 35.1729 33.7337 34.841 33.9363C34.509 34.1388 34.1304 34.2525 33.7418 34.2665C33.3532 34.2805 32.9675 34.1943 32.6218 34.0161C32.2761 33.838 31.982 33.5739 31.7678 33.2493C31.5537 32.9247 31.4266 32.5505 31.3989 32.1626C31.3711 31.7747 31.4436 31.3861 31.6094 31.0344C31.7752 30.6826 32.0287 30.3793 32.3455 30.1538C32.5039 30.0453 32.633 29.8992 32.7213 29.7286C32.8095 29.558 32.8541 29.3682 32.8512 29.1761V25.7543C32.8543 25.5634 32.8096 25.3748 32.7213 25.2055C32.633 25.0363 32.5038 24.8918 32.3455 24.7851C31.9503 24.5067 31.654 24.1097 31.4996 23.6516C31.3453 23.1935 31.3407 22.6982 31.4868 22.2374C31.6328 21.7766 31.9217 21.3742 32.3118 21.0887C32.7018 20.8031 33.1727 20.6492 33.656 20.6492C34.1394 20.6492 34.6103 20.8031 35.0003 21.0887C35.3903 21.3742 35.6793 21.7766 35.8253 22.2374C35.9714 22.6982 35.9668 23.1935 35.8124 23.6516C35.658 24.1097 35.3618 24.5067 34.9666 24.7851C34.814 24.8957 34.6906 25.0416 34.6069 25.2105C34.5232 25.3793 34.4818 25.5659 34.4862 25.7543H34.4694ZM10.1121 20.6975C10.5605 20.6975 10.9988 20.5645 11.3717 20.3154C11.7445 20.0663 12.0351 19.7122 12.2067 19.2979C12.3783 18.8836 12.4232 18.4278 12.3357 17.988C12.2482 17.5482 12.0323 17.1442 11.7152 16.8272C11.3982 16.5101 10.9942 16.2942 10.5544 16.2067C10.1146 16.1192 9.65876 16.1641 9.24449 16.3357C8.83022 16.5073 8.47614 16.7979 8.22702 17.1707C7.9779 17.5436 7.84493 17.9819 7.84493 18.4303C7.85376 19.0265 8.09625 19.5954 8.52024 20.0147C8.94422 20.4339 9.51583 20.67 10.1121 20.6722V20.6975ZM12.3793 36.5592C12.3793 36.1108 12.2463 35.6724 11.9972 35.2996C11.7481 34.9268 11.394 34.6362 10.9797 34.4646C10.5654 34.293 10.1096 34.2481 9.66979 34.3356C9.23001 34.4231 8.82604 34.639 8.50897 34.9561C8.1919 35.2731 7.97598 35.6771 7.8885 36.1169C7.80102 36.5567 7.84591 37.0125 8.01751 37.4268C8.18911 37.8411 8.4797 38.1951 8.85253 38.4443C9.22536 38.6934 9.6637 38.8263 10.1121 38.8263C10.412 38.8264 10.7089 38.7669 10.9856 38.6514C11.2623 38.5359 11.5134 38.3666 11.7242 38.1534C11.9351 37.9402 12.1016 37.6873 12.214 37.4093C12.3264 37.1313 12.3826 36.8337 12.3793 36.5339V36.5592ZM2.26552 43.3522C2.71428 43.3539 3.15343 43.2224 3.52737 42.9743C3.90132 42.7262 4.19321 42.3727 4.3661 41.9585C4.53899 41.5444 4.58509 41.0883 4.49857 40.648C4.41204 40.2076 4.19679 39.8029 3.88006 39.4849C3.56333 39.167 3.15937 38.9503 2.71936 38.8621C2.27934 38.7739 1.82306 38.8184 1.4083 38.9897C0.993537 39.161 0.638955 39.4516 0.389461 39.8246C0.139968 40.1977 0.0067858 40.6363 0.0067827 41.0851C0.0112166 41.6797 0.249992 42.2487 0.671288 42.6684C1.09258 43.0881 1.66241 43.3248 2.25709 43.327L2.26552 43.3522ZM10.1205 47.8866C10.5689 47.8866 11.0073 47.7536 11.3801 47.5045C11.7529 47.2554 12.0435 46.9013 12.2151 46.487C12.3867 46.0727 12.4316 45.6169 12.3441 45.1771C12.2566 44.7373 12.0407 44.3334 11.7237 44.0163C11.4066 43.6992 11.0026 43.4833 10.5628 43.3958C10.123 43.3083 9.66719 43.3532 9.25292 43.5248C8.83865 43.6964 8.48457 43.987 8.23545 44.3598C7.98633 44.7327 7.85336 45.171 7.85336 45.6194C7.86 46.2149 8.10063 46.7838 8.52327 47.2033C8.94591 47.6227 9.51662 47.8591 10.1121 47.8613L10.1205 47.8866ZM25.8137 47.8866C26.2603 47.8832 26.6959 47.748 27.066 47.498C27.436 47.248 27.724 46.8942 27.8937 46.4812C28.0635 46.0681 28.1074 45.6141 28.0201 45.1761C27.9327 44.7381 27.718 44.3357 27.4028 44.0193C27.0875 43.7029 26.6859 43.4867 26.2483 43.3977C25.8106 43.3088 25.3564 43.3511 24.9427 43.5193C24.529 43.6875 24.1742 43.9741 23.9228 44.3433C23.6714 44.7124 23.5347 45.1476 23.5297 45.5941C23.5285 45.8929 23.5867 46.1889 23.7008 46.465C23.8148 46.7411 23.9825 46.9919 24.1942 47.2027C24.4058 47.4136 24.6572 47.5804 24.9337 47.6934C25.2103 47.8065 25.5065 47.8635 25.8053 47.8613L25.8137 47.8866ZM25.8137 34.292C25.3653 34.292 24.9269 34.425 24.5541 34.6741C24.1813 34.9232 23.8907 35.2773 23.7191 35.6916C23.5475 36.1058 23.5026 36.5617 23.5901 37.0015C23.6776 37.4413 23.8935 37.8452 24.2106 38.1623C24.5276 38.4794 24.9316 38.6953 25.3714 38.7828C25.8112 38.8703 26.267 38.8254 26.6813 38.6538C27.0956 38.4822 27.4496 38.1916 27.6988 37.8188C27.9479 37.4459 28.0808 37.0076 28.0808 36.5592C28.0853 36.2583 28.0297 35.9596 27.9171 35.6805C27.8046 35.4014 27.6374 35.1477 27.4254 34.9341C27.2134 34.7206 26.9609 34.5515 26.6827 34.4369C26.4045 34.3223 26.1061 34.2645 25.8053 34.2667L25.8137 34.292ZM33.6434 43.327C34.0918 43.327 34.5301 43.194 34.903 42.9449C35.2758 42.6957 35.5664 42.3417 35.738 41.9274C35.9096 41.5131 35.9545 41.0573 35.867 40.6175C35.7795 40.1777 35.5636 39.7737 35.2465 39.4567C34.9295 39.1396 34.5255 38.9237 34.0857 38.8362C33.6459 38.7487 33.1901 38.7936 32.7758 38.9652C32.3615 39.1368 32.0074 39.4274 31.7583 39.8002C31.5092 40.1731 31.3762 40.6114 31.3762 41.0598C31.3762 41.6611 31.6151 42.2377 32.0403 42.6629C32.4654 43.0881 33.0421 43.327 33.6434 43.327ZM25.8053 20.6722C26.2533 20.6705 26.6908 20.5361 27.0625 20.286C27.4342 20.0359 27.7235 19.6812 27.8938 19.2668C28.0641 18.8524 28.1078 18.3968 28.0194 17.9576C27.931 17.5183 27.7144 17.1152 27.397 16.7989C27.0796 16.4827 26.6756 16.2676 26.236 16.1808C25.7965 16.094 25.3411 16.1394 24.9273 16.3112C24.5135 16.4831 24.1599 16.7737 23.9112 17.1463C23.6624 17.519 23.5297 17.957 23.5297 18.405C23.5297 18.7035 23.5886 18.999 23.703 19.2746C23.8175 19.5502 23.9853 19.8005 24.1967 20.0111C24.4081 20.2218 24.659 20.3886 24.9351 20.502C25.2111 20.6155 25.5068 20.6733 25.8053 20.6722ZM10.1121 29.7324C10.5605 29.7324 10.9988 29.5994 11.3717 29.3503C11.7445 29.1012 12.0351 28.7471 12.2067 28.3328C12.3783 27.9186 12.4232 27.4627 12.3357 27.0229C12.2482 26.5832 12.0323 26.1792 11.7152 25.8621C11.3982 25.545 10.9942 25.3291 10.5544 25.2416C10.1146 25.1542 9.65876 25.1991 9.24449 25.3707C8.83022 25.5423 8.47614 25.8328 8.22702 26.2057C7.9779 26.5785 7.84493 27.0168 7.84493 27.4652C7.84493 28.0665 8.08379 28.6432 8.50897 29.0684C8.93415 29.4935 9.51081 29.7324 10.1121 29.7324ZM25.8053 29.7324C26.2533 29.7307 26.6908 29.5964 27.0625 29.3462C27.4342 29.0961 27.7235 28.7414 27.8938 28.327C28.0641 27.9126 28.1078 27.457 28.0194 27.0178C27.931 26.5786 27.7144 26.1754 27.397 25.8592C27.0796 25.5429 26.6756 25.3278 26.236 25.241C25.7965 25.1542 25.3411 25.1996 24.9273 25.3715C24.5135 25.5433 24.1599 25.8339 23.9112 26.2066C23.6624 26.5792 23.5297 27.0172 23.5297 27.4652C23.5285 27.764 23.5867 28.06 23.7008 28.3361C23.8148 28.6122 23.9825 28.863 24.1942 29.0739C24.4058 29.2847 24.6572 29.4515 24.9337 29.5645C25.2103 29.6776 25.5065 29.7346 25.8053 29.7324ZM17.9587 16.1378C18.4071 16.1378 18.8454 16.0049 19.2182 15.7558C19.5911 15.5066 19.8817 15.1526 20.0533 14.7383C20.2249 14.324 20.2698 13.8682 20.1823 13.4284C20.0948 12.9886 19.8789 12.5846 19.5618 12.2676C19.2447 11.9505 18.8408 11.7346 18.401 11.6471C17.9612 11.5596 17.5053 11.6045 17.0911 11.7761C16.6768 11.9477 16.3227 12.2383 16.0736 12.6111C15.8245 12.9839 15.6915 13.4223 15.6915 13.8707C15.6904 14.1687 15.7483 14.464 15.8618 14.7396C15.9754 15.0152 16.1423 15.2655 16.3531 15.4763C16.5638 15.687 16.8142 15.854 17.0898 15.9675C17.3653 16.0811 17.6606 16.139 17.9587 16.1378Z" fill="white"/>
</mask>
<g mask="url(#mask0_4413_8220)">
<path d="M35.9272 11.6035H-0.00183105V52.3872H35.9272V11.6035Z" fill="#1A1A1A"/>
</g>
<mask id="mask1_4413_8220" style="mask-type:luminance" maskUnits="userSpaceOnUse" x="43" y="21" width="118" height="22">
<path d="M160 41.7171V34.3762C160 29.9852 157.371 27.5242 154.101 27.5242C153.232 27.5385 152.375 27.7323 151.585 28.0934C150.794 28.4546 150.087 28.9752 149.507 29.6228L149.28 27.718H146.195V41.7171H149.625V34.5785C149.593 34.0855 149.661 33.5912 149.825 33.1251C149.988 32.6589 150.244 32.2305 150.577 31.8655C150.91 31.5004 151.313 31.2062 151.762 31.0004C152.211 30.7947 152.697 30.6815 153.191 30.6678C155.407 30.6678 156.562 32.286 156.562 34.4099V41.7171H160ZM132.752 33.1036C132.989 32.2678 133.508 31.5399 134.221 31.0436C134.934 30.5473 135.797 30.3133 136.663 30.3813C138.644 30.3813 140.034 31.2915 140.287 33.1036H132.752ZM143.599 35.9691C144.139 30.2127 141.223 27.3219 136.545 27.3219C132.011 27.3219 129.12 30.3813 129.12 34.6375C129.12 39.1128 131.985 42.0879 136.798 42.0879C139.019 42.137 141.172 41.3245 142.807 39.8208L140.599 37.6379C139.544 38.4994 138.219 38.9619 136.857 38.9443C134.421 38.9443 132.921 37.6969 132.693 35.9691H143.599ZM112.028 21.8857V41.6918H115.264L115.492 39.7618C115.981 40.4955 116.654 41.0885 117.443 41.4817C118.233 41.875 119.112 42.0549 119.992 42.0037C124.097 42.0037 127.19 39.2814 127.19 34.6965C127.19 29.8756 124.156 27.3809 120.076 27.3809C118.602 27.3809 116.309 28.2237 115.492 29.6228V21.8857H112.028ZM119.765 30.6173C120.3 30.6012 120.832 30.6966 121.328 30.8974C121.825 31.0981 122.274 31.3999 122.647 31.7835C123.02 32.1671 123.31 32.6242 123.497 33.1257C123.684 33.6272 123.765 34.1621 123.734 34.6965C123.734 35.7605 123.312 36.7809 122.559 37.5332C121.807 38.2856 120.786 38.7083 119.722 38.7083C118.658 38.7083 117.638 38.2856 116.886 37.5332C116.133 36.7809 115.711 35.7605 115.711 34.6965C115.701 34.1609 115.8 33.6289 116.001 33.1324C116.202 32.6358 116.501 32.1849 116.881 31.8065C117.26 31.4281 117.711 31.13 118.208 30.93C118.705 30.7301 119.237 30.6323 119.773 30.6426L119.765 30.6173ZM101.83 30.474C107.274 30.474 107.274 38.9443 101.83 38.9443C100.706 38.9443 99.6291 38.4981 98.8349 37.7038C98.0406 36.9096 97.5944 35.8323 97.5944 34.7091C97.5944 33.5859 98.0406 32.5087 98.8349 31.7144C99.6291 30.9202 100.706 30.474 101.83 30.474ZM105.968 29.6312C105.48 28.9062 104.815 28.3176 104.037 27.9209C103.258 27.5243 102.391 27.3326 101.518 27.364C97.4385 27.364 94.2358 29.8925 94.2358 34.6796C94.2358 39.4668 97.3036 42.1301 101.433 42.0964C102.993 42.0964 105.176 41.2536 105.968 39.6354L106.136 41.675H109.398V27.7854H106.128L105.968 29.6312ZM82.7146 27.7854V41.7508H86.1701V34.3846C86.1225 33.9124 86.1796 33.4355 86.3374 32.9878C86.4952 32.5402 86.7497 32.1328 87.0829 31.7948C87.4161 31.4568 87.8197 31.1964 88.2651 31.0322C88.7104 30.868 89.1865 30.804 89.6593 30.8448C90.1195 30.8203 90.58 30.8874 91.014 31.0422C91.448 31.197 91.847 31.4364 92.1878 31.7466L93.747 28.7462C92.7557 27.8685 91.472 27.3935 90.1482 27.4146C89.3707 27.3378 88.5874 27.4832 87.8892 27.8338C87.191 28.1843 86.6066 28.7258 86.2038 29.3952L85.9004 27.7854H82.7146ZM65.8583 27.7854V35.1179C65.8583 39.4584 68.2941 41.9784 71.64 41.9784C72.5326 41.9883 73.4168 41.806 74.2326 41.4439C75.0485 41.0818 75.7768 40.5484 76.3682 39.8798L76.5958 41.7508H79.6805V27.7854H76.2586V34.9072C76.2917 35.4019 76.2246 35.8982 76.0612 36.3664C75.8979 36.8346 75.6417 37.2649 75.308 37.6317C74.9743 37.9984 74.57 38.294 74.1193 38.5007C73.6686 38.7075 73.1808 38.821 72.6851 38.8347C70.4769 38.8347 69.3139 37.2165 69.3139 35.0926V27.7854H65.8583ZM57.9528 34.5279H50.5613L54.2444 26.0998L57.9528 34.5279ZM61.1217 41.7508H65.2094L56.284 21.8857H52.1879L43.3047 41.7171H47.3586L49.0442 37.975H59.4108L61.1217 41.7508Z" fill="white"/>
</mask>
<g mask="url(#mask1_4413_8220)">
<path d="M160.007 21.8521H43.3114V42.1638H160.007V21.8521Z" fill="#1A1A1A"/>
</g>
</g>
<defs>
<clipPath id="clip0_4413_8220">
<rect width="160" height="64" fill="white"/>
</clipPath>
</defs>
</svg>
