<svg width="160" height="64" viewBox="0 0 160 64" fill="none" xmlns="http://www.w3.org/2000/svg">
<g clip-path="url(#clip0_4413_8121)">
<path d="M24.8195 15.9565H22.1282V42.3861H24.8195V15.9565Z" fill="#1A1A1A"/>
<path d="M4.55276 24.3803L2.90771 26.5103L23.825 42.6653L25.4701 40.5354L4.55276 24.3803Z" fill="#1A1A1A"/>
<path d="M42.6318 24.3827L21.7117 40.5342L23.3563 42.6644L44.2765 26.513L42.6318 24.3827Z" fill="#1A1A1A"/>
<path d="M32.7591 17.1926L22.2542 41.4448L24.7237 42.5145L35.2286 18.2623L32.7591 17.1926Z" fill="#1A1A1A"/>
<path d="M14.2877 17.193L11.8181 18.2627L22.323 42.5149L24.7926 41.4452L14.2877 17.193Z" fill="#1A1A1A"/>
<path d="M0.661702 32.8335L-0.0012207 35.4419L25.614 41.9521L26.2769 39.3437L0.661702 32.8335Z" fill="#1A1A1A"/>
<path d="M46.5244 32.8287L20.9092 39.3389L21.5721 41.9472L47.1873 35.437L46.5244 32.8287Z" fill="#1A1A1A"/>
<path d="M47.079 39.353H0.102783V45.4768H47.079V39.353Z" fill="#1A1A1A"/>
<path d="M21.1831 37.2847H26.0001V48.0436L23.4921 45.6677L21.2188 47.9768C21.2188 47.9768 21.1831 37.928 21.1831 37.2847Z" fill="#1A1A1A"/>
<path d="M24.8195 15.9565H22.1282V42.3861H24.8195V15.9565Z" fill="#1A1A1A"/>
<path d="M4.55276 24.3803L2.90771 26.5103L23.825 42.6653L25.4701 40.5354L4.55276 24.3803Z" fill="#1A1A1A"/>
<path d="M42.6318 24.3827L21.7117 40.5342L23.3563 42.6644L44.2765 26.513L42.6318 24.3827Z" fill="#1A1A1A"/>
<path d="M32.7591 17.1926L22.2542 41.4448L24.7237 42.5145L35.2286 18.2623L32.7591 17.1926Z" fill="#1A1A1A"/>
<path d="M14.2877 17.193L11.8181 18.2627L22.323 42.5149L24.7926 41.4452L14.2877 17.193Z" fill="#1A1A1A"/>
<path d="M0.661702 32.8335L-0.0012207 35.4419L25.614 41.9521L26.2769 39.3437L0.661702 32.8335Z" fill="#1A1A1A"/>
<path d="M46.5244 32.8287L20.9092 39.3389L21.5721 41.9472L47.1873 35.437L46.5244 32.8287Z" fill="#1A1A1A"/>
<path d="M21.1831 37.2847H26.0001V48.0436L23.4921 45.6677L21.2188 47.9768C21.2188 47.9768 21.1831 37.928 21.1831 37.2847Z" fill="#1A1A1A"/>
<path d="M24.8195 15.9565H22.1282V42.3861H24.8195V15.9565Z" fill="#767676"/>
<path d="M4.55276 24.3803L2.90771 26.5103L23.825 42.6653L25.4701 40.5354L4.55276 24.3803Z" fill="#767676"/>
<path d="M42.6318 24.3827L21.7117 40.5342L23.3563 42.6644L44.2765 26.513L42.6318 24.3827Z" fill="#767676"/>
<path d="M32.7591 17.1926L22.2542 41.4448L24.7237 42.5145L35.2286 18.2623L32.7591 17.1926Z" fill="#1A1A1A"/>
<path d="M14.2877 17.193L11.8181 18.2627L22.323 42.5149L24.7926 41.4452L14.2877 17.193Z" fill="#1A1A1A"/>
<path d="M0.661702 32.8335L-0.0012207 35.4419L25.614 41.9521L26.2769 39.3437L0.661702 32.8335Z" fill="#1A1A1A"/>
<path d="M46.5244 32.8287L20.9092 39.3389L21.5721 41.9472L47.1873 35.437L46.5244 32.8287Z" fill="#1A1A1A"/>
<path d="M21.1831 37.2847H26.0001V48.0436L23.4921 45.6677L21.2188 47.9768C21.2188 47.9768 21.1831 37.928 21.1831 37.2847Z" fill="#1A1A1A"/>
<path d="M55.4138 26.7886H58.9939V34.3574C59.3684 33.7436 59.8967 33.2759 60.5788 32.9512C61.261 32.628 62.0193 32.4648 62.8552 32.4648C63.9631 32.4648 64.9731 32.7336 65.8853 33.2697C66.7974 33.8058 67.5137 34.5781 68.0327 35.5834C68.5532 36.5888 68.8127 37.7743 68.8127 39.1371C68.8127 40.4998 68.5532 41.6901 68.0327 42.7047C67.5122 43.7194 66.8005 44.4948 65.8977 45.0324C64.9933 45.5701 63.9802 45.8373 62.8552 45.8373C62.0193 45.8373 61.261 45.6742 60.5788 45.351C59.8967 45.0278 59.3684 44.5492 58.9939 43.9183V45.452H55.4138V26.7886ZM60.1065 41.9387C60.6441 42.3396 61.2703 42.54 61.9866 42.54C62.8723 42.54 63.6104 42.2293 64.1978 41.6062C64.7851 40.9846 65.0804 40.1611 65.0804 39.1386C65.0804 38.1162 64.7867 37.2973 64.1978 36.6835C63.6104 36.0698 62.8723 35.7637 61.9866 35.7637C61.2703 35.7637 60.6441 35.9641 60.1065 36.365C59.5688 36.7659 59.199 37.3501 58.9939 38.1162V40.1875C59.199 40.9551 59.5688 41.5393 60.1065 41.9387Z" fill="#1A1A1A"/>
<path d="M74.131 45.0199C73.0915 44.4745 72.2649 43.6898 71.6511 42.6674C71.0373 41.6449 70.7312 40.4594 70.7312 39.1137C70.7312 37.7681 71.0373 36.5902 71.6511 35.5849C72.2649 34.5796 73.0915 33.8073 74.131 33.2712C75.1706 32.7336 76.322 32.4663 77.5837 32.4663C78.8454 32.4663 79.9953 32.7351 81.0364 33.2712C82.0759 33.8073 82.9026 34.5796 83.5163 35.5849C84.1301 36.5902 84.4362 37.7665 84.4362 39.1137C84.4362 40.4609 84.1286 41.6449 83.5163 42.6674C82.9026 43.6898 82.0759 44.4745 81.0364 45.0199C79.9969 45.5653 78.8454 45.8388 77.5837 45.8388C76.322 45.8388 75.1721 45.5653 74.131 45.0199ZM75.3197 41.5812C75.89 42.2199 76.6452 42.54 77.5822 42.54C78.5191 42.54 79.2743 42.2199 79.8446 41.5812C80.4148 40.9426 80.7008 40.1191 80.7008 39.1137C80.7008 38.1084 80.4148 37.2988 79.8446 36.685C79.2728 36.0713 78.5191 35.7651 77.5822 35.7651C76.6452 35.7651 75.89 36.0713 75.3197 36.685C74.7479 37.2988 74.4636 38.1084 74.4636 39.1137C74.4636 40.1191 74.7495 40.9426 75.3197 41.5812Z" fill="#1A1A1A"/>
<path d="M89.7537 45.0199C88.7142 44.4745 87.8875 43.6898 87.2737 42.6674C86.66 41.6449 86.3523 40.4594 86.3523 39.1137C86.3523 37.7681 86.66 36.5902 87.2737 35.5849C87.8875 34.5796 88.7142 33.8073 89.7537 33.2712C90.7932 32.7336 91.9431 32.4663 93.2064 32.4663C94.4696 32.4663 95.6179 32.7351 96.6575 33.2712C97.697 33.8073 98.5237 34.5796 99.1374 35.5849C99.7512 36.5902 100.059 37.7665 100.059 39.1137C100.059 40.4609 99.7528 41.6449 99.1374 42.6674C98.5237 43.6898 97.697 44.4745 96.6575 45.0199C95.6179 45.5653 94.4665 45.8388 93.2064 45.8388C91.9462 45.8388 90.7932 45.5653 89.7537 45.0199ZM90.9424 41.5812C91.5127 42.2199 92.2678 42.54 93.2048 42.54C94.1418 42.54 94.897 42.2199 95.4672 41.5812C96.0375 40.9426 96.3234 40.1191 96.3234 39.1137C96.3234 38.1084 96.0375 37.2988 95.4672 36.685C94.8954 36.0713 94.1418 35.7651 93.2048 35.7651C92.2678 35.7651 91.5127 36.0713 90.9424 36.685C90.3706 37.2988 90.0862 38.1084 90.0862 39.1137C90.0862 40.1191 90.3721 40.9426 90.9424 41.5812Z" fill="#1A1A1A"/>
<path d="M106.351 39.3686V45.4551H102.771V26.7886H106.351V38.1923L109.036 35.1499L111.081 32.8486H115.556L113.024 35.585L110.237 38.5761L114.226 43.3838L114.942 44.2539L115.913 45.4551H111.233L106.349 39.3686H106.351Z" fill="#1A1A1A"/>
<path d="M121.814 43.3324V32.1074H118.132L124.575 27.4287H125.394V45.455H121.814V43.3324Z" fill="#1A1A1A"/>
<path d="M131.691 45.1614C130.633 44.7092 129.816 44.0877 129.236 43.2952C128.657 42.5027 128.368 41.603 128.368 40.5977C128.368 39.5923 128.61 38.7859 129.096 38.0789C129.583 37.3719 130.285 36.8389 131.207 36.4815C130.507 36.0216 129.967 35.4467 129.583 34.7552C129.199 34.0653 129.008 33.2759 129.008 32.3902C129.008 31.4532 129.277 30.5831 129.813 29.7813C130.35 28.9811 131.096 28.3455 132.05 27.8763C133.004 27.407 134.087 27.1724 135.298 27.1724C136.508 27.1724 137.65 27.3775 138.622 27.7861C139.593 28.1948 140.343 28.7666 140.872 29.4985C141.4 30.2319 141.664 31.0586 141.664 31.9784C141.664 32.8315 141.446 33.568 141.011 34.1896C140.576 34.8127 140.018 35.3021 139.336 35.6595C140.376 36.1366 141.13 36.755 141.599 37.5133C142.068 38.2716 142.303 39.2225 142.303 40.3646C142.303 41.37 142.012 42.2867 141.434 43.1134C140.854 43.94 140.036 44.6004 138.979 45.0946C137.922 45.5887 136.72 45.8357 135.374 45.8357C134.028 45.8357 132.748 45.6089 131.691 45.1583V45.1614ZM132.995 42.2199C133.575 42.6892 134.367 42.9238 135.374 42.9238C136.311 42.9238 137.074 42.6985 137.663 42.2463C138.252 41.7942 138.545 41.2021 138.545 40.4687C138.545 39.2754 137.753 38.5093 136.168 38.1675L134.122 37.5801C132.792 38.1597 132.128 39.0796 132.128 40.3413C132.128 41.126 132.417 41.7522 132.997 42.2215L132.995 42.2199ZM134.99 34.3061L136.115 34.6122C136.832 34.3558 137.343 34.0373 137.649 33.6535C137.957 33.2697 138.109 32.7973 138.109 32.2348C138.109 31.5527 137.845 30.9824 137.316 30.5209C136.788 30.061 136.115 29.831 135.296 29.831C134.477 29.831 133.822 30.0268 133.328 30.4199C132.833 30.8115 132.586 31.3243 132.586 31.9536C132.586 33.1469 133.388 33.9316 134.99 34.3061Z" fill="#1A1A1A"/>
<path d="M148.668 44.7388C147.561 44.0054 146.708 42.941 146.111 41.5425C145.514 40.1456 145.216 38.4659 145.216 36.5049C145.216 34.544 145.514 32.8658 146.111 31.4673C146.708 30.0704 147.559 29.0045 148.668 28.271C149.776 27.5376 151.089 27.1709 152.606 27.1709C154.123 27.1709 155.436 27.5376 156.543 28.271C157.651 29.0045 158.503 30.0704 159.101 31.4673C159.698 32.8658 159.996 34.544 159.996 36.5049C159.996 38.4659 159.698 40.1456 159.101 41.5425C158.504 42.941 157.651 44.0054 156.543 44.7388C155.436 45.4707 154.123 45.8389 152.606 45.8389C151.089 45.8389 149.776 45.4722 148.668 44.7388ZM149.884 41.0049C150.488 41.9761 151.397 42.4624 152.608 42.4624C153.818 42.4624 154.73 41.9761 155.344 41.0049C155.958 40.0337 156.264 38.5327 156.264 36.5049C156.264 34.4771 155.958 32.9761 155.344 32.0049C154.73 31.0338 153.818 30.5474 152.608 30.5474C151.397 30.5474 150.49 31.0338 149.884 32.0049C149.278 32.9761 148.976 34.4771 148.976 36.5049C148.976 38.5327 149.279 40.0337 149.884 41.0049Z" fill="#1A1A1A"/>
<path d="M55.4138 26.7886H58.9939V34.3574C59.3684 33.7436 59.8967 33.2759 60.5788 32.9512C61.261 32.628 62.0193 32.4648 62.8552 32.4648C63.9631 32.4648 64.9731 32.7336 65.8853 33.2697C66.7974 33.8058 67.5137 34.5781 68.0327 35.5834C68.5532 36.5888 68.8127 37.7743 68.8127 39.1371C68.8127 40.4998 68.5532 41.6901 68.0327 42.7047C67.5122 43.7194 66.8005 44.4948 65.8977 45.0324C64.9933 45.5701 63.9802 45.8373 62.8552 45.8373C62.0193 45.8373 61.261 45.6742 60.5788 45.351C59.8967 45.0278 59.3684 44.5492 58.9939 43.9183V45.452H55.4138V26.7886ZM60.1065 41.9387C60.6441 42.3396 61.2703 42.54 61.9866 42.54C62.8723 42.54 63.6104 42.2293 64.1978 41.6062C64.7851 40.9846 65.0804 40.1611 65.0804 39.1386C65.0804 38.1162 64.7867 37.2973 64.1978 36.6835C63.6104 36.0698 62.8723 35.7637 61.9866 35.7637C61.2703 35.7637 60.6441 35.9641 60.1065 36.365C59.5688 36.7659 59.199 37.3501 58.9939 38.1162V40.1875C59.199 40.9551 59.5688 41.5393 60.1065 41.9387Z" fill="#1A1A1A"/>
<path d="M74.131 45.0199C73.0915 44.4745 72.2649 43.6898 71.6511 42.6674C71.0373 41.6449 70.7312 40.4594 70.7312 39.1137C70.7312 37.7681 71.0373 36.5902 71.6511 35.5849C72.2649 34.5796 73.0915 33.8073 74.131 33.2712C75.1706 32.7336 76.322 32.4663 77.5837 32.4663C78.8454 32.4663 79.9953 32.7351 81.0364 33.2712C82.0759 33.8073 82.9026 34.5796 83.5163 35.5849C84.1301 36.5902 84.4362 37.7665 84.4362 39.1137C84.4362 40.4609 84.1286 41.6449 83.5163 42.6674C82.9026 43.6898 82.0759 44.4745 81.0364 45.0199C79.9969 45.5653 78.8454 45.8388 77.5837 45.8388C76.322 45.8388 75.1721 45.5653 74.131 45.0199ZM75.3197 41.5812C75.89 42.2199 76.6452 42.54 77.5822 42.54C78.5191 42.54 79.2743 42.2199 79.8446 41.5812C80.4148 40.9426 80.7008 40.1191 80.7008 39.1137C80.7008 38.1084 80.4148 37.2988 79.8446 36.685C79.2728 36.0713 78.5191 35.7651 77.5822 35.7651C76.6452 35.7651 75.89 36.0713 75.3197 36.685C74.7479 37.2988 74.4636 38.1084 74.4636 39.1137C74.4636 40.1191 74.7495 40.9426 75.3197 41.5812Z" fill="#1A1A1A"/>
<path d="M89.7537 45.0199C88.7142 44.4745 87.8875 43.6898 87.2737 42.6674C86.66 41.6449 86.3523 40.4594 86.3523 39.1137C86.3523 37.7681 86.66 36.5902 87.2737 35.5849C87.8875 34.5796 88.7142 33.8073 89.7537 33.2712C90.7932 32.7336 91.9431 32.4663 93.2064 32.4663C94.4696 32.4663 95.6179 32.7351 96.6575 33.2712C97.697 33.8073 98.5237 34.5796 99.1374 35.5849C99.7512 36.5902 100.059 37.7665 100.059 39.1137C100.059 40.4609 99.7528 41.6449 99.1374 42.6674C98.5237 43.6898 97.697 44.4745 96.6575 45.0199C95.6179 45.5653 94.4665 45.8388 93.2064 45.8388C91.9462 45.8388 90.7932 45.5653 89.7537 45.0199ZM90.9424 41.5812C91.5127 42.2199 92.2678 42.54 93.2048 42.54C94.1418 42.54 94.897 42.2199 95.4672 41.5812C96.0375 40.9426 96.3234 40.1191 96.3234 39.1137C96.3234 38.1084 96.0375 37.2988 95.4672 36.685C94.8954 36.0713 94.1418 35.7651 93.2048 35.7651C92.2678 35.7651 91.5127 36.0713 90.9424 36.685C90.3706 37.2988 90.0862 38.1084 90.0862 39.1137C90.0862 40.1191 90.3721 40.9426 90.9424 41.5812Z" fill="#1A1A1A"/>
<path d="M106.351 39.3686V45.4551H102.771V26.7886H106.351V38.1923L109.036 35.1499L111.081 32.8486H115.556L113.024 35.585L110.237 38.5761L114.226 43.3838L114.942 44.2539L115.913 45.4551H111.233L106.349 39.3686H106.351Z" fill="#1A1A1A"/>
<path d="M55.4138 26.7886H58.9939V34.3574C59.3684 33.7436 59.8967 33.2759 60.5788 32.9512C61.261 32.628 62.0193 32.4648 62.8552 32.4648C63.9631 32.4648 64.9731 32.7336 65.8853 33.2697C66.7974 33.8058 67.5137 34.5781 68.0327 35.5834C68.5532 36.5888 68.8127 37.7743 68.8127 39.1371C68.8127 40.4998 68.5532 41.6901 68.0327 42.7047C67.5122 43.7194 66.8005 44.4948 65.8977 45.0324C64.9933 45.5701 63.9802 45.8373 62.8552 45.8373C62.0193 45.8373 61.261 45.6742 60.5788 45.351C59.8967 45.0278 59.3684 44.5492 58.9939 43.9183V45.452H55.4138V26.7886ZM60.1065 41.9387C60.6441 42.3396 61.2703 42.54 61.9866 42.54C62.8723 42.54 63.6104 42.2293 64.1978 41.6062C64.7851 40.9846 65.0804 40.1611 65.0804 39.1386C65.0804 38.1162 64.7867 37.2973 64.1978 36.6835C63.6104 36.0698 62.8723 35.7637 61.9866 35.7637C61.2703 35.7637 60.6441 35.9641 60.1065 36.365C59.5688 36.7659 59.199 37.3501 58.9939 38.1162V40.1875C59.199 40.9551 59.5688 41.5393 60.1065 41.9387Z" fill="#1A1A1A"/>
<path d="M74.131 45.0199C73.0915 44.4745 72.2649 43.6898 71.6511 42.6674C71.0373 41.6449 70.7312 40.4594 70.7312 39.1137C70.7312 37.7681 71.0373 36.5902 71.6511 35.5849C72.2649 34.5796 73.0915 33.8073 74.131 33.2712C75.1706 32.7336 76.322 32.4663 77.5837 32.4663C78.8454 32.4663 79.9953 32.7351 81.0364 33.2712C82.0759 33.8073 82.9026 34.5796 83.5163 35.5849C84.1301 36.5902 84.4362 37.7665 84.4362 39.1137C84.4362 40.4609 84.1286 41.6449 83.5163 42.6674C82.9026 43.6898 82.0759 44.4745 81.0364 45.0199C79.9969 45.5653 78.8454 45.8388 77.5837 45.8388C76.322 45.8388 75.1721 45.5653 74.131 45.0199ZM75.3197 41.5812C75.89 42.2199 76.6452 42.54 77.5822 42.54C78.5191 42.54 79.2743 42.2199 79.8446 41.5812C80.4148 40.9426 80.7008 40.1191 80.7008 39.1137C80.7008 38.1084 80.4148 37.2988 79.8446 36.685C79.2728 36.0713 78.5191 35.7651 77.5822 35.7651C76.6452 35.7651 75.89 36.0713 75.3197 36.685C74.7479 37.2988 74.4636 38.1084 74.4636 39.1137C74.4636 40.1191 74.7495 40.9426 75.3197 41.5812Z" fill="#1A1A1A"/>
<path d="M89.7537 45.0199C88.7142 44.4745 87.8875 43.6898 87.2737 42.6674C86.66 41.6449 86.3523 40.4594 86.3523 39.1137C86.3523 37.7681 86.66 36.5902 87.2737 35.5849C87.8875 34.5796 88.7142 33.8073 89.7537 33.2712C90.7932 32.7336 91.9431 32.4663 93.2064 32.4663C94.4696 32.4663 95.6179 32.7351 96.6575 33.2712C97.697 33.8073 98.5237 34.5796 99.1374 35.5849C99.7512 36.5902 100.059 37.7665 100.059 39.1137C100.059 40.4609 99.7528 41.6449 99.1374 42.6674C98.5237 43.6898 97.697 44.4745 96.6575 45.0199C95.6179 45.5653 94.4665 45.8388 93.2064 45.8388C91.9462 45.8388 90.7932 45.5653 89.7537 45.0199ZM90.9424 41.5812C91.5127 42.2199 92.2678 42.54 93.2048 42.54C94.1418 42.54 94.897 42.2199 95.4672 41.5812C96.0375 40.9426 96.3234 40.1191 96.3234 39.1137C96.3234 38.1084 96.0375 37.2988 95.4672 36.685C94.8954 36.0713 94.1418 35.7651 93.2048 35.7651C92.2678 35.7651 91.5127 36.0713 90.9424 36.685C90.3706 37.2988 90.0862 38.1084 90.0862 39.1137C90.0862 40.1191 90.3721 40.9426 90.9424 41.5812Z" fill="#1A1A1A"/>
<path d="M106.351 39.3686V45.4551H102.771V26.7886H106.351V38.1923L109.036 35.1499L111.081 32.8486H115.556L113.024 35.585L110.237 38.5761L114.226 43.3838L114.942 44.2539L115.913 45.4551H111.233L106.349 39.3686H106.351Z" fill="#1A1A1A"/>
<path d="M121.814 43.3324V32.1074H118.132L124.575 27.4287H125.394V45.455H121.814V43.3324Z" fill="#1A1A1A"/>
</g>
<defs>
<clipPath id="clip0_4413_8121">
<rect width="160" height="64" fill="white"/>
</clipPath>
</defs>
</svg>
