<svg width="160" height="64" viewBox="0 0 160 64" fill="none" xmlns="http://www.w3.org/2000/svg">
<g clip-path="url(#clip0_4383_10507)">
<path d="M24.8182 15.9565H22.127V42.3861H24.8182V15.9565Z" fill="white"/>
<path d="M4.5513 24.38L2.90625 26.51L23.8236 42.6651L25.4686 40.5351L4.5513 24.38Z" fill="white"/>
<path d="M42.6311 24.3825L21.7109 40.5339L23.3556 42.6642L44.2758 26.5128L42.6311 24.3825Z" fill="white"/>
<path d="M32.7588 17.1924L22.2539 41.4446L24.7235 42.5143L35.2284 18.2621L32.7588 17.1924Z" fill="white"/>
<path d="M14.286 17.1928L11.8164 18.2625L22.3213 42.5146L24.7909 41.4449L14.286 17.1928Z" fill="white"/>
<path d="M0.66097 32.8335L-0.00195312 35.4419L25.6133 41.9521L26.2762 39.3437L0.66097 32.8335Z" fill="white"/>
<path d="M46.5234 32.8289L20.9082 39.3391L21.5711 41.9475L47.1863 35.4373L46.5234 32.8289Z" fill="white"/>
<path d="M47.0778 39.353H0.101562V45.4768H47.0778V39.353Z" fill="white"/>
<path d="M21.1816 37.2847H25.9986V48.0436L23.4907 45.6677L21.2174 47.9768C21.2174 47.9768 21.1816 37.928 21.1816 37.2847Z" fill="white"/>
<path d="M24.8182 15.9565H22.127V42.3861H24.8182V15.9565Z" fill="white"/>
<path d="M4.5513 24.38L2.90625 26.51L23.8236 42.6651L25.4686 40.5351L4.5513 24.38Z" fill="white"/>
<path d="M42.6311 24.3825L21.7109 40.5339L23.3556 42.6642L44.2758 26.5128L42.6311 24.3825Z" fill="white"/>
<path d="M32.7588 17.1924L22.2539 41.4446L24.7235 42.5143L35.2284 18.2621L32.7588 17.1924Z" fill="white"/>
<path d="M14.286 17.1928L11.8164 18.2625L22.3213 42.5146L24.7909 41.4449L14.286 17.1928Z" fill="white"/>
<path d="M0.66097 32.8335L-0.00195312 35.4419L25.6133 41.9521L26.2762 39.3437L0.66097 32.8335Z" fill="white"/>
<path d="M46.5234 32.8289L20.9082 39.3391L21.5711 41.9475L47.1863 35.4373L46.5234 32.8289Z" fill="white"/>
<path d="M21.1816 37.2847H25.9986V48.0436L23.4907 45.6677L21.2174 47.9768C21.2174 47.9768 21.1816 37.928 21.1816 37.2847Z" fill="white"/>
<path d="M24.8182 15.9565H22.127V42.3861H24.8182V15.9565Z" fill="#C5C5C5"/>
<path d="M4.5513 24.38L2.90625 26.51L23.8236 42.6651L25.4686 40.5351L4.5513 24.38Z" fill="#C5C5C5"/>
<path d="M42.6311 24.3825L21.7109 40.5339L23.3556 42.6642L44.2758 26.5128L42.6311 24.3825Z" fill="#C5C5C5"/>
<path d="M32.7588 17.1924L22.2539 41.4446L24.7235 42.5143L35.2284 18.2621L32.7588 17.1924Z" fill="white"/>
<path d="M14.286 17.1928L11.8164 18.2625L22.3213 42.5146L24.7909 41.4449L14.286 17.1928Z" fill="white"/>
<path d="M0.66097 32.8335L-0.00195312 35.4419L25.6133 41.9521L26.2762 39.3437L0.66097 32.8335Z" fill="white"/>
<path d="M46.5234 32.8289L20.9082 39.3391L21.5711 41.9475L47.1863 35.4373L46.5234 32.8289Z" fill="white"/>
<path d="M21.1816 37.2847H25.9986V48.0436L23.4907 45.6677L21.2174 47.9768C21.2174 47.9768 21.1816 37.928 21.1816 37.2847Z" fill="white"/>
<path d="M55.4141 26.7883H58.9941V34.3572C59.3686 33.7434 59.8969 33.2757 60.5791 32.9509C61.2612 32.6277 62.0195 32.4646 62.8555 32.4646C63.9634 32.4646 64.9734 32.7334 65.8855 33.2695C66.7976 33.8056 67.514 34.5778 68.0329 35.5832C68.5535 36.5885 68.813 37.7741 68.813 39.1368C68.813 40.4996 68.5535 41.6898 68.0329 42.7045C67.5124 43.7192 66.8007 44.4945 65.8979 45.0322C64.9936 45.5698 63.9805 45.8371 62.8555 45.8371C62.0195 45.8371 61.2612 45.6739 60.5791 45.3507C59.8969 45.0275 59.3686 44.5489 58.9941 43.9181V45.4517H55.4141V26.7883ZM60.1067 41.9384C60.6443 42.3393 61.2705 42.5398 61.9869 42.5398C62.8726 42.5398 63.6107 42.229 64.198 41.6059C64.7854 40.9844 65.0806 40.1608 65.0806 39.1384C65.0806 38.116 64.7869 37.2971 64.198 36.6833C63.6107 36.0695 62.8726 35.7634 61.9869 35.7634C61.2705 35.7634 60.6443 35.9639 60.1067 36.3648C59.5691 36.7656 59.1993 37.3499 58.9941 38.116V40.1872C59.1993 40.9549 59.5691 41.5391 60.1067 41.9384Z" fill="white"/>
<path d="M74.1303 45.0199C73.0908 44.4745 72.2641 43.6898 71.6504 42.6674C71.0366 41.6449 70.7305 40.4594 70.7305 39.1137C70.7305 37.7681 71.0366 36.5902 71.6504 35.5849C72.2641 34.5796 73.0908 33.8073 74.1303 33.2712C75.1698 32.7336 76.3212 32.4663 77.583 32.4663C78.8447 32.4663 79.9946 32.7351 81.0357 33.2712C82.0752 33.8073 82.9018 34.5796 83.5156 35.5849C84.1294 36.5902 84.4355 37.7665 84.4355 39.1137C84.4355 40.4609 84.1278 41.6449 83.5156 42.6674C82.9018 43.6898 82.0752 44.4745 81.0357 45.0199C79.9961 45.5653 78.8447 45.8388 77.583 45.8388C76.3212 45.8388 75.1714 45.5653 74.1303 45.0199ZM75.319 41.5812C75.8893 42.2199 76.6445 42.54 77.5814 42.54C78.5184 42.54 79.2736 42.2199 79.8438 41.5812C80.4141 40.9426 80.7 40.1191 80.7 39.1137C80.7 38.1084 80.4141 37.2988 79.8438 36.685C79.272 36.0713 78.5184 35.7651 77.5814 35.7651C76.6445 35.7651 75.8893 36.0713 75.319 36.685C74.7472 37.2988 74.4628 38.1084 74.4628 39.1137C74.4628 40.1191 74.7487 40.9426 75.319 41.5812Z" fill="white"/>
<path d="M89.7549 45.0199C88.7154 44.4745 87.8887 43.6898 87.275 42.6674C86.6612 41.6449 86.3535 40.4594 86.3535 39.1137C86.3535 37.7681 86.6612 36.5902 87.275 35.5849C87.8887 34.5796 88.7154 33.8073 89.7549 33.2712C90.7944 32.7336 91.9443 32.4663 93.2076 32.4663C94.4709 32.4663 95.6192 32.7351 96.6587 33.2712C97.6982 33.8073 98.5249 34.5796 99.1387 35.5849C99.7524 36.5902 100.06 37.7665 100.06 39.1137C100.06 40.4609 99.754 41.6449 99.1387 42.6674C98.5249 43.6898 97.6982 44.4745 96.6587 45.0199C95.6192 45.5653 94.4678 45.8388 93.2076 45.8388C91.9474 45.8388 90.7944 45.5653 89.7549 45.0199ZM90.9436 41.5812C91.5139 42.2199 92.269 42.54 93.206 42.54C94.143 42.54 94.8982 42.2199 95.4684 41.5812C96.0387 40.9426 96.3246 40.1191 96.3246 39.1137C96.3246 38.1084 96.0387 37.2988 95.4684 36.685C94.8966 36.0713 94.143 35.7651 93.206 35.7651C92.269 35.7651 91.5139 36.0713 90.9436 36.685C90.3718 37.2988 90.0874 38.1084 90.0874 39.1137C90.0874 40.1191 90.3733 40.9426 90.9436 41.5812Z" fill="white"/>
<path d="M106.352 39.3684V45.4548H102.771V26.7883H106.352V38.1921L109.037 35.1496L111.082 32.8484H115.557L113.025 35.5847L110.238 38.5759L114.227 43.3835L114.943 44.2537L115.914 45.4548H111.234L106.35 39.3684H106.352Z" fill="white"/>
<path d="M121.814 43.3324V32.1074H118.131L124.575 27.4287H125.394V45.455H121.814V43.3324Z" fill="white"/>
<path d="M131.691 45.1614C130.633 44.7092 129.815 44.0877 129.236 43.2952C128.656 42.5027 128.367 41.603 128.367 40.5977C128.367 39.5923 128.61 38.7859 129.096 38.0789C129.582 37.3719 130.285 36.8389 131.206 36.4815C130.507 36.0216 129.966 35.4467 129.582 34.7552C129.199 34.0653 129.007 33.2759 129.007 32.3902C129.007 31.4532 129.276 30.5831 129.812 29.7813C130.35 28.9811 131.096 28.3455 132.05 27.8763C133.004 27.407 134.087 27.1724 135.297 27.1724C136.508 27.1724 137.65 27.3775 138.621 27.7861C139.592 28.1948 140.343 28.7666 140.871 29.4985C141.399 30.2319 141.664 31.0586 141.664 31.9784C141.664 32.8315 141.446 33.568 141.011 34.1896C140.576 34.8127 140.018 35.3021 139.336 35.6595C140.375 36.1366 141.129 36.755 141.598 37.5133C142.068 38.2716 142.302 39.2225 142.302 40.3646C142.302 41.37 142.012 42.2867 141.434 43.1134C140.854 43.94 140.035 44.6004 138.978 45.0946C137.922 45.5887 136.719 45.8357 135.374 45.8357C134.028 45.8357 132.748 45.6089 131.691 45.1583V45.1614ZM132.995 42.2199C133.574 42.6892 134.367 42.9238 135.374 42.9238C136.311 42.9238 137.073 42.6985 137.662 42.2463C138.251 41.7942 138.545 41.2021 138.545 40.4687C138.545 39.2754 137.752 38.5093 136.168 38.1675L134.121 37.5801C132.791 38.1597 132.128 39.0796 132.128 40.3413C132.128 41.126 132.417 41.7522 132.996 42.2215L132.995 42.2199ZM134.99 34.3061L136.115 34.6122C136.831 34.3558 137.342 34.0373 137.648 33.6535C137.956 33.2697 138.108 32.7973 138.108 32.2348C138.108 31.5527 137.844 30.9824 137.316 30.5209C136.788 30.061 136.115 29.831 135.296 29.831C134.477 29.831 133.821 30.0268 133.327 30.4199C132.833 30.8115 132.586 31.3243 132.586 31.9536C132.586 33.1469 133.388 33.9316 134.99 34.3061Z" fill="white"/>
<path d="M148.669 44.7388C147.562 44.0054 146.709 42.941 146.112 41.5425C145.515 40.1456 145.217 38.4659 145.217 36.5049C145.217 34.544 145.515 32.8658 146.112 31.4673C146.709 30.0704 147.56 29.0045 148.669 28.271C149.777 27.5376 151.09 27.1709 152.607 27.1709C154.124 27.1709 155.437 27.5376 156.544 28.271C157.652 29.0045 158.504 30.0704 159.102 31.4673C159.699 32.8658 159.997 34.544 159.997 36.5049C159.997 38.4659 159.699 40.1456 159.102 41.5425C158.505 42.941 157.652 44.0054 156.544 44.7388C155.437 45.4707 154.124 45.8389 152.607 45.8389C151.09 45.8389 149.777 45.4722 148.669 44.7388ZM149.885 41.0049C150.489 41.9761 151.398 42.4624 152.608 42.4624C153.819 42.4624 154.731 41.9761 155.345 41.0049C155.959 40.0337 156.265 38.5327 156.265 36.5049C156.265 34.4771 155.959 32.9761 155.345 32.0049C154.731 31.0338 153.819 30.5474 152.608 30.5474C151.398 30.5474 150.491 31.0338 149.885 32.0049C149.279 32.9761 148.977 34.4771 148.977 36.5049C148.977 38.5327 149.28 40.0337 149.885 41.0049Z" fill="white"/>
<path d="M55.4141 26.7883H58.9941V34.3572C59.3686 33.7434 59.8969 33.2757 60.5791 32.9509C61.2612 32.6277 62.0195 32.4646 62.8555 32.4646C63.9634 32.4646 64.9734 32.7334 65.8855 33.2695C66.7976 33.8056 67.514 34.5778 68.0329 35.5832C68.5535 36.5885 68.813 37.7741 68.813 39.1368C68.813 40.4996 68.5535 41.6898 68.0329 42.7045C67.5124 43.7192 66.8007 44.4945 65.8979 45.0322C64.9936 45.5698 63.9805 45.8371 62.8555 45.8371C62.0195 45.8371 61.2612 45.6739 60.5791 45.3507C59.8969 45.0275 59.3686 44.5489 58.9941 43.9181V45.4517H55.4141V26.7883ZM60.1067 41.9384C60.6443 42.3393 61.2705 42.5398 61.9869 42.5398C62.8726 42.5398 63.6107 42.229 64.198 41.6059C64.7854 40.9844 65.0806 40.1608 65.0806 39.1384C65.0806 38.116 64.7869 37.2971 64.198 36.6833C63.6107 36.0695 62.8726 35.7634 61.9869 35.7634C61.2705 35.7634 60.6443 35.9639 60.1067 36.3648C59.5691 36.7656 59.1993 37.3499 58.9941 38.116V40.1872C59.1993 40.9549 59.5691 41.5391 60.1067 41.9384Z" fill="white"/>
<path d="M74.1303 45.0199C73.0908 44.4745 72.2641 43.6898 71.6504 42.6674C71.0366 41.6449 70.7305 40.4594 70.7305 39.1137C70.7305 37.7681 71.0366 36.5902 71.6504 35.5849C72.2641 34.5796 73.0908 33.8073 74.1303 33.2712C75.1698 32.7336 76.3212 32.4663 77.583 32.4663C78.8447 32.4663 79.9946 32.7351 81.0357 33.2712C82.0752 33.8073 82.9018 34.5796 83.5156 35.5849C84.1294 36.5902 84.4355 37.7665 84.4355 39.1137C84.4355 40.4609 84.1278 41.6449 83.5156 42.6674C82.9018 43.6898 82.0752 44.4745 81.0357 45.0199C79.9961 45.5653 78.8447 45.8388 77.583 45.8388C76.3212 45.8388 75.1714 45.5653 74.1303 45.0199ZM75.319 41.5812C75.8893 42.2199 76.6445 42.54 77.5814 42.54C78.5184 42.54 79.2736 42.2199 79.8438 41.5812C80.4141 40.9426 80.7 40.1191 80.7 39.1137C80.7 38.1084 80.4141 37.2988 79.8438 36.685C79.272 36.0713 78.5184 35.7651 77.5814 35.7651C76.6445 35.7651 75.8893 36.0713 75.319 36.685C74.7472 37.2988 74.4628 38.1084 74.4628 39.1137C74.4628 40.1191 74.7487 40.9426 75.319 41.5812Z" fill="white"/>
<path d="M89.7549 45.0199C88.7154 44.4745 87.8887 43.6898 87.275 42.6674C86.6612 41.6449 86.3535 40.4594 86.3535 39.1137C86.3535 37.7681 86.6612 36.5902 87.275 35.5849C87.8887 34.5796 88.7154 33.8073 89.7549 33.2712C90.7944 32.7336 91.9443 32.4663 93.2076 32.4663C94.4709 32.4663 95.6192 32.7351 96.6587 33.2712C97.6982 33.8073 98.5249 34.5796 99.1387 35.5849C99.7524 36.5902 100.06 37.7665 100.06 39.1137C100.06 40.4609 99.754 41.6449 99.1387 42.6674C98.5249 43.6898 97.6982 44.4745 96.6587 45.0199C95.6192 45.5653 94.4678 45.8388 93.2076 45.8388C91.9474 45.8388 90.7944 45.5653 89.7549 45.0199ZM90.9436 41.5812C91.5139 42.2199 92.269 42.54 93.206 42.54C94.143 42.54 94.8982 42.2199 95.4684 41.5812C96.0387 40.9426 96.3246 40.1191 96.3246 39.1137C96.3246 38.1084 96.0387 37.2988 95.4684 36.685C94.8966 36.0713 94.143 35.7651 93.206 35.7651C92.269 35.7651 91.5139 36.0713 90.9436 36.685C90.3718 37.2988 90.0874 38.1084 90.0874 39.1137C90.0874 40.1191 90.3733 40.9426 90.9436 41.5812Z" fill="white"/>
<path d="M106.352 39.3684V45.4548H102.771V26.7883H106.352V38.1921L109.037 35.1496L111.082 32.8484H115.557L113.025 35.5847L110.238 38.5759L114.227 43.3835L114.943 44.2537L115.914 45.4548H111.234L106.35 39.3684H106.352Z" fill="white"/>
<path d="M55.4141 26.7883H58.9941V34.3572C59.3686 33.7434 59.8969 33.2757 60.5791 32.9509C61.2612 32.6277 62.0195 32.4646 62.8555 32.4646C63.9634 32.4646 64.9734 32.7334 65.8855 33.2695C66.7976 33.8056 67.514 34.5778 68.0329 35.5832C68.5535 36.5885 68.813 37.7741 68.813 39.1368C68.813 40.4996 68.5535 41.6898 68.0329 42.7045C67.5124 43.7192 66.8007 44.4945 65.8979 45.0322C64.9936 45.5698 63.9805 45.8371 62.8555 45.8371C62.0195 45.8371 61.2612 45.6739 60.5791 45.3507C59.8969 45.0275 59.3686 44.5489 58.9941 43.9181V45.4517H55.4141V26.7883ZM60.1067 41.9384C60.6443 42.3393 61.2705 42.5398 61.9869 42.5398C62.8726 42.5398 63.6107 42.229 64.198 41.6059C64.7854 40.9844 65.0806 40.1608 65.0806 39.1384C65.0806 38.116 64.7869 37.2971 64.198 36.6833C63.6107 36.0695 62.8726 35.7634 61.9869 35.7634C61.2705 35.7634 60.6443 35.9639 60.1067 36.3648C59.5691 36.7656 59.1993 37.3499 58.9941 38.116V40.1872C59.1993 40.9549 59.5691 41.5391 60.1067 41.9384Z" fill="white"/>
<path d="M74.1303 45.0199C73.0908 44.4745 72.2641 43.6898 71.6504 42.6674C71.0366 41.6449 70.7305 40.4594 70.7305 39.1137C70.7305 37.7681 71.0366 36.5902 71.6504 35.5849C72.2641 34.5796 73.0908 33.8073 74.1303 33.2712C75.1698 32.7336 76.3212 32.4663 77.583 32.4663C78.8447 32.4663 79.9946 32.7351 81.0357 33.2712C82.0752 33.8073 82.9018 34.5796 83.5156 35.5849C84.1294 36.5902 84.4355 37.7665 84.4355 39.1137C84.4355 40.4609 84.1278 41.6449 83.5156 42.6674C82.9018 43.6898 82.0752 44.4745 81.0357 45.0199C79.9961 45.5653 78.8447 45.8388 77.583 45.8388C76.3212 45.8388 75.1714 45.5653 74.1303 45.0199ZM75.319 41.5812C75.8893 42.2199 76.6445 42.54 77.5814 42.54C78.5184 42.54 79.2736 42.2199 79.8438 41.5812C80.4141 40.9426 80.7 40.1191 80.7 39.1137C80.7 38.1084 80.4141 37.2988 79.8438 36.685C79.272 36.0713 78.5184 35.7651 77.5814 35.7651C76.6445 35.7651 75.8893 36.0713 75.319 36.685C74.7472 37.2988 74.4628 38.1084 74.4628 39.1137C74.4628 40.1191 74.7487 40.9426 75.319 41.5812Z" fill="white"/>
<path d="M89.7549 45.0199C88.7154 44.4745 87.8887 43.6898 87.275 42.6674C86.6612 41.6449 86.3535 40.4594 86.3535 39.1137C86.3535 37.7681 86.6612 36.5902 87.275 35.5849C87.8887 34.5796 88.7154 33.8073 89.7549 33.2712C90.7944 32.7336 91.9443 32.4663 93.2076 32.4663C94.4709 32.4663 95.6192 32.7351 96.6587 33.2712C97.6982 33.8073 98.5249 34.5796 99.1387 35.5849C99.7524 36.5902 100.06 37.7665 100.06 39.1137C100.06 40.4609 99.754 41.6449 99.1387 42.6674C98.5249 43.6898 97.6982 44.4745 96.6587 45.0199C95.6192 45.5653 94.4678 45.8388 93.2076 45.8388C91.9474 45.8388 90.7944 45.5653 89.7549 45.0199ZM90.9436 41.5812C91.5139 42.2199 92.269 42.54 93.206 42.54C94.143 42.54 94.8982 42.2199 95.4684 41.5812C96.0387 40.9426 96.3246 40.1191 96.3246 39.1137C96.3246 38.1084 96.0387 37.2988 95.4684 36.685C94.8966 36.0713 94.143 35.7651 93.206 35.7651C92.269 35.7651 91.5139 36.0713 90.9436 36.685C90.3718 37.2988 90.0874 38.1084 90.0874 39.1137C90.0874 40.1191 90.3733 40.9426 90.9436 41.5812Z" fill="white"/>
<path d="M106.352 39.3684V45.4548H102.771V26.7883H106.352V38.1921L109.037 35.1496L111.082 32.8484H115.557L113.025 35.5847L110.238 38.5759L114.227 43.3835L114.943 44.2537L115.914 45.4548H111.234L106.35 39.3684H106.352Z" fill="white"/>
<path d="M121.814 43.3324V32.1074H118.131L124.575 27.4287H125.394V45.455H121.814V43.3324Z" fill="white"/>
</g>
<defs>
<clipPath id="clip0_4383_10507">
<rect width="160" height="64" fill="white"/>
</clipPath>
</defs>
</svg>
