<svg width="160" height="64" viewBox="0 0 160 64" fill="none" xmlns="http://www.w3.org/2000/svg">
<path fill-rule="evenodd" clip-rule="evenodd" d="M41.223 47.2776L43.4646 49.4092C41.1209 51.9016 38.2832 53.878 35.1326 55.212C30.1461 57.3113 24.9936 57.7824 19.7145 56.6083C9.2436 54.2784 1.21815 45.4398 0.132526 34.5456C-0.410802 29.2717 0.725313 23.9611 3.37883 19.3711C6.03233 14.781 10.0677 11.146 14.9094 8.98454C24.8937 4.51182 35.8287 7.13836 42.6307 13.768L40.503 15.9952C35.854 11.6954 30.3781 9.59196 24.05 9.92099C18.1015 10.2289 13.0573 12.6235 9.00313 16.9879C5.15404 21.119 3.03926 26.5708 3.09578 32.2166C3.15232 37.8624 5.37585 43.2707 9.30688 47.324C13.6663 51.8122 19.01 54.1069 25.2763 54.1013C31.5424 54.0957 36.8468 51.7405 41.223 47.2776ZM39.3331 17.3749L37.204 19.5966C33.3173 16.049 28.7666 14.4306 23.5241 14.979C18.9032 15.4627 15.0866 17.562 12.1335 21.1418C9.41192 24.4312 8.02449 28.6221 8.24585 32.8855C8.4672 37.1488 10.2812 41.1736 13.3289 44.1635C16.7221 47.5044 20.841 49.1776 25.6082 49.1171C30.3753 49.0566 34.407 47.247 37.7554 43.8373L40.0053 45.9661C37.6412 48.4639 34.6752 50.3129 31.3915 51.3358C28.1077 52.3588 24.6163 52.5215 21.2517 51.8083C17.0241 50.9305 13.1883 48.7236 10.3049 45.5102C7.42151 42.2968 5.64171 38.2455 5.22568 33.9484C4.80966 29.6514 5.77922 25.3339 7.99265 21.6272C10.2061 17.9204 13.5473 15.0189 17.5279 13.3466C25.7066 9.91151 34.2453 12.3693 39.3331 17.3749ZM92.6898 36.7805C91.863 37.1786 90.9536 37.3751 90.0362 37.3542C89.4344 37.3598 88.8374 37.248 88.2784 37.0251C87.7532 36.8129 87.2802 36.4896 86.8918 36.0774C86.4881 35.6382 86.1798 35.1202 85.9862 34.556C85.7602 33.8942 85.6508 33.1982 85.6628 32.4989C85.6537 31.839 85.757 31.1825 85.9679 30.5572C86.1534 30.0074 86.4491 29.5012 86.837 29.0696C87.2148 28.6541 87.6808 28.3289 88.201 28.1176C88.7692 27.8887 89.3773 27.7755 89.9897 27.7843C90.3506 27.781 90.711 27.8087 91.067 27.8673C91.3533 27.916 91.6354 27.9869 91.9108 28.0797C92.1476 28.1607 92.3768 28.2628 92.5956 28.3848C92.8008 28.5029 93.0034 28.6196 93.2003 28.7363C93.3343 28.8282 93.492 28.8795 93.6544 28.8839C93.7703 28.883 93.8838 28.8507 93.9828 28.7905C94.0818 28.7304 94.1627 28.6446 94.217 28.5422L94.937 27.4174C94.3443 26.8742 93.6564 26.4451 92.9077 26.1519C92.0032 25.8095 91.0411 25.6448 90.0741 25.6669C89.0901 25.6529 88.1121 25.8221 87.19 26.166C86.3728 26.4701 85.6304 26.9458 85.0127 27.5612C84.3951 28.1765 83.9166 28.9172 83.6097 29.7332C83.2754 30.616 83.1094 31.5536 83.1203 32.4975C83.1102 33.4367 83.281 34.3691 83.6237 35.2436C83.9356 36.0493 84.4095 36.7826 85.0161 37.3979C85.6228 38.0131 86.3492 38.4974 87.1506 38.8206C88.0047 39.1668 88.9191 39.3402 89.8407 39.3311C90.3535 39.3331 90.8658 39.3036 91.375 39.2425C91.8263 39.189 92.2729 39.1011 92.7108 38.9796C93.1156 38.8674 93.5087 38.7172 93.8851 38.531C94.2559 38.3476 94.6101 38.1326 94.9439 37.8884V32.4806H90.496V33.8867C90.4952 33.9483 90.5073 34.0095 90.5315 34.0661C90.5557 34.1228 90.5915 34.1738 90.6367 34.2158C90.7406 34.3087 90.8771 34.3568 91.0163 34.3494H92.6898V36.7805ZM61.3549 28.2476C61.3037 28.3614 61.2219 28.4587 61.1187 28.5288C61.023 28.5869 60.9128 28.6162 60.8008 28.6132C60.6498 28.6067 60.5037 28.558 60.379 28.4726C60.2243 28.3788 60.0424 28.2724 59.8333 28.1534C59.5983 28.0252 59.3521 27.9183 59.0979 27.8343C58.7764 27.7334 58.4405 27.6859 58.1037 27.6936C57.7985 27.6882 57.4944 27.7304 57.2022 27.8187C56.9663 27.8911 56.7466 28.0085 56.5554 28.1646C56.386 28.3085 56.2534 28.4907 56.1687 28.6961C56.0798 28.9119 56.0353 29.1434 56.0379 29.3767C56.0284 29.662 56.1223 29.9412 56.3023 30.1627C56.4979 30.3871 56.7371 30.5693 57.0054 30.6984C57.3223 30.8571 57.6516 30.9903 57.9898 31.0963C58.3592 31.2126 58.7341 31.3372 59.1148 31.4704C59.501 31.603 59.8794 31.7575 60.2482 31.9329C60.608 32.1037 60.9399 32.328 61.2326 32.598C61.5308 32.8754 61.77 33.2102 61.9357 33.5822C62.1225 34.0299 62.2122 34.5119 62.1986 34.9968C62.2034 35.577 62.0984 36.1528 61.8893 36.6939C61.6881 37.2124 61.3789 37.6821 60.9823 38.0719C60.565 38.4756 60.0697 38.7899 59.5268 38.9957C58.8975 39.2303 58.2297 39.3448 57.5581 39.3331C57.1359 39.3339 56.7146 39.2919 56.3008 39.2079C55.8945 39.1272 55.4966 39.008 55.1126 38.8522C54.7412 38.7021 54.3853 38.5166 54.0494 38.2982C53.7301 38.0901 53.4341 37.8483 53.1663 37.5769L53.8877 36.3846C53.9555 36.2977 54.0383 36.2238 54.1325 36.1667C54.2285 36.108 54.3392 36.0777 54.4516 36.0794C54.6334 36.0894 54.8078 36.1552 54.9509 36.2679C55.1299 36.3944 55.3413 36.535 55.5851 36.6897C55.8571 36.8578 56.1449 36.999 56.4444 37.1115C56.8255 37.2467 57.2282 37.311 57.6326 37.3013C58.3414 37.3013 58.8897 37.133 59.2779 36.7966C59.666 36.46 59.8606 35.9777 59.8615 35.3497C59.8751 35.0415 59.7816 34.7379 59.5972 34.4906C59.4058 34.2549 59.166 34.0631 58.894 33.9281C58.5795 33.7678 58.2498 33.6392 57.9097 33.5443C57.5402 33.4402 57.1652 33.3263 56.7846 33.2026C56.4007 33.0781 56.025 32.9296 55.6596 32.7584C55.2967 32.589 54.964 32.3609 54.6752 32.0834C54.3719 31.789 54.1326 31.4353 53.9721 31.0443C53.7833 30.5536 53.6938 30.0302 53.7092 29.5047C53.7098 29.0085 53.8109 28.5177 54.0065 28.0616C54.202 27.6056 54.4878 27.1939 54.8469 26.8514C55.2443 26.4785 55.7104 26.1862 56.2193 25.9909C56.8129 25.7664 57.4438 25.6566 58.0784 25.6674C58.8216 25.6598 59.5603 25.785 60.2594 26.0372C60.8913 26.2631 61.4705 26.6158 61.961 27.0736L61.3549 28.2476ZM27.376 36.0324C27.4423 36.0322 27.5078 36.0459 27.5685 36.0729C27.6291 36.0997 27.6833 36.1391 27.7275 36.1885L28.7119 37.2529C28.1763 37.9197 27.4899 38.4498 26.7095 38.7996C25.9181 39.1567 24.9676 39.3353 23.8575 39.3353C22.9415 39.3491 22.0324 39.1759 21.1857 38.8262C20.4135 38.5059 19.7184 38.0246 19.1467 37.4146C18.5745 36.7876 18.1374 36.0495 17.8627 35.2464C17.556 34.3638 17.4042 33.4347 17.4141 32.5004C17.4034 31.5569 17.5729 30.6201 17.9133 29.7402C18.2272 28.9292 18.7075 28.1927 19.3231 27.5783C19.9387 26.964 20.6762 26.4853 21.488 26.173C22.3763 25.8282 23.3224 25.6568 24.2752 25.6683C25.1662 25.6492 26.0518 25.8113 26.8781 26.1449C27.5887 26.4428 28.2366 26.8722 28.7878 27.4104L27.9497 28.5563C27.8992 28.6322 27.8347 28.6981 27.7599 28.7503C27.6649 28.811 27.5532 28.84 27.4407 28.8333C27.2816 28.8273 27.1288 28.769 27.0061 28.6674C26.8263 28.5358 26.6384 28.4156 26.4437 28.3075C26.1684 28.1578 25.8786 28.0367 25.5788 27.9461C25.1477 27.8242 24.7006 27.7683 24.2528 27.7802C23.6588 27.7739 23.0694 27.8852 22.5188 28.1078C22.003 28.3189 21.539 28.6393 21.159 29.0471C20.7663 29.4767 20.4645 29.9813 20.2716 30.5305C20.0504 31.1628 19.9424 31.8291 19.9524 32.4989C19.9412 33.1813 20.0492 33.8602 20.2716 34.5055C20.4602 35.0503 20.7541 35.553 21.1364 35.9846C21.4934 36.3805 21.9318 36.6942 22.4217 36.9042C22.9244 37.1187 23.4658 37.2273 24.0123 37.2234C24.3197 37.2253 24.6269 37.2069 24.9319 37.1686C25.1897 37.1349 25.4436 37.0761 25.6899 36.9927C25.9194 36.9133 26.1397 36.8091 26.3466 36.682C26.5663 36.547 26.7721 36.3907 26.9612 36.2152C27.0197 36.1624 27.085 36.1175 27.1552 36.0816C27.2239 36.0483 27.2996 36.0314 27.376 36.0324ZM33.0702 37.1321H38.4238V39.185H30.5826V25.8146H33.0702V37.1321ZM51.7389 35.222C52.072 34.3535 52.2384 33.4301 52.2298 32.4999C52.239 31.5704 52.0735 30.6474 51.7418 29.7792C51.4372 28.9692 50.9673 28.2315 50.3621 27.6129C49.7568 26.9945 49.0294 26.5087 48.2261 26.1866C47.3479 25.8331 46.4082 25.6572 45.4614 25.6691C44.5133 25.6575 43.5721 25.8319 42.6912 26.1824C41.8851 26.5049 41.1548 26.9914 40.5466 27.6109C39.9441 28.2329 39.4738 28.9704 39.1643 29.7792C38.5117 31.5352 38.5117 33.4673 39.1643 35.2234C39.4738 36.0321 39.9441 36.7697 40.5466 37.3916C41.1548 38.0112 41.8851 38.4977 42.6912 38.8201C44.4727 39.5045 46.4446 39.5045 48.2261 38.8201C49.0296 38.4967 49.7571 38.0098 50.3622 37.3902C50.9616 36.7669 51.4298 36.0296 51.7389 35.222ZM49.3863 30.5313C49.588 31.1677 49.6863 31.8324 49.6773 32.4999C49.6877 33.1712 49.5894 33.8398 49.3863 34.4797C49.2127 35.0253 48.9278 35.529 48.5495 35.9589C48.1826 36.3645 47.7288 36.6821 47.222 36.8883C46.086 37.3194 44.8313 37.3194 43.6953 36.8883C43.1857 36.6828 42.7291 36.365 42.3593 35.9589C41.9784 35.5296 41.6911 35.0258 41.5155 34.4797C41.1219 33.193 41.1219 31.8181 41.5155 30.5313C41.6918 29.9841 41.979 29.4792 42.3593 29.0479C42.7278 28.6393 43.1847 28.32 43.6953 28.1143C44.8313 27.6832 46.086 27.6832 47.222 28.1143C47.7299 28.3204 48.1839 28.6398 48.5495 29.0479C48.9273 29.4798 49.212 29.9848 49.3863 30.5313ZM64.4092 39.1836H66.9123V25.8146H64.4092V39.1836ZM71.498 25.8287C71.5666 25.837 71.6335 25.856 71.6963 25.885C71.7595 25.9153 71.8174 25.9557 71.8678 26.0045C71.934 26.0694 71.9956 26.1389 72.0521 26.2126L79.0706 35.1524C79.0453 34.9377 79.0284 34.7268 79.02 34.5197C79.0101 34.313 79.0059 34.1203 79.0059 33.9418V25.8147H81.1969V39.1836H79.9116C79.7436 39.1894 79.5764 39.1577 79.4222 39.0908C79.2713 39.011 79.1412 38.8969 79.0425 38.7576L72.0521 29.8557C72.0708 30.0526 72.0848 30.248 72.0943 30.442C72.1026 30.6361 72.1083 30.8132 72.1083 30.9735V39.1836H69.9159V25.8147H71.2209C71.3135 25.8142 71.406 25.8189 71.498 25.8287ZM107.839 34.2511L107.875 34.3371C107.951 34.5202 108.029 34.7028 108.102 34.8936C108.188 34.6715 108.278 34.4536 108.37 34.237C108.464 34.0205 108.562 33.8152 108.667 33.6183L112.624 26.2126C112.664 26.1319 112.716 26.0571 112.777 25.9904C112.826 25.9375 112.886 25.8967 112.952 25.8709C113.022 25.8445 113.095 25.8289 113.169 25.8245C113.191 25.8245 113.215 25.8237 113.241 25.8226C113.257 25.8218 113.273 25.821 113.29 25.82C113.34 25.8174 113.394 25.8146 113.45 25.8146H115.327V39.1836H113.141V30.5489C113.141 30.3886 113.141 30.2128 113.155 30.0216C113.16 29.955 113.165 29.888 113.168 29.8208C113.177 29.6949 113.186 29.5677 113.197 29.4395L109.157 37.0196C109.073 37.1824 108.949 37.3208 108.795 37.4218C108.641 37.5183 108.461 37.5672 108.278 37.5624H107.936C107.753 37.5672 107.573 37.5184 107.417 37.4218C107.265 37.3207 107.141 37.1823 107.057 37.0196L102.961 29.4114C102.987 29.6153 103.003 29.8135 103.013 30.0075C103.023 30.2015 103.026 30.3815 103.026 30.5489V39.1836H100.831V25.8146H102.708C102.819 25.8146 102.914 25.8146 102.99 25.8245C103.063 25.8289 103.136 25.8445 103.206 25.8709C103.273 25.8972 103.335 25.938 103.386 25.9904C103.449 26.0562 103.502 26.131 103.543 26.2126L107.538 33.6366C107.649 33.8335 107.75 34.0382 107.839 34.2511ZM126.465 27.793V25.8146H118.027V39.1906H126.465V37.2025H120.538V33.4215H125.208V31.5078H120.538V27.793H126.465ZM140.487 32.4998C140.497 33.4226 140.331 34.339 139.997 35.1994C139.691 35.9968 139.219 36.7203 138.614 37.3225C138.008 37.9247 137.281 38.392 136.482 38.6936C135.599 39.03 134.661 39.1965 133.718 39.1843H128.62V25.8153H133.722C134.667 25.8023 135.605 25.9689 136.487 26.3061C137.286 26.6144 138.014 27.0834 138.623 27.684C139.223 28.2844 139.693 29.0025 140.001 29.7931C140.335 30.6561 140.499 31.5748 140.487 32.4998ZM137.944 32.4998C137.954 31.8318 137.854 31.1669 137.648 30.5313C137.471 29.9854 137.184 29.4818 136.804 29.0521C136.438 28.6465 135.984 28.3292 135.478 28.1241C134.918 27.9002 134.319 27.7899 133.716 27.7993H131.125V37.2116H133.722C134.326 37.2207 134.924 37.1108 135.485 36.8882C135.991 36.682 136.444 36.3643 136.811 35.9588C137.191 35.529 137.479 35.0255 137.655 34.4796C137.863 33.8407 137.965 33.1718 137.956 32.4998H137.944ZM142.747 39.1836H145.244V25.8146H142.747V39.1836ZM160 39.1836H158.078C157.888 39.1912 157.7 39.1342 157.547 39.0219C157.411 38.9183 157.307 38.7791 157.246 38.6198L156.247 35.8919H150.708L149.71 38.6198C149.652 38.7741 149.551 38.9086 149.418 39.0079C149.267 39.1268 149.079 39.1891 148.887 39.1836H146.956L152.207 25.8146H154.751L160 39.1836ZM151.346 34.1358H155.609L153.988 29.6883C153.912 29.4915 153.831 29.2572 153.743 28.9853C153.652 28.7167 153.566 28.4229 153.478 28.1122C153.393 28.4261 153.308 28.7186 153.224 28.9896C153.139 29.2604 153.057 29.4976 152.979 29.701L151.346 34.1358Z" fill="white"/>
</svg>
