<svg width="651" height="651" viewBox="0 0 651 651" fill="none" xmlns="http://www.w3.org/2000/svg">
<g clip-path="url(#clip0_4024_7687)">
<path d="M-0.140137 0.28125V650.841" stroke="#E80213" stroke-width="2" stroke-miterlimit="10"/>
<path d="M59.1074 0.28125V650.841" stroke="#E80213" stroke-width="2" stroke-miterlimit="10"/>
<path d="M118.355 0.28125V650.841" stroke="#E80213" stroke-width="2" stroke-miterlimit="10"/>
<path d="M177.548 0.28125V650.841" stroke="#E80213" stroke-width="2" stroke-miterlimit="10"/>
<path d="M236.795 0.28125V650.841" stroke="#E80213" stroke-width="2" stroke-miterlimit="10"/>
<path d="M296.043 0.28125V650.841" stroke="#E80213" stroke-width="2" stroke-miterlimit="10"/>
<path d="M355.236 0.28125V650.841" stroke="#E80213" stroke-width="2" stroke-miterlimit="10"/>
<path d="M414.484 0.28125V650.841" stroke="#E80213" stroke-width="2" stroke-miterlimit="10"/>
<path d="M473.731 0.28125V650.841" stroke="#E80213" stroke-width="2" stroke-miterlimit="10"/>
<path d="M532.924 0.28125V650.841" stroke="#E80213" stroke-width="2" stroke-miterlimit="10"/>
<path d="M592.172 0.28125V650.841" stroke="#E80213" stroke-width="2" stroke-miterlimit="10"/>
<path d="M651.419 0.28125V650.841" stroke="#E80213" stroke-width="2" stroke-miterlimit="10"/>
<path d="M-0.140137 650.841H651.419" stroke="#E80213" stroke-width="2" stroke-miterlimit="10"/>
<path d="M-0.140137 591.685H651.419" stroke="#E80213" stroke-width="2" stroke-miterlimit="10"/>
<path d="M-0.140137 532.528H651.419" stroke="#E80213" stroke-width="2" stroke-miterlimit="10"/>
<path d="M-0.140137 473.426H651.419" stroke="#E80213" stroke-width="2" stroke-miterlimit="10"/>
<path d="M-0.140137 414.269H651.419" stroke="#E80213" stroke-width="2" stroke-miterlimit="10"/>
<path d="M-0.140137 355.112H651.419" stroke="#E80213" stroke-width="2" stroke-miterlimit="10"/>
<path d="M-0.140137 296.011H651.419" stroke="#E80213" stroke-width="2" stroke-miterlimit="10"/>
<path d="M-0.140137 236.854H651.419" stroke="#E80213" stroke-width="2" stroke-miterlimit="10"/>
<path d="M-0.140137 177.697H651.419" stroke="#E80213" stroke-width="2" stroke-miterlimit="10"/>
<path d="M-0.140137 118.595H651.419" stroke="#E80213" stroke-width="2" stroke-miterlimit="10"/>
<path d="M-0.140137 59.438H651.419" stroke="#E80213" stroke-width="2" stroke-miterlimit="10"/>
<path d="M-0.140137 0.28125H651.419" stroke="#E80213" stroke-width="2" stroke-miterlimit="10"/>
</g>
<defs>
<clipPath id="clip0_4024_7687">
<rect width="651" height="651" fill="white"/>
</clipPath>
</defs>
</svg>
