<svg width="132" height="133" viewBox="0 0 132 133" fill="none" xmlns="http://www.w3.org/2000/svg">
<g clip-path="url(#clip0_4335_7944)">
<path d="M65.5356 0L65.5356 133L66.4671 133L66.4671 -4.07142e-08L65.5356 0Z" fill="#1A1A1A" stroke="#1A1A1A"/>
<path d="M-4.10226e-08 66.0308L0 66.9692L132 66.9692L132 66.0307L-4.10226e-08 66.0308Z" fill="#1A1A1A" stroke="#1A1A1A"/>
<path d="M28.5411 103.579L29.1997 104.243L31.8353 101.588L31.1767 100.924L28.5411 103.579Z" fill="#1A1A1A" stroke="#1A1A1A"/>
<path d="M95.672 37.2667L90.456 42.5222L89.799 41.8578L95.0151 36.6022L95.672 37.2667ZM85.2288 47.7853L79.3447 53.714L78.8479 54.2145L78.1884 53.5513L79.6862 52.0435L84.5743 47.1271L85.2288 47.7853ZM74.7844 58.3101L69.5597 63.5794L68.3985 64.7506L67.739 64.0862L73.4667 58.3151L74.1249 57.6531L74.7844 58.3101ZM64.3312 68.8437L57.9478 75.2754L57.2884 74.6122L63.6767 68.1817L64.3312 68.8437ZM53.8793 79.3748L52.7243 80.5385L47.5034 85.8015L46.8464 85.1383L50.2977 81.6647L53.231 78.7116L53.8793 79.3748ZM42.2774 91.0633L37.0614 96.3188L36.397 95.6632L41.613 90.4001L42.2774 91.0633Z" fill="#1A1A1A" stroke="#1A1A1A"/>
<path d="M100.165 31.4136L100.824 32.077L103.459 29.4207L102.8 28.7573L100.165 31.4136Z" fill="#1A1A1A" stroke="#1A1A1A"/>
<path d="M95.6021 37.3368L90.3861 42.5998L89.7267 41.9366L94.9427 36.6811L95.6021 37.3368ZM85.154 47.8616L81.7077 51.3353L79.4101 53.6502L78.7767 54.2884L78.1185 53.6239L79.2735 52.4615L84.4982 47.1984L85.154 47.8616ZM74.7107 58.3877L74.1929 58.9095L68.9768 64.165L68.3298 64.817L67.6716 64.1538L72.8976 58.8882L74.0563 57.7207L74.7107 58.3877ZM64.2626 68.915L58.5336 74.6886L57.8791 75.348L57.2185 74.6848L63.6043 68.2518L64.2626 68.915ZM53.8107 79.4436L47.4322 85.8716L46.7728 85.2084L51.9888 79.9454L53.1462 78.7804L53.8107 79.4436ZM42.2075 91.1334L36.9915 96.3952L36.332 95.7308L41.5481 90.4752L42.2075 91.1334Z" fill="#1A1A1A" stroke="#1A1A1A"/>
<path d="M28.5427 29.4204L31.1758 32.078L31.835 31.415L29.2018 28.7574L28.5427 29.4204Z" fill="#1A1A1A" stroke="#1A1A1A"/>
<path d="M95.6715 95.7333L95.012 96.3977L89.796 91.1359L90.453 90.4727L95.6715 95.7333ZM85.2283 85.2097L84.5688 85.8729L79.6856 80.9527L78.1879 79.4511L78.8473 78.7879L79.3441 79.2884L85.2283 85.2097ZM74.7838 74.6836L74.1243 75.348L73.4661 74.6861L67.7385 68.915L68.3979 68.2506L69.5591 69.4206L74.7838 74.6836ZM64.3307 64.1563L63.6737 64.8207L57.2878 58.3877L57.9472 57.7245L64.3307 64.1563ZM53.8787 53.6252L53.2218 54.2884L50.2884 51.3353L46.8421 47.8616L47.4991 47.1984L52.7238 52.4615L53.8787 53.6252ZM42.2768 41.9366L41.6174 42.5998L36.4014 37.3443L37.0583 36.6811L42.2768 41.9366Z" fill="#1A1A1A" stroke="#1A1A1A"/>
<path d="M100.164 101.588L102.802 104.241L103.46 103.576L100.822 100.924L100.164 101.588Z" fill="#1A1A1A" stroke="#1A1A1A"/>
<path d="M95.5946 95.6557L94.9364 96.3189L89.7204 91.0634L90.3799 90.4002L95.5946 95.6557ZM85.1539 85.1384L84.4969 85.8016L79.2722 80.5385L78.1172 79.3748L78.7755 78.7116L79.4088 79.3498L81.7064 81.666L85.1539 85.1384ZM74.7107 74.6123L74.0512 75.2755L72.8925 74.108L67.6666 68.8437L68.3248 68.1805L68.9718 68.8325L74.1878 74.088L74.7107 74.6123ZM64.2625 64.085L63.6031 64.7494L57.2172 58.3164L57.8779 57.6532L58.5323 58.3127L64.2625 64.085ZM53.8106 53.5551L53.1536 54.2183L51.9962 53.0534L46.7802 47.7903L47.4396 47.1271L53.8106 53.5551ZM42.2075 41.8641L41.5505 42.5285L36.3345 37.273L36.9939 36.6086L42.2075 41.8641Z" fill="#1A1A1A" stroke="#1A1A1A"/>
</g>
<defs>
<clipPath id="clip0_4335_7944">
<rect width="133" height="132" fill="white" transform="translate(0 133) rotate(-90)"/>
</clipPath>
</defs>
</svg>
