<svg width="160" height="64" viewBox="0 0 160 64" fill="none" xmlns="http://www.w3.org/2000/svg">
<path d="M56.2656 32.7134V19.3027H58.5289V25.1158H65.1863V19.3027H67.4496V32.7134H65.1863V27.2276H58.5289V32.7152H56.2656V32.7134Z" fill="#1A1A1A"/>
<path d="M71.1738 19.3027H73.4371V32.7134H71.1738V19.3027Z" fill="#1A1A1A"/>
<path d="M87.8634 23.6586C87.8634 25.8714 86.8972 27.2659 84.9664 27.8405L88.478 32.7134H85.5984L82.395 28.2043H79.4215V32.7134H77.1582V19.3027H82.1461C84.1917 19.3027 85.6576 19.6474 86.5403 20.3386C87.4212 21.0298 87.8634 22.137 87.8634 23.6586ZM84.8515 25.558C85.3129 25.1611 85.5427 24.5256 85.5427 23.6499C85.5427 22.7742 85.3059 22.1718 84.8324 21.8463C84.3588 21.5207 83.5145 21.3571 82.2993 21.3571H79.4215V26.1535H82.2418C83.5197 26.1517 84.3902 25.955 84.8515 25.558Z" fill="#1A1A1A"/>
<path d="M100.546 19.3027V21.4319H93.3902V24.9818H99.8179V26.9961H93.3902V30.5842H100.777V32.7134H91.127V19.3027H100.546Z" fill="#1A1A1A"/>
<path d="M108.932 32.7134V19.3027H111.195V25.1158H117.852V19.3027H120.116V32.7134H117.852V27.2276H111.195V32.7152H108.932V32.7134Z" fill="#424242"/>
<path d="M133.255 19.3027V21.4319H126.099V24.9818H132.527V26.9961H126.099V30.5842H133.486V32.7134H123.836V19.3027H133.255Z" fill="#424242"/>
<path d="M147.088 23.6586C147.088 25.8714 146.122 27.2659 144.191 27.8405L147.703 32.7134H144.825L141.622 28.2043H138.648V32.7134H136.385V19.3027H141.373C143.418 19.3027 144.884 19.6474 145.767 20.3386C146.648 21.0298 147.088 22.137 147.088 23.6586ZM144.076 25.558C144.538 25.1611 144.768 24.5256 144.768 23.6499C144.768 22.7742 144.531 22.1718 144.057 21.8463C143.584 21.5207 142.739 21.3571 141.524 21.3571H138.646V26.1535H141.467C142.746 26.1517 143.617 25.955 144.076 25.558Z" fill="#424242"/>
<path d="M159.768 19.3027V21.4319H152.613V24.9818H159.041V26.9961H152.613V30.5842H160V32.7134H150.35V19.3027H159.768Z" fill="#424242"/>
<path d="M55.8555 41.7826C55.8555 40.2018 57.1821 38.877 58.7368 38.877C59.515 38.877 60.2357 39.2043 60.7598 39.737L60.3263 40.1792C59.9171 39.7457 59.3513 39.4671 58.7385 39.4671C57.5268 39.4671 56.5031 40.5309 56.5031 41.7844C56.5031 43.0448 57.5268 44.1103 58.7385 44.1103C59.3531 44.1103 59.9171 43.8317 60.3263 43.3982L60.7598 43.8405C60.2357 44.3645 59.515 44.7005 58.7368 44.7005C57.1821 44.697 55.8555 43.3634 55.8555 41.7826Z" fill="#1A1A1A"/>
<path d="M67.0391 41.7826C67.0391 40.2018 68.3657 38.877 69.9204 38.877C71.4837 38.877 72.7947 40.2036 72.7947 41.7826C72.7947 43.3617 71.4855 44.697 69.9204 44.697C68.3639 44.697 67.0391 43.3634 67.0391 41.7826ZM72.1471 41.7826C72.1471 40.5291 71.1321 39.4654 69.9204 39.4654C68.7086 39.4654 67.685 40.5291 67.685 41.7826C67.685 43.0431 68.7086 44.1086 69.9204 44.1086C71.1321 44.1086 72.1471 43.0431 72.1471 41.7826Z" fill="#1A1A1A"/>
<path d="M79.7148 38.9746H80.3538L83.8409 43.5516V38.9746H84.4799V44.5997H83.8409L80.3538 40.0227V44.5997H79.7148V38.9746Z" fill="#1A1A1A"/>
<path d="M91.3594 43.7963L91.7598 43.2966C92.2351 43.7719 92.8166 44.1077 93.6017 44.1077C94.4705 44.1077 94.9109 43.6324 94.9109 43.1258C94.9109 42.5287 94.3782 42.2901 93.3963 42.0621C92.2664 41.8009 91.5544 41.4475 91.5544 40.4743C91.5544 39.5742 92.3569 38.8691 93.4381 38.8691C94.2738 38.8691 94.8953 39.1966 95.4106 39.6719L95.0171 40.1714C94.5506 39.7205 93.9935 39.4506 93.405 39.4506C92.7086 39.4506 92.202 39.9085 92.202 40.4256C92.202 41.007 92.7591 41.2109 93.7166 41.4407C94.7891 41.6949 95.5586 42.0795 95.5586 43.0701C95.5586 43.9632 94.8866 44.6909 93.5774 44.6909C92.6529 44.6892 91.9234 44.3534 91.3594 43.7963Z" fill="#1A1A1A"/>
<path d="M102.438 42.265V38.9746H103.076V42.265C103.076 43.3462 103.788 44.1157 104.788 44.1157C105.787 44.1157 106.499 43.3462 106.499 42.265V38.9746H107.138V42.265C107.138 43.6891 106.163 44.6972 104.788 44.6972C103.412 44.6972 102.438 43.6909 102.438 42.265Z" fill="#1A1A1A"/>
<path d="M117.837 43.9938V44.5997H114.129V38.9746H114.768V43.9938H117.837Z" fill="#1A1A1A"/>
<path d="M125.889 39.5805H123.998V38.9746H128.418V39.5805H126.528V44.5997H125.889V39.5805Z" fill="#1A1A1A"/>
<path d="M135.164 38.9746H135.803V44.5997H135.164V38.9746Z" fill="#1A1A1A"/>
<path d="M142.951 38.9746H143.59L147.077 43.5516V38.9746H147.716V44.5997H147.077L143.59 40.0227V44.5997H142.951V38.9746Z" fill="#1A1A1A"/>
<path d="M157.458 41.6346H159.709V43.837C159.185 44.361 158.3 44.697 157.522 44.697C155.965 44.697 154.641 43.3617 154.641 41.7826C154.641 40.2036 155.967 38.877 157.522 38.877C158.3 38.877 159.185 39.2043 159.709 39.737L159.275 40.1792C158.866 39.7457 158.136 39.4671 157.524 39.4671C156.312 39.4671 155.288 40.5309 155.288 41.7844C155.288 43.0448 156.312 44.1103 157.524 44.1103C158.048 44.1103 158.654 43.9049 159.071 43.5863V42.244H157.459V41.6346H157.458Z" fill="#1A1A1A"/>
<path d="M39.2575 15.1752V34.7942L26.7695 41.4012V8.5752L33.9336 12.3635L39.2575 15.1752Z" fill="#424242"/>
<path d="M12.488 15.175V34.794L0 41.3992V8.57324L7.16408 12.3616L12.488 15.175Z" fill="#3D3D3D"/>
<path d="M12.488 34.7939V48.8261L10.9455 49.6409L1.84194 54.4547L0 55.4261V41.3992L12.488 34.7939Z" fill="#1A1A1A"/>
<path d="M12.4883 48.8257V34.7935L26.7815 27.229V41.3552L12.4883 48.8257Z" fill="#747474"/>
<path d="M39.2655 20.6524V34.7472L26.7793 41.356V27.2297L39.2377 20.6367L39.2655 20.6524Z" fill="#1A1A1A"/>
<path d="M39.2655 34.7476V45.1098L37.723 45.9263L26.7793 51.7115V41.3563L39.2655 34.7476Z" fill="#424242"/>
</svg>
