<svg width="160" height="64" viewBox="0 0 160 64" fill="none" xmlns="http://www.w3.org/2000/svg">
<path d="M56.2656 32.7139V19.3032H58.5289V25.1163H65.1863V19.3032H67.4496V32.7139H65.1863V27.2281H58.5289V32.7157H56.2656V32.7139Z" fill="white"/>
<path d="M71.1738 19.3032H73.4371V32.7139H71.1738V19.3032Z" fill="white"/>
<path d="M87.8634 23.6591C87.8634 25.8719 86.8972 27.2664 84.9664 27.8409L88.478 32.7139H85.5984L82.395 28.2048H79.4215V32.7139H77.1582V19.3032H82.1461C84.1917 19.3032 85.6576 19.6479 86.5403 20.3391C87.4212 21.0303 87.8634 22.1375 87.8634 23.6591ZM84.8515 25.5585C85.3129 25.1616 85.5427 24.5261 85.5427 23.6504C85.5427 22.7747 85.3059 22.1723 84.8324 21.8468C84.3588 21.5212 83.5145 21.3575 82.2993 21.3575H79.4215V26.1539H82.2418C83.5197 26.1522 84.3902 25.9555 84.8515 25.5585Z" fill="white"/>
<path d="M100.546 19.3032V21.4324H93.3902V24.9823H99.8179V26.9966H93.3902V30.5847H100.777V32.7139H91.127V19.3032H100.546Z" fill="white"/>
<path d="M108.932 32.7139V19.3032H111.195V25.1163H117.852V19.3032H120.116V32.7139H117.852V27.2281H111.195V32.7157H108.932V32.7139Z" fill="#CCCCCC"/>
<path d="M133.255 19.3032V21.4324H126.099V24.9823H132.527V26.9966H126.099V30.5847H133.486V32.7139H123.836V19.3032H133.255Z" fill="#CCCCCC"/>
<path d="M147.088 23.6591C147.088 25.8719 146.122 27.2664 144.191 27.8409L147.703 32.7139H144.825L141.622 28.2048H138.648V32.7139H136.385V19.3032H141.373C143.418 19.3032 144.884 19.6479 145.767 20.3391C146.648 21.0303 147.088 22.1375 147.088 23.6591ZM144.076 25.5585C144.538 25.1616 144.768 24.5261 144.768 23.6504C144.768 22.7747 144.531 22.1723 144.057 21.8468C143.584 21.5212 142.739 21.3575 141.524 21.3575H138.646V26.1539H141.467C142.746 26.1522 143.617 25.9555 144.076 25.5585Z" fill="#CCCCCC"/>
<path d="M159.768 19.3032V21.4324H152.613V24.9823H159.041V26.9966H152.613V30.5847H160V32.7139H150.35V19.3032H159.768Z" fill="#CCCCCC"/>
<path d="M55.8555 41.7829C55.8555 40.2021 57.1821 38.8772 58.7368 38.8772C59.515 38.8772 60.2357 39.2045 60.7598 39.7372L60.3263 40.1794C59.9171 39.7459 59.3513 39.4674 58.7385 39.4674C57.5268 39.4674 56.5031 40.5311 56.5031 41.7846C56.5031 43.0451 57.5268 44.1105 58.7385 44.1105C59.3531 44.1105 59.9171 43.832 60.3263 43.3985L60.7598 43.8407C60.2357 44.3647 59.515 44.7007 58.7368 44.7007C57.1821 44.6973 55.8555 43.3637 55.8555 41.7829Z" fill="white"/>
<path d="M67.0391 41.7829C67.0391 40.2021 68.3657 38.8772 69.9204 38.8772C71.4837 38.8772 72.7947 40.2038 72.7947 41.7829C72.7947 43.3619 71.4855 44.6972 69.9204 44.6972C68.3639 44.6972 67.0391 43.3637 67.0391 41.7829ZM72.1471 41.7829C72.1471 40.5294 71.1321 39.4656 69.9204 39.4656C68.7086 39.4656 67.685 40.5294 67.685 41.7829C67.685 43.0433 68.7086 44.1088 69.9204 44.1088C71.1321 44.1088 72.1471 43.0433 72.1471 41.7829Z" fill="white"/>
<path d="M79.7148 38.9749H80.3538L83.8409 43.5519V38.9749H84.4799V44.5999H83.8409L80.3538 40.0229V44.5999H79.7148V38.9749Z" fill="white"/>
<path d="M91.3594 43.7967L91.7598 43.2971C92.2351 43.7724 92.8166 44.1082 93.6017 44.1082C94.4705 44.1082 94.9109 43.6329 94.9109 43.1263C94.9109 42.5291 94.3782 42.2906 93.3963 42.0626C92.2664 41.8014 91.5544 41.448 91.5544 40.4748C91.5544 39.5747 92.3569 38.8696 93.4381 38.8696C94.2738 38.8696 94.8953 39.1971 95.4106 39.6724L95.0171 40.1719C94.5506 39.721 93.9935 39.4511 93.405 39.4511C92.7086 39.4511 92.202 39.909 92.202 40.4261C92.202 41.0075 92.7591 41.2114 93.7166 41.4412C94.7891 41.6954 95.5586 42.08 95.5586 43.0706C95.5586 43.9637 94.8866 44.6914 93.5774 44.6914C92.6529 44.6897 91.9234 44.3539 91.3594 43.7967Z" fill="white"/>
<path d="M102.438 42.2653V38.9749H103.076V42.2653C103.076 43.3464 103.788 44.1159 104.788 44.1159C105.787 44.1159 106.499 43.3464 106.499 42.2653V38.9749H107.138V42.2653C107.138 43.6894 106.163 44.6974 104.788 44.6974C103.412 44.6974 102.438 43.6911 102.438 42.2653Z" fill="white"/>
<path d="M117.837 43.9941V44.5999H114.129V38.9749H114.768V43.9941H117.837Z" fill="white"/>
<path d="M125.889 39.5807H123.998V38.9749H128.418V39.5807H126.528V44.5999H125.889V39.5807Z" fill="white"/>
<path d="M135.164 38.9749H135.803V44.5999H135.164V38.9749Z" fill="white"/>
<path d="M142.951 38.9749H143.59L147.077 43.5519V38.9749H147.716V44.5999H147.077L143.59 40.0229V44.5999H142.951V38.9749Z" fill="white"/>
<path d="M157.458 41.6349H159.709V43.8372C159.185 44.3612 158.3 44.6972 157.522 44.6972C155.965 44.6972 154.641 43.3619 154.641 41.7829C154.641 40.2038 155.967 38.8772 157.522 38.8772C158.3 38.8772 159.185 39.2045 159.709 39.7372L159.275 40.1794C158.866 39.7459 158.136 39.4674 157.524 39.4674C156.312 39.4674 155.288 40.5311 155.288 41.7846C155.288 43.0451 156.312 44.1105 157.524 44.1105C158.048 44.1105 158.654 43.9051 159.071 43.5865V42.2442H157.459V41.6349H157.458Z" fill="white"/>
<path d="M39.2575 15.1755V34.7945L26.7695 41.4014V8.57544L33.9336 12.3638L39.2575 15.1755Z" fill="#CCCCCC"/>
<path d="M12.488 15.1752V34.7942L0 41.3994V8.57349L7.16408 12.3618L12.488 15.1752Z" fill="#E7E7E7"/>
<path d="M12.488 34.7942V48.8264L10.9455 49.6412L1.84194 54.4549L0 55.4264V41.3994L12.488 34.7942Z" fill="white"/>
<path d="M12.4883 48.8259V34.7938L26.7815 27.2292V41.3555L12.4883 48.8259Z" fill="#D7D7D7"/>
<path d="M39.2655 20.6524V34.7472L26.7793 41.356V27.2297L39.2377 20.6367L39.2655 20.6524Z" fill="white"/>
<path d="M39.2655 34.7478V45.11L37.723 45.9266L26.7793 51.7118V41.3565L39.2655 34.7478Z" fill="#CCCCCC"/>
</svg>
