<svg width="160" height="64" viewBox="0 0 160 64" fill="none" xmlns="http://www.w3.org/2000/svg">
<mask id="mask0_4383_10617" style="mask-type:luminance" maskUnits="userSpaceOnUse" x="48" y="11" width="112" height="42">
<path d="M159.999 11.3704H48.5098V52.6299H159.999V11.3704Z" fill="white"/>
</mask>
<g mask="url(#mask0_4383_10617)">
<path d="M51.4023 11.3704V18.7904H59.5769V11.3704H62.4694V29.0024H59.5769V21.3559H51.4023V29.0024H48.5098V11.3704H51.4023Z" fill="white"/>
<path d="M64.1611 26.0216C63.6161 25.0239 63.3438 23.8711 63.3438 22.5631C63.3438 21.272 63.6161 20.1275 64.1611 19.1298C64.7061 18.1321 65.4774 17.3565 66.4752 16.8032C67.473 16.2498 68.6174 15.9731 69.9086 15.9731C71.1996 15.9731 72.3442 16.2498 73.3418 16.8032C74.3397 17.3565 75.111 18.1321 75.6559 19.1298C76.201 20.1275 76.4733 21.272 76.4733 22.5631C76.4733 23.8711 76.201 25.0239 75.6559 26.0216C75.111 27.0193 74.3397 27.7907 73.3418 28.3356C72.3442 28.8806 71.1996 29.1531 69.9086 29.1531C68.6174 29.1531 67.473 28.8806 66.4752 28.3356C65.4774 27.7907 64.7061 27.0193 64.1611 26.0216ZM73.7066 22.5631C73.7066 21.3055 73.3586 20.2784 72.6627 19.482C71.9669 18.6854 71.0489 18.2872 69.9086 18.2872C68.7683 18.2872 67.8544 18.6854 67.1669 19.482C66.4794 20.2784 66.1357 21.3055 66.1357 22.5631C66.1357 23.8207 66.4794 24.8479 67.1669 25.6443C67.8544 26.4409 68.7683 26.8391 69.9086 26.8391C71.0489 26.8391 71.9669 26.4409 72.6627 25.6443C73.3586 24.8479 73.7066 23.8207 73.7066 22.5631Z" fill="white"/>
<path d="M89.5487 19.0419C90.0686 20.0312 90.3285 21.205 90.3285 22.5633C90.3285 23.8544 90.0686 24.9989 89.5487 25.9966C89.0289 26.9943 88.3078 27.7699 87.3855 28.3232C86.4631 28.8765 85.4153 29.1533 84.2415 29.1533C83.2856 29.1533 82.4556 28.973 81.7514 28.6125C81.0471 28.252 80.4769 27.7614 80.041 27.141V29.0023H77.3496V11.3955H80.066V18.0358C81.0891 16.6607 82.4808 15.9733 84.2415 15.9733C85.4153 15.9733 86.4631 16.2373 87.3855 16.7655C88.3078 17.2938 89.0289 18.0525 89.5487 19.0419ZM87.5616 22.5633C87.5616 21.3056 87.2137 20.2785 86.5179 19.4821C85.8219 18.6856 84.9122 18.2873 83.7886 18.2873C82.6652 18.2873 81.7597 18.6814 81.0722 19.4695C80.3847 20.2576 80.041 21.2804 80.041 22.5381C80.041 23.8125 80.3847 24.8521 81.0722 25.657C81.7597 26.4619 82.6652 26.8643 83.7886 26.8643C84.9122 26.8643 85.8219 26.4661 86.5179 25.6696C87.2137 24.8731 87.5616 23.8377 87.5616 22.5633Z" fill="white"/>
<path d="M94.2774 16.7906C95.2246 16.2456 96.3104 15.9731 97.5346 15.9731C98.7754 15.9731 99.8696 16.2247 100.817 16.7278C101.764 17.2307 102.511 17.9434 103.056 18.8656C103.601 19.788 103.881 20.8695 103.898 22.1104C103.898 22.4457 103.873 22.7895 103.823 23.1416H94.1138V23.2925C94.1808 24.416 94.5329 25.3048 95.1703 25.9587C95.8073 26.6126 96.6543 26.9397 97.7106 26.9397C98.549 26.9397 99.2534 26.7426 99.8234 26.3486C100.394 25.9545 100.771 25.397 100.955 24.676H103.672C103.437 25.9839 102.804 27.057 101.773 27.8955C100.741 28.7338 99.4546 29.1531 97.9118 29.1531C96.5705 29.1531 95.4009 28.8806 94.4031 28.3356C93.4053 27.7907 92.634 27.0235 92.089 26.0342C91.544 25.0448 91.2715 23.8962 91.2715 22.5883C91.2715 21.2636 91.5356 20.1024 92.064 19.1047C92.5921 18.107 93.33 17.3356 94.2774 16.7906ZM100.012 18.9538C99.3833 18.4255 98.5909 18.1614 97.6352 18.1614C96.7466 18.1614 95.9793 18.4339 95.3338 18.9789C94.6882 19.5238 94.315 20.2491 94.2144 21.1545H101.131C101.014 20.2155 100.641 19.482 100.012 18.9538Z" fill="white"/>
<path d="M112.325 18.6642H111.117C109.994 18.6642 109.181 19.0289 108.678 19.7584C108.175 20.4878 107.924 21.4142 107.924 22.5377V29.0019H105.207V16.1238H107.877L107.924 18.0605C108.292 17.4569 108.77 16.9832 109.357 16.6394C109.944 16.2956 110.733 16.1238 111.721 16.1238H112.325V18.6642Z" fill="white"/>
<path d="M133.283 21.7331V29.0022H130.566V21.7582C130.566 20.6348 130.34 19.7796 129.887 19.1927C129.434 18.6058 128.763 18.3123 127.874 18.3123C126.936 18.3123 126.194 18.6435 125.648 19.3058C125.104 19.9682 124.831 20.8779 124.831 22.0349V29.0022H122.09V21.7582C122.09 20.618 121.859 19.7586 121.398 19.1801C120.936 18.6016 120.262 18.3123 119.373 18.3123C118.45 18.3123 117.717 18.6561 117.172 19.3436C116.627 20.0311 116.354 20.9534 116.354 22.1104V29.0022H113.639V16.1241H116.28L116.305 17.8093C117.226 16.602 118.484 15.9899 120.077 15.9731C120.983 15.9731 121.78 16.166 122.466 16.5516C123.154 16.9373 123.683 17.5242 124.051 18.3123C124.504 17.5745 125.099 17.0002 125.837 16.5894C126.575 16.1786 127.463 15.9732 128.504 15.9732C129.912 15.9732 131.061 16.43 131.95 17.344C132.838 18.2579 133.283 19.7209 133.283 21.7331Z" fill="white"/>
<path d="M158.552 17.3811C157.588 16.442 156.344 15.9741 154.817 15.9741C153.04 15.9741 151.665 16.5862 150.692 17.8087L150.659 16.125H148.026V26.6375H146.895C146.325 26.6375 146.04 26.3358 146.04 25.732V20.651C146.04 19.1418 145.57 17.9847 144.63 17.1798C143.691 16.3766 142.359 15.9741 140.631 15.9741C139.005 15.9741 137.688 16.3296 136.682 17.0423C135.676 17.755 135.106 18.7561 134.972 20.0473H137.638C137.739 19.4772 138.045 19.0211 138.557 18.6773C139.068 18.3335 139.717 18.1608 140.505 18.1608C141.394 18.1608 142.09 18.3671 142.593 18.7779C143.096 19.1888 143.348 19.7539 143.348 20.475V21.2547H140.103C138.309 21.2547 136.942 21.6119 136.003 22.3245C135.064 23.0372 134.594 24.0552 134.594 25.3799C134.594 26.5537 135.03 27.476 135.902 28.1468C136.774 28.8176 137.931 29.1529 139.374 29.1529C141.234 29.1529 142.652 28.4151 143.625 26.9394C143.625 27.6102 143.809 28.1216 144.178 28.4738C144.547 28.8259 145.151 29.0021 145.989 29.0021H150.743V22.5124C150.743 21.2044 151.049 20.1781 151.66 19.4319C152.272 18.6857 153.116 18.3117 154.189 18.3117C155.195 18.3117 155.959 18.6303 156.478 19.2676C156.998 19.9048 157.258 20.8355 157.258 22.0596V29.0021H160V21.9087C160 19.8293 159.517 18.3201 158.552 17.3811ZM143.348 23.7197C143.331 24.7259 143.007 25.5308 142.379 26.1346C141.751 26.7382 140.874 27.0401 139.751 27.0401C139.013 27.0401 138.431 26.8724 138.004 26.537C137.575 26.2016 137.361 25.7572 137.361 25.2038C137.361 24.5666 137.587 24.0853 138.041 23.7583C138.493 23.4313 139.138 23.267 139.978 23.267H143.348V23.7197Z" fill="white"/>
<path d="M58.6715 35.5637C59.5937 36.0248 60.3106 36.6788 60.822 37.5256C61.3334 38.3725 61.5892 39.3576 61.5892 40.4811C61.5892 41.6549 61.2789 42.6861 60.6585 43.5749C60.038 44.4636 59.2079 45.0924 58.1684 45.4613L61.8911 52.4789H58.6715L55.3262 46.0901H51.4023V52.4789H48.5098V34.8721H55.452C56.676 34.8721 57.7492 35.1026 58.6715 35.5637ZM55.2256 43.5749C56.2652 43.5749 57.0911 43.2939 57.703 42.7322C58.3151 42.1705 58.6212 41.4201 58.6212 40.4811C58.6212 39.5421 58.3151 38.7916 57.703 38.2298C57.0911 37.6681 56.2652 37.3872 55.2256 37.3872H51.4023V43.5749H55.2256Z" fill="#C0C0C0"/>
<path d="M62.8078 49.4985C62.2628 48.5008 61.9902 47.3479 61.9902 46.0399C61.9902 44.7488 62.2628 43.6043 62.8078 42.6066C63.3526 41.6089 64.1241 40.8334 65.1217 40.28C66.1195 39.7267 67.2639 39.45 68.5551 39.45C69.8462 39.45 70.9907 39.7267 71.9883 40.28C72.9862 40.8334 73.7574 41.6089 74.3025 42.6066C74.8475 43.6043 75.12 44.7488 75.12 46.0399C75.12 47.3479 74.8475 48.5008 74.3025 49.4985C73.7574 50.4961 72.9862 51.2675 71.9883 51.8125C70.9907 52.3575 69.8462 52.6299 68.5551 52.6299C67.2639 52.6299 66.1195 52.3575 65.1217 51.8125C64.1241 51.2675 63.3526 50.4961 62.8078 49.4985ZM72.353 46.0399C72.353 44.7824 72.0053 43.7552 71.3092 42.9588C70.6134 42.1623 69.6952 41.764 68.5551 41.764C67.4149 41.764 66.501 42.1623 65.8135 42.9588C65.126 43.7552 64.7821 44.7824 64.7821 46.0399C64.7821 47.2976 65.126 48.3247 65.8135 49.1212C66.501 49.9177 67.4149 50.316 68.5551 50.316C69.6952 50.316 70.6134 49.9177 71.3092 49.1212C72.0053 48.3247 72.353 47.2976 72.353 46.0399Z" fill="#C0C0C0"/>
<path d="M82.3671 52.6299C81.0927 52.6299 79.9691 52.3575 78.9966 51.8125C78.024 51.2676 77.2736 50.492 76.7455 49.4859C76.2173 48.4798 75.9531 47.3228 75.9531 46.0148C75.9531 44.7069 76.2215 43.5582 76.758 42.5689C77.2946 41.5795 78.0534 40.8124 79.0342 40.2674C80.0152 39.7225 81.1513 39.45 82.4424 39.45C84.0522 39.45 85.3685 39.8734 86.3914 40.7202C87.4143 41.567 88.0516 42.7198 88.3031 44.1786H85.5112C85.3266 43.4408 84.9578 42.854 84.4044 42.418C83.8511 41.982 83.1718 41.764 82.3671 41.764C81.2771 41.764 80.401 42.1581 79.7386 42.9462C79.0762 43.7343 78.7451 44.7572 78.7451 46.0148C78.7451 47.2892 79.0762 48.3247 79.7386 49.1212C80.401 49.9177 81.2771 50.316 82.3671 50.316C83.2056 50.316 83.9014 50.0937 84.4547 49.6494C85.0081 49.205 85.3685 48.6056 85.5362 47.8509H88.3031C88.0516 49.3434 87.4061 50.5129 86.3663 51.3598C85.3266 52.2065 83.9936 52.6299 82.3671 52.6299Z" fill="#C0C0C0"/>
<path d="M92.3278 34.8721V45.8889L98.2137 39.6008H101.358L96.5535 44.7822L101.66 52.4789H98.44L94.6169 46.7692L92.3278 49.1838V52.4789H89.6113V34.8721H92.3278Z" fill="#C0C0C0"/>
<path d="M103.963 40.2674C104.91 39.7225 105.996 39.45 107.22 39.45C108.461 39.45 109.555 39.7015 110.502 40.2046C111.45 40.7076 112.196 41.4203 112.741 42.3425C113.286 43.2648 113.567 44.3464 113.584 45.5873C113.584 45.9225 113.558 46.2664 113.509 46.6185H103.799V46.7694C103.866 47.8929 104.218 48.7816 104.856 49.4355C105.493 50.0895 106.339 50.4165 107.396 50.4165C108.234 50.4165 108.938 50.2194 109.509 49.8255C110.079 49.4314 110.456 48.8738 110.64 48.1528H113.357C113.123 49.4607 112.489 50.5339 111.458 51.3724C110.427 52.2107 109.14 52.6299 107.597 52.6299C106.256 52.6299 105.086 52.3575 104.088 51.8125C103.091 51.2675 102.319 50.5004 101.774 49.5111C101.229 48.5216 100.957 47.373 100.957 46.0652C100.957 44.7404 101.221 43.5792 101.749 42.5815C102.277 41.5838 103.015 40.8124 103.963 40.2674ZM109.697 42.4306C109.069 41.9024 108.276 41.6382 107.32 41.6382C106.431 41.6382 105.665 41.9108 105.019 42.4557C104.374 43.0007 104.001 43.726 103.9 44.6314H110.817C110.7 43.6924 110.327 42.9588 109.697 42.4306Z" fill="#C0C0C0"/>
<path d="M113.381 41.99V39.6005H115.62V36.0037H118.362V39.6005H121.455V41.99H118.362V48.7058C118.362 49.2089 118.462 49.5651 118.663 49.7747C118.864 49.9844 119.209 50.0892 119.695 50.0892H121.757V52.4787H119.141C117.917 52.4787 117.024 52.1936 116.462 51.6235C115.901 51.0534 115.62 50.173 115.62 48.9824V41.99H113.381Z" fill="#C0C0C0"/>
<path d="M125.442 49.8757C126.021 50.3032 126.771 50.517 127.694 50.517C128.515 50.517 129.181 50.3619 129.693 50.0517C130.205 49.7415 130.46 49.3265 130.46 48.8067C130.46 48.3707 130.343 48.0437 130.109 47.8258C129.873 47.6077 129.559 47.4527 129.164 47.3604C128.77 47.2682 128.163 47.1718 127.341 47.0712C126.218 46.937 125.292 46.7567 124.561 46.5304C123.832 46.304 123.245 45.9435 122.801 45.4488C122.356 44.9541 122.135 44.2875 122.135 43.4492C122.135 42.661 122.356 41.961 122.801 41.3489C123.245 40.7369 123.858 40.2632 124.637 39.9278C125.417 39.5924 126.301 39.4248 127.291 39.4248C128.918 39.4248 130.238 39.7853 131.253 40.5063C132.267 41.2274 132.816 42.2419 132.9 43.5497H130.259C130.192 42.9629 129.899 42.4808 129.378 42.1035C128.858 41.7262 128.204 41.5375 127.416 41.5375C126.629 41.5375 125.991 41.6885 125.505 41.9903C125.019 42.2922 124.776 42.7029 124.776 43.2228C124.776 43.6084 124.897 43.8977 125.14 44.0906C125.384 44.2834 125.69 44.4175 126.059 44.493C126.427 44.5685 127.023 44.6565 127.844 44.757C128.951 44.8744 129.882 45.0548 130.636 45.2979C131.391 45.541 131.995 45.9267 132.447 46.4549C132.9 46.9832 133.126 47.7 133.126 48.6054C133.126 49.4103 132.891 50.1188 132.422 50.7309C131.952 51.3429 131.307 51.8125 130.485 52.1394C129.663 52.4664 128.742 52.6299 127.718 52.6299C125.991 52.6299 124.595 52.2401 123.53 51.4603C122.466 50.6805 121.917 49.6031 121.883 48.2282H124.499C124.549 48.8989 124.863 49.4481 125.442 49.8757Z" fill="#C0C0C0"/>
</g>
<mask id="mask1_4383_10617" style="mask-type:luminance" maskUnits="userSpaceOnUse" x="0" y="11" width="41" height="42">
<path d="M40.8512 11.3704H0V52.2215H40.8512V11.3704Z" fill="white"/>
</mask>
<g mask="url(#mask1_4383_10617)">
<path d="M8.86265 43.3589L0 42.0088V52.2216H10.2128L8.86265 43.3589Z" fill="#C0C0C0"/>
<path d="M0 11.3704V21.5832L20.4255 11.3704L10.2128 31.7959L8.86265 22.9333L0 21.5832V42.0088L23.9134 28.3081L10.2128 52.2215H30.6384L29.2883 43.3588L20.4255 42.0088L40.8512 31.7959L30.6384 52.2215H40.8512V11.3704H0ZM30.6384 31.7959L29.2883 22.9333L20.4255 21.5832L40.8512 11.3704L30.6384 31.7959Z" fill="#C0C0C0"/>
</g>
</svg>
