<svg width="119" height="72" viewBox="0 0 119 72" fill="none" xmlns="http://www.w3.org/2000/svg">
<path d="M118.639 11.819V0.180847H11.9733L0.180237 11.9739V71.8198H106.846L118.639 60.0267V49.8654H113.185V36.6617H118.639V25.0228H113.185V11.819H118.639Z" fill="white"/>
<path d="M106.846 72H0.180172C0.0805315 72 0 71.9195 0 71.8198V11.974C0 11.9262 0.0191084 11.8805 0.0525495 11.8463L11.8463 0.0525495C11.8805 0.0191084 11.9262 0 11.974 0H118.64C118.74 0 118.82 0.0805326 118.82 0.180173V11.8183C118.82 11.918 118.74 11.9985 118.64 11.9985H113.366V24.8419H118.64C118.74 24.8419 118.82 24.9225 118.82 25.0221V36.6603C118.82 36.7599 118.74 36.8405 118.64 36.8405H113.366V49.6846H118.64C118.74 49.6846 118.82 49.7651 118.82 49.8647V60.0254C118.82 60.0731 118.801 60.1189 118.768 60.153L106.974 71.9468C106.94 71.9809 106.894 72 106.846 72ZM0.360345 71.6397H106.771L118.459 59.9517V50.0456H113.185C113.085 50.0456 113.005 49.9651 113.005 49.8654V36.661C113.005 36.5613 113.085 36.4808 113.185 36.4808H118.459V25.203H113.185C113.085 25.203 113.005 25.1224 113.005 25.0228V11.819C113.005 11.7194 113.085 11.6389 113.185 11.6389H118.459V0.361028H12.0483L0.360345 12.049V71.6397Z" fill="white"/>
<path d="M21.9278 27.5459V2.70398H28.5211V58.9819H21.9278V34.1393H19.6122V58.9819H13.0188V2.70398H19.6122V27.5466H21.9278V27.5459Z" fill="black"/>
<path d="M39.8236 2.70398H46.4169V53.3699C46.4169 55.3587 45.7106 56.8826 44.2979 57.9418C42.8851 59.0017 40.9879 59.5313 38.6074 59.5313C36.2529 59.5313 34.3816 59.001 32.9955 57.9418C31.6087 56.8826 30.9153 55.3587 30.9153 53.3699V2.70398H37.5086V51.8392C37.5086 52.1531 37.6131 52.4274 37.8226 52.6629C38.0314 52.8984 38.2935 53.0157 38.6074 53.0157C38.9473 53.0157 39.2353 52.8984 39.4707 52.6629C39.7062 52.4274 39.8243 52.1531 39.8243 51.8392V2.70398H39.8236Z" fill="black"/>
<path d="M64.3126 28.6843C64.3126 29.4432 64.1359 30.1823 63.783 30.9016C63.4295 31.6216 63.018 32.1123 62.5471 32.373C62.9914 32.6351 63.3906 33.119 63.7441 33.8253C64.097 34.5317 64.2867 35.2776 64.3133 36.0625L65.4906 58.9819H58.8972L57.7199 36.8869C57.6933 36.547 57.5691 36.259 57.3473 36.0236C57.1248 35.7881 56.843 35.6707 56.5038 35.6707H55.405V58.9826H48.811V2.70398H56.5031C58.962 2.70398 60.8791 3.18854 62.2529 4.15628C63.6267 5.12471 64.3133 6.60294 64.3133 8.59098V28.6843H64.3126ZM56.5031 29.0767C56.843 29.0767 57.131 28.9593 57.3664 28.7232C57.6019 28.4877 57.7199 28.2004 57.7199 27.8599V10.435C57.7199 10.1211 57.6019 9.85355 57.3664 9.63038C57.131 9.40857 56.843 9.29665 56.5031 9.29665H55.4043V29.0767H56.5031Z" fill="black"/>
<path d="M82.9939 28.6843C82.9939 29.4432 82.8172 30.1823 82.4644 30.9016C82.1108 31.6216 81.6993 32.1123 81.2284 32.373C81.6727 32.6351 82.0719 33.119 82.4254 33.8253C82.7783 34.5317 82.968 35.2776 82.9946 36.0625L84.1719 58.9819H77.5785L76.4013 36.8869C76.3747 36.547 76.2505 36.259 76.0286 36.0236C75.8062 35.7881 75.5243 35.6707 75.1851 35.6707H74.0863V58.9826H67.493V2.70398H75.1851C77.6441 2.70398 79.5611 3.18854 80.9349 4.15628C82.3087 5.12471 82.9953 6.60294 82.9953 8.59098V28.6843H82.9939ZM75.1837 29.0767C75.5236 29.0767 75.8116 28.9593 76.0471 28.7232C76.2825 28.4877 76.4006 28.2004 76.4006 27.8599V10.435C76.4006 10.1211 76.2825 9.85355 76.0471 9.63038C75.8116 9.40857 75.5236 9.29665 75.1837 9.29665H74.085V29.0767H75.1837Z" fill="black"/>
<path d="M99.5356 3.7632C100.961 4.83604 101.675 6.36682 101.675 8.35486V58.9819H95.0812V35.2777H92.7655V58.9819H86.1722V8.35486C86.1722 6.36682 86.8717 4.83604 88.2715 3.7632C89.6705 2.69035 91.535 2.15393 93.8643 2.15393C96.2195 2.15461 98.1093 2.69035 99.5356 3.7632ZM92.7655 28.6843H95.0812V9.88564C95.0812 9.57171 94.9631 9.29121 94.7276 9.04211C94.4922 8.79369 94.2042 8.66948 93.8643 8.66948C93.5504 8.66948 93.2883 8.79437 93.0795 9.04211C92.8699 9.29121 92.7655 9.57171 92.7655 9.88564V28.6843Z" fill="black"/>
<path d="M116.117 2.70398V9.29733H110.662V27.5466H116.117V34.14H110.662V52.3892H116.117V58.9826H104.069V2.70398H116.117Z" fill="black"/>
<path d="M79.269 69.8666H77.0905L85.7968 61.1788H87.9753L79.269 69.8666Z" fill="#138CB9"/>
<path d="M82.5994 69.8666H80.421L89.1273 61.1788H91.3057L82.5994 69.8666Z" fill="#0C9B4C"/>
<path d="M85.9306 69.8666H83.7521L92.4584 61.1788H94.6369L85.9306 69.8666Z" fill="#FFC81B"/>
<path d="M89.2617 69.8666H87.0826L95.7889 61.1788H97.968L89.2617 69.8666Z" fill="#E97F35"/>
<path d="M92.5922 69.8666H90.4138L99.12 61.1788H101.298L92.5922 69.8666Z" fill="#CF2323"/>
</svg>
