<svg width="102" height="65" viewBox="0 0 102 65" fill="none" xmlns="http://www.w3.org/2000/svg">
<g clip-path="url(#clip0_4365_7824)">
<path d="M52.2702 20.0397C60.2216 20.8698 67.3776 15.3688 68.7065 7.59936L100.929 10.9659L95.3976 63.9438L63.2177 60.5776C63.5229 52.7018 57.6676 45.833 49.7146 45.0028C41.7633 44.1727 34.6074 49.6736 33.2784 57.443L1.09842 54.0767L6.62976 1.09876L38.7672 4.46478C38.4619 12.3406 44.3172 19.2095 52.2702 20.0397Z" fill="#E80213" stroke="black" stroke-width="2"/>
<path d="M26.1453 13.7737C17.3455 12.881 9.48085 19.2577 8.5456 28.0575C7.61035 36.8574 14.0296 44.7645 22.8294 45.6998C31.6293 46.635 39.5364 40.2158 40.4717 31.4159C41.3644 22.6161 34.9452 14.7089 26.1453 13.7737ZM22.872 45.1471C14.3697 44.2544 8.163 36.6023 9.05574 28.1426C9.94848 19.6828 17.6005 13.4336 26.0603 14.3263C34.5201 15.2191 40.7693 22.8711 39.8765 31.3309C39.0263 39.8332 31.3742 46.0399 22.872 45.1471Z" fill="white" stroke="white"/>
<path d="M22.9789 25.8968C23.4009 21.857 22.3422 18.4357 20.6141 18.2552C18.8861 18.0747 17.1432 21.2033 16.7212 25.2431C16.2991 29.2829 17.3579 32.7042 19.0859 32.8847C20.8139 33.0652 22.5569 29.9366 22.9789 25.8968Z" fill="white"/>
<path d="M33.0629 26.9494C33.4849 22.9095 32.4262 19.4882 30.6981 19.3077C28.9701 19.1272 27.2272 22.2558 26.8051 26.2956C26.3831 30.3355 27.4419 33.7567 29.1699 33.9373C30.8979 34.1178 32.6408 30.9892 33.0629 26.9494Z" fill="white"/>
<path d="M23.2555 41.7887C20.4922 41.4911 18.0266 40.3008 16.3261 38.4728C14.5832 36.5598 13.7754 34.0091 14.0305 31.3309C14.073 31.1183 14.2431 30.9483 14.4981 30.9483C14.7107 30.9908 14.8807 31.1609 14.8807 31.4159C14.3706 36.3473 17.8991 40.3858 23.3405 40.9385C28.7395 41.4911 33.0756 38.3028 33.5858 33.3289C33.6283 33.1164 33.7983 32.9463 34.0534 32.9463C34.266 32.9889 34.436 33.1589 34.436 33.414C34.1384 36.1347 32.8206 38.4303 30.695 39.9607C28.6544 41.4061 26.0187 42.0863 23.2555 41.7887Z" fill="white" stroke="white"/>
<path d="M79.1566 19.3002C70.3567 18.3649 62.4496 24.7842 61.5143 33.584C60.5791 42.3839 66.9983 50.291 75.7982 51.2263C84.598 52.1615 92.5052 45.7423 93.4404 36.9424C94.3757 28.1426 87.9564 20.2354 79.1566 19.3002ZM75.8832 50.6736C67.3809 49.7809 61.1743 42.1288 62.067 33.669C62.9597 25.2093 70.6118 18.9601 79.0716 19.8528C87.5313 20.7456 93.7805 28.3976 92.8878 36.8574C91.995 45.3172 84.3855 51.5663 75.8832 50.6736Z" fill="white" stroke="white"/>
<path d="M75.9574 31.4572C76.3794 27.4174 75.3207 23.9961 73.5927 23.8156C71.8646 23.6351 70.1217 26.7637 69.6997 30.8035C69.2777 34.8434 70.3364 38.2646 72.0644 38.4451C73.7924 38.6257 75.5354 35.4971 75.9574 31.4572Z" fill="white"/>
<path d="M86.0414 32.5097C86.4634 28.4699 85.4047 25.0486 83.6766 24.8681C81.9486 24.6876 80.2057 27.8162 79.7837 31.856C79.3616 35.8958 80.4204 39.3171 82.1484 39.4976C83.8764 39.6781 85.6194 36.5495 86.0414 32.5097Z" fill="white"/>
<path d="M76.2242 47.3152C73.461 47.0176 70.9953 45.8273 69.2949 43.9993C67.5519 42.0863 66.7442 39.5356 66.9993 36.8574C67.0418 36.6448 67.2118 36.4748 67.4669 36.4748C67.6794 36.5173 67.8495 36.6873 67.8495 36.9424C67.3394 41.9163 70.8678 45.9123 76.3093 46.465C81.7082 47.0176 86.0444 43.8293 86.5545 38.8554C86.597 38.6429 86.7671 38.4728 87.0221 38.4728C87.2347 38.5153 87.4048 38.6854 87.4048 38.9405C87.1072 41.6187 85.7893 43.9143 83.7063 45.4447C81.6232 46.9751 78.9875 47.6128 76.2242 47.3152Z" fill="white" stroke="white"/>
</g>
<defs>
<clipPath id="clip0_4365_7824">
<rect width="101.985" height="65" fill="white"/>
</clipPath>
</defs>
</svg>
