<svg width="128" height="79" viewBox="0 0 128 79" fill="none" xmlns="http://www.w3.org/2000/svg">
<g clip-path="url(#clip0_4365_7844)">
<path d="M109.247 40.4344C108.259 40.1607 108.274 38.7554 109.267 38.5018L125.995 34.2295C127.112 33.9443 126.939 32.3076 125.788 32.2614L108.544 31.5696C107.52 31.5286 107.213 30.1571 108.122 29.6836L121.639 22.642C122.649 22.1157 122.134 20.5802 121.011 20.7689L102.42 23.8918C101.459 24.0532 100.858 22.8845 101.549 22.1969L111.017 12.7724C111.789 12.0041 110.951 10.7302 109.94 11.1354L91.9295 18.3542C91.1251 18.6766 90.3193 17.893 90.6192 17.08L94.8008 5.74163C95.1459 4.80572 94.0583 3.99677 93.2612 4.59659L78.7723 15.5003C78.1934 15.936 77.3577 15.6306 77.1962 14.9243L74.3785 2.60454C74.1785 1.73005 73.0172 1.54088 72.55 2.30667L64.5825 15.3662C64.2392 15.929 63.4547 16.0113 63.0019 15.5321L52.505 4.42103C51.8894 3.76933 50.7933 4.19459 50.7783 5.091L50.5663 17.7333C50.5542 18.4578 49.7997 18.9292 49.1433 18.6226L32.7027 10.9436C31.7988 10.5213 30.9017 11.538 31.4333 12.3824L37.8786 22.6202C38.3401 23.3534 37.7145 24.2867 36.8609 24.1382L17.7527 20.8147C16.6796 20.6281 16.1237 22.0483 17.0384 22.6397L28.2429 29.8838C29.0611 30.4128 28.7168 31.6804 27.7434 31.7227L8.9161 32.5403C7.778 32.5898 7.59482 34.1992 8.69271 34.5032L23.3704 38.5662C24.3587 38.8398 24.3439 40.2463 23.3501 40.4991L6.63285 44.7512C5.51574 45.0354 5.68657 46.6722 6.83827 46.7195L24.0795 47.4285C25.1037 47.4706 25.4089 48.8429 24.4991 49.3152L10.9711 56.3372C9.96008 56.862 10.4728 58.3985 11.5964 58.2111L30.2023 55.1074C31.164 54.9469 31.7633 56.1172 31.071 56.8038L21.601 66.1952C20.8271 66.9627 21.6649 68.2387 22.6768 67.8336L40.6998 60.618C41.5039 60.2961 42.3091 61.0791 42.0099 61.8919L37.8269 73.253C37.4821 74.1896 38.5715 74.998 39.368 74.3965L53.8282 63.4759C54.4064 63.0392 55.2426 63.3433 55.4053 64.0494L58.2464 76.3787C58.4476 77.2517 59.607 77.44 60.0741 76.6756L68.0441 63.6345C68.3877 63.0722 69.1718 62.9902 69.6243 63.4692L80.1219 74.581C80.7376 75.2327 81.8337 74.8074 81.8487 73.911L82.0606 61.2695C82.0727 60.5449 82.8276 60.0734 83.4841 60.3805L99.8941 68.0555C100.798 68.4783 101.696 67.4615 101.164 66.6169L94.7185 56.3787C94.2573 55.646 94.8818 54.7132 95.735 54.8605L114.866 58.164C115.94 58.3494 116.494 56.9277 115.578 56.3378L104.367 49.1187C103.548 48.5907 103.891 47.3213 104.865 47.2789L123.689 46.4614C124.827 46.412 125.01 44.8029 123.913 44.4987L109.247 40.4344Z" fill="#E80213" stroke="black"/>
<path d="M48.2105 55.4754C46.9672 54.963 45.8701 54.2066 44.8218 53.2305C43.8223 52.3033 42.8715 51.1077 42.1157 49.8876C41.3843 48.7652 40.7261 47.5452 40.2385 46.2275C39.7753 44.9831 39.4584 43.6654 39.3121 42.3234C39.1659 40.957 39.2146 39.5417 39.434 38.1997C39.6778 36.7844 40.0679 35.4668 40.5555 34.198C41.0674 32.8559 41.75 31.5383 42.5302 30.4159C43.3591 29.2934 44.2611 28.2686 45.3094 27.6098C46.2358 27.0486 47.3328 26.6825 48.4787 27.0486C49.6245 27.4146 50.5021 28.3174 51.2335 29.3422C52.2087 30.6843 52.8181 32.4167 53.3545 34.076C54.0127 36.1988 54.3784 38.4925 54.6222 40.713C54.866 42.9822 54.9879 45.3735 54.7441 47.6428C54.549 49.3996 54.2809 51.2053 53.5983 52.7181C53.0863 53.8405 52.4281 54.8654 51.3798 55.4022C50.3802 55.9146 49.21 55.8658 48.2105 55.4754ZM43.5297 41.8842C43.8223 43.2262 44.1879 44.6171 44.6268 45.9347C45.0168 47.1303 45.4557 48.326 45.992 49.424C46.4308 50.3268 46.9184 51.2297 47.5279 52.0105C48.0642 52.6937 48.5762 53.1329 49.1125 53.2549C49.6001 53.3769 49.9902 53.2061 50.3071 52.6937C50.5996 52.1813 50.819 51.4005 50.8922 50.3268C50.9897 49.0092 50.9166 47.6916 50.819 46.3739C50.6728 44.6415 50.4046 42.8846 50.0633 41.1766C49.7464 39.5417 49.3563 37.8825 48.8443 36.2964C48.4543 35.0764 48.0155 33.8564 47.4304 32.7339C46.9428 31.8067 46.4552 31.1723 45.9432 30.8063C45.4313 30.4403 44.9681 30.4159 44.5049 30.6599C44.066 30.9039 43.7004 31.3919 43.4322 32.0507C43.164 32.7339 42.969 33.5391 42.8715 34.5152C42.774 35.5888 42.8227 36.7112 42.8958 37.7849C43.0177 39.1757 43.2615 40.5666 43.5297 41.8842Z" fill="white"/>
<path d="M55.037 33.2951C54.8907 32.0507 54.7688 30.7818 54.5494 29.5618C54.3787 28.5858 54.2325 27.7805 54.0862 27.1705C53.9399 26.5361 53.818 26.0725 53.6961 25.7065C53.5742 25.3649 53.5011 25.0477 53.4279 24.8281C53.3792 24.7061 53.3548 24.5841 53.3304 24.4621C53.3304 24.4376 53.3304 24.4376 53.3304 24.4132C53.3061 24.2668 53.3548 24.1692 53.4523 24.1448C54.8907 23.6324 56.3291 23.1932 57.7918 22.7784C57.9137 22.754 58.0356 22.8028 58.1331 22.9248C58.255 23.0468 58.3281 23.242 58.4013 23.5104C60.6929 31.5383 62.9602 39.5661 65.203 47.6183C65.2518 47.8379 65.3249 47.9599 65.3737 47.9599C65.4224 47.9599 65.4712 47.8379 65.4712 47.5939C66.1051 38.8585 66.7389 30.123 67.3972 21.3876C69.0549 21.3388 70.6883 21.3632 72.3461 21.4608C72.4436 21.4608 72.5168 21.5584 72.5168 21.7048C72.5168 21.7292 72.5168 21.7292 72.5168 21.7536C72.5168 21.8756 72.5168 21.9976 72.5168 22.144C72.4924 22.388 72.4924 22.7296 72.4436 23.12C72.3949 23.5104 72.3705 24.0472 72.3705 24.7061C72.3705 25.3893 72.3949 26.2189 72.4436 27.2681C72.5168 28.5858 72.6386 29.879 72.7605 31.1722C73.2969 36.2476 73.8332 41.2985 74.3452 46.3739C74.4915 47.6671 74.6377 48.9848 74.8328 50.278C75.0034 51.3028 75.1497 52.1325 75.296 52.7913C75.4422 53.4501 75.5885 53.9625 75.7104 54.3285C75.8323 54.6945 75.9298 55.0362 75.9786 55.2558C76.0273 55.4022 76.0517 55.5242 76.0761 55.6218C76.0761 55.6462 76.0761 55.6462 76.0761 55.6706C76.1005 55.817 76.0517 55.9146 75.9542 55.939C74.1502 56.427 72.3461 56.8174 70.5177 57.1346C70.4202 57.159 70.347 57.0858 70.347 56.915C70.347 56.8906 70.347 56.8906 70.347 56.8662C70.347 56.7442 70.347 56.5978 70.347 56.4514C70.3714 56.183 70.3714 55.817 70.4202 55.4022C70.4689 54.9873 70.4933 54.4261 70.4933 53.7185C70.4933 53.0109 70.4689 52.1325 70.4202 51.0588C70.347 49.7168 70.2251 48.3748 70.0788 47.0327C69.6156 42.5674 69.1524 38.1265 68.6892 33.6611C68.6649 33.3927 68.6405 33.2463 68.5917 33.2219C68.5673 33.1975 68.543 33.3439 68.5186 33.6123C67.9579 41.2985 67.3971 49.0092 66.8364 56.6954C66.8364 56.9638 66.7877 57.1834 66.6902 57.3542C66.5926 57.525 66.4951 57.5982 66.3732 57.5982C65.5931 57.647 64.813 57.6714 64.0328 57.6958C63.9109 57.6958 63.789 57.6226 63.6672 57.4762C63.5453 57.3298 63.4477 57.1102 63.399 56.8418C61.4243 49.79 59.4496 42.7138 57.4261 35.6864C57.353 35.4424 57.3286 35.3204 57.3042 35.3448C57.2798 35.3692 57.2798 35.5156 57.3042 35.7596C57.7187 39.8101 58.1575 43.8606 58.5719 47.9355C58.7182 49.2288 58.8645 50.522 59.0595 51.7909C59.2302 52.8157 59.3764 53.6697 59.5227 54.3285C59.669 55.0118 59.8153 55.5242 59.9372 55.939C60.0591 56.3294 60.1566 56.671 60.2297 56.9394C60.2785 57.0858 60.3028 57.2322 60.3272 57.3298C60.3272 57.3542 60.3272 57.3542 60.3272 57.3786C60.3516 57.525 60.3028 57.5982 60.2053 57.5982C59.1083 57.525 58.0112 57.403 56.9142 57.2566C56.8166 57.2322 56.7435 57.159 56.7435 57.0126C56.7435 56.9882 56.7435 56.9882 56.7435 56.9638C56.7435 56.8662 56.7435 56.7198 56.7679 56.5978C56.7923 56.3782 56.7923 56.0366 56.841 55.6706C56.8898 55.3046 56.9142 54.7921 56.9142 54.1577C56.9142 53.5233 56.9142 52.6937 56.8654 51.7177C56.8166 50.4732 56.6947 49.2044 56.5728 47.9599C56.0609 43.031 55.5489 38.1753 55.037 33.2951Z" fill="white"/>
<path d="M81.487 22.5588C82.706 22.9248 83.9006 23.7057 84.7538 24.8037C85.4121 25.6577 86.0215 26.7313 86.1434 27.9026C86.2409 28.8786 86.1434 29.635 85.8509 30.1962C85.5583 30.7575 85.1683 31.0259 84.6563 30.9771C84.3881 30.9527 84.12 30.8551 83.8518 30.6599C83.5836 30.4891 83.3398 30.245 83.1448 29.9278C82.9498 29.6106 82.7791 29.2202 82.6572 28.781C82.5353 28.3418 82.5109 27.8294 82.5597 27.2682C82.6816 26.5117 82.6085 25.9261 82.3403 25.4381C82.0721 24.9745 81.7308 24.6817 81.292 24.5841C80.8044 24.4621 80.3412 24.6573 79.9511 25.1941C79.5611 25.7065 79.2441 26.4873 79.0247 27.5366C78.7809 28.7566 78.6834 30.0742 78.7078 31.3431C78.7322 32.9535 78.9028 34.5884 79.171 36.1744C79.4879 38.1509 79.9024 40.2005 80.5362 42.1038C80.9507 43.3482 81.4139 44.6171 82.0721 45.7395C82.5841 46.5935 83.096 47.1791 83.5836 47.4476C84.0712 47.716 84.5344 47.7648 84.9488 47.594C85.412 47.3987 85.8021 47.0083 86.0947 46.4471C86.4116 45.8615 86.6066 45.1539 86.631 44.3731C86.6554 43.4214 86.6798 42.3722 86.3872 41.4206C86.1678 40.6641 85.8753 40.0541 85.5339 39.5905C85.1926 39.1269 84.827 38.7365 84.4613 38.4681C84.0956 38.1997 83.803 37.9557 83.608 37.7849C83.5105 37.6873 83.4617 37.5409 83.413 37.2724C83.3886 37.0284 83.4373 36.882 83.5592 36.882C85.3877 36.7356 87.2405 36.5892 89.0689 36.4672C89.1908 36.4672 89.2883 36.516 89.3615 36.6136C89.459 36.7112 89.5077 36.8576 89.5077 37.0528C89.5565 39.0049 89.459 40.9814 89.1664 42.8602C88.9226 44.4707 88.557 46.1299 88.0206 47.6184C87.5574 48.8872 87.0211 50.2048 86.2653 51.2297C85.6558 52.0349 84.9488 52.9377 84.0956 53.3037C83.1204 53.7185 82.4134 53.7429 81.3895 53.3769C80.3412 52.9865 79.4879 51.9129 78.7566 50.8637C77.757 49.424 77.0988 47.5696 76.5381 45.8371C75.8067 43.5434 75.3923 41.0546 75.1485 38.6389C74.9047 36.2476 74.8072 33.8075 75.0022 31.3919C75.1485 29.5618 75.441 27.5854 76.1236 25.9993C76.6356 24.7793 77.2938 23.6569 78.3421 22.9736C79.2685 22.2904 80.4143 22.2416 81.487 22.5588Z" fill="white"/>
<path d="M89.2396 26.3653C89.2152 26.1945 89.2396 26.0725 89.3127 25.9993C89.3859 25.9261 89.459 25.9017 89.5565 25.9505C90.3854 26.3653 91.2387 26.7801 92.0676 27.2193C92.3358 27.3657 92.482 27.5853 92.5064 27.9026C92.8477 31.9531 93.2134 36.0036 93.5791 40.0297C93.6035 40.3469 93.5059 40.5665 93.2622 40.6641C92.5308 40.9569 92.1407 41.1033 91.385 41.3718C91.1412 41.4694 90.9949 41.323 90.9705 40.9325C90.3854 36.1012 89.8003 31.2211 89.2396 26.3653ZM91.4093 46.0323C91.3362 45.3979 91.4093 44.7879 91.6288 44.2266C91.8482 43.6654 92.1407 43.2994 92.5308 43.1042C92.9208 42.909 93.2622 42.9334 93.5547 43.153C93.8472 43.3726 94.0423 43.7142 94.091 44.251C94.1398 44.7635 94.0667 45.3003 93.8473 45.8859C93.6278 46.4471 93.3353 46.9107 92.9696 47.2279C92.6039 47.5207 92.2626 47.5939 91.9701 47.3499C91.6775 47.1059 91.4825 46.6667 91.4093 46.0323Z" fill="white"/>
</g>
<defs>
<clipPath id="clip0_4365_7844">
<rect width="128" height="79" fill="white"/>
</clipPath>
</defs>
</svg>
