<svg width="79" height="75" viewBox="0 0 79 75" fill="none" xmlns="http://www.w3.org/2000/svg">
<g clip-path="url(#clip0_4365_7854)">
<path d="M56.361 74.1302C56.1789 74.1302 55.9968 74.065 55.835 73.9345L39.4888 59.3216L23.1628 73.9345C23.0212 74.065 22.8391 74.1302 22.6368 74.1302C22.5154 74.1302 22.3738 74.1085 22.2726 74.0433C21.9894 73.891 21.8073 73.5431 21.8478 73.1952L23.446 51.8412L1.51616 48.6011C1.17224 48.5576 0.909243 48.2749 0.828321 47.927C0.767629 47.5573 0.909243 47.2094 1.19247 47.0137L19.4404 34.9232L8.43498 16.3744C8.25291 16.0699 8.27314 15.6785 8.47544 15.3958C8.63728 15.1784 8.88005 15.0479 9.12282 15.0479C9.20374 15.0479 9.26443 15.0479 9.34535 15.0696L30.6278 21.3758L38.7807 1.39176C38.9021 1.06558 39.2055 0.869873 39.5292 0.869873C39.8529 0.869873 40.1361 1.06558 40.2778 1.39176L48.4306 21.3758L69.7131 15.0696C69.794 15.0479 69.8547 15.0479 69.9356 15.0479C70.1784 15.0479 70.4414 15.1784 70.583 15.3958C70.7853 15.6785 70.7853 16.0699 70.6235 16.3744L59.6181 34.9015L77.866 46.9919C78.1492 47.1876 78.311 47.5573 78.2301 47.9052C78.1694 48.2749 77.8862 48.5359 77.5423 48.5794L55.6124 51.8194L57.2107 73.1734C57.2309 73.5214 57.069 73.8475 56.7858 74.0215C56.624 74.0867 56.4824 74.1302 56.361 74.1302Z" fill="#E80213"/>
<path d="M39.5095 1.73963L47.9457 22.4195L69.8957 15.9177L58.4655 35.1841L77.4012 47.7312L54.7026 51.08L56.3818 73.2386L39.5298 58.1473L22.6778 73.2386L24.3569 51.08L1.61787 47.7312L20.5536 35.1841L9.12338 15.8959L31.0734 22.3978L39.5095 1.73963ZM39.5095 0C38.8622 0 38.2755 0.413163 38.0327 1.04378L30.1428 20.332L9.54822 14.2215C9.4066 14.178 9.26499 14.1563 9.12338 14.1563C8.61761 14.1563 8.13208 14.4172 7.82863 14.8521C7.42402 15.4393 7.40379 16.2221 7.76793 16.831L18.3282 34.6187L0.76819 46.2525C0.181506 46.644 -0.101721 47.3833 0.0398926 48.1009C0.181506 48.8185 0.727729 49.3621 1.39533 49.4709L22.5766 52.6022L21.0391 73.1299C20.9784 73.8257 21.3224 74.4999 21.909 74.8043C22.1518 74.9348 22.3946 75 22.6576 75C23.0217 75 23.4061 74.8695 23.6893 74.5868L39.5095 60.4306L55.3298 74.5868C55.6332 74.8478 55.9974 75 56.3615 75C56.6245 75 56.8673 74.9348 57.1101 74.8043C57.6967 74.4781 58.0204 73.8257 57.98 73.1299L56.4425 52.6022L77.6238 49.4709C78.2914 49.3621 78.8376 48.8185 78.9792 48.1009C79.1208 47.3833 78.8174 46.644 78.2509 46.2525L60.6909 34.6187L71.2309 16.8745C71.413 16.5918 71.5142 16.2656 71.5142 15.8959C71.5142 14.9609 70.8263 14.1998 69.9766 14.1563C69.9564 14.1563 69.9159 14.1563 69.8957 14.1563C69.8553 14.1563 69.8148 14.1563 69.7743 14.1563C69.6529 14.1563 69.5518 14.1998 69.4304 14.2215L48.856 20.3102L40.9864 1.04378C40.7234 0.413163 40.1367 0 39.5095 0Z" fill="#1A1A1A"/>
<path d="M39.5093 53.1024L27.1889 64.1056L28.4027 47.927L11.834 45.4697L25.6716 36.3149L17.3164 22.2456L33.339 26.9861L39.5093 11.8948L45.6593 26.9861L61.6819 22.2456L53.3267 36.3149L67.1643 45.4697L50.5956 47.927L51.8094 64.1056L39.5093 53.1024Z" fill="white"/>
<path d="M39.509 22.0499L43.373 31.5527L53.4882 28.5736L48.2283 37.4457L56.9274 43.2082L46.4885 44.7522L47.2573 54.9508L39.509 48.014L31.7405 54.9508L32.5092 44.7522L22.0703 43.2082L30.7896 37.4457L25.5297 28.5736L35.6247 31.5527L39.509 22.0499Z" fill="#E80213"/>
</g>
<defs>
<clipPath id="clip0_4365_7854">
<rect width="79" height="75" fill="white"/>
</clipPath>
</defs>
</svg>
