<svg width="170" height="170" viewBox="0 0 170 170" fill="none" xmlns="http://www.w3.org/2000/svg">
<path d="M85 164.958C40.9114 164.958 5.04199 129.089 5.04199 85C5.04199 40.9114 40.9114 5.04199 85 5.04199C129.089 5.04199 164.958 40.91 164.958 85C164.958 129.09 129.089 164.958 85 164.958ZM85 6.08576C41.4875 6.08576 6.08576 41.4861 6.08576 85C6.08576 128.514 41.4875 163.914 85 163.914C128.513 163.914 163.914 128.513 163.914 85C163.914 41.4875 128.514 6.08576 85 6.08576Z" fill="#1A1A1A" stroke="#1A1A1A"/>
<path d="M84.3223 145C71.0484 145 58.2296 140.651 47.6862 132.325C39.6547 125.983 33.3351 117.674 29.4077 108.299L30.3694 107.895C34.2285 117.108 40.441 125.272 48.3333 131.505C62.7233 142.87 81.4346 146.693 99.6643 141.99C117.943 137.276 132.51 124.85 139.629 107.895L140.591 108.299C133.345 125.557 118.523 138.205 99.926 143C94.728 144.341 89.4911 145 84.3223 145Z" fill="#1A1A1A" stroke="#1A1A1A"/>
<path d="M85.0002 84.2682C52.7395 84.2682 26.4937 73.9224 26.4937 61.2051C26.4937 48.4879 52.7395 38.1421 85.0002 38.1421C117.261 38.1421 143.505 48.4879 143.505 61.2051C143.505 73.9224 117.261 84.2682 85.0002 84.2682ZM85.0002 39.1859C53.3157 39.1859 27.5374 49.0641 27.5374 61.2051C27.5374 73.3476 53.3143 83.2244 85.0002 83.2244C116.686 83.2244 142.462 73.3462 142.462 61.2051C142.462 49.0627 116.685 39.1859 85.0002 39.1859Z" fill="#1A1A1A" stroke="#1A1A1A"/>
<path d="M85.5223 38.6641H84.4785V83.7464H85.5223V38.6641Z" fill="#1A1A1A" stroke="#1A1A1A"/>
<path d="M85.0002 84.2682C71.7652 84.2682 60.9963 73.9224 60.9963 61.2051C60.9963 48.4879 71.7638 38.1421 85.0002 38.1421C98.2365 38.1421 109.003 48.4879 109.003 61.2051C109.003 73.9224 98.2351 84.2682 85.0002 84.2682ZM85.0002 39.1859C72.34 39.1859 62.0401 49.0641 62.0401 61.2051C62.0401 73.3476 72.34 83.2244 85.0002 83.2244C97.6604 83.2244 107.959 73.3462 107.959 61.2051C107.959 49.0627 97.6604 39.1859 85.0002 39.1859Z" fill="#1A1A1A" stroke="#1A1A1A"/>
<path d="M142.985 60.6821H27.0168V61.7259H142.985V60.6821Z" fill="#1A1A1A" stroke="#1A1A1A"/>
<path d="M35.9222 107.267H24.0386V108.311H35.9222V107.267Z" fill="#1A1A1A" stroke="#1A1A1A"/>
<path d="M145.962 107.267H134.078V108.311H145.962V107.267Z" fill="#1A1A1A" stroke="#1A1A1A"/>
</svg>
