<svg width="125" height="125" viewBox="0 0 125 125" fill="none" xmlns="http://www.w3.org/2000/svg">
<path d="M62.5 116.279C32.8462 116.279 8.72095 92.1546 8.72095 62.5005C8.72095 32.8464 32.8462 8.72095 62.5 8.72095C92.1538 8.72095 116.279 32.8464 116.279 62.5005C116.279 92.1546 92.1538 116.279 62.5 116.279ZM62.5 9.47663C33.2623 9.47663 9.47663 33.2626 9.47663 62.5005C9.47663 91.7375 33.2623 115.523 62.5 115.523C91.7367 115.523 115.523 91.7375 115.523 62.5005C115.523 33.2626 91.7367 9.47663 62.5 9.47663Z" fill="#1A1A1A" stroke="#1A1A1A"/>
<path d="M62.4999 116.279C44.4936 116.279 29.8435 92.1546 29.8435 62.5005C29.8435 32.8464 44.4936 8.72095 62.4999 8.72095C80.5062 8.72095 95.1552 32.8464 95.1552 62.5005C95.1552 92.1546 80.5062 116.279 62.4999 116.279ZM62.4999 9.47663C44.9097 9.47663 30.5992 33.2626 30.5992 62.5005C30.5992 91.7375 44.9097 115.523 62.4999 115.523C80.09 115.523 94.3995 91.7375 94.3995 62.5005C94.3995 33.2626 80.09 9.47663 62.4999 9.47663Z" fill="#1A1A1A" stroke="#1A1A1A"/>
<path d="M62.5 95.1562C32.8462 95.1562 8.72095 80.507 8.72095 62.5005C8.72095 44.4941 32.8462 29.8439 62.5 29.8439C92.1538 29.8439 116.279 44.4941 116.279 62.5005C116.279 80.507 92.1538 95.1562 62.5 95.1562ZM62.5 30.5996C33.2623 30.5996 9.47663 44.9102 9.47663 62.5005C9.47663 80.0899 33.2623 94.4005 62.5 94.4005C91.7367 94.4005 115.523 80.0899 115.523 62.5005C115.523 44.9102 91.7367 30.5996 62.5 30.5996Z" fill="#1A1A1A" stroke="#1A1A1A"/>
<path d="M62.1233 115.933C59.6678 87.6447 37.3542 65.3318 9.06665 62.8773V62.1237C37.3552 59.6682 59.6689 37.3543 62.1243 9.06653H62.877C65.3324 37.3543 87.6461 59.6692 115.934 62.1237V62.8773C87.645 65.3318 65.3314 87.6447 62.877 115.933H62.1233ZM12.4168 62.5005C38.4111 66.2084 58.7913 86.5877 62.5001 112.582C66.208 86.5877 86.5881 66.2084 112.582 62.5005C86.5881 58.7916 66.208 38.4113 62.5001 12.4177C58.7923 38.4113 38.4111 58.7916 12.4168 62.5005Z" fill="#1A1A1A" stroke="#1A1A1A"/>
</svg>
