<svg width="160" height="64" viewBox="0 0 160 64" fill="none" xmlns="http://www.w3.org/2000/svg">
<path d="M2.5751 44.6295C2.61206 46.1485 2.79733 46.6302 3.29763 46.7783C3.6496 46.871 4.05711 46.8894 4.2238 46.8894C4.31656 46.8894 4.37212 46.9266 4.37212 47.0007C4.37212 47.1118 4.26076 47.1488 4.03852 47.1488C2.98261 47.1488 2.24174 47.0932 2.07481 47.0932C1.90815 47.0932 1.13006 47.1488 0.296403 47.1488C0.111128 47.1488 0 47.1302 0 47.0007C0 46.9266 0.0555623 46.8894 0.148317 46.8894C0.296403 46.8894 0.629999 46.871 0.907796 46.7783C1.3709 46.6485 1.46365 46.1115 1.46365 44.4256L1.482 33.8107C1.482 33.0882 1.53756 32.8845 1.68588 32.8845C1.83397 32.8845 2.14899 33.2921 2.33426 33.4773C2.61206 33.7921 5.37244 36.7747 8.22534 39.8315C10.0593 41.795 12.0786 44.0551 12.6714 44.6665L12.4675 35.2557C12.4489 34.0515 12.3194 33.644 11.745 33.4957C11.4116 33.4218 10.9855 33.4032 10.8374 33.4032C10.7077 33.4032 10.6891 33.3476 10.6891 33.2734C10.6891 33.1623 10.8374 33.1437 11.0596 33.1437C11.8933 33.1437 12.7825 33.1993 12.9862 33.1993C13.19 33.1993 13.8014 33.1437 14.5609 33.1437C14.7646 33.1437 14.8943 33.1623 14.8943 33.2734C14.8943 33.3476 14.8201 33.4032 14.6906 33.4032C14.5979 33.4032 14.4682 33.4032 14.2459 33.4587C13.6345 33.5884 13.5606 33.996 13.5606 35.1074L13.5234 45.9632C13.5234 47.1858 13.4864 47.2785 13.3567 47.2785C13.2086 47.2785 12.9862 47.0747 12.0044 46.0929C11.8005 45.9076 9.13291 43.1844 7.16922 41.0727C5.02047 38.757 2.92705 36.4228 2.33426 35.7558L2.5751 44.6295Z" fill="white"/>
<path d="M23.5083 35.0149C27.1762 35.0149 29.955 37.2564 29.955 40.9244C29.955 44.4442 27.3429 47.3527 23.4155 47.3527C18.9511 47.3527 17.043 43.9995 17.043 41.1652C17.043 38.6273 19.0067 35.0149 23.5083 35.0149ZM23.8786 46.7043C25.3422 46.7043 28.2877 45.9262 28.2877 41.3691C28.2877 37.5898 25.9906 35.6077 23.4155 35.6077C20.6923 35.6077 18.7286 37.3119 18.7286 40.7391C18.7286 44.407 20.9331 46.7043 23.8786 46.7043Z" fill="white"/>
<path d="M33.3641 39.7945C33.3641 37.3491 33.3641 36.9046 33.3269 36.4043C33.2899 35.8671 33.1972 35.6079 32.6599 35.5337C32.5305 35.5151 32.2524 35.4968 32.1044 35.4968C32.0488 35.4968 31.9746 35.4226 31.9746 35.367C31.9746 35.2743 32.0488 35.2373 32.2341 35.2373C32.975 35.2373 34.068 35.2743 34.1606 35.2743C34.3273 35.2743 35.6981 35.2373 36.1984 35.2373C37.2357 35.2373 38.3844 35.3298 39.2364 35.9226C39.6441 36.219 40.3664 36.9788 40.3664 38.0716C40.3664 39.2389 39.885 40.3687 38.3657 41.6656C39.6997 43.3327 40.8297 44.7592 41.7745 45.7411C42.6451 46.6303 43.1824 46.7784 43.5899 46.834C43.9049 46.8896 44.0716 46.8896 44.1641 46.8896C44.2568 46.8896 44.3124 46.9637 44.3124 47.0193C44.3124 47.112 44.2196 47.149 43.9232 47.149H42.9045C41.9782 47.149 41.5706 47.0565 41.1631 46.834C40.4592 46.4636 39.8664 45.7039 38.9402 44.5183C38.2546 43.6663 37.5321 42.6474 37.1802 42.2213C37.106 42.1471 37.069 42.1287 36.9579 42.1287L34.8831 42.0915C34.8089 42.0915 34.7719 42.1287 34.7719 42.2213V42.5918C34.7719 44.1108 34.7719 45.3336 34.8461 45.982C34.9017 46.4451 34.9942 46.7415 35.4945 46.8156C35.7167 46.8526 36.0687 46.8896 36.2168 46.8896C36.3281 46.8896 36.3465 46.9637 36.3465 47.0193C36.3465 47.0934 36.2724 47.149 36.0873 47.149C35.1981 47.149 34.1606 47.0934 34.0864 47.0934C34.068 47.0934 32.975 47.149 32.4749 47.149C32.308 47.149 32.2155 47.112 32.2155 47.0193C32.2155 46.9637 32.2524 46.8896 32.3452 46.8896C32.4933 46.8896 32.6971 46.8526 32.8452 46.8156C33.1602 46.7415 33.1972 46.4451 33.2713 45.982C33.3641 45.3336 33.3641 44.0924 33.3641 42.5732V39.7945ZM34.7719 41.1284C34.7719 41.2209 34.8089 41.2765 34.8831 41.332C35.1239 41.4618 35.9576 41.5729 36.6801 41.5729C37.069 41.5729 37.5137 41.5543 37.9027 41.2951C38.4585 40.9245 38.8844 40.0909 38.8844 38.8867C38.8844 36.9232 37.8102 35.7932 36.0687 35.7932C35.587 35.7932 35.0684 35.8487 34.9017 35.8857C34.8275 35.9226 34.7719 35.9782 34.7719 36.071V41.1284Z" fill="white"/>
<path d="M48.5169 42.573C48.5169 44.0922 48.5169 45.3334 48.5908 45.9818C48.6464 46.4449 48.7205 46.7413 49.2208 46.8154C49.4431 46.8524 49.8136 46.8894 49.9617 46.8894C50.0728 46.8894 50.0914 46.9635 50.0914 47.0191C50.0914 47.0932 50.0173 47.1488 49.832 47.1488C48.9428 47.1488 47.9055 47.0932 47.8127 47.0932C47.7388 47.0932 46.6088 47.1488 46.1271 47.1488C45.9418 47.1488 45.8676 47.1118 45.8676 47.0191C45.8676 46.9635 45.9048 46.908 45.9974 46.908C46.1457 46.908 46.3307 46.871 46.4791 46.8338C46.8124 46.7599 46.9052 46.4449 46.9607 45.9818C47.0349 45.3334 47.0349 44.0922 47.0349 42.573V35.9596L44.682 35.9966C43.6631 36.0152 43.2742 36.1263 43.0333 36.4969C42.8481 36.7747 42.8297 36.8858 42.7739 36.997C42.7369 37.1267 42.6814 37.1453 42.6072 37.1453C42.5702 37.1453 42.4961 37.1081 42.4961 37.0156C42.4961 36.8489 42.8111 35.441 42.8481 35.3113C42.8666 35.2185 42.9592 35.0149 43.0147 35.0149C43.1259 35.0149 43.2928 35.1446 43.7373 35.2002C44.2004 35.2557 44.8304 35.2741 45.0156 35.2741H51.1659C51.7032 35.2741 52.0737 35.2371 52.333 35.2002C52.5738 35.163 52.7221 35.126 52.796 35.126C52.8702 35.126 52.8702 35.2185 52.8702 35.3113C52.8702 35.793 52.8146 36.923 52.8146 37.1081C52.8146 37.2378 52.7405 37.3119 52.6665 37.3119C52.5924 37.3119 52.5552 37.2564 52.5368 37.0341L52.5182 36.8675C52.4627 36.3858 52.1107 36.0338 50.5545 35.9966L48.5169 35.9596V42.573Z" fill="white"/>
<path d="M66.2086 42.5732C66.2086 44.0924 66.2269 45.3336 66.3011 45.982C66.3566 46.4451 66.3938 46.7415 66.8939 46.8156C67.1161 46.8526 67.4867 46.8896 67.6164 46.8896C67.7275 46.8896 67.7647 46.9637 67.7647 47.0193C67.7647 47.0934 67.672 47.149 67.4867 47.149C66.5975 47.149 65.5602 47.0934 65.4674 47.0934C65.3935 47.0934 64.3374 47.149 63.8557 47.149C63.6706 47.149 63.5965 47.112 63.5965 47.0193C63.5965 46.9637 63.6335 46.8896 63.7262 46.8896C63.8743 46.8896 64.0596 46.8526 64.2079 46.8156C64.5413 46.7415 64.5968 46.4264 64.6524 45.9634C64.7266 45.315 64.7266 44.1294 64.7266 42.6104V41.0357C64.7266 40.9615 64.6894 40.9431 64.6338 40.9431H57.8351C57.7796 40.9431 57.7426 40.9615 57.7426 41.0357V42.6104C57.7426 44.1294 57.7426 45.3336 57.8165 45.982C57.8721 46.4451 57.9277 46.7415 58.4093 46.8156C58.6502 46.8526 59.0021 46.8896 59.1505 46.8896C59.243 46.8896 59.2802 46.9637 59.2802 47.0193C59.2802 47.0934 59.206 47.149 59.0208 47.149C58.1129 47.149 57.0756 47.0934 57.0015 47.0934C56.909 47.0934 55.8714 47.149 55.3714 47.149C55.2045 47.149 55.1119 47.112 55.1119 47.0193C55.1119 46.9637 55.1489 46.8896 55.2417 46.8896C55.3898 46.8896 55.5936 46.8526 55.7417 46.8156C56.0567 46.7415 56.0937 46.4451 56.1678 45.982C56.2606 45.3336 56.2606 44.0924 56.2606 42.5732V39.7945C56.2606 37.3491 56.2606 36.9046 56.2234 36.4043C56.1864 35.8671 56.0937 35.6079 55.5564 35.5337C55.427 35.5151 55.1489 35.4968 55.0008 35.4968C54.9453 35.4968 54.8711 35.4226 54.8711 35.367C54.8711 35.2743 54.9453 35.2373 55.1305 35.2373C55.8714 35.2373 56.909 35.2743 57.0015 35.2743C57.0756 35.2743 58.1129 35.2373 58.6132 35.2373C58.7985 35.2373 58.8727 35.2743 58.8727 35.367C58.8727 35.4226 58.7985 35.4968 58.7429 35.4968C58.6318 35.4968 58.5205 35.4968 58.3354 35.5337C57.8907 35.6262 57.7982 35.8487 57.761 36.4043C57.7426 36.9046 57.7426 37.3863 57.7426 39.8317V40.1651C57.7426 40.2576 57.7796 40.2576 57.8351 40.2576H64.6338C64.6894 40.2576 64.7266 40.2576 64.7266 40.1651V39.8317C64.7266 37.3863 64.708 36.9046 64.6894 36.4043C64.6524 35.8671 64.5782 35.6079 64.041 35.5337C63.9113 35.5151 63.6335 35.4968 63.4854 35.4968C63.4112 35.4968 63.3557 35.4226 63.3557 35.367C63.3557 35.2743 63.4298 35.2373 63.6151 35.2373C64.3374 35.2373 65.3935 35.2743 65.4674 35.2743C65.5602 35.2743 66.5975 35.2373 67.0792 35.2373C67.2644 35.2373 67.357 35.2743 67.357 35.367C67.357 35.4226 67.2831 35.4968 67.2089 35.4968C67.0978 35.4968 67.005 35.4968 66.8014 35.5337C66.3753 35.6262 66.2825 35.8487 66.2455 36.4043C66.2086 36.9046 66.2086 37.3491 66.2086 39.7945V42.5732Z" fill="white"/>
<path d="M89.588 41.7767C89.588 43.5551 89.588 45.0185 89.6805 45.7966C89.7361 46.3338 89.8472 46.7414 90.403 46.8155C90.6625 46.8525 91.07 46.8894 91.2367 46.8894C91.3478 46.8894 91.3848 46.9452 91.3848 47.0008C91.3848 47.0933 91.2922 47.1489 91.0883 47.1489C90.0697 47.1489 88.9024 47.0933 88.8099 47.0933C88.7171 47.0933 87.5501 47.1489 86.9943 47.1489C86.7906 47.1489 86.6979 47.1119 86.6979 47.0008C86.6979 46.9452 86.7351 46.8894 86.8462 46.8894C87.0129 46.8894 87.2351 46.8525 87.4018 46.8155C87.7724 46.7414 87.8651 46.3338 87.939 45.7966C88.0318 45.0185 88.0318 43.5551 88.0318 41.7767V39.8315C88.0318 39.7574 87.9763 39.7202 87.9207 39.7202H80.0659C80.0103 39.7202 79.9548 39.7388 79.9548 39.8315V41.7767C79.9548 43.5551 79.9548 45.0185 80.0475 45.7966C80.1031 46.3338 80.2142 46.7414 80.7698 46.8155C81.0293 46.8525 81.4368 46.8894 81.6035 46.8894C81.7146 46.8894 81.7518 46.9452 81.7518 47.0008C81.7518 47.0933 81.659 47.1489 81.4554 47.1489C80.4364 47.1489 79.2694 47.0933 79.1767 47.0933C79.0842 47.0933 77.9169 47.1489 77.3613 47.1489C77.1574 47.1489 77.0649 47.1119 77.0649 47.0008C77.0649 46.9452 77.1019 46.8894 77.213 46.8894C77.3799 46.8894 77.6022 46.8525 77.7688 46.8155C78.1394 46.7414 78.2319 46.3338 78.3061 45.7966C78.3986 45.0185 78.3986 43.5551 78.3986 41.7767V38.5162C78.3986 35.6261 78.3986 35.1075 78.3616 34.5147C78.3247 33.8849 78.1764 33.5885 77.565 33.4588C77.4169 33.4218 77.1019 33.4032 76.9352 33.4032C76.861 33.4032 76.7871 33.3663 76.7871 33.2921C76.7871 33.181 76.8796 33.1438 77.0835 33.1438C77.9169 33.1438 79.0842 33.1994 79.1767 33.1994C79.2694 33.1994 80.4364 33.1438 80.9923 33.1438C81.196 33.1438 81.2887 33.181 81.2887 33.2921C81.2887 33.3663 81.2145 33.4032 81.1404 33.4032C81.0107 33.4032 80.8995 33.4218 80.6773 33.4588C80.177 33.5513 80.0289 33.8663 79.992 34.5147C79.9548 35.1075 79.9548 35.6261 79.9548 38.5162V38.9052C79.9548 38.9979 80.0103 39.0163 80.0659 39.0163H87.9207C87.9763 39.0163 88.0318 38.9979 88.0318 38.9052V38.5162C88.0318 35.6261 88.0318 35.1075 87.9946 34.5147C87.9576 33.8849 87.8096 33.5885 87.1982 33.4588C87.0499 33.4218 86.7351 33.4032 86.5684 33.4032C86.4942 33.4032 86.4201 33.3663 86.4201 33.2921C86.4201 33.181 86.5128 33.1438 86.7165 33.1438C87.5501 33.1438 88.7171 33.1994 88.8099 33.1994C88.9024 33.1994 90.0696 33.1438 90.6253 33.1438C90.8292 33.1438 90.9217 33.181 90.9217 33.2921C90.9217 33.3663 90.8475 33.4032 90.7736 33.4032C90.6439 33.4032 90.5327 33.4218 90.3103 33.4588C89.8102 33.5513 89.6619 33.8663 89.625 34.5147C89.588 35.1075 89.588 35.6261 89.588 38.5162V41.7767Z" fill="white"/>
<path d="M94.9227 39.7945C94.9227 37.3491 94.9227 36.9046 94.8855 36.4043C94.8485 35.9043 94.7558 35.6079 94.2185 35.5337C94.089 35.5151 93.811 35.4968 93.6629 35.4968C93.6073 35.4968 93.5332 35.4226 93.5332 35.367C93.5332 35.2743 93.6073 35.2373 93.7926 35.2373C94.5335 35.2373 95.5155 35.2743 95.6636 35.2743C95.8119 35.2743 96.8306 35.2373 97.3123 35.2373C97.4976 35.2373 97.5903 35.2743 97.5903 35.367C97.5903 35.4226 97.5162 35.4968 97.442 35.4968C97.3309 35.4968 97.2383 35.4968 97.0345 35.5337C96.6083 35.6079 96.5158 35.8857 96.4786 36.4043C96.4417 36.9046 96.4417 37.3491 96.4417 39.7945V41.999C96.4417 44.2775 96.9419 45.2225 97.6459 45.8522C98.4423 46.5748 99.1463 46.7045 100.073 46.7045C101.073 46.7045 102.036 46.2598 102.592 45.5928C103.351 44.6852 103.518 43.3885 103.518 41.7768V39.7945C103.518 37.3491 103.5 36.9046 103.481 36.4043C103.463 35.9043 103.37 35.6079 102.833 35.5337C102.703 35.5151 102.425 35.4968 102.277 35.4968C102.203 35.4968 102.147 35.4226 102.147 35.367C102.147 35.2743 102.222 35.2373 102.407 35.2373C103.129 35.2373 104.074 35.2743 104.167 35.2743C104.278 35.2743 105.056 35.2373 105.538 35.2373C105.723 35.2373 105.797 35.2743 105.797 35.367C105.797 35.4226 105.741 35.4968 105.667 35.4968C105.556 35.4968 105.463 35.4968 105.26 35.5337C104.815 35.6262 104.722 35.8857 104.685 36.4043C104.648 36.9046 104.667 37.3491 104.667 39.7945V41.4804C104.667 43.1846 104.445 45.0928 103.148 46.2042C101.962 47.2231 100.702 47.3529 99.7391 47.3529C99.2018 47.3529 97.4976 47.3157 96.3492 46.2412C95.5525 45.5003 94.9227 44.4072 94.9227 42.1101V39.7945Z" fill="white"/>
<path d="M109.315 39.7944C109.315 37.349 109.315 36.9045 109.278 36.4042C109.241 35.867 109.148 35.6078 108.611 35.5336C108.482 35.515 108.204 35.4967 108.055 35.4967C108 35.4967 107.926 35.4225 107.926 35.3669C107.926 35.2742 108 35.2372 108.185 35.2372C108.926 35.2372 109.982 35.2742 110.075 35.2742C110.26 35.2742 111.297 35.2372 112.261 35.2372C113.891 35.2372 116.873 35.0891 118.8 37.0342C119.615 37.8493 120.393 39.1646 120.393 41.0356C120.393 43.0179 119.541 44.5368 118.633 45.463C117.929 46.1855 116.466 47.2786 113.687 47.2786C112.983 47.2786 112.112 47.223 111.408 47.1859C110.705 47.1303 110.149 47.0933 110.075 47.0933C110.038 47.0933 109.741 47.1119 109.408 47.1119C109.074 47.1303 108.685 47.1489 108.426 47.1489C108.259 47.1489 108.167 47.1119 108.167 47.0192C108.167 46.9636 108.204 46.8895 108.296 46.8895C108.444 46.8895 108.648 46.8525 108.796 46.8155C109.111 46.7414 109.148 46.445 109.223 45.9819C109.315 45.3335 109.315 44.0923 109.315 42.5731V39.7944ZM110.797 41.4986C110.797 43.1659 110.797 44.6296 110.816 44.926C110.834 45.3149 110.871 45.8891 111.001 46.0558C111.205 46.3524 111.779 46.6858 113.705 46.6858C115.206 46.6858 116.54 46.1855 117.522 45.2593C118.374 44.4627 118.8 42.9623 118.8 41.5172C118.8 39.5166 117.929 38.2382 117.262 37.5715C115.725 36.0153 113.928 35.8114 111.983 35.8114C111.668 35.8114 111.149 35.867 111.001 35.9225C110.853 35.9781 110.797 36.0523 110.797 36.2376V41.4986Z" fill="white"/>
<path d="M122.932 46.9266C122.71 46.8155 122.691 46.7599 122.691 46.3338C122.691 45.5557 122.766 44.9259 122.784 44.6665C122.784 44.4998 122.821 44.4071 122.914 44.4071C123.006 44.4071 123.062 44.4626 123.062 44.5924C123.062 44.7221 123.062 44.9443 123.118 45.1668C123.377 46.3152 124.6 46.7227 125.692 46.7227C127.304 46.7227 128.138 45.8152 128.138 44.6295C128.138 43.4995 127.526 42.9623 126.082 41.8878L125.34 41.3319C123.581 40.0166 123.006 39.0534 123.006 37.9604C123.006 36.1078 124.47 34.9963 126.619 34.9963C127.267 34.9963 127.916 35.0891 128.304 35.1816C128.619 35.2558 128.749 35.2558 128.879 35.2558C129.008 35.2558 129.046 35.2742 129.046 35.3669C129.046 35.4411 128.971 35.9597 128.971 37.0342C128.971 37.275 128.953 37.3862 128.842 37.3862C128.731 37.3862 128.712 37.312 128.694 37.1823C128.675 36.997 128.545 36.5709 128.453 36.4042C128.341 36.2189 127.804 35.6261 126.341 35.6261C125.155 35.6261 124.173 36.2189 124.173 37.3306C124.173 38.3309 124.673 38.9052 126.285 39.9982L126.748 40.313C128.731 41.6655 129.416 42.7584 129.416 44.1107C129.416 45.0371 129.064 46.0374 127.897 46.7969C127.211 47.2414 126.193 47.3527 125.303 47.3527C124.544 47.3527 123.599 47.2414 122.932 46.9266Z" fill="white"/>
<path d="M138.622 35.0149C142.29 35.0149 145.068 37.2564 145.068 40.9244C145.068 44.4442 142.456 47.3527 138.529 47.3527C134.064 47.3527 132.156 43.9995 132.156 41.1652C132.156 38.6273 134.12 35.0149 138.622 35.0149ZM138.992 46.7043C140.456 46.7043 143.401 45.9262 143.401 41.3691C143.401 37.5898 141.104 35.6077 138.529 35.6077C135.806 35.6077 133.842 37.3119 133.842 40.7391C133.842 44.407 136.046 46.7043 138.992 46.7043Z" fill="white"/>
<path d="M149.163 44.9998C149.2 46.2966 149.349 46.6857 149.793 46.7968C150.09 46.871 150.46 46.8894 150.609 46.8894C150.682 46.8894 150.738 46.9451 150.738 47.0191C150.738 47.1118 150.627 47.1488 150.442 47.1488C149.515 47.1488 148.867 47.0932 148.719 47.0932C148.571 47.0932 147.885 47.1488 147.144 47.1488C146.978 47.1488 146.885 47.1302 146.885 47.0191C146.885 46.9451 146.941 46.8894 147.014 46.8894C147.144 46.8894 147.441 46.871 147.681 46.7968C148.089 46.6857 148.145 46.2596 148.145 44.8331V35.8114C148.145 35.1816 148.237 35.0149 148.367 35.0149C148.552 35.0149 148.83 35.3296 148.997 35.4966C149.256 35.7558 151.627 38.2753 154.147 40.8688C155.758 42.5361 157.5 44.407 158 44.9259L157.833 37.0341C157.815 36.0152 157.722 35.6633 157.222 35.5705C156.925 35.515 156.555 35.4966 156.425 35.4966C156.314 35.4966 156.296 35.4038 156.296 35.3483C156.296 35.2557 156.425 35.2371 156.61 35.2371C157.352 35.2371 158.13 35.2741 158.315 35.2741C158.5 35.2741 159.037 35.2371 159.704 35.2371C159.871 35.2371 160.001 35.2557 160.001 35.3483C160.001 35.4038 159.926 35.4966 159.815 35.4966C159.741 35.4966 159.612 35.4966 159.426 35.5335C158.889 35.6447 158.852 35.9596 158.852 36.9044L158.815 46.1299C158.815 47.1674 158.797 47.2599 158.685 47.2599C158.519 47.2599 158.352 47.1302 157.444 46.2966C157.277 46.1485 154.925 43.8328 153.202 42.0358C151.312 40.0537 149.478 38.127 148.978 37.5714L149.163 44.9998Z" fill="white"/>
<path d="M21.7406 54.5514C21.7406 53.4305 21.7406 53.2291 21.7262 52.9989C21.7117 52.7547 21.6543 52.6399 21.4171 52.5896C21.3596 52.5752 21.2374 52.5678 21.1727 52.5678C21.144 52.5678 21.1152 52.5533 21.1152 52.5245C21.1152 52.4817 21.1512 52.4673 21.2302 52.4673C21.5536 52.4673 22.0065 52.4887 22.0424 52.4887C22.1215 52.4887 22.6676 52.4673 22.8905 52.4673C23.3433 52.4673 23.8248 52.5106 24.2057 52.7836C24.3855 52.9129 24.7016 53.2649 24.7016 53.7607C24.7016 54.2928 24.4788 54.8244 23.832 55.4212C24.4214 56.176 24.9101 56.8155 25.3269 57.2611C25.7151 57.6708 26.0241 57.7499 26.2038 57.7787C26.3404 57.8001 26.441 57.8001 26.4841 57.8001C26.52 57.8001 26.5488 57.8215 26.5488 57.8434C26.5488 57.8862 26.5056 57.9006 26.3763 57.9006H25.866C25.4635 57.9006 25.2838 57.8648 25.097 57.7643C24.7879 57.5987 24.5364 57.2467 24.1267 56.7076C23.8248 56.3123 23.487 55.8309 23.3433 55.6439C23.3146 55.6151 23.2929 55.6007 23.2498 55.6007L22.3658 55.5863C22.3298 55.5863 22.3156 55.6081 22.3156 55.6439V55.8165C22.3156 56.5062 22.3156 57.0741 22.3515 57.376C22.373 57.5843 22.4161 57.7424 22.6317 57.7713C22.7324 57.7857 22.8905 57.8001 22.9552 57.8001C22.9983 57.8001 23.0126 57.8215 23.0126 57.8434C23.0126 57.8792 22.9767 57.9006 22.8976 57.9006C22.5024 57.9006 22.0496 57.8792 22.0136 57.8792C22.0065 57.8792 21.5536 57.9006 21.338 57.9006C21.259 57.9006 21.223 57.8862 21.223 57.8434C21.223 57.8215 21.2374 57.8001 21.2806 57.8001C21.3452 57.8001 21.4315 57.7857 21.4962 57.7713C21.6399 57.7424 21.6758 57.5843 21.7046 57.376C21.7406 57.0741 21.7406 56.5062 21.7406 55.8165V54.5514ZM22.3156 55.177C22.3156 55.2128 22.3298 55.2416 22.3658 55.263C22.4736 55.3277 22.8042 55.3779 23.1205 55.3779C23.2929 55.3779 23.4942 55.3565 23.6596 55.2416C23.9111 55.0691 24.0979 54.6807 24.0979 54.1347C24.0979 53.2361 23.6235 52.6971 22.8546 52.6971C22.6389 52.6971 22.4449 52.7189 22.373 52.7403C22.3371 52.7547 22.3156 52.7836 22.3156 52.8264V55.177Z" fill="white"/>
<path d="M29.7227 55.0471C29.7227 54.0987 29.7227 53.9262 29.7082 53.7322C29.6939 53.5234 29.658 53.423 29.4495 53.3941C29.3992 53.3871 29.2914 53.3797 29.234 53.3797C29.2123 53.3797 29.1836 53.3513 29.1836 53.3295C29.1836 53.2937 29.2123 53.2792 29.2842 53.2792C29.5717 53.2792 29.9814 53.2937 30.0173 53.2937C30.0604 53.2937 31.3829 53.3006 31.5267 53.2937C31.6489 53.2862 31.7639 53.2648 31.8141 53.2578C31.8429 53.2504 31.8716 53.229 31.9004 53.229C31.922 53.229 31.9291 53.2578 31.9291 53.2862C31.9291 53.3295 31.8931 53.4015 31.8789 53.5741C31.8716 53.6313 31.8572 53.9043 31.8429 53.9764C31.8357 54.0053 31.8141 54.0411 31.7854 54.0411C31.7494 54.0411 31.735 54.0122 31.735 53.962C31.735 53.9187 31.7279 53.8183 31.6991 53.7462C31.6561 53.6457 31.5913 53.6025 31.2463 53.5597C31.1385 53.5453 30.4054 53.5378 30.3335 53.5378C30.3048 53.5378 30.2976 53.5597 30.2976 53.6025V55.2629C30.2976 55.3061 30.2976 55.3275 30.3335 55.3275C30.4126 55.3275 31.2463 55.3275 31.39 55.3131C31.541 55.2987 31.6345 55.2917 31.6991 55.2271C31.7422 55.1838 31.7709 55.148 31.7926 55.148C31.8141 55.148 31.8285 55.1624 31.8285 55.1982C31.8285 55.2341 31.7926 55.335 31.7782 55.5359C31.7639 55.6582 31.7494 55.888 31.7494 55.9312C31.7494 55.9815 31.735 56.0461 31.692 56.0461C31.6632 56.0461 31.6489 56.0247 31.6489 55.9889C31.6489 55.9312 31.6489 55.8666 31.62 55.7875C31.5985 55.7015 31.541 55.6294 31.2967 55.6005C31.1241 55.5792 30.4486 55.5722 30.3408 55.5722C30.3048 55.5722 30.2976 55.5936 30.2976 55.615V56.1252C30.2976 56.334 30.2904 57.0452 30.2976 57.1675C30.312 57.5772 30.427 57.6563 31.0522 57.6563C31.2176 57.6563 31.5194 57.6563 31.6848 57.5916C31.85 57.5196 31.9363 57.4121 31.9722 57.1675C31.9866 57.0958 32.0009 57.074 32.037 57.074C32.0729 57.074 32.08 57.1242 32.08 57.1675C32.08 57.2107 32.0298 57.6275 31.9938 57.7568C31.9507 57.9149 31.8861 57.9149 31.6416 57.9149C31.1673 57.9149 30.8007 57.9005 30.542 57.8935C30.2761 57.8791 30.1108 57.8791 30.0173 57.8791C30.003 57.8791 29.8808 57.8791 29.7442 57.8861C29.6221 57.8935 29.4782 57.9005 29.3777 57.9005C29.313 57.9005 29.2771 57.8861 29.2771 57.8502C29.2771 57.8289 29.2914 57.8 29.3273 57.8C29.3849 57.8 29.4639 57.7786 29.5214 57.7712C29.6436 57.7498 29.658 57.6275 29.6867 57.4479C29.7227 57.1963 29.7227 56.7149 29.7227 56.1252V55.0471Z" fill="white"/>
<path d="M35.8806 57.8145C35.7943 57.7712 35.7871 57.7498 35.7871 57.5843C35.7871 57.2824 35.8159 57.0382 35.823 56.9378C35.823 56.8731 35.8374 56.8368 35.8734 56.8368C35.9093 56.8368 35.9308 56.8587 35.9308 56.9089C35.9308 56.9592 35.9308 57.0452 35.9525 57.1317C36.053 57.5773 36.5274 57.7354 36.9515 57.7354C37.5768 57.7354 37.9002 57.3833 37.9002 56.9234C37.9002 56.4848 37.663 56.2764 37.1024 55.8597L36.8149 55.6439C36.1321 55.1336 35.9093 54.7597 35.9093 54.336C35.9093 53.617 36.4771 53.1858 37.3108 53.1858C37.5624 53.1858 37.8139 53.2216 37.9648 53.2579C38.087 53.2863 38.1374 53.2863 38.1877 53.2863C38.238 53.2863 38.2524 53.2937 38.2524 53.3295C38.2524 53.3584 38.2237 53.5597 38.2237 53.9765C38.2237 54.07 38.2164 54.1132 38.1733 54.1132C38.1302 54.1132 38.123 54.0844 38.1159 54.0341C38.1087 53.962 38.0583 53.7969 38.0224 53.7323C37.9792 53.6602 37.7708 53.4304 37.203 53.4304C36.743 53.4304 36.3621 53.6602 36.3621 54.0913C36.3621 54.4797 36.5561 54.7025 37.1815 55.1262L37.3611 55.2485C38.1302 55.7732 38.3961 56.1973 38.3961 56.722C38.3961 57.0815 38.2596 57.4694 37.8068 57.7643C37.5408 57.9368 37.1456 57.9796 36.8006 57.9796C36.5059 57.9796 36.1393 57.9368 35.8806 57.8145Z" fill="white"/>
<path d="M44.6958 53.1931C46.1189 53.1931 47.197 54.0624 47.197 55.4856C47.197 56.8511 46.1836 57.9795 44.6599 57.9795C42.9277 57.9795 42.1875 56.6786 42.1875 55.5791C42.1875 54.5945 42.9493 53.1931 44.6958 53.1931ZM44.8395 57.7278C45.4074 57.7278 46.5502 57.426 46.5502 55.6581C46.5502 54.1921 45.6589 53.4229 44.6599 53.4229C43.6034 53.4229 42.8416 54.0843 42.8416 55.414C42.8416 56.8367 43.6968 57.7278 44.8395 57.7278Z" fill="white"/>
<path d="M51.1191 55.0472C51.1191 54.0988 51.1191 53.9263 51.1048 53.7323C51.0904 53.5379 51.0545 53.423 50.8461 53.3942C50.7958 53.3872 50.688 53.3798 50.6304 53.3798C50.6089 53.3798 50.5801 53.3514 50.5801 53.3295C50.5801 53.2937 50.6089 53.2793 50.6808 53.2793C50.9682 53.2793 51.3491 53.2937 51.4067 53.2937C51.4641 53.2937 51.8594 53.2793 52.0463 53.2793C52.1182 53.2793 52.1541 53.2937 52.1541 53.3295C52.1541 53.3514 52.1254 53.3798 52.0967 53.3798C52.0535 53.3798 52.0176 53.3798 51.9385 53.3942C51.7732 53.423 51.7372 53.5309 51.723 53.7323C51.7085 53.9263 51.7085 54.0988 51.7085 55.0472V55.9025C51.7085 56.7866 51.9026 57.1531 52.1757 57.3978C52.4848 57.6778 52.7579 57.728 53.1172 57.728C53.5053 57.728 53.8791 57.5559 54.0947 57.2969C54.3894 56.9448 54.454 56.4415 54.454 55.8164V55.0472C54.454 54.0988 54.4469 53.9263 54.4397 53.7323C54.4325 53.5379 54.3966 53.423 54.1881 53.3942C54.1379 53.3872 54.03 53.3798 53.9725 53.3798C53.9438 53.3798 53.9222 53.3514 53.9222 53.3295C53.9222 53.2937 53.9509 53.2793 54.0229 53.2793C54.3031 53.2793 54.6697 53.2937 54.7056 53.2937C54.7488 53.2937 55.0506 53.2793 55.2375 53.2793C55.3093 53.2793 55.3381 53.2937 55.3381 53.3295C55.3381 53.3514 55.3166 53.3798 55.2878 53.3798C55.2447 53.3798 55.2088 53.3798 55.1297 53.3942C54.9571 53.4304 54.9212 53.5309 54.9069 53.7323C54.8925 53.9263 54.8997 54.0988 54.8997 55.0472V55.7016C54.8997 56.3625 54.8134 57.1029 54.3103 57.534C53.8503 57.9294 53.3616 57.9796 52.9879 57.9796C52.7794 57.9796 52.1182 57.9652 51.6726 57.5485C51.3635 57.261 51.1191 56.8368 51.1191 55.9457V55.0472Z" fill="white"/>
<path d="M59.4316 55.0472C59.4316 54.0988 59.4316 53.9263 59.4172 53.7323C59.4029 53.5235 59.367 53.423 59.1585 53.3942C59.1082 53.3872 59.0004 53.3798 58.943 53.3798C58.9213 53.3798 58.8926 53.3514 58.8926 53.3295C58.8926 53.2937 58.9213 53.2793 58.9932 53.2793C59.2807 53.2793 59.7048 53.2937 59.7407 53.2937C59.8053 53.2937 60.3372 53.2793 60.5313 53.2793C60.9338 53.2793 61.3794 53.3151 61.71 53.5454C61.8681 53.6602 62.1484 53.9551 62.1484 54.3788C62.1484 54.8318 61.9616 55.2704 61.3722 55.7732C61.8897 56.4201 62.328 56.9736 62.6947 57.3545C63.0325 57.6996 63.2409 57.7568 63.3989 57.7787C63.5211 57.8001 63.5859 57.8001 63.6218 57.8001C63.6578 57.8001 63.6793 57.8289 63.6793 57.8503C63.6793 57.8861 63.6433 57.9005 63.5284 57.9005H63.133C62.7737 57.9005 62.6156 57.8647 62.4575 57.7787C62.1843 57.635 61.9543 57.3401 61.5949 56.8801C61.329 56.5494 61.0488 56.1541 60.9122 55.989C60.8835 55.9602 60.869 55.9532 60.826 55.9532L60.021 55.9387C59.9922 55.9387 59.9779 55.9532 59.9779 55.989V56.1327C59.9779 56.722 59.9779 57.1964 60.0066 57.448C60.0281 57.6275 60.0641 57.7424 60.2581 57.7713C60.3444 57.7857 60.481 57.8001 60.5385 57.8001C60.5816 57.8001 60.5888 57.8289 60.5888 57.8503C60.5888 57.8791 60.5601 57.9005 60.4881 57.9005C60.1431 57.9005 59.7407 57.8791 59.712 57.8791C59.7048 57.8791 59.2807 57.9005 59.0866 57.9005C59.022 57.9005 58.9861 57.8861 58.9861 57.8503C58.9861 57.8289 59.0004 57.8001 59.0363 57.8001C59.0939 57.8001 59.1729 57.7857 59.2304 57.7713C59.3526 57.7424 59.367 57.6275 59.3957 57.448C59.4316 57.1964 59.4316 56.715 59.4316 56.1252V55.0472ZM59.9779 55.5648C59.9779 55.6006 59.9922 55.6225 60.021 55.6439C60.1144 55.6941 60.4379 55.7374 60.7181 55.7374C60.869 55.7374 61.0416 55.7304 61.1925 55.6295C61.4081 55.4858 61.5734 55.1625 61.5734 54.6951C61.5734 53.9332 61.1566 53.4951 60.481 53.4951C60.2941 53.4951 60.0929 53.5165 60.0281 53.5309C59.9994 53.5453 59.9779 53.5667 59.9779 53.6026V55.5648Z" fill="white"/>
<path d="M67.1421 57.3255C66.524 56.7939 66.373 56.0967 66.373 55.5144C66.373 55.1047 66.524 54.3931 67.0846 53.847C67.4655 53.4806 68.0404 53.1931 69.0108 53.1931C69.2623 53.1931 69.6217 53.2145 69.9307 53.2647C70.1679 53.308 70.3691 53.3513 70.5776 53.3582C70.6422 53.3582 70.6566 53.3871 70.6566 53.4229C70.6566 53.4731 70.6422 53.5452 70.6279 53.768C70.6207 53.9689 70.6207 54.307 70.6135 54.3931C70.6063 54.4866 70.5776 54.5224 70.5416 54.5224C70.4985 54.5224 70.4913 54.4796 70.4913 54.3931C70.4913 54.1559 70.3907 53.9117 70.2254 53.7824C70.0026 53.5954 69.5426 53.4443 68.982 53.4443C68.1699 53.4443 67.7817 53.6601 67.5589 53.8684C67.0917 54.2996 66.9912 54.8461 66.9912 55.4642C66.9912 56.6358 67.9182 57.6776 69.2695 57.6776C69.7439 57.6776 70.0601 57.6418 70.3116 57.3902C70.4481 57.2539 70.5344 56.9948 70.556 56.88C70.5704 56.8153 70.5776 56.7939 70.6207 56.7939C70.6494 56.7939 70.6782 56.8367 70.6782 56.88C70.6782 56.9232 70.592 57.4548 70.5272 57.6632C70.4913 57.7785 70.477 57.7999 70.3691 57.8432C70.1104 57.9436 69.6361 57.9795 69.2263 57.9795C68.2776 57.9795 67.638 57.7567 67.1421 57.3255Z" fill="white"/>
<path d="M74.9082 55.0471C74.9082 54.0987 74.9082 53.9262 74.8938 53.7322C74.8795 53.5234 74.8435 53.423 74.635 53.3941C74.5847 53.3871 74.4769 53.3797 74.4195 53.3797C74.3979 53.3797 74.3691 53.3513 74.3691 53.3295C74.3691 53.2937 74.3979 53.2792 74.4697 53.2792C74.7573 53.2792 75.1669 53.2937 75.2028 53.2937C75.246 53.2937 76.5685 53.3006 76.7122 53.2937C76.8344 53.2862 76.9494 53.2648 76.9996 53.2578C77.0285 53.2504 77.0572 53.229 77.0859 53.229C77.1075 53.229 77.1146 53.2578 77.1146 53.2862C77.1146 53.3295 77.0787 53.4015 77.0644 53.5741C77.0572 53.6313 77.0428 53.9043 77.0285 53.9764C77.0213 54.0053 76.9996 54.0411 76.9709 54.0411C76.935 54.0411 76.9206 54.0122 76.9206 53.962C76.9206 53.9187 76.9135 53.8183 76.8846 53.7462C76.8416 53.6457 76.7769 53.6025 76.4319 53.5597C76.3241 53.5453 75.591 53.5378 75.5191 53.5378C75.4904 53.5378 75.4832 53.5597 75.4832 53.6025V55.2629C75.4832 55.3061 75.4832 55.3275 75.5191 55.3275C75.5982 55.3275 76.4319 55.3275 76.5756 55.3131C76.7265 55.2987 76.82 55.2917 76.8846 55.2271C76.9278 55.1838 76.9565 55.148 76.9781 55.148C76.9996 55.148 77.014 55.1624 77.014 55.1982C77.014 55.2341 76.9781 55.335 76.9637 55.5359C76.9494 55.6582 76.935 55.888 76.935 55.9312C76.935 55.9815 76.9206 56.0461 76.8775 56.0461C76.8487 56.0461 76.8344 56.0247 76.8344 55.9889C76.8344 55.9312 76.8344 55.8666 76.8056 55.7875C76.784 55.7015 76.7265 55.6294 76.4822 55.6005C76.3097 55.5792 75.6341 55.5722 75.5263 55.5722C75.4904 55.5722 75.4832 55.5936 75.4832 55.615V56.1252C75.4832 56.334 75.4759 57.0452 75.4832 57.1675C75.4976 57.5772 75.6126 57.6563 76.2378 57.6563C76.4031 57.6563 76.705 57.6563 76.8703 57.5916C77.0355 57.5196 77.1218 57.4121 77.1577 57.1675C77.1722 57.0958 77.1865 57.074 77.2225 57.074C77.2584 57.074 77.2655 57.1242 77.2655 57.1675C77.2655 57.2107 77.2153 57.6275 77.1794 57.7568C77.1362 57.9149 77.0716 57.9149 76.8272 57.9149C76.3528 57.9149 75.9863 57.9005 75.7276 57.8935C75.4617 57.8791 75.2963 57.8791 75.2028 57.8791C75.1885 57.8791 75.0663 57.8791 74.9297 57.8861C74.8076 57.8935 74.6638 57.9005 74.5632 57.9005C74.4986 57.9005 74.4626 57.8861 74.4626 57.8502C74.4626 57.8289 74.4769 57.8 74.5128 57.8C74.5704 57.8 74.6495 57.7786 74.7069 57.7712C74.8291 57.7498 74.8435 57.6275 74.8723 57.4479C74.9082 57.1963 74.9082 56.7149 74.9082 56.1252V55.0471Z" fill="white"/>
<path d="M86.8285 54.5514C86.8285 53.4305 86.8285 53.2291 86.8141 52.9989C86.7996 52.7547 86.7422 52.6399 86.505 52.5896C86.4476 52.5752 86.3253 52.5678 86.2606 52.5678C86.2318 52.5678 86.2031 52.5533 86.2031 52.5245C86.2031 52.4817 86.2391 52.4673 86.3181 52.4673C86.6416 52.4673 87.0728 52.4887 87.1303 52.4887C87.2885 52.4887 87.7053 52.4673 88.0359 52.4673C88.9343 52.4673 89.2577 52.7692 89.3727 52.877C89.5308 53.0277 89.7321 53.3514 89.7321 53.7324C89.7321 54.7528 88.9845 55.4425 87.964 55.4425C87.9281 55.4425 87.849 55.4425 87.8131 55.4356C87.7771 55.4356 87.734 55.4212 87.734 55.3853C87.734 55.3277 87.7772 55.3207 87.9281 55.3207C88.6253 55.3207 89.1715 54.8105 89.1715 54.1491C89.1715 53.9119 89.1499 53.4305 88.769 53.0422C88.388 52.6543 87.9496 52.6826 87.7844 52.6826C87.6622 52.6826 87.54 52.6971 87.4753 52.7259C87.4322 52.7403 87.4178 52.7905 87.4178 52.8626V55.8165C87.4178 56.5062 87.4178 57.0741 87.4537 57.376C87.4753 57.5843 87.5184 57.7424 87.734 57.7713C87.8346 57.7857 87.9927 57.8001 88.0575 57.8001C88.1005 57.8001 88.1149 57.8215 88.1149 57.8434C88.1149 57.8792 88.079 57.9006 87.9999 57.9006C87.6046 57.9006 87.1518 57.8792 87.1159 57.8792C87.0944 57.8792 86.6416 57.9006 86.4259 57.9006C86.3469 57.9006 86.3109 57.8862 86.3109 57.8434C86.3109 57.8215 86.3253 57.8001 86.3685 57.8001C86.4331 57.8001 86.5194 57.7857 86.584 57.7713C86.7278 57.7424 86.7637 57.5843 86.7926 57.376C86.8285 57.0741 86.8285 56.5062 86.8285 55.8165V54.5514Z" fill="white"/>
<path d="M94.6097 53.4015C94.6888 53.2001 94.7175 53.1643 94.7606 53.1643C94.8253 53.1643 94.8469 53.2503 94.9115 53.3871C95.0265 53.6457 96.04 56.1684 96.428 57.0958C96.658 57.6418 96.8305 57.7209 96.967 57.7642C97.0605 57.793 97.1539 57.8 97.2187 57.8C97.2546 57.8 97.2977 57.8144 97.2977 57.8502C97.2977 57.886 97.2259 57.9004 97.1539 57.9004C97.0605 57.9004 96.5933 57.9004 96.1549 57.886C96.0328 57.879 95.9321 57.879 95.9321 57.8432C95.9321 57.8144 95.9465 57.8144 95.9752 57.8C96.0112 57.7855 96.0759 57.7353 96.0328 57.6349L95.4649 56.233C95.4506 56.2042 95.4434 56.1972 95.4075 56.1972H93.9484C93.9197 56.1972 93.8981 56.2116 93.8838 56.2474L93.5244 57.2251C93.4669 57.3758 93.431 57.5269 93.431 57.6349C93.431 57.7567 93.5388 57.8 93.6466 57.8H93.704C93.7544 57.8 93.7688 57.8214 93.7688 57.8502C93.7688 57.886 93.7329 57.9004 93.6753 57.9004C93.5244 57.9004 93.1794 57.879 93.1075 57.879C93.0429 57.879 92.7266 57.9004 92.4679 57.9004C92.3889 57.9004 92.3457 57.886 92.3457 57.8502C92.3457 57.8214 92.3744 57.8 92.4031 57.8C92.4463 57.8 92.5398 57.793 92.5901 57.7855C92.8775 57.7497 92.9997 57.5339 93.122 57.2251L94.6097 53.4015ZM95.314 55.9456C95.3428 55.9456 95.3428 55.9312 95.3356 55.9023L94.7103 54.228C94.6743 54.1345 94.6384 54.1345 94.6025 54.228L94.0131 55.9023C94.006 55.9312 94.0131 55.9456 94.0347 55.9456H95.314Z" fill="white"/>
<path d="M100.859 55.0472C100.859 54.0988 100.859 53.9263 100.845 53.7323C100.831 53.5235 100.795 53.423 100.586 53.3942C100.536 53.3872 100.428 53.3798 100.371 53.3798C100.349 53.3798 100.32 53.3514 100.32 53.3295C100.32 53.2937 100.349 53.2793 100.421 53.2793C100.708 53.2793 101.132 53.2937 101.168 53.2937C101.233 53.2937 101.765 53.2793 101.959 53.2793C102.362 53.2793 102.807 53.3151 103.138 53.5454C103.296 53.6602 103.576 53.9551 103.576 54.3788C103.576 54.8318 103.389 55.2704 102.8 55.7732C103.317 56.4201 103.756 56.9736 104.122 57.3545C104.46 57.6996 104.669 57.7568 104.827 57.7787C104.949 57.8001 105.014 57.8001 105.05 57.8001C105.085 57.8001 105.107 57.8289 105.107 57.8503C105.107 57.8861 105.071 57.9005 104.956 57.9005H104.561C104.201 57.9005 104.043 57.8647 103.885 57.7787C103.612 57.635 103.382 57.3401 103.023 56.8801C102.757 56.5494 102.477 56.1541 102.34 55.989C102.311 55.9602 102.297 55.9532 102.254 55.9532L101.449 55.9387C101.42 55.9387 101.406 55.9532 101.406 55.989V56.1327C101.406 56.722 101.406 57.1964 101.434 57.448C101.456 57.6275 101.492 57.7424 101.686 57.7713C101.772 57.7857 101.909 57.8001 101.966 57.8001C102.009 57.8001 102.017 57.8289 102.017 57.8503C102.017 57.8791 101.988 57.9005 101.916 57.9005C101.571 57.9005 101.168 57.8791 101.14 57.8791C101.132 57.8791 100.708 57.9005 100.514 57.9005C100.45 57.9005 100.414 57.8861 100.414 57.8503C100.414 57.8289 100.428 57.8001 100.464 57.8001C100.522 57.8001 100.601 57.7857 100.658 57.7713C100.78 57.7424 100.795 57.6275 100.823 57.448C100.859 57.1964 100.859 56.715 100.859 56.1252V55.0472ZM101.406 55.5648C101.406 55.6006 101.42 55.6225 101.449 55.6439C101.542 55.6941 101.866 55.7374 102.146 55.7374C102.297 55.7374 102.469 55.7304 102.62 55.6295C102.836 55.4858 103.001 55.1625 103.001 54.6951C103.001 53.9332 102.584 53.4951 101.909 53.4951C101.722 53.4951 101.521 53.5165 101.456 53.5309C101.427 53.5453 101.406 53.5667 101.406 53.6026V55.5648Z" fill="white"/>
<path d="M109.469 56.1251C109.469 56.7148 109.469 57.1962 109.497 57.4479C109.519 57.6274 109.548 57.7422 109.742 57.7711C109.828 57.7855 109.972 57.7999 110.029 57.7999C110.072 57.7999 110.08 57.8288 110.08 57.8502C110.08 57.879 110.051 57.9004 109.979 57.9004C109.634 57.9004 109.231 57.879 109.196 57.879C109.167 57.879 108.728 57.9004 108.541 57.9004C108.47 57.9004 108.441 57.886 108.441 57.8502C108.441 57.8288 108.455 57.8069 108.491 57.8069C108.549 57.8069 108.621 57.793 108.678 57.7785C108.807 57.7497 108.843 57.6274 108.865 57.4479C108.894 57.1962 108.894 56.7148 108.894 56.1251V53.5596L107.981 53.574C107.586 53.581 107.435 53.6243 107.341 53.768C107.269 53.8759 107.262 53.9187 107.241 53.9619C107.226 54.0122 107.205 54.0196 107.176 54.0196C107.162 54.0196 107.133 54.0052 107.133 53.9689C107.133 53.9042 107.262 53.3582 107.269 53.308C107.284 53.2722 107.312 53.1931 107.334 53.1931C107.377 53.1931 107.442 53.2433 107.614 53.2647C107.794 53.2861 108.038 53.2936 108.11 53.2936H110.496C110.705 53.2936 110.849 53.2791 110.949 53.2647C111.043 53.2503 111.1 53.2359 111.129 53.2359C111.158 53.2359 111.158 53.2722 111.158 53.308C111.158 53.495 111.136 53.9331 111.136 54.0052C111.136 54.0554 111.107 54.0843 111.079 54.0843C111.05 54.0843 111.035 54.0624 111.028 53.9763L111.021 53.9117C111 53.7247 110.863 53.588 110.259 53.574L109.469 53.5596V56.1251Z" fill="white"/>
<path d="M115.466 57.0669C115.48 57.5702 115.538 57.7209 115.71 57.7641C115.825 57.793 115.969 57.7999 116.027 57.7999C116.055 57.7999 116.077 57.8213 116.077 57.8502C116.077 57.886 116.034 57.9004 115.962 57.9004C115.603 57.9004 115.351 57.879 115.294 57.879C115.236 57.879 114.97 57.9004 114.683 57.9004C114.618 57.9004 114.582 57.8934 114.582 57.8502C114.582 57.8213 114.604 57.7999 114.632 57.7999C114.683 57.7999 114.798 57.793 114.891 57.7641C115.049 57.7209 115.071 57.5557 115.071 57.0023V53.5019C115.071 53.2578 115.107 53.1931 115.157 53.1931C115.229 53.1931 115.337 53.315 115.401 53.3796C115.502 53.4806 116.422 54.4577 117.399 55.4642C118.025 56.1112 118.7 56.8367 118.894 57.0381L118.83 53.9763C118.822 53.581 118.787 53.4443 118.592 53.4084C118.477 53.3871 118.334 53.3796 118.283 53.3796C118.24 53.3796 118.233 53.3438 118.233 53.3224C118.233 53.2861 118.283 53.2791 118.355 53.2791C118.643 53.2791 118.945 53.2936 119.017 53.2936C119.089 53.2936 119.297 53.2791 119.556 53.2791C119.62 53.2791 119.671 53.2861 119.671 53.3224C119.671 53.3438 119.642 53.3796 119.599 53.3796C119.57 53.3796 119.52 53.3796 119.448 53.394C119.239 53.4373 119.225 53.5596 119.225 53.9261L119.211 57.5051C119.211 57.9078 119.203 57.9436 119.16 57.9436C119.096 57.9436 119.031 57.8934 118.679 57.5702C118.614 57.5125 117.701 56.6139 117.033 55.9167C116.3 55.1479 115.588 54.4005 115.394 54.1847L115.466 57.0669Z" fill="white"/>
<path d="M123.771 55.0471C123.771 54.0987 123.771 53.9262 123.757 53.7322C123.743 53.5234 123.707 53.423 123.498 53.3941C123.448 53.3871 123.34 53.3797 123.283 53.3797C123.261 53.3797 123.232 53.3513 123.232 53.3295C123.232 53.2937 123.261 53.2792 123.333 53.2792C123.621 53.2792 124.03 53.2937 124.066 53.2937C124.109 53.2937 125.432 53.3006 125.575 53.2937C125.698 53.2862 125.813 53.2648 125.863 53.2578C125.892 53.2504 125.92 53.229 125.949 53.229C125.971 53.229 125.978 53.2578 125.978 53.2862C125.978 53.3295 125.942 53.4015 125.928 53.5741C125.92 53.6313 125.906 53.9043 125.892 53.9764C125.885 54.0053 125.863 54.0411 125.834 54.0411C125.798 54.0411 125.784 54.0122 125.784 53.962C125.784 53.9187 125.777 53.8183 125.748 53.7462C125.705 53.6457 125.64 53.6025 125.295 53.5597C125.187 53.5453 124.454 53.5378 124.382 53.5378C124.354 53.5378 124.346 53.5597 124.346 53.6025V55.2629C124.346 55.3061 124.346 55.3275 124.382 55.3275C124.461 55.3275 125.295 55.3275 125.439 55.3131C125.59 55.2987 125.683 55.2917 125.748 55.2271C125.791 55.1838 125.82 55.148 125.841 55.148C125.863 55.148 125.877 55.1624 125.877 55.1982C125.877 55.2341 125.841 55.335 125.827 55.5359C125.813 55.6582 125.798 55.888 125.798 55.9312C125.798 55.9815 125.784 56.0461 125.741 56.0461C125.712 56.0461 125.698 56.0247 125.698 55.9889C125.698 55.9312 125.698 55.8666 125.669 55.7875C125.647 55.7015 125.59 55.6294 125.345 55.6005C125.173 55.5792 124.497 55.5722 124.39 55.5722C124.354 55.5722 124.346 55.5936 124.346 55.615V56.1252C124.346 56.334 124.339 57.0452 124.346 57.1675C124.361 57.5772 124.476 57.6563 125.101 57.6563C125.266 57.6563 125.568 57.6563 125.734 57.5916C125.899 57.5196 125.985 57.4121 126.021 57.1675C126.035 57.0958 126.05 57.074 126.086 57.074C126.122 57.074 126.129 57.1242 126.129 57.1675C126.129 57.2107 126.079 57.6275 126.043 57.7568C126 57.9149 125.935 57.9149 125.69 57.9149C125.216 57.9149 124.85 57.9005 124.591 57.8935C124.325 57.8791 124.16 57.8791 124.066 57.8791C124.052 57.8791 123.93 57.8791 123.793 57.8861C123.671 57.8935 123.527 57.9005 123.426 57.9005C123.362 57.9005 123.326 57.8861 123.326 57.8502C123.326 57.8289 123.34 57.8 123.376 57.8C123.434 57.8 123.513 57.7786 123.57 57.7712C123.692 57.7498 123.707 57.6275 123.736 57.4479C123.771 57.1963 123.771 56.7149 123.771 56.1252V55.0471Z" fill="white"/>
<path d="M130.461 55.0472C130.461 54.0988 130.461 53.9263 130.447 53.7323C130.432 53.5235 130.396 53.423 130.188 53.3942C130.137 53.3872 130.03 53.3798 129.972 53.3798C129.951 53.3798 129.922 53.3514 129.922 53.3295C129.922 53.2937 129.951 53.2793 130.022 53.2793C130.31 53.2793 130.734 53.2937 130.77 53.2937C130.835 53.2937 131.366 53.2793 131.561 53.2793C131.963 53.2793 132.409 53.3151 132.739 53.5454C132.897 53.6602 133.178 53.9551 133.178 54.3788C133.178 54.8318 132.991 55.2704 132.401 55.7732C132.919 56.4201 133.357 56.9736 133.724 57.3545C134.062 57.6996 134.27 57.7568 134.428 57.7787C134.55 57.8001 134.615 57.8001 134.651 57.8001C134.687 57.8001 134.709 57.8289 134.709 57.8503C134.709 57.8861 134.673 57.9005 134.558 57.9005H134.162C133.803 57.9005 133.645 57.8647 133.487 57.7787C133.214 57.635 132.984 57.3401 132.624 56.8801C132.358 56.5494 132.078 56.1541 131.941 55.989C131.913 55.9602 131.898 55.9532 131.855 55.9532L131.05 55.9387C131.021 55.9387 131.007 55.9532 131.007 55.989V56.1327C131.007 56.722 131.007 57.1964 131.036 57.448C131.057 57.6275 131.093 57.7424 131.287 57.7713C131.374 57.7857 131.51 57.8001 131.568 57.8001C131.611 57.8001 131.618 57.8289 131.618 57.8503C131.618 57.8791 131.589 57.9005 131.517 57.9005C131.172 57.9005 130.77 57.8791 130.741 57.8791C130.734 57.8791 130.31 57.9005 130.116 57.9005C130.051 57.9005 130.015 57.8861 130.015 57.8503C130.015 57.8289 130.03 57.8001 130.066 57.8001C130.123 57.8001 130.202 57.7857 130.26 57.7713C130.382 57.7424 130.396 57.6275 130.425 57.448C130.461 57.1964 130.461 56.715 130.461 56.1252V55.0472ZM131.007 55.5648C131.007 55.6006 131.021 55.6225 131.05 55.6439C131.144 55.6941 131.467 55.7374 131.747 55.7374C131.898 55.7374 132.071 55.7304 132.222 55.6295C132.437 55.4858 132.603 55.1625 132.603 54.6951C132.603 53.9332 132.186 53.4951 131.51 53.4951C131.323 53.4951 131.122 53.5165 131.057 53.5309C131.029 53.5453 131.007 53.5667 131.007 53.6026V55.5648Z" fill="white"/>
<path d="M137.424 57.8145C137.337 57.7712 137.33 57.7498 137.33 57.5843C137.33 57.2824 137.359 57.0382 137.366 56.9378C137.366 56.8731 137.38 56.8368 137.416 56.8368C137.452 56.8368 137.474 56.8587 137.474 56.9089C137.474 56.9592 137.474 57.0452 137.495 57.1317C137.596 57.5773 138.07 57.7354 138.494 57.7354C139.12 57.7354 139.443 57.3833 139.443 56.9234C139.443 56.4848 139.206 56.2764 138.645 55.8597L138.358 55.6439C137.675 55.1336 137.452 54.7597 137.452 54.336C137.452 53.617 138.02 53.1858 138.854 53.1858C139.105 53.1858 139.357 53.2216 139.508 53.2579C139.63 53.2863 139.68 53.2863 139.731 53.2863C139.781 53.2863 139.795 53.2937 139.795 53.3295C139.795 53.3584 139.767 53.5597 139.767 53.9765C139.767 54.07 139.759 54.1132 139.716 54.1132C139.673 54.1132 139.666 54.0844 139.659 54.0341C139.652 53.962 139.601 53.7969 139.565 53.7323C139.522 53.6602 139.314 53.4304 138.746 53.4304C138.286 53.4304 137.905 53.6602 137.905 54.0913C137.905 54.4797 138.099 54.7025 138.724 55.1262L138.904 55.2485C139.673 55.7732 139.939 56.1973 139.939 56.722C139.939 57.0815 139.803 57.4694 139.35 57.7643C139.084 57.9368 138.689 57.9796 138.344 57.9796C138.049 57.9796 137.682 57.9368 137.424 57.8145Z" fill="white"/>
<path d="M83.9447 8.0105C83.9447 8.0105 74.9866 16.8468 71.709 20.6279C75.1094 17.921 84.0285 10.2574 84.0285 10.2574L84.1638 10.3647L113.641 33.085L83.9447 8.0105Z" fill="white"/>
<path d="M74.3088 6.02051C74.3088 6.02051 63.1297 17.2489 62.3689 18.391C61.5716 19.5879 60.9961 20.9282 61.4172 21.9599C61.9687 23.31 64.0449 25.1004 69.4963 26.009C61.5477 23.9172 61.6895 21.055 62.8259 19.5509C62.9236 19.4217 74.184 7.56003 74.184 7.56003L79.2359 11.0724L80.1853 10.2109L74.3088 6.02051Z" fill="white"/>
<path d="M58.4356 23.4592C58.6281 23.8708 58.8989 24.2356 59.1913 24.5735C59.4841 24.9116 59.8055 25.2219 60.1507 25.5009C60.8396 26.0613 61.6104 26.5086 62.4174 26.8633C64.0389 27.5708 65.7984 27.9024 67.564 28.0426C69.3337 28.1774 72.6443 28.3434 78.1727 26.9588C79.9426 26.5262 81.7604 26.1566 83.6028 25.9343C85.4466 25.7302 87.318 25.6837 89.1642 25.8733C92.8653 26.2231 96.4188 27.4686 99.5482 29.3095C97.8455 28.667 96.1287 28.1003 94.3785 27.6977C93.5037 27.4997 92.6264 27.3198 91.7393 27.2103C90.856 27.0855 89.9687 26.9935 89.079 26.9643C85.5115 26.7836 81.9944 27.4238 78.4715 28.2734C72.2594 29.4981 69.2938 29.3109 67.4496 29.0545C65.6094 28.8208 63.7782 28.3149 62.1364 27.4274C61.3272 26.9678 60.5521 26.4344 59.9111 25.7621C59.2689 25.1005 58.7162 24.3295 58.4356 23.4592Z" fill="#B4B4B4"/>
<path d="M57.1348 15.6355L38.5605 33.3469L57.2938 17.4905L60.454 20.123C60.5662 19.6495 60.6754 19.4515 60.9449 18.9693L57.1348 15.6355Z" fill="white"/>
</svg>
