<svg width="160" height="64" viewBox="0 0 160 64" fill="none" xmlns="http://www.w3.org/2000/svg">
<path d="M17.3549 29.7884C18.8007 28.4078 19.5634 26.4241 19.5634 24.0517C19.5634 19.0589 16.3148 16.0771 10.8723 16.0771H0V40.8918H4.20267V31.9948H10.8723C13.6083 31.9948 15.8504 31.232 17.357 29.7884H17.3549ZM4.20267 28.475V19.5969H10.6559C13.623 19.5969 15.3251 21.2212 15.3251 24.0496C15.3251 26.878 13.6251 28.4729 10.6601 28.475H4.20057H4.20267Z" fill="#1A1A1A"/>
<path d="M21.2976 39.9586C22.4281 40.8622 23.9747 41.3203 25.8995 41.3203C28.4316 41.3203 30.3943 40.4398 31.5752 38.7714L32.069 38.0758L32.1384 38.9248C32.2098 39.843 32.3317 40.4882 32.5103 40.8916H36.3074C35.9124 39.988 35.7695 38.6726 35.7695 37.7018V27.878C35.7695 24.4087 33.2899 22.6499 28.398 22.6499C25.7125 22.6499 23.691 23.192 22.3882 24.2637C21.2576 25.1904 20.6209 26.5185 20.4465 28.3172H24.2584C24.5021 26.1844 25.6305 25.3879 28.3686 25.3879C30.8713 25.3879 32.0375 26.2138 32.0375 27.9831C32.0375 29.7524 30.4972 30.2315 29.1566 30.3975L26.3597 30.6497C21.7872 31.0868 19.564 32.8666 19.564 36.0922C19.564 37.7144 20.1628 39.0508 21.2976 39.9565V39.9586ZM27.1414 32.9654L29.5705 32.6796C30.5182 32.5766 31.1129 32.3686 31.5038 32.0093L32.0249 31.5323V33.9173C32.0249 35.487 31.4743 36.7646 30.4321 37.6135C29.5474 38.3322 28.316 38.7272 26.9649 38.7272C24.7921 38.7272 23.546 37.7018 23.546 35.9156C23.546 34.1295 24.6555 33.2469 27.1414 32.9633V32.9654Z" fill="#1A1A1A"/>
<path d="M47.3138 26.3883H48.1459V22.8223C47.8832 22.795 47.6164 22.7845 47.3516 22.7929C44.2311 22.8013 42.7875 24.6378 42.1256 26.1781L41.5309 27.5566V23.0786H37.801V40.8875H41.6822V31.8412C41.6822 30.0446 42.1907 28.6619 43.1952 27.7289C44.1555 26.8379 45.5403 26.3862 47.3138 26.3862V26.3883Z" fill="#1A1A1A"/>
<path d="M57.8642 41.0345C58.4715 41.0345 59.1775 40.9799 59.913 40.9169V38.0822H58.6879C57.4313 38.0822 56.2714 37.8489 56.2714 36.1658V25.8902H59.9151V23.0807H56.2798V17.7202H52.4259V23.0786H49.5681V25.8881H52.4259V36.628C52.4259 39.717 54.0524 41.0324 57.8663 41.0324L57.8642 41.0345Z" fill="#1A1A1A"/>
<path d="M75.9843 47.9207C76.5349 47.9291 77.0917 47.9018 77.6402 47.8451V44.9053H76.2365C74.1372 44.9053 72.8827 43.6802 72.8827 41.6314C72.8827 40.4547 73.3513 38.969 73.759 37.8049L78.9724 23.0703H74.7929L73.3513 27.4726C72.2839 30.9041 71.3004 34.3587 70.4263 37.7418L70.13 38.8913L69.8274 37.7439C68.8103 33.9027 67.7597 30.4103 66.8666 27.502L65.4356 23.0766H61.3884L68.3481 42.5875C69.7686 46.5738 71.6955 47.9207 75.9864 47.9207H75.9843Z" fill="#1A1A1A"/>
<path d="M104.048 23.0786L102.041 29.7504C101.343 32.0345 100.703 34.3628 100.221 36.1363L99.9082 37.2837L99.6203 36.13C99.0298 33.7597 98.4583 31.6626 97.8741 29.7146L95.9031 23.0849H92.0786L90.1076 29.7146C89.5318 31.6332 88.9602 33.7324 88.3614 36.13L88.0714 37.2963L87.7688 36.1363C87.2834 34.3544 86.6383 32.0156 85.949 29.7546L83.9443 23.0786H79.7732L85.6422 40.8874H89.8995L92.1227 33.537C92.4989 32.2573 92.8981 30.822 93.3836 29.0212L93.9509 26.9493L94.2493 28.0441C94.7305 29.7945 95.2285 31.5407 95.819 33.5412L98.08 40.8916H102.344L108.213 23.0828L104.048 23.0786Z" fill="#1A1A1A"/>
<path d="M108.949 39.9588C110.058 40.8497 111.649 41.3204 113.551 41.3204C116.083 41.3204 118.046 40.44 119.226 38.7715L119.722 38.0739L119.788 38.9249C119.857 39.7949 119.987 40.4715 120.162 40.8897H123.965C123.57 39.9861 123.427 38.6706 123.427 37.6998V27.8761C123.427 24.4068 120.947 22.6479 116.056 22.6479C113.37 22.6479 111.349 23.1901 110.046 24.2618C108.915 25.1885 108.279 26.5165 108.104 28.3153H111.916C112.16 26.1824 113.288 25.386 116.026 25.386C118.529 25.386 119.693 26.2118 119.693 27.9811C119.693 29.7505 118.153 30.2296 116.812 30.3956L114.015 30.6477C109.438 31.0848 107.213 32.8667 107.213 36.0902C107.213 37.7124 107.812 39.0489 108.947 39.9546L108.949 39.9588ZM114.799 32.9655L117.228 32.6797C118.176 32.5768 118.773 32.3687 119.161 32.0094L119.682 31.5324V33.9174C119.682 35.4871 119.132 36.7647 118.09 37.6137C117.205 38.3323 115.974 38.7274 114.622 38.7274C112.45 38.7274 111.204 37.7019 111.204 35.9158C111.204 34.1297 112.313 33.2471 114.799 32.9634V32.9655Z" fill="#1A1A1A"/>
<path d="M138.315 23.0786L136.602 27.8045C135.615 30.9544 134.614 34.2115 133.715 37.2185L133.421 38.2061L133.122 37.2185C132.246 34.3208 131.227 30.9649 130.231 27.8297L128.523 23.0891H124.364L130.958 40.898H135.709L142.337 23.0891L138.319 23.0807L138.315 23.0786Z" fill="#1A1A1A"/>
<path d="M160 32.3055C160 29.4708 159.185 27.0585 157.64 25.3333C156.073 23.5766 153.845 22.6499 151.202 22.6499C148.558 22.6499 146.402 23.5346 144.822 25.2051C143.238 26.882 142.401 29.2271 142.401 31.984C142.401 34.741 143.255 37.1302 144.868 38.8029C146.48 40.4734 148.634 41.3203 151.271 41.3203C153.364 41.3203 155.238 40.7634 156.688 39.7128C158.01 38.7503 158.983 37.3656 159.439 35.7959H155.724C154.932 37.5253 153.406 38.4393 151.305 38.4393C148.336 38.4393 146.526 36.6532 146.211 33.4087L146.175 33.0683H159.998V32.3076L160 32.3055ZM146.203 30.5446L146.253 30.1853C146.682 27.1804 148.428 25.5245 151.168 25.5245C153.908 25.5245 155.72 27.2665 156.119 30.1853L156.169 30.5446H146.203Z" fill="#1A1A1A"/>
</svg>
