<svg width="160" height="64" viewBox="0 0 160 64" fill="none" xmlns="http://www.w3.org/2000/svg">
<g clip-path="url(#clip0_4383_10496)">
<path d="M17.3549 29.7886C18.8007 28.408 19.5634 26.4244 19.5634 24.052C19.5634 19.0592 16.3148 16.0774 10.8723 16.0774H0V40.8921H4.20267V31.995H10.8723C13.6083 31.995 15.8504 31.2322 17.357 29.7886H17.3549ZM4.20267 28.4753V19.5971H10.6559C13.623 19.5971 15.3251 21.2215 15.3251 24.0499C15.3251 26.8783 13.6251 28.4732 10.6601 28.4753H4.20057H4.20267Z" fill="white"/>
<path d="M21.2981 39.9591C22.4286 40.8627 23.9752 41.3208 25.9 41.3208C28.4321 41.3208 30.3947 40.4403 31.5757 38.7718L32.0695 38.0763L32.1389 38.9252C32.2103 39.8435 32.3322 40.4886 32.5108 40.8921H36.3079C35.9129 39.9885 35.77 38.6731 35.77 37.7023V27.8785C35.77 24.4092 33.2904 22.6504 28.3985 22.6504C25.713 22.6504 23.6915 23.1925 22.3887 24.2642C21.2581 25.1909 20.6214 26.519 20.447 28.3177H24.2588C24.5026 26.1848 25.631 25.3884 28.3691 25.3884C30.8717 25.3884 32.038 26.2143 32.038 27.9836C32.038 29.7529 30.4977 30.232 29.1571 30.398L26.3602 30.6502C21.7877 31.0873 19.5645 32.8671 19.5645 36.0926C19.5645 37.7149 20.1633 39.0513 21.2981 39.957V39.9591ZM27.1419 32.9659L29.571 32.6801C30.5187 32.5771 31.1134 32.3691 31.5042 32.0097L32.0254 31.5327V33.9178C32.0254 35.4875 31.4748 36.7651 30.4326 37.614C29.5479 38.3327 28.3165 38.7277 26.9654 38.7277C24.7926 38.7277 23.5465 37.7023 23.5465 35.9161C23.5465 34.13 24.656 33.2474 27.1419 32.9638V32.9659Z" fill="white"/>
<path d="M47.3135 26.3885H48.1457V22.8225C47.883 22.7952 47.6161 22.7847 47.3514 22.7931C44.2309 22.8015 42.7873 24.6381 42.1253 26.1784L41.5307 27.5568V23.0789H37.8008V40.8877H41.682V31.8415C41.682 30.0448 42.1905 28.6621 43.1949 27.7291C44.1552 26.8382 45.54 26.3864 47.3135 26.3864V26.3885Z" fill="white"/>
<path d="M57.8644 41.035C58.4717 41.035 59.1778 40.9804 59.9132 40.9174V38.0827H58.6882C57.4316 38.0827 56.2716 37.8494 56.2716 36.1662V25.8907H59.9153V23.0812H56.28V17.7207H52.4262V23.0791H49.5684V25.8886H52.4262V36.6285C52.4262 39.7175 54.0526 41.0329 57.8665 41.0329L57.8644 41.035Z" fill="white"/>
<path d="M75.9846 47.921C76.5351 47.9294 77.092 47.9021 77.6404 47.8453V44.9056H76.2367C74.1375 44.9056 72.883 43.6805 72.883 41.6317C72.883 40.4549 73.3516 38.9693 73.7592 37.8051L78.9727 23.0706H74.7931L73.3516 27.4729C72.2841 30.9043 71.3007 34.3589 70.4265 37.7421L70.1302 38.8915L69.8276 37.7442C68.8106 33.9029 67.7599 30.4105 66.8669 27.5023L65.4358 23.0769H61.3887L68.3483 42.5878C69.7688 46.574 71.6957 47.921 75.9867 47.921H75.9846Z" fill="white"/>
<path d="M104.048 23.0791L102.041 29.7508C101.344 32.035 100.703 34.3633 100.222 36.1368L99.9085 37.2841L99.6206 36.1305C99.0301 33.7602 98.4585 31.6631 97.8744 29.7151L95.9033 23.0854H92.0789L90.1078 29.7151C89.532 31.6336 88.9605 33.7329 88.3616 36.1305L88.0716 37.2967L87.769 36.1368C87.2836 34.3549 86.6385 32.0161 85.9493 29.755L83.9446 23.0791H79.7734L85.6425 40.8879H89.8998L92.123 33.5375C92.4991 32.2577 92.8984 30.8225 93.3838 29.0217L93.9512 26.9498L94.2495 28.0446C94.7308 29.795 95.2288 31.5412 95.8192 33.5417L98.0803 40.8921H102.344L108.213 23.0833L104.048 23.0791Z" fill="white"/>
<path d="M108.949 39.959C110.058 40.85 111.649 41.3207 113.551 41.3207C116.083 41.3207 118.045 40.4402 119.226 38.7717L119.722 38.0741L119.787 38.9251C119.857 39.7951 119.987 40.4717 120.161 40.8899H123.965C123.57 39.9863 123.427 38.6709 123.427 37.7001V27.8763C123.427 24.407 120.947 22.6482 116.055 22.6482C113.37 22.6482 111.348 23.1903 110.045 24.262C108.915 25.1887 108.278 26.5168 108.104 28.3155H111.916C112.159 26.1826 113.288 25.3862 116.026 25.3862C118.529 25.3862 119.693 26.2121 119.693 27.9814C119.693 29.7507 118.152 30.2298 116.812 30.3958L114.015 30.648C109.438 31.0851 107.213 32.867 107.213 36.0904C107.213 37.7127 107.812 39.0491 108.947 39.9548L108.949 39.959ZM114.799 32.9658L117.228 32.68C118.176 32.577 118.772 32.369 119.161 32.0096L119.682 31.5326V33.9177C119.682 35.4874 119.132 36.765 118.089 37.6139C117.205 38.3326 115.973 38.7276 114.622 38.7276C112.449 38.7276 111.203 37.7022 111.203 35.916C111.203 34.1299 112.313 33.2473 114.799 32.9637V32.9658Z" fill="white"/>
<path d="M138.314 23.0791L136.601 27.805C135.614 30.9549 134.614 34.212 133.714 37.219L133.42 38.2066L133.122 37.219C132.245 34.3213 131.226 30.9654 130.23 27.8302L128.522 23.0896H124.363L130.957 40.8984H135.708L142.336 23.0896L138.318 23.0812L138.314 23.0791Z" fill="white"/>
<path d="M160.001 32.306C160.001 29.4713 159.186 27.059 157.641 25.3338C156.074 23.5771 153.846 22.6504 151.203 22.6504C148.559 22.6504 146.403 23.5351 144.823 25.2056C143.239 26.8825 142.402 29.2276 142.402 31.9845C142.402 34.7415 143.255 37.1307 144.869 38.8034C146.481 40.4739 148.635 41.3208 151.272 41.3208C153.365 41.3208 155.239 40.7639 156.689 39.7132C158.011 38.7508 158.984 37.3661 159.44 35.7964H155.725C154.933 37.5258 153.407 38.4398 151.306 38.4398C148.337 38.4398 146.527 36.6537 146.212 33.4092L146.176 33.0688H159.999V32.3081L160.001 32.306ZM146.204 30.5451L146.254 30.1858C146.683 27.1809 148.429 25.525 151.169 25.525C153.909 25.525 155.721 27.267 156.12 30.1858L156.17 30.5451H146.204Z" fill="white"/>
</g>
<defs>
<clipPath id="clip0_4383_10496">
<rect width="160" height="64" fill="white"/>
</clipPath>
</defs>
</svg>
