<svg width="247" height="97" viewBox="0 0 247 97" fill="none" xmlns="http://www.w3.org/2000/svg">
<g clip-path="url(#clip0_4324_7811)">
<path d="M123.504 97C55.4017 97 0 75.2418 0 48.5C0 21.7582 55.4017 0 123.504 0C191.606 0 247.008 21.7582 247.008 48.5C247.008 75.2418 191.598 97 123.504 97ZM123.504 1.46002C56.2089 1.46002 1.45871 22.5622 1.45871 48.5C1.45871 74.4378 56.2089 95.54 123.504 95.54C190.799 95.54 245.545 74.4378 245.545 48.5C245.545 22.5622 190.799 1.46002 123.504 1.46002Z" fill="#1A1A1A" stroke="#1A1A1A"/>
<path d="M123.504 97C80.5887 97 45.6731 75.2418 45.6731 48.5C45.6731 21.7582 80.5848 0 123.504 0C166.423 0 201.335 21.7582 201.335 48.5C201.335 75.2418 166.417 97 123.504 97ZM123.504 1.46002C81.3881 1.46002 47.1279 22.5622 47.1279 48.5C47.1279 74.4378 81.3881 95.54 123.504 95.54C165.62 95.54 199.876 74.4378 199.876 48.5C199.876 22.5622 165.612 1.46002 123.504 1.46002Z" fill="#1A1A1A" stroke="#1A1A1A"/>
<path d="M124.229 0.72998H122.771V96.27H124.229V0.72998Z" fill="#1A1A1A" stroke="#1A1A1A"/>
<path d="M123.504 97C68.3104 97 23.4075 75.2418 23.4075 48.5C23.4075 21.7582 68.3065 0 123.504 0C178.701 0 223.6 21.7582 223.6 48.5C223.6 75.2418 178.694 97 123.504 97ZM123.504 1.46002C69.1117 1.46002 24.8623 22.5622 24.8623 48.5C24.8623 74.4378 69.1117 95.54 123.504 95.54C177.896 95.54 222.142 74.4378 222.142 48.5C222.142 22.5622 177.888 1.46002 123.504 1.46002Z" fill="#1A1A1A" stroke="#1A1A1A"/>
<path d="M123.504 97C95.6912 97 73.0579 75.2418 73.0579 48.5C73.0579 21.7582 95.6912 0 123.504 0C151.317 0 173.948 21.7582 173.948 48.5C173.948 75.2418 151.317 97 123.504 97ZM123.504 1.46002C96.4866 1.46002 74.5127 22.5622 74.5127 48.5C74.5127 74.4378 96.4866 95.54 123.504 95.54C150.521 95.54 172.493 74.4378 172.493 48.5C172.493 22.5622 150.513 1.46002 123.504 1.46002Z" fill="#1A1A1A" stroke="#1A1A1A"/>
<path d="M246.271 47.77H0.729248V49.23H246.271V47.77Z" fill="#1A1A1A" stroke="#1A1A1A"/>
</g>
<defs>
<clipPath id="clip0_4324_7811">
<rect width="247" height="97" fill="white"/>
</clipPath>
</defs>
</svg>
