<svg width="452" height="337" viewBox="0 0 452 337" fill="none" xmlns="http://www.w3.org/2000/svg">
<path d="M225.679 264.517C99.1293 264.517 0 238.129 0 204.436C0 170.744 99.1293 144.359 225.679 144.359C352.229 144.359 451.359 170.747 451.359 204.436C451.359 238.126 352.226 264.517 225.679 264.517ZM225.679 146.786C102.576 146.786 2.42718 172.65 2.42718 204.436C2.42718 236.223 102.576 262.087 225.679 262.087C348.783 262.087 448.932 236.223 448.932 204.436C448.932 172.65 348.78 146.786 225.679 146.786Z" fill="#E80213"/>
<path d="M225.679 336.695C99.1293 336.695 0 310.307 0 276.617C0 242.928 99.1293 216.537 225.679 216.537C352.229 216.537 451.359 242.925 451.359 276.614C451.359 310.303 352.226 336.695 225.679 336.695ZM225.679 218.964C102.576 218.964 2.42718 244.828 2.42718 276.614C2.42718 308.401 102.576 334.265 225.679 334.265C348.783 334.265 448.932 308.401 448.932 276.614C448.932 244.828 348.78 218.964 225.679 218.964Z" fill="#E80213"/>
<path d="M225.679 120.158C99.1293 120.158 0 93.7701 0 60.0776C0 26.3851 99.1293 0 225.679 0C352.229 0 451.359 26.3883 451.359 60.0776C451.359 93.7669 352.226 120.158 225.679 120.158ZM225.679 2.42718C102.576 2.42718 2.42718 28.2912 2.42718 60.0776C2.42718 91.864 102.576 117.728 225.679 117.728C348.783 117.728 448.932 91.864 448.932 60.0776C448.932 28.2912 348.78 2.42718 225.679 2.42718Z" fill="#E80213"/>
<path d="M225.679 192.336C99.1293 192.336 0 165.948 0 132.258C0 98.569 99.1293 72.1807 225.679 72.1807C352.229 72.1807 451.359 98.569 451.359 132.258C451.359 165.948 352.226 192.336 225.679 192.336ZM225.679 74.6046C102.576 74.6046 2.42718 100.469 2.42718 132.255C2.42718 164.041 102.576 189.905 225.679 189.905C348.783 189.905 448.932 164.041 448.932 132.255C448.932 100.469 348.78 74.6046 225.679 74.6046Z" fill="#E80213"/>
</svg>
