<svg width="484" height="428" viewBox="0 0 484 428" fill="none" xmlns="http://www.w3.org/2000/svg">
<g clip-path="url(#clip0_4335_8005)">
<g clip-path="url(#clip1_4335_8005)">
<path d="M132.79 320.416C65.2068 235.894 78.9878 112.148 163.51 44.5654C248.032 -23.0175 371.778 -9.23648 439.361 75.2856C506.944 159.808 493.163 283.554 408.641 351.137C324.118 418.719 200.372 404.938 132.79 320.416ZM437.986 76.3847C371.01 -7.37857 248.372 -21.0362 164.609 45.94C80.8457 112.916 67.1881 235.554 134.164 319.317C201.14 403.08 323.778 416.738 407.541 349.762C491.305 282.786 504.962 160.148 437.986 76.3847Z" fill="#E80213"/>
<path d="M123.56 327.796C60.1812 248.533 75.0349 130.942 156.67 65.667C238.307 0.390846 356.285 11.7714 419.664 91.0351C483.04 170.297 468.187 287.888 386.55 353.164C304.915 418.435 186.936 407.058 123.56 327.796ZM418.291 92.1328C355.519 13.6278 238.65 2.37071 157.771 67.0401C76.8928 131.71 62.1644 248.191 124.936 326.696C187.708 405.201 304.574 416.457 385.452 351.788C466.331 287.119 481.062 170.638 418.291 92.1328Z" fill="#E80213"/>
<path d="M114.329 335.177C55.1569 261.173 71.0832 149.737 149.836 86.7677C228.588 23.7982 340.797 32.7783 399.97 106.782C459.142 180.785 443.216 292.221 364.463 355.191C285.711 418.16 173.502 409.18 114.329 335.177ZM398.595 107.881C340.028 34.6343 228.928 25.7795 150.935 88.1423C72.9411 150.505 57.1368 260.831 115.704 334.077C174.271 407.324 285.371 416.179 363.364 353.816C441.358 291.453 457.162 181.127 398.595 107.881Z" fill="#E80213"/>
<path d="M105.099 342.557C50.1314 273.812 67.1351 168.533 142.999 107.873C218.866 47.2105 325.306 53.7882 380.272 122.532C435.239 191.275 418.237 296.555 342.371 357.217C266.507 417.876 160.067 411.302 105.099 342.557ZM378.9 123.629C324.539 55.6428 219.207 49.1918 144.1 109.246C68.993 169.301 52.116 273.472 106.476 341.456C160.835 409.441 266.167 415.895 341.274 355.841C416.381 295.786 433.261 191.616 378.9 123.629Z" fill="#E80213"/>
<path d="M95.8694 349.937C45.1061 286.451 63.1824 187.327 136.163 128.972C209.144 70.6178 309.817 74.7936 360.579 138.279C411.341 201.764 393.266 300.889 320.285 359.244C247.304 417.598 146.631 413.422 95.8694 349.937ZM359.204 139.378C309.046 76.6478 209.484 72.5992 137.262 130.347C65.0403 188.095 47.0874 286.11 97.244 348.838C147.401 411.566 246.964 415.617 319.186 357.869C391.408 300.121 409.361 202.106 359.204 139.378Z" fill="#E80213"/>
<path d="M86.6377 357.319C40.0788 299.091 59.2293 206.124 129.325 150.076C199.421 94.0281 294.325 95.7983 340.884 154.027C387.443 212.255 368.292 305.222 298.196 361.27C228.1 417.318 133.195 415.546 86.6377 357.319ZM339.509 155.126C293.559 97.658 199.763 96.008 130.426 151.449C61.089 206.89 42.0635 298.751 88.0141 356.218C133.965 413.686 227.76 415.336 297.097 359.895C366.434 304.454 385.46 212.594 339.509 155.126Z" fill="#E80213"/>
<path d="M77.4073 364.699C35.0545 311.731 55.2779 224.916 122.489 171.175C189.698 117.435 278.835 116.807 321.188 169.775C363.539 222.741 343.316 309.556 276.107 363.296C208.896 417.037 119.759 417.666 77.4073 364.699ZM319.812 170.875C278.065 118.666 190.039 119.416 123.586 172.551C57.1321 225.687 37.034 311.392 78.7801 363.601C120.526 415.811 208.552 415.059 275.006 361.923C341.458 308.788 361.558 223.085 319.812 170.875Z" fill="#E80213"/>
<path d="M68.1772 372.079C30.0304 324.371 51.3264 243.711 115.651 192.278C179.975 140.845 263.344 137.816 301.491 185.524C339.638 233.233 318.342 313.892 254.017 365.325C189.693 416.758 106.324 419.787 68.1772 372.079ZM300.116 186.624C262.575 139.672 180.316 142.827 116.75 193.653C53.1843 244.479 32.0102 324.029 69.5518 370.98C107.093 417.931 189.352 414.777 252.918 363.951C316.484 313.124 337.658 233.575 300.116 186.624Z" fill="#E80213"/>
<path d="M58.9455 379.461C25.0031 337.011 47.3718 262.507 108.813 213.379C170.251 164.254 247.853 158.823 281.795 201.273C315.738 243.723 293.368 318.226 231.928 367.352C170.489 416.478 92.8878 421.911 58.9455 379.461ZM280.421 202.372C247.084 160.679 170.593 166.234 109.912 214.754C49.2315 263.273 26.983 336.669 60.3201 378.362C93.6557 420.053 170.148 414.497 230.829 365.977C291.51 317.458 313.757 244.063 280.421 202.372Z" fill="#E80213"/>
<path d="M49.7154 386.841C19.9776 349.65 43.4203 281.302 101.975 234.483C160.53 187.663 232.36 179.831 262.098 217.023C291.836 254.214 268.393 322.562 209.839 369.381C151.284 416.201 79.4533 424.033 49.7154 386.841ZM260.725 218.12C231.593 181.686 160.872 189.643 103.076 235.856C45.2801 282.069 21.9592 349.306 51.0918 385.741C80.2245 422.175 150.945 414.218 208.741 368.005C266.537 321.792 289.858 254.555 260.725 218.12Z" fill="#E80213"/>
<path d="M40.4856 394.222C14.9523 362.288 39.4695 300.094 95.1394 255.581C150.807 211.07 216.872 200.836 242.405 232.769C267.938 264.702 243.42 326.895 187.751 371.406C132.08 415.917 66.019 426.155 40.4856 394.222ZM241.03 233.868C216.102 202.692 151.15 213.05 96.2385 256.956C41.3274 300.862 16.9321 361.946 41.8602 393.122C66.7869 424.297 131.741 413.938 186.652 370.031C241.563 326.125 265.957 265.043 241.03 233.868Z" fill="#E80213"/>
<path d="M31.2556 401.602C9.92672 374.927 35.5181 318.89 88.3013 276.685C141.085 234.48 201.379 221.844 222.708 248.519C244.037 275.194 218.445 331.231 165.662 373.436C112.879 415.64 52.5844 428.276 31.2556 401.602ZM221.335 249.617C200.613 223.701 141.427 236.46 89.4022 278.058C37.3778 319.656 11.9099 374.585 32.632 400.501C53.3541 426.417 112.54 413.658 164.565 372.06C216.589 330.461 242.056 275.531 221.335 249.617Z" fill="#E80213"/>
<path d="M22.0253 408.982C4.90243 387.567 31.5679 337.687 81.4681 297.788C131.366 257.889 185.892 242.853 203.014 264.266C220.135 285.678 193.471 335.56 143.573 375.459C93.6727 415.358 39.1467 430.395 22.0253 408.982ZM201.639 265.365C185.122 244.707 131.709 259.869 82.5672 299.162C33.4258 338.455 6.88376 387.227 23.3999 407.883C39.9161 428.539 93.3324 413.377 142.474 374.084C191.615 334.791 218.155 286.021 201.639 265.365Z" fill="#E80213"/>
<path d="M12.7955 416.363C-0.121427 400.208 27.6152 356.481 74.6305 318.888C121.646 281.295 170.404 263.858 183.32 280.013C196.237 296.167 168.501 339.894 121.485 377.487C74.4701 415.08 25.7123 432.517 12.7955 416.363ZM181.944 281.113C169.632 265.716 121.984 283.278 75.7279 320.264C29.4713 357.251 1.85662 399.867 14.1683 415.265C26.4799 430.662 74.1279 413.1 120.384 376.114C166.641 339.128 194.256 296.511 181.944 281.113Z" fill="#E80213"/>
<path d="M3.56543 423.743C-5.29496 412.662 22.9178 375.873 67.7943 339.99C112.669 304.109 154.763 284.681 163.623 295.762C172.484 306.844 144.271 343.632 99.3963 379.513C54.518 415.397 12.4258 434.824 3.56543 423.743ZM162.249 296.862C154.279 286.895 111.528 307.275 68.8934 341.365C26.2567 375.457 -3.02933 412.677 4.94004 422.644C12.9094 432.61 55.6604 412.23 98.2971 378.139C140.93 344.05 170.218 306.828 162.249 296.862Z" fill="#E80213"/>
</g>
</g>
<defs>
<clipPath id="clip0_4335_8005">
<rect width="484" height="428" fill="white"/>
</clipPath>
<clipPath id="clip1_4335_8005">
<rect width="392.524" height="557.979" fill="white" transform="translate(316.795 -78) rotate(51.3546)"/>
</clipPath>
</defs>
</svg>
