<svg width="493" height="466" viewBox="0 0 493 466" fill="none" xmlns="http://www.w3.org/2000/svg">
<g clip-path="url(#clip0_4325_7835)">
<g clip-path="url(#clip1_4325_7835)">
<path d="M444.354 371.52L54.3227 466.115L103.41 313.573L493.445 218.978L444.354 371.52ZM58.5128 462.226L442.172 369.177L489.255 222.866L105.596 315.916L58.5128 462.226Z" fill="#E80213"/>
<path d="M416.367 351.906L81.5979 433.098L123.817 301.903L458.587 220.711L416.367 351.906ZM85.788 429.21L414.185 349.563L454.4 224.598L126.003 304.245L85.788 429.21Z" fill="#E80213"/>
<path d="M388.373 332.294L108.869 400.082L144.22 290.234L423.728 222.444L388.373 332.294ZM113.059 396.194L386.188 329.952L419.534 226.333L146.402 292.577L113.059 396.194Z" fill="#E80213"/>
<path d="M360.383 312.681L136.129 367.069L164.613 278.567L388.866 224.178L360.383 312.681ZM140.33 363.178L358.198 310.339L384.673 228.068L166.809 280.906L140.33 363.178Z" fill="#E80213"/>
<path d="M332.404 293.065L163.415 334.05L185.027 266.895L354.005 225.912L332.404 293.065ZM167.616 330.159L330.218 290.723L349.826 229.798L187.213 269.237L167.616 330.159Z" fill="#E80213"/>
<path d="M304.406 273.469L190.693 301.048L205.433 255.24L319.15 227.66L304.406 273.469ZM194.887 297.159L302.22 271.127L314.96 231.548L207.615 257.583L194.887 297.159Z" fill="#E80213"/>
<path d="M276.4 253.837L217.977 268.006L225.849 243.544L284.297 229.369L276.4 253.837ZM222.138 264.125L274.225 251.492L280.092 233.261L228.017 245.891L222.138 264.125Z" fill="#E80213"/>
<path d="M268.815 222.562L210.392 236.731L218.264 212.269L276.712 198.093L268.815 222.562ZM214.562 232.836L266.637 220.206L272.505 201.975L220.429 214.605L214.562 232.836Z" fill="#E80213"/>
<path d="M289.231 210.897L175.518 238.476L190.256 192.66L303.972 165.08L289.231 210.897ZM179.712 234.586L287.045 208.555L299.784 168.976L192.44 195.01L179.712 234.586Z" fill="#E80213"/>
<path d="M309.643 199.217L140.654 240.202L162.266 173.047L331.243 132.065L309.643 199.217ZM144.855 236.311L307.457 196.875L327.064 135.95L164.451 175.389L144.855 236.311Z" fill="#E80213"/>
<path d="M330.035 187.551L105.781 241.939L134.264 153.437L358.518 99.0481L330.035 187.551ZM109.982 238.048L327.849 185.209L354.325 102.937L136.461 155.776L109.982 238.048Z" fill="#E80213"/>
<path d="M350.439 175.881L70.9342 243.67L106.285 133.821L385.793 66.0315L350.439 175.881ZM75.1242 239.781L348.253 173.539L381.6 69.9208L108.467 136.164L75.1242 239.781Z" fill="#E80213"/>
<path d="M370.845 164.211L36.0755 245.403L78.2947 114.208L413.064 33.0158L370.845 164.211ZM40.2655 241.515L368.663 161.868L408.874 36.9042L80.4767 116.551L40.2655 241.515Z" fill="#E80213"/>
<path d="M391.245 152.542L1.21385 247.137L50.3011 94.5956L440.336 -7.09739e-05L391.245 152.542ZM5.40388 243.249L389.063 150.199L436.146 3.88839L52.4867 96.9378L5.40388 243.249Z" fill="#E80213"/>
</g>
</g>
<defs>
<clipPath id="clip0_4325_7835">
<rect width="493" height="466" fill="white"/>
</clipPath>
<clipPath id="clip1_4325_7835">
<rect width="485" height="362" fill="white" transform="translate(-31 114.314) rotate(-13.6328)"/>
</clipPath>
</defs>
</svg>
