<svg width="160" height="64" viewBox="0 0 160 64" fill="none" xmlns="http://www.w3.org/2000/svg">
<g clip-path="url(#clip0_4383_10681)">
<path d="M52.9023 36.0727H56.672C56.962 40.1685 59.5354 42.597 63.595 42.597C67.7996 42.597 70.2644 40.8572 70.2644 37.8488C70.2644 34.1517 66.7122 33.6079 62.9426 33.028C58.5568 32.3394 53.6635 31.5782 53.6635 25.9238C53.6635 20.9217 57.3244 18.167 63.5225 18.167C69.322 18.167 72.9828 21.6104 73.3816 27.3736H69.6482C69.4307 23.5315 67.0746 21.2842 63.3776 21.2842C59.6804 21.2842 57.5057 22.879 57.5057 25.67C57.5057 28.8235 60.7678 29.3309 64.3562 29.8746C68.9232 30.5995 74.1427 31.3969 74.1427 37.5226C74.1427 42.6695 70.1919 45.7143 63.5225 45.7143C57.2882 45.7143 53.3373 42.1621 52.9023 36.0727Z" fill="white"/>
<path d="M80.3414 26.6128H76.7168V45.2434H80.3414V26.6128Z" fill="white"/>
<path d="M104.843 29.7662H101.146V26.6127H104.879V23.3143C104.879 19.7984 107.235 18.0586 110.063 18.0586H112.818V21.212H110.498C109.374 21.212 108.467 21.8282 108.467 23.2781V26.6127H113.723V29.7662H108.467V45.2434H104.843V29.7662Z" fill="white"/>
<path d="M113.723 35.9276C113.723 30.2369 117.854 26.1411 123.545 26.1411C129.127 26.1411 133.368 30.2369 133.368 35.9276C133.368 41.6546 129.127 45.7141 123.545 45.7141C117.854 45.7141 113.723 41.6546 113.723 35.9276ZM123.545 42.4157C127.061 42.4157 129.671 39.8422 129.671 35.9276C129.671 32.1217 127.061 29.4395 123.545 29.4395C120.029 29.4395 117.419 32.1217 117.419 35.9276C117.419 39.8422 120.029 42.4157 123.545 42.4157Z" fill="white"/>
<path d="M135.393 18.0586H139.017V45.2434H135.393V18.0586Z" fill="white"/>
<path d="M141.043 35.9644C141.043 30.3461 144.631 26.1415 149.561 26.1415C152.714 26.1415 155.65 27.8451 156.412 29.9474V18.0586H160V45.2434H156.412V41.9087H156.375C155.65 44.156 152.714 45.7146 149.561 45.7146C144.595 45.7146 141.043 41.5462 141.043 35.9644ZM150.684 42.4162C154.164 42.4162 156.556 39.5889 156.556 35.9644C156.556 31.8323 153.838 29.44 150.612 29.44C147.277 29.44 144.74 32.0859 144.74 35.9644C144.74 39.9152 147.277 42.4162 150.684 42.4162Z" fill="white"/>
<path d="M94.751 35.7828L100.37 45.2431H96.1646L91.0538 36.0003H90.9813L85.8706 45.2431H81.666L87.2842 35.7828L82.2822 27.1924H86.3418L90.9813 35.7102H91.0538L95.6933 27.1924H99.753L94.751 35.7828Z" fill="white"/>
<path d="M78.5287 23.4575C79.7689 23.4575 80.7741 22.4522 80.7741 21.212C80.7741 19.9719 79.7689 18.9666 78.5287 18.9666C77.2886 18.9666 76.2832 19.9719 76.2832 21.212C76.2832 22.4522 77.2886 23.4575 78.5287 23.4575Z" fill="white"/>
<path d="M31.3714 50.1126H10.457L20.9145 32L31.3714 50.1126Z" fill="white"/>
<path d="M10.4572 50.1124L0 32L20.9146 32.0001L10.4572 50.1124Z" fill="#E1E1E1"/>
<path d="M0 31.9998L10.4572 13.8875L20.9144 32.0001L0 31.9998Z" fill="#BABABA"/>
<path d="M10.457 13.8875H31.3714L20.914 32L10.457 13.8875Z" fill="white"/>
<path d="M41.8284 32.0003L31.3712 50.1127L20.9141 32L41.8284 32.0003Z" fill="#BABABA"/>
<path d="M31.3715 13.8879L41.8287 32.0003L20.9141 32.0002L31.3715 13.8879Z" fill="#E1E1E1"/>
</g>
<defs>
<clipPath id="clip0_4383_10681">
<rect width="160" height="64" fill="white"/>
</clipPath>
</defs>
</svg>
