<svg width="257" height="263" viewBox="0 0 257 263" fill="none" xmlns="http://www.w3.org/2000/svg">
<g clip-path="url(#clip0_4182_7701)">
<path d="M146.351 97.4203L145.752 97.1181C145.39 96.9358 145.023 96.757 144.653 96.5868L144.046 96.3055L146.925 90.501C156.231 71.7469 168.971 46.0614 185.036 12.7395L186.211 13.3038C170.093 46.7368 157.91 72.747 149.013 91.7407L146.351 97.4203Z" fill="#1A1A1A"/>
<path d="M153.495 102.233L152.973 101.804C152.724 101.601 152.472 101.407 152.217 101.211L151.499 100.655L151.928 100.137C161.938 88.0839 174.112 73.3268 188.542 55.2551C188.554 55.2395 188.567 55.2256 188.579 55.21L189.597 56.0226C175.191 74.0665 163.471 89.2385 153.907 101.698L153.495 102.233Z" fill="#1A1A1A"/>
<path d="M129.779 93.0638L128.5 93.0395L127.222 93.0638L127.292 86.7904C127.525 65.8242 127.848 37.1088 127.848 0H129.152C129.152 37.0116 129.475 65.6888 129.708 86.6255L129.779 93.0638Z" fill="#1A1A1A"/>
<path d="M118.694 94.3034L118.556 93.6436C115.354 78.2805 111.387 59.5403 106.242 37.0219L107.511 36.7319C112.667 59.2886 117.228 77.8742 121.013 93.081L121.176 93.7356L120.514 93.8745C120.123 93.9561 119.737 94.0482 119.351 94.1419L118.694 94.3034Z" fill="#1A1A1A"/>
<path d="M138.308 94.3034L137.651 94.1419C137.265 94.0464 136.879 93.9561 136.488 93.8745L135.826 93.7356L135.989 93.081C139.773 77.8742 144.335 59.2886 149.491 36.7319L150.76 37.0219C145.614 59.5403 141.647 78.2823 138.445 93.6436L138.308 94.3034Z" fill="#1A1A1A"/>
<path d="M110.648 97.4202L107.989 91.7407C99.0916 72.7487 86.909 46.7368 70.7906 13.3055L71.9658 12.7412C88.0303 46.0614 100.771 71.7486 110.075 90.5044L112.954 96.309L112.347 96.5903C111.977 96.7604 111.61 96.9375 111.248 97.1216L110.648 97.4202Z" fill="#1A1A1A"/>
<path d="M159.386 108.533L158.847 107.836C158.642 107.571 158.437 107.305 158.223 107.046L157.795 106.531L162.972 102.501C179.454 89.671 202.013 72.1132 230.83 49.159C230.896 49.1069 230.962 49.053 231.029 49.0027L231.84 50.0202C231.743 50.0983 231.649 50.173 231.552 50.2511C202.741 73.2036 180.594 91.251 164.41 104.44L159.386 108.533Z" fill="#1A1A1A"/>
<path d="M166.317 124.191L166.176 123.538C166.091 123.14 165.997 122.745 165.902 122.35L165.742 121.701L172.026 120.341C192.492 115.916 220.516 109.856 256.586 101.634C256.628 101.626 256.67 101.615 256.711 101.605L257 102.874C220.715 111.146 192.732 117.857 172.301 122.757L166.317 124.191Z" fill="#1A1A1A"/>
<path d="M163.734 115.964L163.45 115.355C163.28 114.992 163.108 114.632 162.929 114.276L162.628 113.674L163.242 113.393C177.505 106.864 194.886 98.8422 215.675 88.8445C215.706 88.8288 215.738 88.8132 215.769 88.7993L216.336 89.9731C216.301 89.9887 216.27 90.0043 216.235 90.02C195.402 100.042 178.31 108.606 164.335 115.659L163.734 115.964Z" fill="#1A1A1A"/>
<path d="M90.0138 132.772L89.3446 132.76C73.5913 132.459 54.3821 132.152 31.3258 132.152V130.85C54.4203 130.85 73.6139 130.543 89.3446 130.242L90.0138 130.23L89.993 131.501L90.0138 132.772Z" fill="#1A1A1A"/>
<path d="M93.2698 115.966L92.6666 115.66C78.6309 108.576 61.4764 99.9847 40.6644 89.9748L41.2311 88.801C62.0327 98.8058 79.4566 106.848 93.7601 113.394L94.3754 113.676L94.0712 114.28C93.8922 114.634 93.7201 114.992 93.5532 115.353L93.2698 115.966Z" fill="#1A1A1A"/>
<path d="M166.988 132.772L167.007 131.501L166.988 130.23L167.657 130.242C183.386 130.543 202.578 130.85 225.676 130.85V132.152C202.616 132.152 183.409 132.459 167.657 132.76L166.988 132.772Z" fill="#1A1A1A"/>
<path d="M41.2329 174.199L40.6661 173.025C61.4781 163.015 78.6326 154.424 92.6683 147.34L93.2715 147.034L93.5549 147.649C93.7218 148.01 93.8939 148.368 94.0729 148.722L94.3754 149.324L93.76 149.606C79.4583 156.153 62.0344 164.194 41.2329 174.199Z" fill="#1A1A1A"/>
<path d="M215.767 174.199C215.736 174.183 215.705 174.168 215.673 174.154C194.884 164.156 177.503 156.136 163.24 149.606L162.628 149.326L162.927 148.724C163.106 148.368 163.278 148.008 163.449 147.645L163.732 147.036L164.333 147.34C178.308 154.393 195.4 162.956 216.233 172.978C216.268 172.994 216.299 173.01 216.334 173.025L215.767 174.199Z" fill="#1A1A1A"/>
<path d="M149.489 226.27C144.335 203.723 139.772 185.133 135.987 169.921L135.824 169.266L136.486 169.127C136.877 169.044 137.263 168.952 137.651 168.858L138.306 168.698L138.444 169.356C141.647 184.73 145.616 203.477 150.758 225.978L149.489 226.27Z" fill="#1A1A1A"/>
<path d="M107.512 226.27L106.243 225.98C111.386 203.479 115.354 184.731 118.558 169.358L118.695 168.7L119.351 168.86C119.739 168.953 120.124 169.045 120.516 169.129L121.178 169.268L121.014 169.922C117.23 185.133 112.667 203.723 107.512 226.27Z" fill="#1A1A1A"/>
<path d="M185.036 250.259C168.973 216.94 156.232 191.255 146.929 172.501L144.048 166.695L144.655 166.413C145.023 166.241 145.392 166.064 145.753 165.882L146.353 165.58L148.999 171.228C157.88 190.192 170.042 216.156 186.129 249.524C186.157 249.582 186.183 249.637 186.211 249.695L185.036 250.259Z" fill="#1A1A1A"/>
<path d="M129.152 263H127.848C127.848 225.891 127.525 197.178 127.292 176.211L127.222 169.936L128.5 169.961L129.779 169.936L129.708 176.375C129.474 197.313 129.152 225.988 129.152 263Z" fill="#1A1A1A"/>
<path d="M188.579 207.79C188.546 207.75 188.513 207.707 188.48 207.667C174.094 189.652 161.933 174.912 151.93 162.862L151.501 162.343L152.191 161.81C152.453 161.607 152.717 161.406 152.973 161.195L153.495 160.767L153.905 161.301C163.469 173.761 175.19 188.933 189.596 206.977L188.579 207.79Z" fill="#1A1A1A"/>
<path d="M256.711 161.397C220.581 153.16 192.516 147.091 172.026 142.66L165.742 141.301L165.902 140.651C165.999 140.257 166.091 139.861 166.176 139.462L166.315 138.809L172.172 140.214C192.626 145.119 220.638 151.837 257 160.128L256.711 161.397Z" fill="#1A1A1A"/>
<path d="M231.027 213.997C230.978 213.961 230.931 213.923 230.884 213.886C201.966 190.852 179.357 173.254 162.842 160.4L157.795 156.471L158.221 155.955C158.446 155.684 158.659 155.407 158.875 155.127L159.384 154.467L164.452 158.596C180.683 171.824 202.912 189.94 231.839 212.982L231.027 213.997Z" fill="#1A1A1A"/>
<path d="M0.288573 161.397L0 160.126C36.3063 151.849 64.2961 145.136 84.7326 140.235L90.6866 138.807L90.8256 139.46C90.9108 139.86 91.0047 140.255 91.1003 140.65L91.2602 141.299L84.9725 142.66C64.5064 147.086 36.4836 153.144 0.413737 161.366C0.373754 161.376 0.330294 161.387 0.288573 161.397Z" fill="#1A1A1A"/>
<path d="M90.6848 124.191L84.6057 122.734C64.19 117.838 36.2298 111.134 0 102.874L0.288573 101.605C0.330294 101.615 0.372015 101.624 0.413737 101.634C36.4818 109.856 64.5047 115.916 84.9725 120.34L91.2602 121.701L91.1003 122.35C91.0029 122.745 90.9108 123.14 90.8256 123.538L90.6848 124.191Z" fill="#1A1A1A"/>
<path d="M103.507 102.233L103.097 101.698C93.5323 89.2385 81.812 74.0665 67.406 56.0226L68.4247 55.21C82.8255 73.2487 95.0325 88.0422 105.073 100.137L105.503 100.655L104.785 101.211C104.531 101.407 104.277 101.601 104.029 101.804L103.507 102.233Z" fill="#1A1A1A"/>
<path d="M97.6157 108.533L92.6005 104.447C76.3605 91.2111 54.1195 73.0856 25.1597 50.0185L25.9715 49.001C26.0202 49.0374 26.0688 49.0756 26.1158 49.1138C54.9557 72.0855 77.5304 89.6571 94.0207 102.492L99.2081 106.531L98.777 107.046C98.5701 107.296 98.3737 107.552 98.1738 107.807L97.6157 108.533Z" fill="#1A1A1A"/>
<path d="M25.9715 213.997L25.1597 212.98C25.2553 212.903 25.3509 212.825 25.4465 212.751C54.2412 189.814 76.3778 171.773 92.5553 158.588L97.614 154.466L98.1529 155.162C98.3563 155.428 98.5614 155.693 98.777 155.954L99.2046 156.469L94.1477 160.407C77.6451 173.253 55.06 190.831 26.1697 213.841C26.1054 213.893 26.0393 213.945 25.9715 213.997Z" fill="#1A1A1A"/>
<path d="M68.423 207.79L67.4043 206.977C81.8103 188.933 93.5306 173.761 103.095 161.301L103.505 160.767L104.027 161.195C104.282 161.406 104.547 161.609 104.809 161.81L105.499 162.343L105.07 162.862C95.0204 174.968 82.8082 189.772 68.423 207.79Z" fill="#1A1A1A"/>
<path d="M71.9641 250.259L70.7889 249.695C70.8168 249.637 70.8446 249.58 70.8724 249.523C86.9594 216.154 99.1195 190.192 108.001 171.228L110.647 165.58L111.246 165.882C111.608 166.064 111.977 166.241 112.345 166.413L112.952 166.695L110.071 172.501C100.769 191.255 88.0285 216.94 71.9641 250.259Z" fill="#1A1A1A"/>
</g>
<defs>
<clipPath id="clip0_4182_7701">
<rect width="257" height="263" fill="white"/>
</clipPath>
</defs>
</svg>
