<svg width="471" height="418" viewBox="0 0 471 418" fill="none" xmlns="http://www.w3.org/2000/svg">
<g clip-path="url(#clip0_4186_7922)">
<g clip-path="url(#clip1_4186_7922)">
<path d="M128.427 312.931C62.2837 230.209 75.7712 109.098 158.493 42.9549C241.215 -23.1885 362.325 -9.70102 428.469 73.0209C494.612 155.743 481.125 276.853 398.403 342.997C315.681 409.14 194.571 395.653 128.427 312.931ZM427.124 74.0966C361.574 -7.88268 241.548 -21.2494 159.569 44.3003C77.5895 109.85 64.2228 229.876 129.772 311.855C195.322 393.834 315.348 407.201 397.327 341.651C479.306 276.102 492.673 156.076 427.124 74.0966Z" fill="#E80213"/>
<path d="M119.394 320.154C57.3651 242.578 71.9024 127.492 151.799 63.6071C231.698 -0.278772 347.163 10.8594 409.191 88.4349C471.218 166.009 456.681 281.095 376.782 344.981C296.886 408.862 181.421 397.727 119.394 320.154ZM407.848 89.5092C346.413 12.6763 232.032 1.65892 152.877 64.951C73.7208 128.243 59.306 242.244 120.741 319.076C182.175 395.909 296.553 406.926 375.708 343.634C454.864 280.342 469.282 166.342 407.848 89.5092Z" fill="#E80213"/>
<path d="M110.36 327.377C52.4481 254.95 68.0352 145.887 145.11 84.2588C222.185 22.6305 332.005 31.4193 389.917 103.847C447.829 176.274 432.242 285.337 355.167 346.965C278.092 408.593 168.272 399.804 110.36 327.377ZM388.572 104.922C331.252 33.2358 222.518 24.5696 146.186 85.6042C69.8535 146.639 54.3858 254.615 111.706 326.301C169.025 397.988 277.759 406.654 354.091 345.62C430.424 284.585 445.891 176.609 388.572 104.922Z" fill="#E80213"/>
<path d="M101.327 334.6C47.5295 267.319 64.171 164.282 138.419 104.914C212.671 45.5437 316.843 51.9813 370.639 119.261C424.435 186.54 407.795 289.578 333.545 348.947C259.297 408.315 155.124 401.881 101.327 334.6ZM369.296 120.335C316.092 53.7964 213.004 47.4828 139.497 106.258C65.9894 165.034 49.4719 266.986 102.674 333.523C155.876 400.059 258.964 406.376 332.471 347.6C405.978 288.825 422.499 186.873 369.296 120.335Z" fill="#E80213"/>
<path d="M92.2932 341.823C42.611 279.688 60.3024 182.676 131.729 125.564C203.155 68.4524 301.684 72.5392 351.365 134.672C401.046 196.805 383.356 293.819 311.929 350.931C240.503 408.043 141.974 403.956 92.2932 341.823ZM350.02 135.748C300.93 74.354 203.488 70.3915 132.805 126.91C62.1207 183.427 44.5502 279.355 93.6385 340.747C142.727 402.139 240.17 406.104 310.854 349.586C381.538 293.068 399.108 197.14 350.02 135.748Z" fill="#E80213"/>
<path d="M83.258 349.047C37.6908 292.059 56.4334 201.072 125.036 146.218C193.639 91.3641 286.522 93.0965 332.089 150.085C377.656 207.073 358.914 298.06 290.311 352.914C221.708 407.768 128.824 406.034 83.258 349.047ZM330.744 151.161C285.772 94.9167 193.974 93.3018 126.114 147.562C58.2535 201.823 39.6332 291.726 84.6052 347.97C129.577 404.214 221.375 405.829 289.235 351.569C357.096 297.308 375.716 207.405 330.744 151.161Z" fill="#E80213"/>
<path d="M74.2246 356.271C32.7737 304.43 52.5664 219.465 118.346 166.868C184.124 114.273 271.362 113.658 312.813 165.498C354.263 217.336 334.47 302.302 268.692 354.897C202.912 407.494 115.674 408.109 74.2246 356.271ZM311.466 166.575C270.609 115.478 184.457 116.212 119.42 168.215C54.3812 220.219 34.7111 304.099 75.5681 355.196C116.425 406.294 202.576 405.558 267.615 353.553C332.652 301.551 352.323 217.673 311.466 166.575Z" fill="#E80213"/>
<path d="M65.1911 363.494C27.8567 316.802 48.6992 237.86 111.654 187.522C174.608 137.185 256.201 134.22 293.536 180.912C330.87 227.604 310.027 306.546 247.073 356.884C184.119 407.221 102.526 410.186 65.1911 363.494ZM292.19 181.988C255.448 136.037 174.941 139.124 112.729 188.868C50.5175 238.611 29.7944 316.467 66.5364 362.418C103.278 408.369 183.785 405.282 245.997 355.538C308.209 305.794 328.932 227.939 292.19 181.988Z" fill="#E80213"/>
<path d="M56.1558 370.718C22.9364 329.172 44.8287 256.254 104.961 208.173C165.091 160.094 241.04 154.779 274.26 196.325C307.479 237.87 285.585 310.786 225.454 358.866C165.323 406.947 89.3753 412.264 56.1558 370.718ZM272.914 197.4C240.287 156.596 165.426 162.032 106.037 209.518C46.6488 257.005 24.8741 328.837 57.5012 369.642C90.1268 410.445 164.99 405.007 224.379 357.521C283.767 310.035 305.54 238.204 272.914 197.4Z" fill="#E80213"/>
<path d="M47.1222 377.941C18.0177 341.542 40.9612 274.65 98.2689 228.827C155.577 183.005 225.877 175.34 254.982 211.739C284.086 248.138 261.143 315.03 203.835 360.853C146.527 406.675 76.2267 414.34 47.1222 377.941ZM253.638 212.813C225.126 177.155 155.911 184.942 99.3464 230.171C42.7814 275.4 19.9572 341.205 48.4694 376.864C76.9815 412.522 146.196 404.735 202.761 359.506C259.326 314.277 282.15 248.472 253.638 212.813Z" fill="#E80213"/>
<path d="M38.0888 385.164C13.0993 353.911 37.0944 293.042 91.5786 249.477C146.061 205.913 210.718 195.898 235.708 227.151C260.697 258.404 236.701 319.271 182.218 362.835C127.733 406.398 63.0783 416.417 38.0888 385.164ZM234.362 228.226C209.965 197.714 146.396 207.851 92.6543 250.822C38.9127 293.793 15.037 353.576 39.4341 384.088C63.8299 414.599 127.401 404.46 181.142 361.489C234.884 318.518 258.758 258.737 234.362 228.226Z" fill="#E80213"/>
<path d="M29.0553 392.387C8.18076 366.281 33.2271 311.437 84.8861 270.131C136.545 228.825 195.555 216.458 216.43 242.565C237.304 268.671 212.258 323.515 160.599 364.821C108.94 406.127 49.9299 418.494 29.0553 392.387ZM215.086 243.639C194.806 218.275 136.88 230.763 85.9636 271.475C35.0472 312.187 10.1217 365.946 30.4025 391.31C50.6833 416.674 108.609 404.186 159.525 363.474C210.442 322.762 235.366 269.001 215.086 243.639Z" fill="#E80213"/>
<path d="M20.0219 399.61C3.26371 378.652 29.3612 329.834 78.1986 290.784C127.034 251.736 180.399 237.019 197.156 257.976C213.912 278.933 187.816 327.752 138.981 366.801C90.1433 405.851 36.7786 420.567 20.0219 399.61ZM195.81 259.052C179.645 238.834 127.369 253.673 79.2744 292.129C31.1796 330.585 5.20284 378.319 21.3672 398.535C37.5316 418.75 89.8102 403.912 137.905 365.456C186 326.999 211.975 279.268 195.81 259.052Z" fill="#E80213"/>
<path d="M10.9884 406.834C-1.65337 391.023 25.4925 348.228 71.5065 311.435C117.521 274.643 165.24 257.577 177.882 273.388C190.523 289.198 163.377 331.994 117.363 368.786C71.3495 405.578 23.6302 422.644 10.9884 406.834ZM176.534 274.465C164.485 259.395 117.852 276.584 72.5805 312.782C27.3091 348.981 0.282547 390.69 12.332 405.759C24.3814 420.829 71.0146 403.641 116.286 367.442C161.557 331.244 188.584 289.534 176.534 274.465Z" fill="#E80213"/>
<path d="M1.95498 414.057C-6.7167 403.211 20.8952 367.206 64.8159 332.088C108.735 296.971 149.932 277.957 158.604 288.802C167.276 299.647 139.664 335.652 95.7448 370.769C51.8223 405.889 10.6267 424.902 1.95498 414.057ZM157.259 289.878C149.459 280.123 107.618 300.069 65.8916 333.433C24.1629 366.799 -4.49932 403.226 3.30031 412.981C11.1 422.735 52.9404 402.789 94.6691 369.424C136.394 336.061 165.058 299.632 157.259 289.878Z" fill="#E80213"/>
</g>
</g>
<defs>
<clipPath id="clip0_4186_7922">
<rect width="471" height="418" fill="white"/>
</clipPath>
<clipPath id="clip1_4186_7922">
<rect width="384.164" height="546.095" fill="white" transform="translate(308.514 -77) rotate(51.3546)"/>
</clipPath>
</defs>
</svg>
