<svg width="160" height="64" viewBox="0 0 160 64" fill="none" xmlns="http://www.w3.org/2000/svg">
<path d="M0.000102766 29.5729C-0.00259558 29.3248 0.0478732 29.079 0.148117 28.852C0.241319 28.6368 0.375982 28.4421 0.544416 28.279C0.710885 28.117 0.90491 27.9861 1.11738 27.8922C1.33601 27.7922 1.57405 27.7416 1.81448 27.7442C2.05829 27.7446 2.29977 27.7916 2.5259 27.8827C2.74813 27.9715 2.95087 28.1029 3.12274 28.2695C3.29615 28.4362 3.43702 28.6337 3.53814 28.852C3.63989 29.0786 3.69198 29.3245 3.69093 29.5729V32.1799H9.3728C9.61622 32.1782 9.85717 32.2287 10.0795 32.3279C10.2932 32.4195 10.4876 32.5507 10.6524 32.7147C10.8164 32.8805 10.949 33.0746 11.0439 33.2876C11.1394 33.511 11.1881 33.7514 11.1872 33.9943C11.1881 34.2264 11.1393 34.4559 11.0439 34.6675C10.947 34.8723 10.8145 35.0583 10.6524 35.2166C10.487 35.3762 10.2925 35.5026 10.0795 35.589C9.85515 35.6807 9.61512 35.7278 9.3728 35.7275H3.69093V40.4544C3.68442 41.5761 4.12015 42.6551 4.9037 43.4577C5.28548 43.8425 5.73992 44.1476 6.24061 44.3553C6.77192 44.5746 7.34179 44.685 7.91652 44.68C8.41752 44.6846 8.91589 44.6072 9.3919 44.4508C9.85642 44.2958 10.2851 44.049 10.6524 43.7251C10.8466 43.5543 11.0578 43.4039 11.2827 43.2763C11.5085 43.1608 11.7596 43.1034 12.0132 43.1092C12.2191 43.1087 12.4227 43.1527 12.61 43.2381C12.8056 43.3237 12.9825 43.447 13.1305 43.6009C13.2823 43.7616 13.4051 43.9474 13.4933 44.15C13.5849 44.3627 13.632 44.5918 13.6318 44.8233C13.6328 45.102 13.5776 45.3781 13.4695 45.635C13.361 45.8983 13.1983 46.1358 12.992 46.3321C12.3292 46.9679 11.5448 47.4632 10.6858 47.7883C9.26599 48.3139 7.72593 48.4246 6.24551 48.1075C4.7651 47.7905 3.40545 47.0588 2.32537 45.9978C1.60804 45.2825 1.0343 44.4365 0.635136 43.5055C0.213206 42.5324 0.00012277 41.4816 0.00965416 40.421L0.000102766 29.5729Z" fill="black"/>
<path d="M17.8192 41.9918C18.0283 42.5999 18.3749 43.1515 18.8321 43.6037C19.2892 44.0558 19.8445 44.3964 20.4548 44.5988C20.8736 44.7385 21.3122 44.8095 21.7536 44.8089C22.1566 44.8174 22.5592 44.7757 22.952 44.6848C23.2668 44.6042 23.5677 44.4771 23.8449 44.3076C24.1584 44.1019 24.5209 43.9833 24.8953 43.9638C25.1367 43.9621 25.3752 44.016 25.5924 44.1214C25.8039 44.22 25.9938 44.3596 26.151 44.532C26.3111 44.7079 26.4374 44.9119 26.5235 45.1336C26.6137 45.3533 26.6607 45.5884 26.6619 45.8259C26.662 46.1929 26.5356 46.5488 26.3038 46.8334C26.0322 47.1623 25.6894 47.4252 25.3012 47.6021C24.8065 47.8314 24.2828 47.9921 23.7446 48.0796C23.0878 48.199 22.4212 48.2566 21.7536 48.2515C20.6949 48.2567 19.6466 48.0438 18.6739 47.626C17.7297 47.2277 16.8694 46.6541 16.1385 45.9357C15.4117 45.2207 14.8311 44.3709 14.4292 43.4338C14.0119 42.4661 13.8005 41.4222 13.8085 40.3685C13.7996 39.3053 14.011 38.2519 14.4292 37.2745C14.8298 36.3353 15.4105 35.4837 16.1385 34.7678C16.8681 34.0466 17.7286 33.4713 18.6739 33.0727C19.6452 32.6647 20.6881 32.4546 21.7416 32.4546C22.7951 32.4546 23.8381 32.6647 24.8094 33.0727C26.6961 33.8654 28.208 35.35 29.0349 37.2219C29.462 38.1832 29.6894 39.2212 29.7034 40.273C29.7164 40.5026 29.6805 40.7324 29.5982 40.9472C29.5159 41.162 29.389 41.357 29.2259 41.5192C29.0562 41.6785 28.8565 41.8027 28.6386 41.8847C28.4206 41.9666 28.1886 42.0047 27.9559 41.9966L17.8192 41.9918ZM26.0221 38.979C25.8975 38.5328 25.6973 38.1113 25.4301 37.7328C25.1655 37.3582 24.8432 37.0278 24.4751 36.754C24.1057 36.4749 23.6927 36.2587 23.2528 36.1142C22.7906 35.9624 22.3069 35.8866 21.8204 35.8898C21.3327 35.8852 20.8479 35.966 20.388 36.1285C19.9533 36.2836 19.5457 36.5059 19.18 36.7874C18.4679 37.3418 17.9524 38.1099 17.7094 38.979H26.0221Z" fill="#4D4D4D"/>
<path d="M31.0117 40.7361C31.0065 39.6294 31.2308 38.5336 31.6706 37.518C32.5156 35.5301 34.0964 33.9459 36.0824 33.0966C37.0927 32.6559 38.184 32.4315 39.2862 32.4377H39.3197C39.5714 32.423 39.8234 32.4603 40.06 32.5474C40.2966 32.6345 40.5127 32.7694 40.6948 32.9438C40.8557 33.1155 40.9807 33.3175 41.0627 33.538C41.1447 33.7585 41.1819 33.9931 41.1722 34.2282C41.1731 34.4777 41.1227 34.7247 41.0242 34.954C40.9322 35.1683 40.7973 35.3617 40.6279 35.5221C40.4563 35.6831 40.2553 35.8096 40.0359 35.8946C39.8053 35.9875 39.5587 36.0346 39.3101 36.033H39.2289C38.6235 36.0409 38.0259 36.1708 37.4719 36.415C36.926 36.6503 36.4289 36.9855 36.006 37.4034C35.5853 37.8161 35.2424 38.3013 34.9938 38.8358C34.738 39.395 34.6029 40.0018 34.5975 40.6167V46.2843C34.5991 46.7552 34.4156 47.2079 34.0866 47.5448C33.9281 47.7086 33.7381 47.8385 33.528 47.9268C33.3137 48.0183 33.083 48.0654 32.85 48.0652C32.6077 48.0655 32.3676 48.0184 32.1433 47.9268C31.9257 47.8367 31.7266 47.7072 31.556 47.5448C31.3818 47.3865 31.2434 47.1927 31.1502 46.9766C31.0501 46.758 30.9996 46.5199 31.0022 46.2795L31.0117 40.7361Z" fill="#4D4D4D"/>
<path d="M42.1462 40.7361C42.1409 39.6294 42.3653 38.5336 42.8051 37.518C43.6501 35.5301 45.2309 33.9459 47.2169 33.0966C48.2272 32.6559 49.3185 32.4315 50.4207 32.4377H50.4541C50.7058 32.423 50.9579 32.4603 51.1945 32.5474C51.4311 32.6345 51.6472 32.7694 51.8293 32.9438C51.9901 33.1155 52.1152 33.3175 52.1972 33.538C52.2792 33.7585 52.3164 33.9931 52.3067 34.2282C52.3075 34.4777 52.2572 34.7247 52.1587 34.954C52.0667 35.1683 51.9318 35.3617 51.7624 35.5221C51.5908 35.6831 51.3898 35.8096 51.1703 35.8946C50.9398 35.9875 50.6932 36.0346 50.4446 36.033H50.373C49.7676 36.0409 49.17 36.1708 48.6159 36.415C48.0707 36.6516 47.5738 36.9866 47.1501 37.4034C46.7293 37.8161 46.3864 38.3013 46.1378 38.8358C45.882 39.395 45.747 40.0018 45.7415 40.6167V46.2843C45.7432 46.7552 45.5597 47.2079 45.2306 47.5448C45.0722 47.7086 44.8821 47.8385 44.672 47.9268C44.4577 48.0183 44.227 48.0654 43.994 48.0652C43.7517 48.0655 43.5117 48.0184 43.2874 47.9268C43.0697 47.8367 42.8706 47.7072 42.7001 47.5448C42.5258 47.3865 42.3875 47.1927 42.2942 46.9766C42.1963 46.7573 42.1459 46.5197 42.1462 46.2795V40.7361Z" fill="#4D4D4D"/>
<path d="M59.8413 48.2559C58.7919 48.2612 57.7529 48.0482 56.7903 47.6304C54.9042 46.8248 53.4011 45.3234 52.5933 43.4382C52.1761 42.4706 51.9647 41.4267 51.9726 40.3729C51.9652 39.3145 52.1765 38.2661 52.5933 37.2932C52.9945 36.355 53.5696 35.5012 54.2883 34.777C55.0055 34.055 55.8549 33.4779 56.7903 33.0772C57.7578 32.6676 58.7978 32.4565 59.8485 32.4565C60.8991 32.4565 61.9391 32.6676 62.9066 33.0772C64.7966 33.8949 66.2948 35.4153 67.0845 37.3171C67.4975 38.291 67.7071 39.339 67.7004 40.3968V46.389C67.7007 46.6369 67.6504 46.8822 67.5524 47.11C67.4599 47.326 67.3288 47.5234 67.1657 47.6925C67.0004 47.8606 66.8042 47.9951 66.5879 48.0888C66.3602 48.1861 66.1146 48.2349 65.8669 48.232C65.4742 48.2432 65.0896 48.1184 64.7783 47.8787C64.4804 47.6436 64.2661 47.3188 64.1672 46.9524C63.5379 47.3625 62.855 47.6838 62.1379 47.9073C61.3951 48.1418 60.6203 48.2594 59.8413 48.2559ZM59.8413 44.6606C60.419 44.6658 60.9915 44.5503 61.522 44.3216C62.0301 44.1039 62.492 43.7911 62.8828 43.4C63.2673 43.007 63.575 42.5454 63.79 42.0393C64.0111 41.5099 64.125 40.9419 64.125 40.3681C64.125 39.7944 64.0111 39.2264 63.79 38.697C63.5762 38.1916 63.2683 37.7314 62.8828 37.341C62.4943 36.9484 62.0318 36.6368 61.522 36.4242C60.9895 36.2028 60.4179 36.0907 59.8413 36.0948C59.2725 36.0918 58.7089 36.2039 58.1845 36.4242C57.6762 36.6396 57.2142 36.9508 56.8237 37.341C56.4352 37.731 56.1242 38.1912 55.907 38.697C55.6858 39.2264 55.5719 39.7944 55.5719 40.3681C55.5719 40.9419 55.6858 41.5099 55.907 42.0393C56.1237 42.5445 56.4311 43.0057 56.8141 43.4C57.2028 43.7914 57.6632 44.1043 58.1702 44.3216C58.6942 44.5495 59.2603 44.665 59.8317 44.6606H59.8413Z" fill="#4D4D4D"/>
<path d="M81.6279 40.1295C81.6313 39.5873 81.5442 39.0483 81.3701 38.5347C81.2059 38.0544 80.9533 37.6091 80.6253 37.2217C80.2901 36.8346 79.8737 36.5261 79.4058 36.3182C78.9379 36.1102 78.43 36.0079 77.918 36.0185C77.3449 36.0194 76.7763 36.1196 76.2373 36.3145C75.6985 36.5067 75.1963 36.7893 74.7524 37.1501C74.3228 37.5016 73.9632 37.9308 73.6924 38.4154C73.4263 38.8942 73.2881 39.4336 73.2914 39.9815V46.2793C73.2916 46.5216 73.2446 46.7616 73.1529 46.9859C73.0648 47.2004 72.935 47.3951 72.7709 47.5589C72.6089 47.7228 72.4157 47.8527 72.2027 47.9409C71.9837 48.0334 71.7482 48.0805 71.5104 48.0793C71.2633 48.0814 71.0182 48.0343 70.7894 47.9409C70.5739 47.8546 70.3781 47.7256 70.214 47.5614C70.0498 47.3973 69.9207 47.2015 69.8345 46.9859C69.7406 46.7623 69.6934 46.5218 69.696 46.2793V28.5366C69.6941 28.289 69.7428 28.0436 69.8393 27.8156C69.9341 27.6026 70.0668 27.4084 70.2308 27.2426C70.3945 27.0786 70.5893 26.9487 70.8038 26.8607C71.0279 26.7686 71.268 26.7216 71.5104 26.7222C71.7482 26.721 71.9837 26.7681 72.2027 26.8607C72.4157 26.9488 72.6089 27.0787 72.7709 27.2426C72.935 27.4064 73.0648 27.6012 73.1529 27.8156C73.2452 28.0447 73.2923 28.2895 73.2914 28.5366V34.5288C73.8975 33.8941 74.6164 33.3776 75.4113 33.0057C76.196 32.6395 77.0521 32.452 77.918 32.4566C78.8973 32.4455 79.8682 32.639 80.7684 33.0246C81.6687 33.4102 82.4786 33.9794 83.1463 34.6959C83.8034 35.4058 84.3201 36.2337 84.6694 37.1358C85.0416 38.083 85.2296 39.0926 85.2233 40.1104V46.3461C85.223 46.5863 85.1726 46.8237 85.0753 47.0432C84.9836 47.2526 84.8523 47.4424 84.6885 47.6019C84.5197 47.7594 84.324 47.8856 84.1108 47.9743C83.6665 48.1528 83.1704 48.1528 82.7261 47.9743C82.5185 47.8831 82.328 47.7571 82.1627 47.6019C81.999 47.4413 81.8663 47.2519 81.7712 47.0432C81.6753 46.8234 81.6265 46.5859 81.6279 46.3461V40.1295Z" fill="#818181"/>
<path d="M90.7526 41.9918C90.9616 42.5999 91.3083 43.1515 91.7654 43.6037C92.2225 44.0558 92.7779 44.3964 93.3882 44.5988C93.8069 44.7385 94.2455 44.8095 94.6869 44.8089C95.09 44.8174 95.4926 44.7757 95.8854 44.6848C96.2001 44.6042 96.501 44.4771 96.7782 44.3076C97.0917 44.1019 97.4542 43.9833 97.8286 43.9638C98.07 43.9621 98.3086 44.016 98.5257 44.1214C98.7373 44.22 98.9271 44.3596 99.0844 44.532C99.2445 44.7079 99.3707 44.9119 99.4568 45.1336C99.547 45.3533 99.594 45.5884 99.5953 45.8259C99.5954 46.1929 99.4689 46.5488 99.2372 46.8334C98.9643 47.161 98.6218 47.4237 98.2345 47.6021C97.7398 47.8314 97.2161 47.9921 96.6779 48.0796C96.0211 48.199 95.3545 48.2566 94.6869 48.2515C93.6283 48.2567 92.5799 48.0438 91.6072 47.626C90.663 47.2277 89.8027 46.6541 89.0719 45.9357C88.345 45.2207 87.7644 44.3709 87.3625 43.4338C86.9453 42.4661 86.7339 41.4222 86.7418 40.3685C86.733 39.3053 86.9443 38.2519 87.3625 37.2745C87.7631 36.3353 88.3438 35.4837 89.0719 34.7678C89.8014 34.0466 90.6619 33.4713 91.6072 33.0727C92.5785 32.6647 93.6215 32.4546 94.675 32.4546C95.7285 32.4546 96.7714 32.6647 97.7427 33.0727C99.6294 33.8654 101.141 35.35 101.968 37.2219C102.395 38.1832 102.623 39.2212 102.637 40.273C102.65 40.5026 102.614 40.7324 102.532 40.9472C102.449 41.162 102.322 41.357 102.159 41.5192C101.989 41.6785 101.79 41.8027 101.572 41.8847C101.354 41.9666 101.122 42.0047 100.889 41.9966L90.7526 41.9918ZM98.9459 38.979C98.8213 38.5328 98.621 38.1113 98.3539 37.7328C98.0893 37.3582 97.767 37.0278 97.3989 36.754C97.0295 36.4749 96.6165 36.2587 96.1766 36.1142C95.7144 35.9624 95.2307 35.8866 94.7442 35.8898C94.2565 35.8852 93.7717 35.966 93.3118 36.1285C92.8771 36.2836 92.4695 36.5059 92.1038 36.7874C91.3917 37.3418 90.8762 38.1099 90.6332 38.979H98.9459Z" fill="#4D4D4D"/>
<path d="M111.116 48.2561C110.067 48.2614 109.028 48.0484 108.065 47.6306C106.179 46.8269 104.677 45.3247 103.873 43.4384C103.455 42.4711 103.242 41.4272 103.248 40.3731C103.242 39.3144 103.455 38.266 103.873 37.2934C104.275 36.3564 104.848 35.5029 105.564 34.7772C106.282 34.0573 107.131 33.4805 108.065 33.0774C109.034 32.6677 110.075 32.4565 111.126 32.4565C112.177 32.4565 113.218 32.6677 114.187 33.0774C116.076 33.8854 117.576 35.3977 118.369 37.2934C118.782 38.2673 118.992 39.3153 118.985 40.3731V46.3892C118.987 46.6368 118.938 46.8821 118.842 47.1102C118.746 47.3254 118.613 47.5225 118.45 47.6927C118.286 47.8596 118.092 47.9941 117.877 48.089C117.65 48.1858 117.404 48.2346 117.156 48.2322C116.762 48.2437 116.376 48.1189 116.063 47.8789C115.768 47.6422 115.556 47.3178 115.457 46.9526C114.826 47.3637 114.142 47.6851 113.423 47.9075C112.677 48.1437 111.899 48.2613 111.116 48.2561ZM111.116 44.6608C111.693 44.6656 112.263 44.5501 112.792 44.3217C113.303 44.1055 113.766 43.7926 114.158 43.4002C114.541 43.0059 114.848 42.5447 115.065 42.0395C115.506 40.9689 115.506 39.7677 115.065 38.6972C114.85 38.1928 114.542 37.7329 114.158 37.3412C113.769 36.9473 113.304 36.6356 112.792 36.4244C112.261 36.2036 111.692 36.0916 111.116 36.095C110.279 36.097 109.46 36.3452 108.762 36.8087C108.065 37.2722 107.518 37.9306 107.192 38.7019C106.971 39.2313 106.857 39.7994 106.857 40.3731C106.857 40.9468 106.971 41.5148 107.192 42.0442C107.407 42.5504 107.714 43.0119 108.099 43.405C108.487 43.797 108.948 44.11 109.455 44.3265C109.978 44.5527 110.542 44.6666 111.112 44.6608H111.116Z" fill="#4D4D4D"/>
<path d="M127.174 48.0794C126.442 48.0845 125.715 47.955 125.03 47.6974C124.384 47.4575 123.793 47.0881 123.295 46.6119C122.797 46.1357 122.401 45.5627 122.132 44.9281C121.838 44.2403 121.691 43.4986 121.702 42.7508V28.6655C121.701 28.4185 121.748 28.1737 121.84 27.9445C121.927 27.7339 122.05 27.5399 122.203 27.3716C122.361 27.2039 122.552 27.0713 122.764 26.9825C122.977 26.8936 123.205 26.8505 123.435 26.8559C123.679 26.8547 123.92 26.9001 124.147 26.9896C124.366 27.078 124.567 27.2077 124.739 27.3716C124.907 27.5368 125.044 27.7309 125.144 27.9445C125.246 28.1712 125.298 28.4171 125.297 28.6655V42.832C125.293 43.0669 125.336 43.3002 125.425 43.5178C125.513 43.7353 125.646 43.9325 125.813 44.0973C126.17 44.4121 126.631 44.5823 127.107 44.5748H127.188C127.425 44.5694 127.661 44.6123 127.881 44.701C128.101 44.7896 128.301 44.9221 128.468 45.0904C128.629 45.2524 128.756 45.4458 128.84 45.6586C128.927 45.8806 128.971 46.1172 128.969 46.3557C128.978 46.5891 128.937 46.8218 128.851 47.0388C128.765 47.2558 128.634 47.4525 128.468 47.6162C128.294 47.7764 128.09 47.9 127.868 47.9795C127.646 48.0591 127.409 48.0931 127.174 48.0794Z" fill="#4D4D4D"/>
<path d="M129.924 29.5729C129.92 29.3313 129.966 29.0915 130.06 28.8687C130.154 28.646 130.293 28.4452 130.468 28.279C130.634 28.1163 130.828 27.9852 131.041 27.8922C131.26 27.7922 131.498 27.7416 131.738 27.7442C131.982 27.7446 132.224 27.7916 132.45 27.8827C132.672 27.9715 132.875 28.1029 133.047 28.2695C133.219 28.4374 133.359 28.6347 133.462 28.852C133.564 29.0786 133.616 29.3245 133.615 29.5729V32.1799H139.297C139.54 32.1782 139.781 32.2287 140.003 32.3279C140.433 32.5115 140.775 32.8535 140.958 33.2829C141.051 33.5018 141.096 33.7376 141.092 33.9752C141.094 34.2078 141.043 34.4379 140.944 34.6484C140.755 35.0666 140.414 35.3964 139.989 35.5699C139.765 35.6616 139.525 35.7087 139.282 35.7084H133.601V40.4353C133.594 41.557 134.03 42.636 134.813 43.4386C135.195 43.8234 135.649 44.1285 136.15 44.3362C136.681 44.5555 137.251 44.6659 137.826 44.6609C138.327 44.6655 138.825 44.5881 139.301 44.4317C139.766 44.2756 140.194 44.0289 140.562 43.706C140.756 43.5352 140.967 43.3848 141.192 43.2572C141.418 43.1417 141.669 43.0843 141.923 43.0901C142.129 43.0896 142.332 43.1336 142.52 43.219C142.715 43.3046 142.892 43.4279 143.04 43.5818C143.192 43.7425 143.315 43.9283 143.403 44.1309C143.494 44.3436 143.542 44.5727 143.541 44.8042C143.54 45.0827 143.485 45.3583 143.379 45.6159C143.269 45.8782 143.106 46.1154 142.902 46.313C142.239 46.9488 141.454 47.4441 140.595 47.7692C139.176 48.2948 137.636 48.4055 136.155 48.0884C134.675 47.7714 133.315 47.0397 132.235 45.9787C131.516 45.2636 130.941 44.4176 130.54 43.4864C130.121 42.5124 129.91 41.462 129.919 40.4019L129.924 29.5729Z" fill="#4D4D4D"/>
<path d="M156.371 40.1295C156.374 39.5873 156.287 39.0483 156.113 38.5347C155.953 38.0527 155.7 37.6067 155.368 37.2217C155.034 36.8352 154.618 36.5271 154.151 36.3192C153.684 36.1112 153.177 36.0086 152.666 36.0185C151.512 36.0221 150.395 36.4215 149.5 37.1501C149.068 37.4994 148.708 37.9291 148.44 38.4154C148.171 38.893 148.031 39.433 148.034 39.9815V46.2793C148.035 46.5216 147.988 46.7616 147.896 46.9859C147.808 47.1992 147.68 47.3936 147.519 47.5589C147.353 47.725 147.155 47.8565 146.938 47.9458C146.721 48.0352 146.488 48.0805 146.253 48.0793C146.006 48.081 145.761 48.0339 145.532 47.9409C145.318 47.8525 145.123 47.7227 144.96 47.5588C144.796 47.3949 144.666 47.2002 144.578 46.9859C144.486 46.7616 144.439 46.5216 144.439 46.2793V28.5366C144.436 28.2884 144.487 28.0426 144.587 27.8156C144.679 27.6019 144.81 27.4074 144.974 27.2426C145.138 27.0774 145.335 26.9475 145.552 26.8607C145.774 26.7686 146.013 26.7216 146.253 26.7222C146.488 26.721 146.721 26.7664 146.938 26.8557C147.155 26.945 147.353 27.0765 147.519 27.2426C147.68 27.4079 147.808 27.6024 147.896 27.8156C147.988 28.0447 148.035 28.2896 148.034 28.5366V34.5288C148.645 33.8983 149.367 33.3866 150.164 33.02C150.95 32.6533 151.808 32.4657 152.675 32.4709C153.659 32.4577 154.634 32.6501 155.538 33.0357C156.442 33.4213 157.256 33.9917 157.928 34.7102C158.585 35.4202 159.101 36.248 159.451 37.1501C159.821 38.0976 160.008 39.1073 160 40.1247V46.3604C160.002 46.6008 159.951 46.8388 159.852 47.0575C159.76 47.267 159.629 47.4567 159.465 47.6162C159.297 47.7727 159.103 47.8987 158.892 47.9886C158.674 48.0774 158.44 48.1228 158.204 48.1223C157.965 48.1251 157.728 48.0796 157.507 47.9886C157.298 47.8974 157.106 47.7715 156.939 47.6162C156.775 47.4567 156.644 47.267 156.552 47.0575C156.453 46.8388 156.402 46.6008 156.404 46.3604L156.371 40.1295Z" fill="#4D4D4D"/>
<path d="M93.9801 8.88448C92.3532 8.64941 90.699 8.67844 89.0813 8.97042C88.6684 6.85238 87.5318 4.94383 85.8663 3.57169C84.2008 2.19955 82.11 1.44922 79.9521 1.44922C77.7942 1.44922 75.7034 2.19955 74.0379 3.57169C72.3724 4.94383 71.2359 6.85238 70.8229 8.97042C69.2208 8.68261 67.5827 8.6552 65.9719 8.88926C65.9719 8.88926 64.4487 16.0895 71.1906 21.9528C73.7192 23.8675 76.8042 24.9037 79.976 24.9037C83.1478 24.9037 86.2327 23.8675 88.7614 21.9528C95.5032 16.0847 93.9801 8.88448 93.9801 8.88448ZM81.0646 3.63233C82.498 3.855 83.83 4.50768 84.8844 5.504C83.7447 6.28899 82.4361 6.79444 81.0646 6.97938V3.63233ZM78.9829 6.9746C77.563 6.80243 76.2071 6.28434 75.0342 5.4658C76.1244 4.4474 77.5044 3.7933 78.9829 3.59413V6.9746ZM78.9829 17.9134C77.4007 17.7017 75.9334 16.9715 74.8103 15.8372C73.6872 14.7029 72.9718 13.2284 72.7758 11.6442C75.1477 12.6516 77.2674 14.1713 78.9829 16.0942V17.9134ZM81.0646 16.0035C82.7501 14.1343 84.8226 12.6549 87.138 11.6681C86.9375 13.2182 86.2393 14.6612 85.1484 15.7805C84.0575 16.8998 82.6329 17.6349 81.0885 17.8752L81.0646 16.0035ZM81.0646 13.1101V9.12799C82.9311 8.94364 84.7066 8.23149 86.1831 7.07488C86.6243 7.81963 86.9268 8.63819 87.0759 9.49086C84.8324 10.2401 82.7804 11.4723 81.0646 13.1005V13.1101ZM73.7689 7.04623C75.2689 8.23308 77.0791 8.96248 78.9829 9.14708V13.2103C77.2393 11.5278 75.1413 10.2569 72.8426 9.49086C72.9979 8.62582 73.312 7.79699 73.7689 7.04623ZM71.2336 19.1739C71.2336 19.1739 68.1443 16.2184 67.9581 10.866C68.8583 10.7532 69.7712 10.7984 70.6558 10.9997C70.7165 13.2545 71.5944 15.4105 73.1263 17.0662C74.6582 18.7219 76.7395 19.7645 78.9829 19.9999V22.669C77.5361 22.6833 74.5711 22.2536 71.2336 19.1739ZM88.7184 19.1739C85.4525 22.182 82.54 22.6594 81.0789 22.669V19.9856C83.2909 19.7189 85.3336 18.6671 86.8355 17.0215C88.3374 15.3758 89.1987 13.2458 89.2628 11.0188C90.1618 10.8064 91.0915 10.7563 92.0082 10.8707C91.8077 16.2232 88.7184 19.1739 88.7184 19.1739Z" fill="#818181"/>
<path d="M93.9801 8.88448C92.3532 8.64941 90.699 8.67844 89.0813 8.97042C88.6684 6.85238 87.5318 4.94383 85.8663 3.57169C84.2008 2.19955 82.11 1.44922 79.9521 1.44922C77.7942 1.44922 75.7034 2.19955 74.0379 3.57169C72.3724 4.94383 71.2359 6.85238 70.8229 8.97042C69.2208 8.68261 67.5827 8.6552 65.9719 8.88926C65.9719 8.88926 64.4487 16.0895 71.1906 21.9528C73.7192 23.8675 76.8042 24.9037 79.976 24.9037C83.1478 24.9037 86.2327 23.8675 88.7614 21.9528C95.5032 16.0847 93.9801 8.88448 93.9801 8.88448ZM81.0646 3.63233C82.498 3.855 83.83 4.50768 84.8844 5.504C83.7447 6.28899 82.4361 6.79444 81.0646 6.97938V3.63233ZM78.9829 6.9746C77.563 6.80243 76.2071 6.28434 75.0342 5.4658C76.1244 4.4474 77.5044 3.7933 78.9829 3.59413V6.9746ZM78.9829 17.9134C77.4007 17.7017 75.9334 16.9715 74.8103 15.8372C73.6872 14.7029 72.9718 13.2284 72.7758 11.6442C75.1477 12.6516 77.2674 14.1713 78.9829 16.0942V17.9134ZM81.0646 16.0035C82.7501 14.1343 84.8226 12.6549 87.138 11.6681C86.9375 13.2182 86.2393 14.6612 85.1484 15.7805C84.0575 16.8998 82.6329 17.6349 81.0885 17.8752L81.0646 16.0035ZM81.0646 13.1101V9.12799C82.9311 8.94364 84.7066 8.23149 86.1831 7.07488C86.6243 7.81963 86.9268 8.63819 87.0759 9.49086C84.8324 10.2401 82.7804 11.4723 81.0646 13.1005V13.1101ZM73.7689 7.04623C75.2689 8.23308 77.0791 8.96248 78.9829 9.14708V13.2103C77.2393 11.5278 75.1413 10.2569 72.8426 9.49086C72.9979 8.62582 73.312 7.79699 73.7689 7.04623ZM71.2336 19.1739C71.2336 19.1739 68.1443 16.2184 67.9581 10.866C68.8583 10.7532 69.7712 10.7984 70.6558 10.9997C70.7165 13.2545 71.5944 15.4105 73.1263 17.0662C74.6582 18.7219 76.7395 19.7645 78.9829 19.9999V22.669C77.5361 22.6833 74.5711 22.2536 71.2336 19.1739ZM88.7184 19.1739C85.4525 22.182 82.54 22.6594 81.0789 22.669V19.9856C83.2909 19.7189 85.3336 18.6671 86.8355 17.0215C88.3374 15.3758 89.1987 13.2458 89.2628 11.0188C90.1618 10.8064 91.0915 10.7563 92.0082 10.8707C91.8077 16.2232 88.7184 19.1739 88.7184 19.1739Z" fill="black"/>
<path fill-rule="evenodd" clip-rule="evenodd" d="M73.8058 3.28932C75.5367 1.8633 77.7096 1.0835 79.9523 1.0835C82.1949 1.0835 84.3678 1.8633 86.0987 3.28932C87.7378 4.63969 88.8839 6.48996 89.3654 8.55162C90.9102 8.30871 92.4834 8.29869 94.0325 8.52251L94.2849 8.55897L94.3376 8.80842L93.9803 8.88402C94.3376 8.80842 94.3376 8.80818 94.3376 8.80842L94.3382 8.81123L94.3393 8.81666L94.343 8.83532C94.3461 8.8512 94.3504 8.87389 94.3555 8.90315C94.3658 8.96166 94.3796 9.04644 94.3944 9.15539C94.4242 9.37325 94.4585 9.68803 94.4777 10.0829C94.5163 10.8724 94.4953 11.9842 94.2584 13.2832C93.784 15.8852 92.4441 19.2313 89.0014 22.2278L88.992 22.236L88.9821 22.2435C86.3899 24.2063 83.2275 25.2685 79.9761 25.2685C76.7247 25.2685 73.5624 24.2063 70.9702 22.2435L70.9604 22.236L70.951 22.2279C67.5082 19.2337 66.1683 15.8888 65.6938 13.2874C65.457 11.9887 65.436 10.877 65.4745 10.0876C65.4938 9.69277 65.5281 9.37801 65.5578 9.16016C65.5727 9.05121 65.5865 8.96644 65.5968 8.90793C65.6019 8.87867 65.6062 8.85598 65.6093 8.8401L65.613 8.82144L65.6141 8.816L65.6144 8.81427L65.6146 8.81365C65.6146 8.81341 65.6147 8.8132 65.972 8.88879L65.6146 8.81365L65.6674 8.56396L65.9195 8.52733C67.4526 8.30457 69.0098 8.31306 70.5391 8.55194C71.0205 6.49015 72.1667 4.63976 73.8058 3.28932ZM66.2879 9.21441C66.2858 9.22873 66.2838 9.24363 66.2816 9.2591C66.2545 9.45792 66.2224 9.75148 66.2042 10.1233C66.1679 10.8672 66.1874 11.9219 66.4125 13.1563C66.8616 15.6184 68.129 18.8016 71.4211 21.6686C73.8844 23.5305 76.8881 24.538 79.9761 24.538C83.0642 24.538 86.0678 23.5305 88.5312 21.6686C91.8232 18.7992 93.0907 15.6149 93.5398 13.1521C93.7649 11.9175 93.7844 10.8625 93.7481 10.1186C93.7299 9.74674 93.6978 9.45316 93.6707 9.25433C93.6685 9.23893 93.6665 9.22409 93.6644 9.20984C92.1616 9.02 90.6381 9.06017 89.1463 9.32942L88.7919 9.3934L88.7229 9.03986C88.3262 7.005 87.2343 5.17139 85.6342 3.85314C84.0341 2.53489 82.0255 1.81402 79.9523 1.81402C77.8791 1.81402 75.8704 2.53489 74.2703 3.85314C72.6703 5.1714 71.5783 7.005 71.1816 9.03986L71.1127 9.39311L70.7585 9.32947C69.2823 9.06427 67.7748 9.02563 66.2879 9.21441ZM79.3483 3.17591V7.38638L78.939 7.33675C77.4598 7.15738 76.0472 6.61763 74.8253 5.76488L74.4552 5.50656L74.785 5.19843C75.9306 4.12829 77.3806 3.44096 78.9343 3.23168L79.3483 3.17591ZM80.6995 3.20549L81.1208 3.27093C82.6274 3.50496 84.0273 4.19093 85.1354 5.23806L85.4636 5.54821L85.0917 5.80436C83.9048 6.62189 82.5419 7.1483 81.1136 7.34091L80.6995 7.39675V3.20549ZM75.6369 5.4243C76.549 5.98735 77.561 6.37014 78.6178 6.55162V4.02445C77.5246 4.2408 76.5011 4.72158 75.6369 5.4243ZM81.43 4.07193V6.55059C82.4393 6.36308 83.4058 5.9931 84.2821 5.45902C83.4543 4.77838 82.4769 4.30294 81.43 4.07193ZM73.6718 6.50302L73.9957 6.75933C75.4406 7.90262 77.1844 8.60523 79.0183 8.78307L79.3483 8.81507V14.07L78.7294 13.4727C77.0251 11.8281 74.9742 10.5858 72.7273 9.83693L72.4274 9.73698L72.4833 9.42585C72.6465 8.51646 72.9767 7.64513 73.457 6.85587L73.6718 6.50302ZM86.2855 6.53034L86.4975 6.88825C86.9612 7.67099 87.2791 8.5313 87.4359 9.42746L87.4901 9.73724L87.1918 9.83686C84.9989 10.5692 82.9932 11.7735 81.3162 13.365L81.0738 13.1096H80.6995V8.79656L81.0289 8.76403C82.8263 8.58651 84.5361 7.9007 85.958 6.78687L86.2855 6.53034ZM81.43 12.2786V9.4531C83.1036 9.23291 84.6964 8.60239 86.0666 7.6184C86.3318 8.13442 86.5298 8.68239 86.6558 9.24896C84.7414 9.93001 82.9701 10.9575 81.43 12.2786ZM73.8805 7.58863C73.6033 8.11263 73.3961 8.67096 73.2645 9.24926C75.2311 9.94758 77.047 11.01 78.6178 12.3793V9.47281C76.9055 9.25095 75.2766 8.60283 73.8805 7.58863ZM68.3393 11.1936C68.4841 13.636 69.2452 15.5398 69.9838 16.8469C70.3703 17.5308 70.7503 18.0508 71.0318 18.3979C71.1725 18.5715 71.2885 18.7016 71.3681 18.7873C71.408 18.8302 71.4387 18.8619 71.4588 18.8823C71.4689 18.8925 71.4764 18.8999 71.481 18.9044L71.4847 18.9081C74.481 21.6715 77.1478 22.2343 78.6178 22.2972V20.3228C76.4117 20.015 74.3756 18.9538 72.8583 17.3138C71.3321 15.6641 70.4304 13.5366 70.303 11.2988C69.6559 11.1768 68.9956 11.1415 68.3393 11.1936ZM71.2337 19.1735L70.9812 19.4374L70.986 19.4419C74.3981 22.5904 77.4557 23.0489 78.9866 23.0338L79.3483 23.0302V19.6705L79.0211 19.6362C76.8659 19.41 74.8663 18.4084 73.3946 16.8177C71.9229 15.227 71.0794 13.1557 71.0211 10.9894L71.0135 10.7059L70.737 10.643C69.811 10.4323 68.8552 10.385 67.9129 10.5031L67.5816 10.5446L67.5932 10.8782C67.6888 13.624 68.5293 15.7578 69.3478 17.2063C69.757 17.9304 70.1609 18.4838 70.4644 18.8581C70.6162 19.0453 70.743 19.1878 70.8331 19.2847C70.8781 19.3331 70.9139 19.3701 70.9391 19.3956C70.9517 19.4084 70.9616 19.4182 70.9687 19.4252L70.9772 19.4335L70.9797 19.436L70.9806 19.4368L70.9812 19.4374C70.9813 19.4376 70.9812 19.4374 71.2337 19.1735ZM89.6155 11.3156C89.4862 13.5256 88.6017 15.6278 87.1054 17.2672C85.6176 18.8974 83.6191 19.9669 81.4444 20.3035V22.2911C82.92 22.204 85.5377 21.6052 88.4678 18.9079L88.4715 18.9042C88.4761 18.8997 88.4836 18.8923 88.4937 18.8821C88.5138 18.8617 88.5446 18.8301 88.5844 18.7873C88.6641 18.7017 88.7801 18.5717 88.9209 18.3984C89.2027 18.0516 89.5832 17.5322 89.9705 16.8489C90.7108 15.5429 91.475 13.6405 91.6263 11.1985C90.954 11.1456 90.2774 11.185 89.6155 11.3156ZM88.7186 19.1735C88.9709 19.4376 88.971 19.4375 88.9711 19.4373L88.9723 19.4362L88.9749 19.4337L88.9834 19.4254C88.9872 19.4217 88.9919 19.417 88.9974 19.4115C89.002 19.4069 89.0072 19.4017 89.013 19.3959C89.0382 19.3705 89.074 19.3335 89.119 19.2851C89.2091 19.1884 89.336 19.0461 89.4879 18.8591C89.7916 18.4853 90.196 17.9325 90.606 17.2091C91.4263 15.762 92.2705 13.6296 92.3734 10.884L92.3859 10.5493L92.0536 10.5078C91.0938 10.388 90.1203 10.4404 89.1789 10.6628L88.9059 10.7273L88.8978 11.0078C88.8363 13.1474 88.0088 15.1938 86.5658 16.7748C85.1229 18.3558 83.1604 19.3663 81.0354 19.6225L80.7138 19.6613V23.0362L81.0815 23.0338C82.6252 23.0237 85.6275 22.5171 88.966 19.4421L88.9711 19.4373L88.7186 19.1735ZM72.3357 11.0599L72.9187 11.3076C75.3402 12.336 77.5042 13.8875 79.2556 15.8506L79.3483 15.9545V18.3303L78.9346 18.275C77.2724 18.0525 75.7308 17.2855 74.5509 16.0938C73.371 14.9021 72.6193 13.3529 72.4134 11.6886L72.3357 11.0599ZM87.5823 11.0813L87.5004 11.7145C87.2897 13.343 86.5562 14.8591 85.4101 16.035C84.2641 17.2109 82.7673 17.9832 81.1448 18.2357L80.7288 18.3004L80.6977 15.8647L80.7935 15.7585C82.5145 13.8499 84.6308 12.3392 86.995 11.3316L87.5823 11.0813ZM73.2528 12.2578C73.5336 13.5094 74.1612 14.6619 75.07 15.5798C76.0377 16.5571 77.2745 17.2184 78.6178 17.4826V16.2339C77.1069 14.5676 75.2834 13.2171 73.2528 12.2578ZM81.4318 16.1423L81.4483 17.4359C82.7536 17.1493 83.95 16.4865 84.887 15.5251C85.765 14.6242 86.3751 13.5024 86.6565 12.285C84.6842 13.2214 82.9097 14.5307 81.4318 16.1423Z" fill="#818181"/>
<path d="M80.5299 15.8315C80.5299 15.8315 86.0065 9.41429 92.7674 10.1305C92.7674 10.1305 92.8581 15.545 89.067 19.465C89.067 19.465 85.1184 23.3564 80.6302 23.2418L80.5299 15.8315Z" fill="#818181"/>
<path d="M79.4986 15.9509C79.4986 15.9509 74.065 9.62445 67.3804 10.312C67.3804 10.312 67.2945 15.6644 71.0426 19.5462C71.0426 19.5462 74.9435 23.3946 79.384 23.28L79.4986 15.9509Z" fill="#818181"/>
<path d="M38.8673 60.8593C38.6245 61.0482 38.3891 61.1904 38.161 61.2861C37.9353 61.3793 37.6815 61.4259 37.3994 61.4259C37.1419 61.4259 36.915 61.3756 36.7188 61.2751C36.5251 61.172 36.3755 61.0335 36.27 60.8593C36.1645 60.6852 36.1118 60.4963 36.1118 60.2928C36.1118 60.0181 36.1989 59.7839 36.373 59.5901C36.5472 59.3963 36.7863 59.2664 37.0904 59.2001C37.1542 59.1854 37.3124 59.1523 37.565 59.1008C37.8176 59.0493 38.0334 59.0027 38.2125 58.961C38.394 58.9169 38.5902 58.8641 38.8011 58.8028C38.7888 58.5379 38.7349 58.3442 38.6392 58.2215C38.546 58.0965 38.3511 58.0339 38.0543 58.0339C37.7992 58.0339 37.6067 58.0695 37.4767 58.1406C37.3492 58.2117 37.2388 58.3184 37.1456 58.4607C37.0548 58.6029 36.9899 58.6973 36.9506 58.7439C36.9138 58.7881 36.8329 58.8102 36.7078 58.8102C36.595 58.8102 36.4969 58.7746 36.4135 58.7035C36.3326 58.6299 36.2921 58.5367 36.2921 58.4239C36.2921 58.2473 36.3546 58.0756 36.4797 57.9088C36.6048 57.7421 36.7998 57.6047 37.0647 57.4968C37.3295 57.3889 37.6594 57.3349 38.0543 57.3349C38.4958 57.3349 38.8428 57.3877 39.0954 57.4931C39.348 57.5961 39.5259 57.7604 39.6289 57.9861C39.7343 58.2117 39.7871 58.5109 39.7871 58.8837C39.7871 59.1192 39.7858 59.3191 39.7834 59.4834C39.7834 59.6477 39.7822 59.8305 39.7797 60.0316C39.7797 60.2204 39.8104 60.4179 39.8717 60.6239C39.9354 60.8274 39.9673 60.9587 39.9673 61.0175C39.9673 61.1205 39.9183 61.215 39.8202 61.3008C39.7245 61.3842 39.6154 61.4259 39.4928 61.4259C39.3897 61.4259 39.288 61.3781 39.1874 61.2824C39.0868 61.1843 38.9802 61.0433 38.8673 60.8593ZM38.8011 59.4062C38.654 59.4601 38.4394 59.5177 38.1573 59.5791C37.8777 59.6379 37.6839 59.6821 37.576 59.7115C37.4681 59.7385 37.3651 59.7937 37.267 59.8771C37.1689 59.958 37.1198 60.072 37.1198 60.2192C37.1198 60.3713 37.1775 60.5013 37.2928 60.6092C37.408 60.7146 37.5589 60.7674 37.7453 60.7674C37.9439 60.7674 38.1266 60.7244 38.2934 60.6386C38.4627 60.5503 38.5865 60.4375 38.665 60.3001C38.7557 60.1481 38.8011 59.8979 38.8011 59.5496V59.4062Z" fill="#818181"/>
<path d="M41.6339 61.551L41.7259 61.3266L40.4897 58.2142C40.4137 58.0351 40.3757 57.9052 40.3757 57.8242C40.3757 57.7384 40.3978 57.6587 40.4419 57.5851C40.4861 57.5115 40.5461 57.4526 40.6222 57.4085C40.7007 57.3644 40.7816 57.3423 40.865 57.3423C41.0097 57.3423 41.1188 57.3889 41.1924 57.4821C41.266 57.5728 41.331 57.704 41.3874 57.8757L42.2372 60.348L43.0429 58.0486C43.1067 57.8622 43.1643 57.7163 43.2158 57.6108C43.2673 57.5054 43.3213 57.4343 43.3777 57.3975C43.4366 57.3607 43.5187 57.3423 43.6242 57.3423C43.7002 57.3423 43.7726 57.3631 43.8412 57.4048C43.9124 57.4441 43.9663 57.498 44.0031 57.5667C44.0424 57.6354 44.062 57.7077 44.062 57.7837C44.0522 57.8303 44.0362 57.8966 44.0142 57.9824C43.9921 58.0683 43.9651 58.1553 43.9332 58.2436L42.6235 61.6724C42.5107 61.974 42.4003 62.2107 42.2924 62.3824C42.1845 62.5541 42.041 62.6853 41.862 62.7761C41.6854 62.8693 41.4463 62.9159 41.1446 62.9159C40.8503 62.9159 40.6295 62.884 40.4824 62.8202C40.3352 62.7564 40.2616 62.6399 40.2616 62.4707C40.2616 62.3554 40.296 62.2659 40.3647 62.2021C40.4358 62.1408 40.54 62.1102 40.6774 62.1102C40.7313 62.1102 40.7841 62.1175 40.8356 62.1322C40.8993 62.147 40.9545 62.1543 41.0011 62.1543C41.1164 62.1543 41.2071 62.1371 41.2734 62.1028C41.3396 62.0685 41.3984 62.0084 41.4499 61.9225C41.5039 61.8392 41.5652 61.7153 41.6339 61.551Z" fill="#818181"/>
<path d="M47.3988 60.8593V60.7306C47.2786 60.8826 47.1523 61.0102 47.0198 61.1132C46.8874 61.2162 46.7427 61.2922 46.5857 61.3413C46.4288 61.3928 46.2497 61.4185 46.0486 61.4185C45.8058 61.4185 45.5875 61.3683 45.3937 61.2677C45.2024 61.1671 45.0541 61.0286 44.9486 60.852C44.8235 60.6386 44.761 60.332 44.761 59.9322V57.9419C44.761 57.7408 44.8063 57.5912 44.8971 57.4931C44.9878 57.3926 45.108 57.3423 45.2576 57.3423C45.4097 57.3423 45.5323 57.3926 45.6255 57.4931C45.7187 57.5937 45.7653 57.7433 45.7653 57.9419V59.5496C45.7653 59.7826 45.7849 59.9788 45.8242 60.1383C45.8634 60.2952 45.9333 60.4191 46.0339 60.5098C46.1369 60.5981 46.2755 60.6423 46.4496 60.6423C46.6188 60.6423 46.7783 60.592 46.9279 60.4914C47.0775 60.3909 47.1866 60.2597 47.2553 60.0978C47.3117 59.9555 47.3399 59.6441 47.3399 59.1633V57.9419C47.3399 57.7433 47.3865 57.5937 47.4797 57.4931C47.5729 57.3926 47.6943 57.3423 47.8439 57.3423C47.9935 57.3423 48.1137 57.3926 48.2045 57.4931C48.2952 57.5912 48.3406 57.7408 48.3406 57.9419V60.852C48.3406 61.0433 48.2964 61.1868 48.2081 61.2824C48.1223 61.3781 48.0107 61.4259 47.8733 61.4259C47.736 61.4259 47.622 61.3768 47.5312 61.2787C47.4429 61.1782 47.3988 61.0384 47.3988 60.8593Z" fill="#818181"/>
<path d="M50.3419 59.9764V60.8152C50.3419 61.0188 50.2941 61.172 50.1984 61.2751C50.1028 61.3756 49.9814 61.4259 49.8342 61.4259C49.6895 61.4259 49.5706 61.3744 49.4774 61.2714C49.3842 61.1684 49.3376 61.0163 49.3376 60.8152V58.0192C49.3376 57.5679 49.5007 57.3423 49.8269 57.3423C49.9936 57.3423 50.1138 57.395 50.1874 57.5005C50.261 57.6059 50.3014 57.7617 50.3088 57.9677C50.429 57.7617 50.5516 57.6059 50.6767 57.5005C50.8042 57.395 50.9735 57.3423 51.1844 57.3423C51.3953 57.3423 51.6001 57.395 51.7988 57.5005C51.9974 57.6059 52.0968 57.7457 52.0968 57.9199C52.0968 58.0425 52.0538 58.1443 51.968 58.2252C51.8846 58.3037 51.7939 58.3429 51.6958 58.3429C51.659 58.3429 51.5694 58.3209 51.4272 58.2767C51.2874 58.2301 51.1635 58.2068 51.0556 58.2068C50.9085 58.2068 50.7883 58.2461 50.6951 58.3246C50.6019 58.4006 50.5295 58.5146 50.478 58.6667C50.4265 58.8188 50.391 59.0002 50.3713 59.2112C50.3517 59.4196 50.3419 59.6747 50.3419 59.9764Z" fill="#818181"/>
<path d="M53.2556 57.9677L54.0687 60.2486L54.9442 57.8684C55.0129 57.6771 55.0804 57.5422 55.1466 57.4637C55.2128 57.3827 55.3134 57.3423 55.4483 57.3423C55.5758 57.3423 55.6837 57.3852 55.772 57.471C55.8627 57.5569 55.9081 57.6562 55.9081 57.769C55.9081 57.8132 55.8995 57.8647 55.8824 57.9235C55.8677 57.9824 55.8493 58.0376 55.8272 58.0891C55.8076 58.1406 55.7843 58.1995 55.7573 58.2657L54.7934 60.657C54.7664 60.7257 54.7309 60.8127 54.6867 60.9182C54.645 61.0237 54.5972 61.1144 54.5432 61.1904C54.4917 61.264 54.4267 61.3217 54.3483 61.3633C54.2722 61.405 54.179 61.4259 54.0687 61.4259C53.9264 61.4259 53.8124 61.394 53.7265 61.3302C53.6431 61.264 53.5806 61.1929 53.5389 61.1169C53.4997 61.0384 53.4322 60.8851 53.3366 60.657L52.38 58.2914C52.358 58.2326 52.3347 58.1737 52.3101 58.1149C52.2881 58.056 52.2684 57.9959 52.2513 57.9346C52.2366 57.8733 52.2292 57.8205 52.2292 57.7764C52.2292 57.7077 52.25 57.6403 52.2917 57.574C52.3334 57.5054 52.3911 57.4502 52.4646 57.4085C52.5382 57.3644 52.6179 57.3423 52.7038 57.3423C52.8706 57.3423 52.9846 57.3901 53.0459 57.4858C53.1097 57.5814 53.1796 57.7421 53.2556 57.9677Z" fill="#818181"/>
<path d="M59.3295 59.6306H57.365C57.3674 59.8587 57.4128 60.0598 57.5011 60.2339C57.5918 60.408 57.7108 60.5393 57.858 60.6276C58.0076 60.7159 58.1719 60.76 58.3509 60.76C58.4711 60.76 58.5803 60.7465 58.6784 60.7195C58.7789 60.6901 58.8758 60.646 58.969 60.5871C59.0622 60.5258 59.148 60.4608 59.2265 60.3921C59.305 60.3234 59.4068 60.2302 59.5319 60.1125C59.5834 60.0684 59.657 60.0463 59.7526 60.0463C59.8556 60.0463 59.939 60.0745 60.0028 60.1309C60.0665 60.1873 60.0984 60.267 60.0984 60.37C60.0984 60.4608 60.0629 60.5675 59.9917 60.6901C59.9206 60.8103 59.8127 60.9268 59.668 61.0396C59.5257 61.15 59.3455 61.2419 59.1272 61.3155C58.9114 61.3891 58.6624 61.4259 58.3804 61.4259C57.7353 61.4259 57.2338 61.2419 56.8757 60.874C56.5176 60.5062 56.3386 60.007 56.3386 59.3767C56.3386 59.08 56.3827 58.8053 56.471 58.5526C56.5593 58.2976 56.6881 58.0793 56.8573 57.8978C57.0265 57.7163 57.235 57.5777 57.4827 57.4821C57.7304 57.384 58.0051 57.3349 58.3068 57.3349C58.6992 57.3349 59.0352 57.4183 59.3148 57.5851C59.5969 57.7494 59.8078 57.9628 59.9476 58.2252C60.0874 58.4877 60.1573 58.755 60.1573 59.0272C60.1573 59.2798 60.0849 59.4442 59.9402 59.5202C59.7955 59.5938 59.592 59.6306 59.3295 59.6306ZM57.365 59.0603H59.186C59.1615 58.717 59.0683 58.4607 58.9064 58.2914C58.747 58.1198 58.5361 58.0339 58.2737 58.0339C58.0235 58.0339 57.8175 58.121 57.6556 58.2951C57.4962 58.4668 57.3993 58.7219 57.365 59.0603Z" fill="#818181"/>
<path d="M63.759 60.852V60.7526C63.6241 60.9072 63.4904 61.0335 63.358 61.1316C63.228 61.2272 63.0857 61.2996 62.9312 61.3486C62.7791 61.4001 62.6124 61.4259 62.4309 61.4259C62.1905 61.4259 61.9673 61.3756 61.7613 61.2751C61.5577 61.172 61.3811 61.0261 61.2315 60.8373C61.0819 60.6484 60.9679 60.4264 60.8894 60.1714C60.8134 59.9163 60.7753 59.6404 60.7753 59.3436C60.7753 58.7157 60.9286 58.2264 61.2352 57.8757C61.5418 57.525 61.9452 57.3496 62.4456 57.3496C62.735 57.3496 62.979 57.3999 63.1777 57.5005C63.3763 57.5986 63.5701 57.7506 63.759 57.9567V56.4741C63.759 56.268 63.7994 56.1123 63.8804 56.0068C63.9637 55.9014 64.0815 55.8486 64.2335 55.8486C64.3856 55.8486 64.5021 55.8977 64.583 55.9958C64.6664 56.0914 64.7081 56.2337 64.7081 56.4225V60.852C64.7081 61.0433 64.664 61.1868 64.5757 61.2824C64.4874 61.3781 64.3733 61.4259 64.2335 61.4259C64.0962 61.4259 63.9821 61.3768 63.8914 61.2787C63.8031 61.1782 63.759 61.0359 63.759 60.852ZM61.7834 59.3767C61.7834 59.649 61.8251 59.8807 61.9085 60.072C61.9943 60.2633 62.1108 60.4081 62.258 60.5062C62.4051 60.6018 62.5658 60.6496 62.7399 60.6496C62.9165 60.6496 63.0771 60.6043 63.2218 60.5135C63.369 60.4203 63.4855 60.2793 63.5713 60.0904C63.6596 59.8991 63.7038 59.6612 63.7038 59.3767C63.7038 59.1094 63.6596 58.8801 63.5713 58.6888C63.4855 58.495 63.3678 58.3479 63.2182 58.2473C63.071 58.1443 62.9091 58.0928 62.7325 58.0928C62.5486 58.0928 62.3843 58.1455 62.2396 58.251C62.0949 58.354 61.982 58.5036 61.9011 58.6998C61.8226 58.8936 61.7834 59.1192 61.7834 59.3767Z" fill="#818181"/>
<path d="M68.2546 60.8593C68.0118 61.0482 67.7763 61.1904 67.5483 61.2861C67.3226 61.3793 67.0688 61.4259 66.7867 61.4259C66.5292 61.4259 66.3023 61.3756 66.1061 61.2751C65.9124 61.172 65.7627 61.0335 65.6573 60.8593C65.5518 60.6852 65.4991 60.4963 65.4991 60.2928C65.4991 60.0181 65.5862 59.7839 65.7603 59.5901C65.9344 59.3963 66.1736 59.2664 66.4777 59.2001C66.5415 59.1854 66.6996 59.1523 66.9523 59.1008C67.2049 59.0493 67.4207 59.0027 67.5998 58.961C67.7813 58.9169 67.9775 58.8641 68.1884 58.8028C68.1761 58.5379 68.1222 58.3442 68.0265 58.2215C67.9333 58.0965 67.7383 58.0339 67.4416 58.0339C67.1865 58.0339 66.994 58.0695 66.864 58.1406C66.7364 58.2117 66.6261 58.3184 66.5329 58.4607C66.4421 58.6029 66.3771 58.6973 66.3379 58.7439C66.3011 58.7881 66.2202 58.8102 66.0951 58.8102C65.9823 58.8102 65.8842 58.7746 65.8008 58.7035C65.7198 58.6299 65.6794 58.5367 65.6794 58.4239C65.6794 58.2473 65.7419 58.0756 65.867 57.9088C65.9921 57.7421 66.187 57.6047 66.4519 57.4968C66.7168 57.3889 67.0467 57.3349 67.4416 57.3349C67.883 57.3349 68.2301 57.3877 68.4827 57.4931C68.7353 57.5961 68.9131 57.7604 69.0161 57.9861C69.1216 58.2117 69.1743 58.5109 69.1743 58.8837C69.1743 59.1192 69.1731 59.3191 69.1707 59.4834C69.1707 59.6477 69.1694 59.8305 69.167 60.0316C69.167 60.2204 69.1976 60.4179 69.259 60.6239C69.3227 60.8274 69.3546 60.9587 69.3546 61.0175C69.3546 61.1205 69.3056 61.215 69.2075 61.3008C69.1118 61.3842 69.0027 61.4259 68.88 61.4259C68.777 61.4259 68.6752 61.3781 68.5747 61.2824C68.4741 61.1843 68.3674 61.0433 68.2546 60.8593ZM68.1884 59.4062C68.0412 59.4601 67.8266 59.5177 67.5446 59.5791C67.265 59.6379 67.0712 59.6821 66.9633 59.7115C66.8554 59.7385 66.7524 59.7937 66.6543 59.8771C66.5562 59.958 66.5071 60.072 66.5071 60.2192C66.5071 60.3713 66.5648 60.5013 66.68 60.6092C66.7953 60.7146 66.9461 60.7674 67.1325 60.7674C67.3312 60.7674 67.5139 60.7244 67.6807 60.6386C67.8499 60.5503 67.9738 60.4375 68.0523 60.3001C68.143 60.1481 68.1884 59.8979 68.1884 59.5496V59.4062Z" fill="#818181"/>
<path d="M70.8777 61.4332C70.7158 61.4332 70.576 61.3842 70.4583 61.2861C70.3406 61.1855 70.2817 61.0457 70.2817 60.8667C70.2817 60.7122 70.3393 60.5822 70.4546 60.4767C70.5699 60.3713 70.706 60.3185 70.863 60.3185C70.9807 60.3185 71.0874 60.3504 71.183 60.4142C71.2787 60.478 71.3535 60.5724 71.4074 60.6975C71.4614 60.8201 71.4884 60.9722 71.4884 61.1536C71.4884 61.3965 71.4369 61.6233 71.3339 61.8342C71.2309 62.0476 71.1045 62.2156 70.9549 62.3383C70.8078 62.4633 70.6741 62.5259 70.5539 62.5259C70.4779 62.5259 70.4154 62.5001 70.3663 62.4486C70.3197 62.3996 70.2964 62.3419 70.2964 62.2757C70.2964 62.1752 70.3467 62.0942 70.4472 62.0329C70.7342 61.8735 70.8777 61.6736 70.8777 61.4332Z" fill="#818181"/>
<path d="M75.4248 56.4593V57.9493C75.5524 57.8021 75.6762 57.6856 75.7964 57.5998C75.919 57.514 76.0539 57.4502 76.2011 57.4085C76.3482 57.3644 76.5064 57.3423 76.6757 57.3423C76.9307 57.3423 77.1564 57.3962 77.3526 57.5042C77.5513 57.6121 77.707 57.769 77.8198 57.9751C77.8909 58.0952 77.9388 58.2301 77.9633 58.3797C77.9878 58.5269 78.0001 58.6973 78.0001 58.8911V60.8152C78.0001 61.0163 77.9535 61.1684 77.8603 61.2714C77.7695 61.3744 77.6481 61.4259 77.4961 61.4259C77.165 61.4259 76.9994 61.2223 76.9994 60.8152V59.1192C76.9994 58.7979 76.9516 58.5514 76.8559 58.3797C76.7603 58.2056 76.5788 58.1185 76.3115 58.1185C76.1324 58.1185 75.9705 58.17 75.8258 58.273C75.6836 58.3736 75.5769 58.5122 75.5058 58.6888C75.4518 58.8384 75.4248 59.1045 75.4248 59.4871V60.8152C75.4248 61.0138 75.3795 61.1659 75.2887 61.2714C75.2004 61.3744 75.0766 61.4259 74.9171 61.4259C74.586 61.4259 74.4205 61.2223 74.4205 60.8152V56.4593C74.4205 56.2558 74.4634 56.1037 74.5492 56.0031C74.6375 55.9001 74.7602 55.8486 74.9171 55.8486C75.0766 55.8486 75.2004 55.9001 75.2887 56.0031C75.3795 56.1062 75.4248 56.2582 75.4248 56.4593Z" fill="#818181"/>
<path d="M81.8004 59.6306H79.8359C79.8383 59.8587 79.8837 60.0598 79.972 60.2339C80.0627 60.408 80.1817 60.5393 80.3288 60.6276C80.4785 60.7159 80.6428 60.76 80.8218 60.76C80.942 60.76 81.0511 60.7465 81.1492 60.7195C81.2498 60.6901 81.3467 60.646 81.4399 60.5871C81.5331 60.5258 81.6189 60.4608 81.6974 60.3921C81.7759 60.3234 81.8777 60.2302 82.0028 60.1125C82.0543 60.0684 82.1278 60.0463 82.2235 60.0463C82.3265 60.0463 82.4099 60.0745 82.4737 60.1309C82.5374 60.1873 82.5693 60.267 82.5693 60.37C82.5693 60.4608 82.5337 60.5675 82.4626 60.6901C82.3915 60.8103 82.2836 60.9268 82.1389 61.0396C81.9966 61.15 81.8164 61.2419 81.5981 61.3155C81.3822 61.3891 81.1333 61.4259 80.8513 61.4259C80.2062 61.4259 79.7047 61.2419 79.3466 60.874C78.9885 60.5062 78.8094 60.007 78.8094 59.3767C78.8094 59.08 78.8536 58.8053 78.9419 58.5526C79.0302 58.2976 79.1589 58.0793 79.3282 57.8978C79.4974 57.7163 79.7059 57.5777 79.9536 57.4821C80.2013 57.384 80.476 57.3349 80.7777 57.3349C81.1701 57.3349 81.5061 57.4183 81.7857 57.5851C82.0678 57.7494 82.2787 57.9628 82.4185 58.2252C82.5583 58.4877 82.6282 58.755 82.6282 59.0272C82.6282 59.2798 82.5558 59.4442 82.4111 59.5202C82.2664 59.5938 82.0628 59.6306 81.8004 59.6306ZM79.8359 59.0603H81.6569C81.6324 58.717 81.5392 58.4607 81.3773 58.2914C81.2179 58.1198 81.007 58.0339 80.7446 58.0339C80.4944 58.0339 80.2884 58.121 80.1265 58.2951C79.9671 58.4668 79.8702 58.7219 79.8359 59.0603Z" fill="#818181"/>
<path d="M84.475 59.9764V60.8152C84.475 61.0188 84.4272 61.172 84.3315 61.2751C84.2359 61.3756 84.1145 61.4259 83.9673 61.4259C83.8226 61.4259 83.7036 61.3744 83.6104 61.2714C83.5172 61.1684 83.4706 61.0163 83.4706 60.8152V58.0192C83.4706 57.5679 83.6337 57.3423 83.9599 57.3423C84.1267 57.3423 84.2469 57.395 84.3205 57.5005C84.3941 57.6059 84.4345 57.7617 84.4419 57.9677C84.5621 57.7617 84.6847 57.6059 84.8098 57.5005C84.9373 57.395 85.1065 57.3423 85.3175 57.3423C85.5284 57.3423 85.7332 57.395 85.9318 57.5005C86.1305 57.6059 86.2298 57.7457 86.2298 57.9199C86.2298 58.0425 86.1869 58.1443 86.1011 58.2252C86.0177 58.3037 85.9269 58.3429 85.8288 58.3429C85.7921 58.3429 85.7025 58.3209 85.5603 58.2767C85.4205 58.2301 85.2966 58.2068 85.1887 58.2068C85.0416 58.2068 84.9214 58.2461 84.8282 58.3246C84.735 58.4006 84.6626 58.5146 84.6111 58.6667C84.5596 58.8188 84.524 59.0002 84.5044 59.2112C84.4848 59.4196 84.475 59.6747 84.475 59.9764Z" fill="#818181"/>
<path d="M87.7088 56.4225V57.9567C87.8976 57.7604 88.0902 57.6108 88.2864 57.5078C88.4826 57.4024 88.7254 57.3496 89.0148 57.3496C89.3484 57.3496 89.6402 57.4293 89.8904 57.5888C90.143 57.7457 90.338 57.9751 90.4753 58.2767C90.6151 58.5759 90.685 58.9316 90.685 59.3436C90.685 59.6477 90.6458 59.9273 90.5673 60.1824C90.4913 60.435 90.3797 60.6545 90.2325 60.8409C90.0854 61.0273 89.9063 61.172 89.6954 61.2751C89.4869 61.3756 89.2564 61.4259 89.0038 61.4259C88.8492 61.4259 88.7033 61.4075 88.566 61.3707C88.4311 61.3339 88.3158 61.2861 88.2201 61.2272C88.1245 61.1659 88.0423 61.1034 87.9737 61.0396C87.9074 60.9758 87.8191 60.8802 87.7088 60.7526V60.852C87.7088 61.0408 87.6634 61.1843 87.5727 61.2824C87.4819 61.3781 87.3666 61.4259 87.2268 61.4259C87.0846 61.4259 86.9705 61.3781 86.8847 61.2824C86.8013 61.1843 86.7596 61.0408 86.7596 60.852V56.4667C86.7596 56.2631 86.8001 56.1098 86.881 56.0068C86.9644 55.9014 87.0797 55.8486 87.2268 55.8486C87.3814 55.8486 87.5003 55.8989 87.5837 55.9995C87.6671 56.0976 87.7088 56.2386 87.7088 56.4225ZM87.7566 59.4062C87.7566 59.8059 87.8474 60.1137 88.0288 60.3296C88.2128 60.5429 88.4531 60.6496 88.7499 60.6496C89.0025 60.6496 89.2196 60.5405 89.4011 60.3222C89.585 60.1015 89.677 59.7863 89.677 59.3767C89.677 59.1118 89.639 58.8837 89.563 58.6924C89.4869 58.5011 89.379 58.354 89.2392 58.251C89.0994 58.1455 88.9363 58.0928 88.7499 58.0928C88.5586 58.0928 88.3882 58.1455 88.2385 58.251C88.0889 58.354 87.9712 58.5048 87.8854 58.7035C87.7995 58.8997 87.7566 59.1339 87.7566 59.4062Z" fill="#818181"/>
<path d="M94.7245 60.1125C94.7245 60.3897 94.657 60.6276 94.5221 60.8262C94.3873 61.0224 94.1874 61.172 93.9225 61.2751C93.6601 61.3756 93.34 61.4259 92.9623 61.4259C92.6017 61.4259 92.2927 61.3707 92.0352 61.2603C91.7777 61.15 91.5876 61.0126 91.465 60.8483C91.3423 60.6815 91.281 60.5147 91.281 60.348C91.281 60.2376 91.3203 60.1432 91.3987 60.0647C91.4772 59.9862 91.5766 59.947 91.6967 59.947C91.8022 59.947 91.8831 59.9727 91.9395 60.0242C91.996 60.0757 92.0499 60.1481 92.1014 60.2413C92.2044 60.4203 92.3271 60.554 92.4693 60.6423C92.614 60.7306 92.8102 60.7747 93.0579 60.7747C93.259 60.7747 93.4234 60.7306 93.5509 60.6423C93.6809 60.5515 93.7459 60.4485 93.7459 60.3332C93.7459 60.1567 93.6784 60.0279 93.5436 59.947C93.4111 59.866 93.1916 59.7888 92.885 59.7152C92.5392 59.6293 92.2572 59.5398 92.0389 59.4466C91.823 59.351 91.6501 59.2259 91.5201 59.0714C91.3902 58.9169 91.3252 58.7268 91.3252 58.5011C91.3252 58.3 91.3852 58.1099 91.5054 57.9309C91.6256 57.7519 91.8022 57.6096 92.0352 57.5042C92.2706 57.3962 92.5539 57.3423 92.885 57.3423C93.145 57.3423 93.378 57.3693 93.584 57.4232C93.7925 57.4772 93.9654 57.5495 94.1027 57.6403C94.2425 57.731 94.348 57.8316 94.4191 57.9419C94.4927 58.0523 94.5295 58.1602 94.5295 58.2657C94.5295 58.381 94.4903 58.4754 94.4118 58.549C94.3357 58.6225 94.2266 58.6593 94.0844 58.6593C93.9813 58.6593 93.8931 58.6299 93.8195 58.571C93.7483 58.5122 93.6662 58.4239 93.573 58.3062C93.497 58.2081 93.4074 58.1296 93.3044 58.0707C93.2014 58.0118 93.0616 57.9824 92.885 57.9824C92.7035 57.9824 92.5527 58.0217 92.4325 58.1001C92.3123 58.1762 92.2522 58.2718 92.2522 58.3871C92.2522 58.4926 92.2964 58.5796 92.3847 58.6483C92.473 58.7145 92.5919 58.7697 92.7415 58.8138C92.8912 58.858 93.0972 58.912 93.3596 58.9757C93.6711 59.0518 93.9249 59.1425 94.1211 59.248C94.3198 59.3534 94.4694 59.4785 94.57 59.6232C94.673 59.7655 94.7245 59.9286 94.7245 60.1125Z" fill="#818181"/>
<path d="M98.1054 57.0848C98.1054 56.8567 98.1643 56.6494 98.282 56.463C98.4022 56.2742 98.5775 56.1246 98.8081 56.0142C99.0386 55.9038 99.3097 55.8486 99.6211 55.8486C99.9302 55.8486 100.198 55.9063 100.423 56.0215C100.649 56.1368 100.817 56.2877 100.927 56.4741C101.04 56.6604 101.096 56.8542 101.096 57.0553C101.096 57.33 101.006 57.5691 100.824 57.7727C100.643 57.9763 100.375 58.1835 100.022 58.3945C100.145 58.5392 100.259 58.6753 100.364 58.8028C100.47 58.9303 100.572 59.0493 100.67 59.1597C100.768 59.27 100.857 59.3645 100.938 59.4429C100.975 59.3743 101.031 59.2455 101.107 59.0567C101.186 58.8678 101.258 58.7317 101.324 58.6483C101.393 58.5649 101.489 58.5232 101.611 58.5232C101.727 58.5232 101.828 58.5649 101.917 58.6483C102.005 58.7292 102.049 58.8286 102.049 58.9463C102.049 59.0542 102.011 59.2075 101.935 59.4062C101.859 59.6024 101.749 59.8206 101.604 60.061C101.695 60.1395 101.838 60.2584 102.035 60.4179C102.233 60.5773 102.355 60.6864 102.399 60.7453C102.445 60.8017 102.469 60.8777 102.469 60.9734C102.469 61.1009 102.422 61.2088 102.329 61.2971C102.238 61.383 102.136 61.4259 102.023 61.4259C101.908 61.4259 101.797 61.3891 101.689 61.3155C101.581 61.2419 101.351 61.0617 101.001 60.7747C100.841 60.9243 100.676 61.047 100.504 61.1426C100.335 61.2383 100.152 61.3094 99.9559 61.356C99.7622 61.4026 99.5451 61.4259 99.3047 61.4259C98.9982 61.4259 98.7222 61.3817 98.477 61.2934C98.2342 61.2027 98.0318 61.0813 97.87 60.9292C97.7081 60.7772 97.5879 60.6092 97.5094 60.4252C97.4309 60.2388 97.3917 60.05 97.3917 59.8587C97.3917 59.6747 97.4211 59.5067 97.48 59.3547C97.5389 59.2001 97.621 59.0616 97.7265 58.9389C97.8344 58.8138 97.9656 58.6961 98.1201 58.5858C98.2771 58.4729 98.4586 58.3638 98.6646 58.2583C98.4807 58.0278 98.3409 57.823 98.2452 57.6439C98.152 57.4625 98.1054 57.2761 98.1054 57.0848ZM99.1466 58.847C98.8964 58.9917 98.7088 59.1364 98.5837 59.2811C98.461 59.4258 98.3997 59.5975 98.3997 59.7961C98.3997 59.9089 98.4218 60.0169 98.4659 60.1199C98.5125 60.2229 98.5788 60.3185 98.6646 60.4068C98.7529 60.4951 98.8547 60.5626 98.97 60.6092C99.0852 60.6558 99.2066 60.6791 99.3342 60.6791C99.4593 60.6791 99.5807 60.6594 99.6984 60.6202C99.8161 60.581 99.9277 60.5258 100.033 60.4546C100.139 60.3811 100.248 60.2903 100.361 60.1824C100.142 59.9813 99.9461 59.7826 99.772 59.5864C99.5978 59.3878 99.3894 59.1413 99.1466 58.847ZM99.5218 57.8389C99.772 57.6795 99.9522 57.5458 100.063 57.4379C100.175 57.3276 100.232 57.1951 100.232 57.0406C100.232 56.8885 100.175 56.761 100.063 56.658C99.9522 56.555 99.8124 56.5035 99.6432 56.5035C99.474 56.5035 99.3317 56.5562 99.2165 56.6617C99.1036 56.7671 99.0472 56.891 99.0472 57.0332C99.0472 57.1068 99.0681 57.1865 99.1098 57.2724C99.1539 57.3558 99.2079 57.4392 99.2716 57.5225C99.3354 57.6059 99.4188 57.7114 99.5218 57.8389Z" fill="#818181"/>
<path d="M104.985 57.4306H105.224V57.1289C105.224 56.815 105.263 56.566 105.342 56.3821C105.423 56.1957 105.558 56.0608 105.747 55.9774C105.938 55.8916 106.199 55.8486 106.53 55.8486C107.116 55.8486 107.409 55.9921 107.409 56.2791C107.409 56.3723 107.379 56.452 107.317 56.5182C107.256 56.5844 107.184 56.6175 107.1 56.6175C107.061 56.6175 106.994 56.6102 106.898 56.5955C106.802 56.5807 106.721 56.5734 106.655 56.5734C106.474 56.5734 106.357 56.6273 106.306 56.7353C106.254 56.8407 106.228 56.9928 106.228 57.1914V57.4306H106.475C106.858 57.4306 107.049 57.5458 107.049 57.7764C107.049 57.9407 106.997 58.045 106.894 58.0891C106.794 58.1332 106.654 58.1553 106.475 58.1553H106.228V60.8152C106.228 61.0138 106.181 61.1659 106.085 61.2714C105.992 61.3744 105.87 61.4259 105.721 61.4259C105.579 61.4259 105.46 61.3744 105.364 61.2714C105.271 61.1659 105.224 61.0138 105.224 60.8152V58.1553H104.948C104.799 58.1553 104.683 58.1222 104.602 58.056C104.521 57.9873 104.481 57.899 104.481 57.7911C104.481 57.5507 104.649 57.4306 104.985 57.4306Z" fill="#818181"/>
<path d="M111.232 59.3841C111.232 59.6833 111.185 59.9592 111.092 60.2118C110.999 60.4645 110.864 60.6815 110.687 60.863C110.511 61.0445 110.3 61.1843 110.055 61.2824C109.809 61.3781 109.533 61.4259 109.227 61.4259C108.923 61.4259 108.649 61.3768 108.406 61.2787C108.164 61.1806 107.953 61.0408 107.774 60.8593C107.597 60.6754 107.462 60.4596 107.369 60.2118C107.278 59.9617 107.233 59.6858 107.233 59.3841C107.233 59.08 107.279 58.8016 107.373 58.549C107.466 58.2963 107.6 58.0805 107.774 57.9015C107.948 57.7224 108.159 57.5851 108.406 57.4894C108.654 57.3913 108.928 57.3423 109.227 57.3423C109.531 57.3423 109.807 57.3913 110.055 57.4894C110.302 57.5875 110.514 57.7273 110.691 57.9088C110.868 58.0903 111.001 58.3062 111.092 58.5563C111.185 58.8065 111.232 59.0824 111.232 59.3841ZM110.224 59.3841C110.224 58.9745 110.133 58.6557 109.952 58.4276C109.773 58.1995 109.531 58.0854 109.227 58.0854C109.031 58.0854 108.858 58.1369 108.708 58.2399C108.558 58.3405 108.443 58.4901 108.362 58.6888C108.281 58.8874 108.241 59.1192 108.241 59.3841C108.241 59.6465 108.28 59.8758 108.359 60.072C108.44 60.2683 108.554 60.4191 108.701 60.5245C108.85 60.6276 109.026 60.6791 109.227 60.6791C109.531 60.6791 109.773 60.565 109.952 60.3369C110.133 60.1064 110.224 59.7888 110.224 59.3841Z" fill="#818181"/>
<path d="M115.786 59.3841C115.786 59.6833 115.74 59.9592 115.647 60.2118C115.553 60.4645 115.418 60.6815 115.242 60.863C115.065 61.0445 114.854 61.1843 114.609 61.2824C114.364 61.3781 114.088 61.4259 113.781 61.4259C113.477 61.4259 113.204 61.3768 112.961 61.2787C112.718 61.1806 112.507 61.0408 112.328 60.8593C112.152 60.6754 112.017 60.4596 111.923 60.2118C111.833 59.9617 111.787 59.6858 111.787 59.3841C111.787 59.08 111.834 58.8016 111.927 58.549C112.02 58.2963 112.154 58.0805 112.328 57.9015C112.502 57.7224 112.713 57.5851 112.961 57.4894C113.209 57.3913 113.482 57.3423 113.781 57.3423C114.085 57.3423 114.361 57.3913 114.609 57.4894C114.857 57.5875 115.069 57.7273 115.246 57.9088C115.422 58.0903 115.556 58.3062 115.647 58.5563C115.74 58.8065 115.786 59.0824 115.786 59.3841ZM114.778 59.3841C114.778 58.9745 114.688 58.6557 114.506 58.4276C114.327 58.1995 114.085 58.0854 113.781 58.0854C113.585 58.0854 113.412 58.1369 113.263 58.2399C113.113 58.3405 112.998 58.4901 112.917 58.6888C112.836 58.8874 112.795 59.1192 112.795 59.3841C112.795 59.6465 112.835 59.8758 112.913 60.072C112.994 60.2683 113.108 60.4191 113.255 60.5245C113.405 60.6276 113.58 60.6791 113.781 60.6791C114.085 60.6791 114.327 60.565 114.506 60.3369C114.688 60.1064 114.778 59.7888 114.778 59.3841Z" fill="#818181"/>
<path d="M119.333 60.852V60.7526C119.198 60.9072 119.064 61.0335 118.932 61.1316C118.802 61.2272 118.66 61.2996 118.505 61.3486C118.353 61.4001 118.186 61.4259 118.005 61.4259C117.764 61.4259 117.541 61.3756 117.335 61.2751C117.132 61.172 116.955 61.0261 116.805 60.8373C116.656 60.6484 116.542 60.4264 116.463 60.1714C116.387 59.9163 116.349 59.6404 116.349 59.3436C116.349 58.7157 116.503 58.2264 116.809 57.8757C117.116 57.525 117.519 57.3496 118.019 57.3496C118.309 57.3496 118.553 57.3999 118.752 57.5005C118.95 57.5986 119.144 57.7506 119.333 57.9567V56.4741C119.333 56.268 119.373 56.1123 119.454 56.0068C119.538 55.9014 119.655 55.8486 119.807 55.8486C119.959 55.8486 120.076 55.8977 120.157 55.9958C120.24 56.0914 120.282 56.2337 120.282 56.4225V60.852C120.282 61.0433 120.238 61.1868 120.15 61.2824C120.061 61.3781 119.947 61.4259 119.807 61.4259C119.67 61.4259 119.556 61.3768 119.465 61.2787C119.377 61.1782 119.333 61.0359 119.333 60.852ZM117.357 59.3767C117.357 59.649 117.399 59.8807 117.482 60.072C117.568 60.2633 117.685 60.4081 117.832 60.5062C117.979 60.6018 118.14 60.6496 118.314 60.6496C118.49 60.6496 118.651 60.6043 118.796 60.5135C118.943 60.4203 119.059 60.2793 119.145 60.0904C119.233 59.8991 119.278 59.6612 119.278 59.3767C119.278 59.1094 119.233 58.8801 119.145 58.6888C119.059 58.495 118.942 58.3479 118.792 58.2473C118.645 58.1443 118.483 58.0928 118.306 58.0928C118.122 58.0928 117.958 58.1455 117.813 58.251C117.669 58.354 117.556 58.5036 117.475 58.6998C117.396 58.8936 117.357 59.1192 117.357 59.3767Z" fill="#818181"/>
<path d="M124.524 60.1125C124.524 60.3897 124.456 60.6276 124.321 60.8262C124.187 61.0224 123.987 61.172 123.722 61.2751C123.459 61.3756 123.139 61.4259 122.762 61.4259C122.401 61.4259 122.092 61.3707 121.834 61.2603C121.577 61.15 121.387 61.0126 121.264 60.8483C121.142 60.6815 121.08 60.5147 121.08 60.348C121.08 60.2376 121.12 60.1432 121.198 60.0647C121.277 59.9862 121.376 59.947 121.496 59.947C121.602 59.947 121.682 59.9727 121.739 60.0242C121.795 60.0757 121.849 60.1481 121.901 60.2413C122.004 60.4203 122.126 60.554 122.269 60.6423C122.413 60.7306 122.61 60.7747 122.857 60.7747C123.058 60.7747 123.223 60.7306 123.35 60.6423C123.48 60.5515 123.545 60.4485 123.545 60.3332C123.545 60.1567 123.478 60.0279 123.343 59.947C123.21 59.866 122.991 59.7888 122.684 59.7152C122.339 59.6293 122.056 59.5398 121.838 59.4466C121.622 59.351 121.449 59.2259 121.319 59.0714C121.189 58.9169 121.124 58.7268 121.124 58.5011C121.124 58.3 121.185 58.1099 121.305 57.9309C121.425 57.7519 121.601 57.6096 121.834 57.5042C122.07 57.3962 122.353 57.3423 122.684 57.3423C122.944 57.3423 123.177 57.3693 123.383 57.4232C123.592 57.4772 123.765 57.5495 123.902 57.6403C124.042 57.731 124.147 57.8316 124.218 57.9419C124.292 58.0523 124.329 58.1602 124.329 58.2657C124.329 58.381 124.29 58.4754 124.211 58.549C124.135 58.6225 124.026 58.6593 123.884 58.6593C123.781 58.6593 123.692 58.6299 123.619 58.571C123.548 58.5122 123.465 58.4239 123.372 58.3062C123.296 58.2081 123.207 58.1296 123.104 58.0707C123.001 58.0118 122.861 57.9824 122.684 57.9824C122.503 57.9824 122.352 58.0217 122.232 58.1001C122.112 58.1762 122.052 58.2718 122.052 58.3871C122.052 58.4926 122.096 58.5796 122.184 58.6483C122.272 58.7145 122.391 58.7697 122.541 58.8138C122.69 58.858 122.896 58.912 123.159 58.9757C123.47 59.0518 123.724 59.1425 123.92 59.248C124.119 59.3534 124.269 59.4785 124.369 59.6232C124.472 59.7655 124.524 59.9286 124.524 60.1125Z" fill="#818181"/>
</svg>
