<svg width="48" height="48" viewBox="0 0 48 48" fill="none" xmlns="http://www.w3.org/2000/svg">
<path d="M32.9833 15.0176C35.0038 17.0361 36.8723 19.1216 38.5508 21.2131C43.5023 14.0556 45.4288 7.69366 42.8663 5.13368C40.3038 2.57119 33.9403 4.49868 26.7798 9.45366C28.8618 11.1206 30.9483 12.9811 32.9833 15.0176Z" fill="#1A1A1A"/>
<path d="M15.0184 32.9846C12.9979 30.9656 11.1279 28.8806 9.44741 26.7871C4.49693 33.9441 2.57144 40.306 5.13393 42.8665C7.69591 45.429 14.0609 43.5015 21.2204 38.5466C19.1384 36.8796 17.0529 35.0211 15.0184 32.9846Z" fill="#1A1A1A"/>
<path d="M36.0939 24C34.4319 21.8715 32.5362 19.7091 30.4139 17.5869C28.2912 15.4627 26.1284 13.5675 24.0008 11.907C21.8704 13.5675 19.7084 15.4632 17.5848 17.5869C15.4635 19.7091 13.5668 21.8715 11.9058 24C13.5683 26.1286 15.464 28.2919 17.5877 30.4146C19.7084 32.5373 21.8723 34.4331 24.0008 36.0931C26.1284 34.4326 28.2893 32.5368 30.412 30.4146C32.5367 28.2919 34.4324 26.1286 36.0939 24Z" fill="#1A1A1A"/>
<path d="M15.015 15.0179C17.0515 12.9814 19.1385 11.1209 21.2205 9.45341C14.059 4.49844 7.69451 2.57094 5.13403 5.13343C2.57154 7.69392 4.49553 14.0554 9.44751 21.2129C11.128 19.1219 12.997 17.0364 15.015 15.0179Z" fill="#1A1A1A"/>
<path d="M32.9818 32.9844C30.9468 35.0209 28.8618 36.8794 26.7798 38.5469C33.9388 43.5014 40.3038 45.4294 42.8663 42.8669C45.4288 40.3049 43.5023 33.9444 38.5508 26.7875C36.8703 28.8805 35.0023 30.9655 32.9818 32.9844Z" fill="#1A1A1A"/>
</svg>
